<?xml version="1.0" encoding="utf-8"?>
<!-- Generator: Adobe Illustrator 24.2.1, SVG Export Plug-In . SVG Version: 6.00 Build 0)  -->
<svg version="1.1" id="Layer_1" xmlns="http://www.w3.org/2000/svg" xmlns:xlink="http://www.w3.org/1999/xlink" x="0px" y="0px"
	 viewBox="0 0 468 439" style="enable-background:new 0 0 468 439;" xml:space="preserve">
<style type="text/css">
	.st0{fill:#E8EBE9;}
	.st1{enable-background:new    ;}
	.st2{fill:#A7C738;}
	.st3{fill:#FFFFFF;}
</style>
<g>
	<path class="st0" d="M430.9,0.7H37.2c-18.5,0-33.6,15-33.6,33.6V89v257.2V401c0,18.6,15.1,33.6,33.6,33.6h393.6
		c18.6,0,33.6-15.1,33.6-33.6v-54.7V89V34.3C464.5,15.7,449.4,0.7,430.9,0.7z"/>
	<g class="st1">
		<path class="st2" d="M77.5,317.1c0-4.6,1-8.2,3.1-11c2.1-2.7,4.9-4.1,8.5-4.1c2.9,0,5.2,1.1,7.1,3.2v-15h7.9V332h-7.1l-0.4-3.1
			c-2,2.5-4.5,3.7-7.6,3.7c-3.5,0-6.2-1.4-8.3-4.1S77.5,321.9,77.5,317.1z M85.3,317.7c0,2.8,0.5,4.9,1.4,6.4c1,1.5,2.4,2.2,4.2,2.2
			c2.4,0,4.1-1,5.1-3.1v-11.6c-1-2.1-2.7-3.1-5.1-3.1C87.2,308.4,85.3,311.5,85.3,317.7z"/>
		<path class="st2" d="M125.6,332.6c-4.3,0-7.8-1.3-10.5-4c-2.7-2.6-4.1-6.2-4.1-10.6v-0.8c0-3,0.6-5.6,1.7-7.9s2.8-4.1,4.9-5.4
			s4.5-1.9,7.2-1.9c4,0,7.2,1.3,9.5,3.8s3.5,6.1,3.5,10.8v3.2H119c0.3,1.9,1,3.5,2.3,4.6c1.3,1.2,2.9,1.7,4.9,1.7
			c3,0,5.4-1.1,7.1-3.3l3.9,4.3c-1.2,1.7-2.8,3-4.8,3.9S128.1,332.6,125.6,332.6z M124.7,308.4c-1.6,0-2.8,0.5-3.8,1.6
			s-1.6,2.6-1.9,4.5H130v-0.6c0-1.8-0.5-3.1-1.4-4.1S126.4,308.4,124.7,308.4z"/>
		<path class="st2" d="M156.4,326.2c1.5,0,2.6-0.4,3.5-1.2c0.9-0.8,1.4-1.9,1.4-3.2h7.4c0,2-0.6,3.8-1.6,5.5
			c-1.1,1.7-2.5,2.9-4.4,3.9c-1.9,0.9-3.9,1.4-6.2,1.4c-4.2,0-7.5-1.3-10-4c-2.4-2.7-3.6-6.4-3.6-11.1v-0.5c0-4.5,1.2-8.2,3.6-10.9
			c2.4-2.7,5.7-4.1,9.9-4.1c3.7,0,6.6,1,8.9,3.1s3.4,4.9,3.4,8.4h-7.4c0-1.5-0.5-2.8-1.4-3.7c-0.9-1-2.1-1.4-3.6-1.4
			c-1.8,0-3.2,0.7-4.2,2c-0.9,1.3-1.4,3.5-1.4,6.5v0.8c0,3,0.5,5.2,1.4,6.5S154.5,326.2,156.4,326.2z"/>
		<path class="st2" d="M183.5,332h-7.9v-41.8h7.9V332z"/>
		<path class="st2" d="M209,332c-0.4-0.7-0.6-1.6-0.8-2.6c-1.9,2.1-4.4,3.2-7.4,3.2c-2.9,0-5.3-0.8-7.2-2.5s-2.8-3.8-2.8-6.3
			c0-3.1,1.2-5.5,3.5-7.2c2.3-1.7,5.7-2.5,10-2.5h3.6v-1.7c0-1.4-0.3-2.5-1-3.3c-0.7-0.8-1.8-1.2-3.3-1.2c-1.3,0-2.4,0.3-3.1,1
			c-0.8,0.6-1.1,1.5-1.1,2.6h-7.9c0-1.7,0.5-3.3,1.6-4.7c1.1-1.5,2.5-2.6,4.5-3.4c1.9-0.8,4.1-1.2,6.5-1.2c3.6,0,6.5,0.9,8.6,2.7
			s3.2,4.4,3.2,7.7v12.8c0,2.8,0.4,4.9,1.2,6.3v0.5H209z M202.5,326.5c1.2,0,2.2-0.3,3.2-0.8c1-0.5,1.7-1.2,2.2-2.1v-5.1h-2.9
			c-3.9,0-6,1.4-6.3,4.1l0,0.5c0,1,0.3,1.8,1,2.4C200.3,326.2,201.3,326.5,202.5,326.5z"/>
		<path class="st2" d="M240.3,309.9c-1.1-0.1-2-0.2-2.8-0.2c-3,0-4.9,1-5.9,3V332h-7.9v-29.5h7.4l0.2,3.5c1.6-2.7,3.8-4.1,6.6-4.1
			c0.9,0,1.7,0.1,2.5,0.4L240.3,309.9z"/>
		<path class="st2" d="M262.3,332c-0.4-0.7-0.6-1.6-0.8-2.6c-1.9,2.1-4.4,3.2-7.4,3.2c-2.9,0-5.3-0.8-7.2-2.5s-2.8-3.8-2.8-6.3
			c0-3.1,1.2-5.5,3.5-7.2c2.3-1.7,5.7-2.5,10-2.5h3.6v-1.7c0-1.4-0.3-2.5-1-3.3c-0.7-0.8-1.8-1.2-3.3-1.2c-1.3,0-2.4,0.3-3.1,1
			c-0.8,0.6-1.1,1.5-1.1,2.6h-7.9c0-1.7,0.5-3.3,1.6-4.7c1.1-1.5,2.5-2.6,4.5-3.4c1.9-0.8,4.1-1.2,6.5-1.2c3.6,0,6.5,0.9,8.6,2.7
			s3.2,4.4,3.2,7.7v12.8c0,2.8,0.4,4.9,1.2,6.3v0.5H262.3z M255.8,326.5c1.2,0,2.2-0.3,3.2-0.8c1-0.5,1.7-1.2,2.2-2.1v-5.1h-2.9
			c-3.9,0-6,1.4-6.3,4.1l0,0.5c0,1,0.3,1.8,1,2.4C253.6,326.2,254.6,326.5,255.8,326.5z"/>
		<path class="st2" d="M289.3,326.2c1.5,0,2.6-0.4,3.5-1.2c0.9-0.8,1.4-1.9,1.4-3.2h7.4c0,2-0.6,3.8-1.6,5.5
			c-1.1,1.7-2.5,2.9-4.4,3.9c-1.9,0.9-3.9,1.4-6.2,1.4c-4.2,0-7.5-1.3-10-4c-2.4-2.7-3.6-6.4-3.6-11.1v-0.5c0-4.5,1.2-8.2,3.6-10.9
			c2.4-2.7,5.7-4.1,9.9-4.1c3.7,0,6.6,1,8.9,3.1s3.4,4.9,3.4,8.4h-7.4c0-1.5-0.5-2.8-1.4-3.7c-0.9-1-2.1-1.4-3.6-1.4
			c-1.8,0-3.2,0.7-4.2,2c-0.9,1.3-1.4,3.5-1.4,6.5v0.8c0,3,0.5,5.2,1.4,6.5S287.4,326.2,289.3,326.2z"/>
		<path class="st2" d="M308,294.9c0-1.2,0.4-2.2,1.2-2.9c0.8-0.8,1.9-1.1,3.2-1.1c1.3,0,2.4,0.4,3.2,1.1c0.8,0.8,1.2,1.7,1.2,2.9
			c0,1.2-0.4,2.2-1.2,2.9c-0.8,0.8-1.9,1.1-3.2,1.1s-2.4-0.4-3.2-1.1C308.4,297.1,308,296.1,308,294.9z M316.4,332h-7.9v-29.5h7.9
			V332z"/>
		<path class="st2" d="M323.6,317c0-2.9,0.6-5.5,1.7-7.8c1.1-2.3,2.7-4.1,4.9-5.3c2.1-1.3,4.6-1.9,7.4-1.9c4,0,7.2,1.2,9.7,3.6
			s3.9,5.7,4.2,9.9l0.1,2c0,4.5-1.3,8.1-3.8,10.9c-2.5,2.7-5.9,4.1-10.2,4.1s-7.6-1.4-10.2-4.1s-3.8-6.4-3.8-11.1V317z M331.5,317.6
			c0,2.8,0.5,4.9,1.6,6.4s2.6,2.2,4.5,2.2c1.9,0,3.4-0.7,4.5-2.2c1.1-1.5,1.6-3.8,1.6-7c0-2.7-0.5-4.9-1.6-6.4
			c-1.1-1.5-2.6-2.3-4.5-2.3c-1.9,0-3.4,0.8-4.5,2.2C332,312.1,331.5,314.4,331.5,317.6z M339.1,290.2h8.6l-7.5,8.4h-6.4
			L339.1,290.2z"/>
		<path class="st2" d="M365.5,302.6l0.2,3.4c2.1-2.6,4.9-3.9,8.5-3.9c3.1,0,5.4,0.9,7,2.8s2.3,4.6,2.3,8.2v19h-7.9v-18.8
			c0-1.7-0.4-2.9-1.1-3.6s-1.9-1.1-3.6-1.1c-2.2,0-3.9,0.9-5,2.8V332h-7.9v-29.5H365.5z"/>
	</g>
	<g class="st1">
		<path class="st2" d="M160,353.2v31.1c0,3.2-0.9,5.8-2.6,7.6s-4.2,2.7-7.5,2.7c-1.4,0-2.7-0.2-3.9-0.5v-6.2
			c0.9,0.2,1.8,0.2,2.5,0.2c2.4,0,3.6-1.3,3.6-3.8v-31.1H160z M151.5,345.5c0-1.2,0.4-2.2,1.2-2.9c0.8-0.8,1.9-1.1,3.2-1.1
			s2.4,0.4,3.2,1.1c0.8,0.8,1.2,1.7,1.2,2.9c0,1.2-0.4,2.2-1.2,2.9c-0.8,0.8-1.9,1.1-3.2,1.1c-1.3,0-2.4-0.4-3.2-1.1
			C151.9,347.7,151.5,346.7,151.5,345.5z"/>
		<path class="st2" d="M185.8,379.6c-1.9,2.4-4.6,3.5-8.1,3.5c-3.2,0-5.6-0.9-7.2-2.7c-1.7-1.8-2.5-4.5-2.5-8v-19.3h7.9v19.1
			c0,3.1,1.4,4.6,4.2,4.6c2.7,0,4.5-0.9,5.5-2.8v-20.9h7.9v29.5H186L185.8,379.6z"/>
		<path class="st2" d="M217.8,360.5c-1.1-0.1-2-0.2-2.8-0.2c-3,0-4.9,1-5.9,3v19.3h-7.9v-29.5h7.4l0.2,3.5c1.6-2.7,3.8-4.1,6.6-4.1
			c0.9,0,1.7,0.1,2.5,0.4L217.8,360.5z"/>
		<path class="st2" d="M239.8,382.6c-0.4-0.7-0.6-1.6-0.8-2.6c-1.9,2.1-4.4,3.2-7.4,3.2c-2.9,0-5.3-0.8-7.2-2.5s-2.8-3.8-2.8-6.3
			c0-3.1,1.2-5.5,3.5-7.2c2.3-1.7,5.7-2.5,10-2.5h3.6v-1.7c0-1.4-0.3-2.5-1-3.3c-0.7-0.8-1.8-1.2-3.3-1.2c-1.3,0-2.4,0.3-3.1,1
			c-0.8,0.6-1.1,1.5-1.1,2.6h-7.9c0-1.7,0.5-3.3,1.6-4.7c1.1-1.5,2.5-2.6,4.5-3.4c1.9-0.8,4.1-1.2,6.5-1.2c3.6,0,6.5,0.9,8.6,2.7
			s3.2,4.4,3.2,7.7v12.8c0,2.8,0.4,4.9,1.2,6.3v0.5H239.8z M233.3,377.1c1.2,0,2.2-0.3,3.2-0.8c1-0.5,1.7-1.2,2.2-2.1v-5.1h-2.9
			c-3.9,0-6,1.4-6.3,4.1l0,0.5c0,1,0.3,1.8,1,2.4C231.2,376.8,232.1,377.1,233.3,377.1z"/>
		<path class="st2" d="M253.4,367.7c0-4.6,1-8.2,3.1-11c2.1-2.7,4.9-4.1,8.5-4.1c2.9,0,5.2,1.1,7.1,3.2v-15h7.9v41.8h-7.1l-0.4-3.1
			c-2,2.5-4.5,3.7-7.6,3.7c-3.5,0-6.2-1.4-8.3-4.1S253.4,372.5,253.4,367.7z M261.2,368.3c0,2.8,0.5,4.9,1.4,6.4
			c1,1.5,2.4,2.2,4.2,2.2c2.4,0,4.1-1,5.1-3.1v-11.6c-1-2.1-2.7-3.1-5.1-3.1C263.1,359,261.2,362.1,261.2,368.3z"/>
		<path class="st2" d="M305,382.6c-0.4-0.7-0.6-1.6-0.8-2.6c-1.9,2.1-4.4,3.2-7.4,3.2c-2.9,0-5.3-0.8-7.2-2.5s-2.8-3.8-2.8-6.3
			c0-3.1,1.2-5.5,3.5-7.2c2.3-1.7,5.7-2.5,10-2.5h3.6v-1.7c0-1.4-0.3-2.5-1-3.3c-0.7-0.8-1.8-1.2-3.3-1.2c-1.3,0-2.4,0.3-3.1,1
			c-0.8,0.6-1.1,1.5-1.1,2.6h-7.9c0-1.7,0.5-3.3,1.6-4.7c1.1-1.5,2.5-2.6,4.5-3.4c1.9-0.8,4.1-1.2,6.5-1.2c3.6,0,6.5,0.9,8.6,2.7
			s3.2,4.4,3.2,7.7v12.8c0,2.8,0.4,4.9,1.2,6.3v0.5H305z M298.5,377.1c1.2,0,2.2-0.3,3.2-0.8c1-0.5,1.7-1.2,2.2-2.1v-5.1H301
			c-3.9,0-6,1.4-6.3,4.1l0,0.5c0,1,0.3,1.8,1,2.4C296.4,376.8,297.3,377.1,298.5,377.1z"/>
	</g>
</g>
<path class="st2" d="M329.5,276.8h-191c-13,0-23.6-10.6-23.6-23.6V89.9c0-13,10.6-23.6,23.6-23.6h190.9c13,0,23.6,10.6,23.6,23.6
	v163.3C353,266.2,342.5,276.8,329.5,276.8z"/>
<g>
	<g>
		<path class="st3" d="M264.6,217.2c-0.4,0.3-0.7,0.6-1.1,0.9c-0.3,0.2-0.6,0.5-0.9,0.8c-6.6,6-14.5,6.6-20.6,6.6
			c-1.3,0-2.7-0.4-4.2-1.1c-2-0.9-4.1-2.6-4.3-5.7c-0.8,0.6-1.5,1.1-2.3,1.7c-1.8,1.4-3.6,2.7-5.5,4.1c-1.3,0.9-2.9,1.7-4.5,2.3
			c-0.7,0.3-1.5,0.4-2.2,0.4c-1,0-2-0.3-2.8-0.9c-1.4-1-2.2-2.7-2.2-4.7c0-3,1.3-5.4,2.7-7.6c0.4-0.6,0.8-1.2,1.2-1.8
			c-2,1.3-3.9,2.8-5.9,4.3c-0.7,0.6-1.5,1.1-2.2,1.7c-2.9,2.1-6.1,4.2-9.4,6.2c-2,1.2-4.3,1.3-5.5,1.2c-1.7-0.1-3.2-0.8-4.2-2
			c-1-1.4-1.4-3.2-0.9-5.2c1.3-5.6,8.7-11.9,14.3-12.3c0.8-0.1,1.5,0.2,2,0.3c0.1,0,0.2,0.1,0.2,0.1l3,0.8l-1.4,2.8
			c0,0.1-0.1,0.1-0.1,0.2c-0.1,0.2-0.2,0.5-0.4,0.8c0.4-0.3,0.8-0.5,1.2-0.8c3.5-2.4,7.1-4.8,10.8-7.1c1.5-1,3.5-1.6,5.9-2
			c1.7-0.3,3.2,0.3,4.2,1.4c0.9,1.2,1.1,2.9,0.4,4.5c-0.6,1.4-1.3,2.6-2,3.8c-0.2,0.3-0.4,0.6-0.5,0.9c-0.6,1.1-1.2,2.1-1.8,3.2
			c-0.4,0.7-0.8,1.4-1.3,2.2c0,0,0,0,0.1,0c1.1-0.9,2.2-1.8,3.3-2.7c1.7-1.3,3.4-2.7,5.1-4c1.1-0.8,2.5-1.4,4.4-1.8
			c2.4-0.5,3.7,0.4,4.4,1.1c0.6,0.6,1.6,2.1,1,4.5c-0.1,0.5-0.3,1-0.4,1.5c-0.1,0.2-0.1,0.4-0.2,0.5c-0.1,0.4-0.1,0.7,0,0.8
			c0,0,0.1,0.1,0.2,0.1c1.7,0.5,3.1,0.7,4.3,0.5c2.8-0.4,5.7-1,8.5-1.7l0.3-0.1c0.3-1.4,0.6-2.8,0.9-4.1c0.7-3.1,1.3-6.2,2.4-9.3
			c1-2.9,2.4-5.5,3.8-8c0.4-0.8,0.8-1.5,1.3-2.3c2.6-4.8,5.2-9.7,7.7-14.4l2.2-4c0.2-0.4,0.5-0.8,0.7-1.1v-33.3l0,0c0-0.3,0-0.7,0-1
			c0-1.2-0.3-2-1.2-2.9c-7.8-7.8-15.6-15.6-23.4-23.4c-0.8-0.8-1.7-1-2.7-1c-22.4,0-44.9,0-67.3,0c-4.4,0-6.8,2.5-6.8,6.9
			c0,38.7,0,77.4,0,116.1c0,4.4,2.5,6.8,6.9,6.8c29.2,0,58.4,0,87.7,0c0.3,0,0.5,0,0.8,0h1.1l0.2-0.2c2.2-0.5,3.7-1.8,4.3-3.9
			l0.4-0.4v-29.6C271.3,210.8,267.8,214.3,264.6,217.2z"/>
		<path class="st3" d="M198.8,216.8c1.2-0.8,2.4-1.6,3.6-2.4c0.4-0.3,0.9-0.6,1.3-0.9l0,0C201.6,213.9,200.1,215,198.8,216.8z"/>
		<path class="st3" d="M261.1,212.1c0.3-0.1,0.5-0.6,0.6-0.9c0.7-3.1,1.2-6.2,2.2-9.2c0.8-2.4,2.2-4.5,3.3-6.7
			c2.2-4.2,4.5-8.3,6.7-12.4c0.2-0.4,0.5-0.7,0.7-1.2c2.2,1.2,4.4,2.4,6.7,3.6c-1.4,2.6-2.8,5.1-4.2,7.7c-1.6,3-3.3,5.9-4.8,8.9
			c-1.7,3.3-4.2,5.9-7,8.4c-0.4,0.4-0.9,0.7-1.3,1.1l-3.8,1.8L261.1,212.1z"/>
		<path class="st3" d="M282.8,182.7c-2.3-1.2-4.5-2.4-6.7-3.6c1-1.9,2-3.7,3-5.6c2.8-5.2,5.6-10.4,8.5-15.6c0.8-1.5,1.2-1.7,2.9-1
			c0.5-0.9,1-1.9,1.6-2.9c0.4-0.7,1-1,1.8-0.8s1.1,0.8,1.1,1.5c0,0.3-0.2,0.7-0.3,1c-0.5,0.9-0.9,1.7-1.4,2.6
			c0.1,0.1,0.1,0.2,0.1,0.2c1.8,1.1,1.9,1.5,0.8,3.3c-0.7,1.2-0.9,2.1-0.2,3.5c1.8,3.4,1.8,6.9-0.2,10.4c-2.3,4-4.4,8.1-6.6,12.2
			c-0.4,0.8-1,1.2-1.8,1c-0.7-0.1-1.1-0.6-1.1-1.3c0-0.4,0.2-0.9,0.4-1.3c2.3-4.3,4.6-8.6,7-12.9c0.9-1.6,1-4.3-0.2-6.4
			C288.5,172.2,285.7,177.4,282.8,182.7z"/>
	</g>
	<g>
		<path class="st2" d="M190.7,145.6c0.4,0.1,0.9,0.1,1.3,0.1c20.8,0,41.7,0,62.5,0c0.6,0,1.1,0,1.7-0.1c1-0.2,1.6-1.4,1.7-3.1
			c0.1-1.8-0.5-3-1.6-3.4c-0.4-0.2-0.9-0.1-1.3-0.1c-10.5,0-20.9,0-31.4,0s-21.1,0-31.6,0c-0.4,0-0.8-0.1-1.2,0
			c-1.1,0.2-1.8,1.6-1.8,3.4C189,144.2,189.5,145.3,190.7,145.6z"/>
		<path class="st2" d="M190.7,162.3c0.4,0.1,0.9,0.1,1.3,0.1c20.8,0,41.7,0,62.5,0c0.6,0,1.1,0,1.7-0.1c1-0.2,1.6-1.4,1.7-3.1
			c0.1-1.8-0.5-3-1.6-3.4c-0.4-0.2-0.9-0.1-1.3-0.1c-10.5,0-20.9,0-31.4,0s-21.1,0-31.6,0c-0.4,0-0.8-0.1-1.2,0
			c-1.1,0.2-1.8,1.6-1.8,3.4C189,160.9,189.5,162,190.7,162.3z"/>
		<path class="st2" d="M190.7,178.2c0.4,0.1,0.9,0.1,1.3,0.1c20.8,0,41.7,0,62.5,0c0.6,0,1.1,0,1.7-0.1c1-0.2,1.6-1.4,1.7-3.1
			c0.1-1.8-0.5-3-1.6-3.4c-0.4-0.2-0.9-0.1-1.3-0.1c-10.5,0-20.9,0-31.4,0s-21.1,0-31.6,0c-0.4,0-0.8-0.1-1.2,0
			c-1.1,0.2-1.8,1.6-1.8,3.4C189,176.8,189.5,177.9,190.7,178.2z"/>
	</g>
</g>
</svg>
