<?xml version="1.0" encoding="utf-8"?>
<!-- Generator: Adobe Illustrator 24.2.1, SVG Export Plug-In . SVG Version: 6.00 Build 0)  -->
<svg version="1.1" id="Capa_1" xmlns="http://www.w3.org/2000/svg" xmlns:xlink="http://www.w3.org/1999/xlink" x="0px" y="0px"
	 viewBox="0 0 460.9 433.9" style="enable-background:new 0 0 460.9 433.9;" xml:space="preserve">
<style type="text/css">
	.st0{fill:#E9ECEA;}
	.st1{fill:#00B4C3;}
	.st2{fill:#FFFFFF;}
	.st3{fill:#EF4853;}
	.st4{fill:#A8C838;}
	.st5{fill:#F9A048;}
</style>
<g>
	<path class="st0" d="M427.2-0.3H33.6C15.1-0.3,0,14.7,0,33.3V88v257.2V400c0,18.6,15.1,33.6,33.6,33.6h393.6
		c18.6,0,33.6-15.1,33.6-33.6v-54.7V88V33.3C460.9,14.7,445.8-0.3,427.2-0.3z"/>
	<path class="st1" d="M325.2,271.8H134.3c-13,0-23.6-10.6-23.6-23.6V84.9c0-13,10.6-23.6,23.6-23.6h190.9c13,0,23.6,10.6,23.6,23.6
		v163.3C348.8,261.2,338.3,271.8,325.2,271.8z"/>
	<g>
		<path class="st1" d="M163.9,305c0,1.7-0.3,3.2-0.8,4.5c-0.5,1.3-1.3,2.4-2.3,3.2c-1,0.9-2.3,1.5-3.8,1.9c-1.5,0.4-3.3,0.7-5.4,0.7
			h-2.9v8.8c0,0.2-0.1,0.3-0.2,0.5c-0.1,0.1-0.3,0.2-0.6,0.3c-0.3,0.1-0.6,0.1-1.1,0.2c-0.5,0-1,0.1-1.7,0.1c-0.7,0-1.3,0-1.7-0.1
			c-0.5,0-0.8-0.1-1.1-0.2c-0.3-0.1-0.4-0.2-0.6-0.3c-0.1-0.1-0.2-0.3-0.2-0.5v-25.8c0-0.7,0.2-1.3,0.6-1.7c0.4-0.4,1-0.6,1.7-0.6
			h8.2c0.7,0,1.4,0,2.1,0.1c0.7,0.1,1.4,0.1,2,0.3c1.2,0.2,2.3,0.5,3.2,1c0.9,0.5,1.7,1.1,2.4,1.8c0.7,0.7,1.2,1.6,1.5,2.5
			C163.7,302.7,163.9,303.8,163.9,305z M156.5,305.5c0-1-0.2-1.9-0.7-2.6c-0.4-0.7-1.1-1.2-1.9-1.5c-0.3-0.1-0.7-0.2-1.1-0.2
			c-0.4,0-0.8-0.1-1.3-0.1h-2.9v9h3.2c0.9,0,1.7-0.1,2.2-0.4c0.5-0.2,1-0.6,1.4-1s0.6-0.9,0.8-1.5
			C156.4,306.9,156.5,306.2,156.5,305.5z"/>
		<path class="st1" d="M195.2,324.5c0,0.1-0.1,0.2-0.2,0.3c-0.1,0.1-0.3,0.2-0.6,0.2c-0.3,0-0.7,0.1-1.2,0.1c-0.5,0-1.2,0-2,0
			c-0.8,0-1.4,0-1.9-0.1c-0.5,0-0.9-0.1-1.1-0.2c-0.3-0.1-0.5-0.2-0.6-0.4c-0.1-0.1-0.2-0.3-0.3-0.5l-2.1-6.2
			c-0.3-0.7-0.5-1.3-0.8-1.9c-0.3-0.5-0.6-0.9-0.9-1.3s-0.7-0.6-1.1-0.8c-0.4-0.2-1-0.2-1.6-0.2h-2v10.5c0,0.2-0.1,0.3-0.2,0.5
			c-0.1,0.1-0.3,0.2-0.6,0.3c-0.3,0.1-0.6,0.1-1.1,0.2c-0.5,0-1,0.1-1.7,0.1c-0.7,0-1.3,0-1.7-0.1c-0.5,0-0.8-0.1-1.1-0.2
			c-0.3-0.1-0.4-0.2-0.6-0.3c-0.1-0.1-0.2-0.3-0.2-0.5v-26.1c0-0.7,0.2-1.2,0.6-1.5c0.4-0.3,0.8-0.5,1.4-0.5h9.3
			c1.8,0,3.4,0.2,4.7,0.5c1.3,0.3,2.4,0.8,3.4,1.4s1.7,1.5,2.2,2.5s0.8,2.2,0.8,3.6c0,1-0.1,1.9-0.4,2.7c-0.2,0.8-0.6,1.5-1.1,2.2
			c-0.5,0.6-1.1,1.2-1.8,1.7c-0.7,0.5-1.5,0.9-2.5,1.2c0.5,0.2,0.9,0.4,1.3,0.7c0.4,0.3,0.7,0.6,1.1,1c0.3,0.4,0.7,0.9,1,1.4
			c0.3,0.6,0.6,1.2,0.9,1.9l2.3,5.9c0.2,0.5,0.3,0.9,0.4,1.2C195.2,324.1,195.2,324.4,195.2,324.5z M186.6,304.8
			c0-0.5-0.1-1-0.2-1.4c-0.2-0.4-0.4-0.8-0.7-1.1c-0.3-0.3-0.8-0.6-1.3-0.7c-0.5-0.2-1.3-0.3-2.3-0.3h-3.2v7.5h3
			c0.9,0,1.7-0.1,2.2-0.3c0.6-0.2,1-0.4,1.4-0.8c0.4-0.3,0.7-0.7,0.9-1.2C186.5,306,186.6,305.4,186.6,304.8z"/>
		<path class="st1" d="M228.1,313.7c0,2.1-0.3,3.9-0.8,5.3s-1.4,2.6-2.5,3.6c-1.1,1-2.4,1.7-4,2.3c-1.6,0.5-3.4,0.8-5.5,0.8
			c-2,0-3.8-0.2-5.3-0.7c-1.6-0.5-2.9-1.2-4-2.1c-1.1-0.9-1.9-2.1-2.5-3.5c-0.6-1.4-0.8-3.3-0.8-5.6v-16.8c0-0.2,0.1-0.3,0.2-0.4
			c0.1-0.1,0.3-0.2,0.6-0.3c0.3-0.1,0.6-0.1,1.1-0.2c0.5,0,1-0.1,1.7-0.1c0.7,0,1.3,0,1.7,0.1c0.5,0,0.8,0.1,1.1,0.2
			c0.3,0.1,0.5,0.2,0.6,0.3c0.1,0.1,0.2,0.3,0.2,0.4v16.4c0,1.5,0.1,2.6,0.4,3.4s0.7,1.4,1.2,1.9c0.5,0.5,1.1,0.9,1.9,1.1
			c0.7,0.2,1.5,0.4,2.3,0.4s1.6-0.1,2.3-0.4c0.7-0.3,1.3-0.6,1.8-1.1c0.5-0.5,0.9-1.1,1.1-1.8c0.3-0.7,0.4-1.7,0.4-3.1v-16.7
			c0-0.2,0-0.3,0.1-0.4s0.3-0.2,0.6-0.3c0.3-0.1,0.6-0.1,1.1-0.2c0.4,0,1-0.1,1.7-0.1c0.7,0,1.3,0,1.8,0.1c0.4,0,0.8,0.1,1,0.2
			c0.3,0.1,0.4,0.2,0.5,0.3s0.1,0.3,0.1,0.4V313.7z"/>
		<path class="st1" d="M256.1,322.4c0,0.5,0,0.9-0.1,1.2c0,0.3-0.1,0.6-0.2,0.8c-0.1,0.2-0.2,0.4-0.3,0.4c-0.1,0.1-0.2,0.1-0.4,0.1
			h-15.6c-0.5,0-1-0.2-1.4-0.5c-0.4-0.3-0.6-0.8-0.6-1.5v-24.9c0-0.7,0.2-1.2,0.6-1.5c0.4-0.3,0.8-0.5,1.4-0.5h15.5
			c0.1,0,0.3,0,0.4,0.1c0.1,0.1,0.2,0.2,0.3,0.4c0.1,0.2,0.1,0.5,0.2,0.8c0,0.3,0.1,0.8,0.1,1.3c0,0.5,0,0.9-0.1,1.2
			c0,0.3-0.1,0.6-0.2,0.8c-0.1,0.2-0.2,0.4-0.3,0.4c-0.1,0.1-0.2,0.1-0.4,0.1h-10.4v6.2h8.8c0.1,0,0.3,0,0.4,0.1
			c0.1,0.1,0.2,0.2,0.3,0.4c0.1,0.2,0.1,0.5,0.2,0.8c0,0.3,0.1,0.8,0.1,1.3c0,0.5,0,0.9-0.1,1.2c0,0.3-0.1,0.6-0.2,0.8
			c-0.1,0.2-0.2,0.3-0.3,0.4c-0.1,0.1-0.3,0.1-0.4,0.1h-8.8v7h10.5c0.1,0,0.3,0,0.4,0.1c0.1,0.1,0.2,0.2,0.3,0.4
			c0.1,0.2,0.1,0.5,0.2,0.8C256.1,321.5,256.1,321.9,256.1,322.4z"/>
		<path class="st1" d="M288.4,316.2c0,1.1-0.2,2.1-0.5,2.9c-0.3,0.9-0.8,1.6-1.3,2.3c-0.6,0.7-1.2,1.2-2,1.7
			c-0.8,0.5-1.6,0.8-2.5,1.1c-0.9,0.3-1.9,0.5-2.9,0.6c-1,0.1-2.2,0.2-3.5,0.2h-9.1c-0.5,0-1-0.2-1.4-0.5c-0.4-0.3-0.6-0.8-0.6-1.5
			v-24.9c0-0.7,0.2-1.2,0.6-1.5c0.4-0.3,0.8-0.5,1.4-0.5h9.2c1.8,0,3.4,0.1,4.7,0.4c1.3,0.3,2.4,0.7,3.3,1.3
			c0.9,0.6,1.6,1.4,2.1,2.3c0.5,0.9,0.7,2,0.7,3.3c0,0.7-0.1,1.4-0.3,2s-0.5,1.2-0.8,1.7c-0.4,0.5-0.8,1-1.3,1.3
			c-0.5,0.4-1.1,0.7-1.8,0.9c0.9,0.1,1.6,0.4,2.4,0.7s1.4,0.8,1.9,1.4c0.5,0.6,1,1.2,1.3,2S288.4,315.2,288.4,316.2z M279.6,304.4
			c0-0.5-0.1-1-0.2-1.4c-0.2-0.4-0.4-0.8-0.8-1.1s-0.8-0.5-1.3-0.7c-0.5-0.1-1.2-0.2-2.1-0.2h-3.8v6.9h4c0.9,0,1.5-0.1,2-0.3
			c0.5-0.2,0.9-0.4,1.2-0.8c0.3-0.3,0.5-0.7,0.7-1.1C279.5,305.4,279.6,304.9,279.6,304.4z M280.9,316.4c0-0.6-0.1-1.1-0.3-1.6
			s-0.5-0.9-0.9-1.2c-0.4-0.3-0.9-0.6-1.5-0.7c-0.6-0.2-1.5-0.3-2.5-0.3h-4.2v7.4h4.9c0.9,0,1.5-0.1,2.1-0.2c0.5-0.2,1-0.4,1.3-0.7
			c0.4-0.3,0.7-0.7,0.9-1.1C280.8,317.5,280.9,317,280.9,316.4z"/>
		<path class="st1" d="M321.1,322.4c0.2,0.6,0.3,1.1,0.4,1.5s0,0.6-0.2,0.8c-0.2,0.2-0.6,0.3-1.1,0.4c-0.5,0-1.3,0.1-2.3,0.1
			c-0.9,0-1.6,0-2.1,0c-0.5,0-0.9-0.1-1.1-0.1c-0.3-0.1-0.4-0.2-0.5-0.3c-0.1-0.1-0.2-0.3-0.3-0.6l-1.8-5.2H301l-1.7,5
			c-0.1,0.3-0.2,0.5-0.3,0.6s-0.3,0.3-0.6,0.4c-0.3,0.1-0.6,0.1-1.1,0.2c-0.5,0-1.1,0-1.9,0c-0.8,0-1.4,0-1.9-0.1
			c-0.4-0.1-0.8-0.2-0.9-0.4c-0.2-0.2-0.2-0.5-0.2-0.9c0.1-0.4,0.2-0.9,0.4-1.5l9.1-25.1c0.1-0.3,0.2-0.5,0.4-0.7
			c0.2-0.2,0.4-0.3,0.7-0.4c0.3-0.1,0.8-0.2,1.3-0.2c0.6,0,1.3-0.1,2.2-0.1c0.7,0,1.4,0,1.9,0c0.5,0,1,0,1.4,0.1s0.7,0.1,0.9,0.1
			c0.2,0.1,0.4,0.1,0.6,0.3s0.3,0.2,0.4,0.4c0.1,0.2,0.2,0.3,0.2,0.6L321.1,322.4z M306.6,301.9L306.6,301.9l-4,11.9h8L306.6,301.9z
			"/>
		<path class="st1" d="M158.4,349.5c0,1-0.1,1.7-0.2,2.1c-0.2,0.4-0.4,0.6-0.7,0.6h-6.9v22.6c0,0.2-0.1,0.3-0.2,0.5
			s-0.3,0.2-0.6,0.3c-0.3,0.1-0.6,0.1-1.1,0.2c-0.5,0-1,0.1-1.7,0.1c-0.7,0-1.3,0-1.7-0.1c-0.4,0-0.8-0.1-1.1-0.2
			c-0.3-0.1-0.5-0.2-0.6-0.3s-0.2-0.3-0.2-0.5v-22.6h-6.9c-0.1,0-0.3,0-0.4-0.1s-0.2-0.2-0.3-0.5c-0.1-0.2-0.1-0.5-0.2-0.9
			c0-0.4-0.1-0.8-0.1-1.3c0-0.5,0-1,0.1-1.3c0-0.4,0.1-0.6,0.2-0.8c0.1-0.2,0.2-0.4,0.3-0.4s0.2-0.1,0.4-0.1h21c0.1,0,0.3,0,0.4,0.1
			c0.1,0.1,0.2,0.2,0.3,0.4c0.1,0.2,0.1,0.5,0.2,0.8C158.3,348.5,158.4,349,158.4,349.5z"/>
		<path class="st1" d="M183.5,373c0,0.5,0,0.9-0.1,1.2c0,0.3-0.1,0.6-0.2,0.8c-0.1,0.2-0.2,0.4-0.3,0.4s-0.2,0.1-0.4,0.1h-15.6
			c-0.5,0-1-0.2-1.4-0.5s-0.6-0.8-0.6-1.5v-24.9c0-0.7,0.2-1.2,0.6-1.5s0.8-0.5,1.4-0.5h15.5c0.1,0,0.3,0,0.4,0.1
			c0.1,0.1,0.2,0.2,0.3,0.4c0.1,0.2,0.1,0.5,0.2,0.8c0,0.3,0.1,0.8,0.1,1.3c0,0.5,0,0.9-0.1,1.2c0,0.3-0.1,0.6-0.2,0.8
			c-0.1,0.2-0.2,0.4-0.3,0.4c-0.1,0.1-0.2,0.1-0.4,0.1H172v6.2h8.8c0.1,0,0.3,0,0.4,0.1c0.1,0.1,0.2,0.2,0.3,0.4
			c0.1,0.2,0.1,0.5,0.2,0.8s0.1,0.8,0.1,1.3c0,0.5,0,0.9-0.1,1.2s-0.1,0.6-0.2,0.8c-0.1,0.2-0.2,0.3-0.3,0.4
			c-0.1,0.1-0.3,0.1-0.4,0.1H172v7h10.5c0.1,0,0.3,0,0.4,0.1c0.1,0.1,0.2,0.2,0.3,0.4c0.1,0.2,0.1,0.5,0.2,0.8
			C183.4,372.1,183.5,372.5,183.5,373z"/>
		<path class="st1" d="M221.4,360.8c0,2.4-0.3,4.6-1,6.5c-0.6,1.9-1.6,3.5-2.8,4.9c-1.3,1.3-2.8,2.3-4.6,3c-1.8,0.7-4,1-6.3,1
			c-2.3,0-4.4-0.3-6.2-0.8c-1.8-0.5-3.3-1.4-4.5-2.6s-2.1-2.7-2.8-4.6c-0.6-1.9-0.9-4.2-0.9-6.8c0-2.3,0.3-4.5,1-6.3
			c0.7-1.9,1.6-3.5,2.9-4.8c1.3-1.3,2.8-2.3,4.6-3c1.8-0.7,4-1,6.3-1c2.2,0,4.3,0.3,6,0.8c1.8,0.6,3.3,1.4,4.5,2.6
			c1.2,1.2,2.2,2.7,2.8,4.6C221,356,221.4,358.2,221.4,360.8z M214,361.1c0-1.5-0.1-2.8-0.4-3.9c-0.2-1.2-0.6-2.2-1.2-3
			c-0.6-0.8-1.3-1.5-2.2-1.9c-0.9-0.4-2-0.7-3.4-0.7c-1.4,0-2.5,0.2-3.5,0.7c-0.9,0.5-1.7,1.2-2.2,2c-0.6,0.9-1,1.9-1.2,3
			c-0.2,1.1-0.4,2.3-0.4,3.6c0,1.5,0.1,2.9,0.4,4.1c0.2,1.2,0.6,2.2,1.2,3c0.6,0.8,1.3,1.5,2.2,1.9c0.9,0.4,2,0.6,3.3,0.6
			c1.3,0,2.5-0.2,3.4-0.7c0.9-0.5,1.7-1.2,2.3-2s1-1.9,1.3-3C213.9,363.7,214,362.4,214,361.1z M208.6,336.2
			c0.2-0.2,0.3-0.4,0.5-0.6c0.2-0.2,0.4-0.3,0.7-0.4c0.3-0.1,0.7-0.1,1.1-0.2c0.4,0,1,0,1.6,0c0.8,0,1.5,0,2,0.1s0.8,0.2,1,0.4
			c0.2,0.2,0.3,0.3,0.2,0.5c-0.1,0.2-0.2,0.4-0.4,0.6l-5.7,5.9c-0.1,0.2-0.3,0.3-0.5,0.4c-0.2,0.1-0.4,0.2-0.6,0.3
			c-0.2,0.1-0.5,0.1-0.9,0.2c-0.4,0-0.8,0.1-1.4,0.1c-0.6,0-1.1,0-1.5-0.1c-0.4-0.1-0.6-0.1-0.8-0.3c-0.1-0.1-0.2-0.3-0.2-0.4
			c0-0.2,0.1-0.4,0.3-0.7L208.6,336.2z"/>
		<path class="st1" d="M253.1,375.1c0,0.1-0.1,0.2-0.2,0.3c-0.1,0.1-0.3,0.2-0.6,0.2c-0.3,0-0.7,0.1-1.2,0.1c-0.5,0-1.2,0-2,0
			c-0.8,0-1.4,0-1.9-0.1c-0.5,0-0.9-0.1-1.1-0.2c-0.3-0.1-0.5-0.2-0.6-0.4c-0.1-0.1-0.2-0.3-0.3-0.5l-2.1-6.2
			c-0.3-0.7-0.5-1.3-0.8-1.9c-0.3-0.5-0.6-0.9-0.9-1.3s-0.7-0.6-1.1-0.8s-1-0.2-1.6-0.2h-2v10.5c0,0.2-0.1,0.3-0.2,0.5
			c-0.1,0.1-0.3,0.2-0.6,0.3s-0.6,0.1-1.1,0.2c-0.5,0-1,0.1-1.7,0.1c-0.7,0-1.3,0-1.7-0.1c-0.5,0-0.8-0.1-1.1-0.2
			c-0.3-0.1-0.4-0.2-0.6-0.3c-0.1-0.1-0.2-0.3-0.2-0.5v-26.1c0-0.7,0.2-1.2,0.6-1.5s0.8-0.5,1.4-0.5h9.3c1.8,0,3.4,0.2,4.7,0.5
			s2.4,0.8,3.4,1.4s1.7,1.5,2.2,2.5c0.5,1,0.8,2.2,0.8,3.6c0,1-0.1,1.9-0.4,2.7c-0.2,0.8-0.6,1.5-1.1,2.2c-0.5,0.6-1.1,1.2-1.8,1.7
			c-0.7,0.5-1.5,0.9-2.5,1.2c0.5,0.2,0.9,0.4,1.3,0.7c0.4,0.3,0.7,0.6,1.1,1s0.7,0.9,1,1.4c0.3,0.6,0.6,1.2,0.9,1.9l2.3,5.9
			c0.2,0.5,0.3,0.9,0.4,1.2C253.1,374.7,253.1,375,253.1,375.1z M244.4,355.4c0-0.5-0.1-1-0.2-1.4c-0.2-0.4-0.4-0.8-0.7-1.1
			c-0.3-0.3-0.8-0.6-1.3-0.7s-1.3-0.3-2.3-0.3h-3.2v7.5h3c0.9,0,1.7-0.1,2.2-0.3c0.6-0.2,1-0.4,1.4-0.8c0.4-0.3,0.7-0.7,0.9-1.2
			S244.4,356,244.4,355.4z"/>
		<path class="st1" d="M267.7,374.8c0,0.2-0.1,0.3-0.2,0.5c-0.1,0.1-0.3,0.2-0.6,0.3c-0.3,0.1-0.6,0.1-1.1,0.2c-0.5,0-1,0.1-1.7,0.1
			c-0.7,0-1.3,0-1.7-0.1c-0.5,0-0.8-0.1-1.1-0.2c-0.3-0.1-0.5-0.2-0.6-0.3c-0.1-0.1-0.2-0.3-0.2-0.5v-27.3c0-0.2,0.1-0.3,0.2-0.4
			s0.3-0.2,0.6-0.3c0.3-0.1,0.6-0.1,1.1-0.2c0.5,0,1-0.1,1.7-0.1c0.7,0,1.2,0,1.7,0.1c0.5,0,0.8,0.1,1.1,0.2
			c0.3,0.1,0.5,0.2,0.6,0.3c0.1,0.1,0.2,0.3,0.2,0.4V374.8z"/>
		<path class="st1" d="M298.3,371.1c0,0.7,0,1.3-0.1,1.8c-0.1,0.4-0.3,0.8-0.5,1s-0.6,0.5-1.1,0.8c-0.5,0.3-1,0.5-1.7,0.7
			c-0.7,0.2-1.4,0.4-2.2,0.5s-1.7,0.2-2.7,0.2c-2.1,0-4-0.3-5.8-0.9c-1.7-0.6-3.2-1.5-4.4-2.8c-1.2-1.2-2.2-2.8-2.8-4.6
			c-0.7-1.9-1-4-1-6.5c0-2.5,0.3-4.7,1-6.6c0.7-1.9,1.7-3.5,2.9-4.8c1.2-1.3,2.7-2.3,4.5-2.9c1.7-0.7,3.7-1,5.8-1
			c0.8,0,1.5,0.1,2.3,0.2c0.8,0.1,1.5,0.3,2.1,0.5c0.6,0.2,1.2,0.4,1.7,0.7c0.5,0.3,0.9,0.5,1.1,0.8c0.3,0.3,0.4,0.6,0.5,1
			c0.1,0.4,0.2,1.1,0.2,2c0,0.5,0,1-0.1,1.3c0,0.3-0.1,0.6-0.2,0.8c-0.1,0.2-0.2,0.4-0.3,0.5c-0.1,0.1-0.2,0.1-0.4,0.1
			c-0.2,0-0.5-0.1-0.8-0.4c-0.3-0.2-0.8-0.5-1.3-0.8s-1.2-0.6-1.9-0.8c-0.7-0.2-1.6-0.4-2.7-0.4c-1.1,0-2.1,0.2-3,0.7
			c-0.9,0.4-1.6,1.1-2.2,1.9s-1,1.8-1.3,2.9s-0.5,2.4-0.5,3.8c0,1.6,0.2,3,0.5,4.2c0.4,1.2,0.9,2.2,1.5,2.9c0.7,0.8,1.5,1.3,2.4,1.7
			c0.9,0.4,1.9,0.5,3.1,0.5c0.9,0,1.8-0.1,2.5-0.3c0.7-0.2,1.3-0.5,1.8-0.7c0.5-0.3,0.9-0.5,1.3-0.7c0.4-0.2,0.6-0.3,0.9-0.3
			c0.1,0,0.2,0,0.3,0.1c0.1,0.1,0.2,0.2,0.2,0.4s0.1,0.5,0.1,0.9C298.3,370,298.3,370.5,298.3,371.1z"/>
		<path class="st1" d="M331.3,373c0.2,0.6,0.3,1.1,0.4,1.5c0.1,0.4,0,0.6-0.2,0.8c-0.2,0.2-0.6,0.3-1.1,0.4c-0.5,0-1.3,0.1-2.3,0.1
			c-0.9,0-1.6,0-2.1,0c-0.5,0-0.9-0.1-1.1-0.1c-0.3-0.1-0.4-0.2-0.5-0.3c-0.1-0.1-0.2-0.3-0.3-0.6l-1.8-5.2h-11.2l-1.7,5
			c-0.1,0.3-0.2,0.5-0.3,0.6c-0.1,0.2-0.3,0.3-0.6,0.4c-0.3,0.1-0.6,0.1-1.1,0.2c-0.5,0-1.1,0-1.9,0c-0.8,0-1.4,0-1.9-0.1
			c-0.4-0.1-0.8-0.2-0.9-0.4c-0.2-0.2-0.2-0.5-0.2-0.9s0.2-0.9,0.4-1.5l9.1-25.1c0.1-0.3,0.2-0.5,0.4-0.7c0.2-0.2,0.4-0.3,0.7-0.4
			c0.3-0.1,0.8-0.2,1.3-0.2c0.6,0,1.3-0.1,2.2-0.1c0.7,0,1.4,0,1.9,0c0.5,0,1,0,1.4,0.1c0.4,0,0.7,0.1,0.9,0.1
			c0.2,0.1,0.4,0.1,0.6,0.3c0.2,0.1,0.3,0.2,0.4,0.4c0.1,0.2,0.2,0.3,0.2,0.6L331.3,373z M316.8,352.5L316.8,352.5l-4,11.9h8
			L316.8,352.5z"/>
	</g>
	<g>
		<g>
			<g>
				<g>
					<g>
						<g>
							<g>
								<path class="st2" d="M278.2,182.5V165h-11.2c-1-4.1-2.6-7.9-4.7-11.4l7.9-7.9l-12.4-12.4l-7.9,7.9
									c-3.5-2.2-7.3-3.8-11.4-4.7v-11.2H221v11.2c-4.1,1-7.9,2.6-11.4,4.7l-7.9-7.9l-12.4,12.4l7.9,7.9c-2.2,3.5-3.8,7.3-4.7,11.4
									h-11.2v17.5h11.2c1,4.1,2.6,7.9,4.7,11.4l-7.9,7.9l12.4,12.4l7.9-7.9c3.5,2.1,7.3,3.8,11.4,4.7v11.2h17.5v-11.2
									c4.1-1,7.9-2.6,11.4-4.7l7.9,7.9l12.4-12.4l-7.9-7.9c2.2-3.5,3.8-7.3,4.7-11.4H278.2z M229.8,194.2
									c-11.3,0-20.5-9.2-20.5-20.5c0-11.3,9.2-20.5,20.5-20.5c11.3,0,20.5,9.2,20.5,20.5C250.2,185.1,241.1,194.2,229.8,194.2z
									 M229.8,181.3c-4.1,0-7.5-3.4-7.5-7.5c0-4.1,3.4-7.5,7.5-7.5c4.1,0,7.5,3.4,7.5,7.5C237.3,177.9,233.9,181.3,229.8,181.3z"
									/>
							</g>
						</g>
					</g>
				</g>
			</g>
		</g>
	</g>
</g>
</svg>
