<?xml version="1.0" encoding="utf-8"?>
<!-- Generator: Adobe Illustrator 24.2.1, SVG Export Plug-In . SVG Version: 6.00 Build 0)  -->
<svg version="1.1" id="Capa_1" xmlns="http://www.w3.org/2000/svg" xmlns:xlink="http://www.w3.org/1999/xlink" x="0px" y="0px"
	 viewBox="0 0 460.9 433.9" style="enable-background:new 0 0 460.9 433.9;" xml:space="preserve">
<style type="text/css">
	.st0{fill:#E9ECEA;}
	.st1{fill:#00B4C3;}
	.st2{fill:#FFFFFF;}
	.st3{fill:#EF4853;}
	.st4{fill:#A8C838;}
	.st5{fill:#F9A048;}
</style>
<g>
	<path class="st0" d="M427.2,0H33.6C15.1,0,0,15.1,0,33.6v54.7v257.2v54.7c0,18.6,15.1,33.6,33.6,33.6h393.6
		c18.6,0,33.6-15.1,33.6-33.6v-54.7V88.4V33.6C460.9,15.1,445.8,0,427.2,0z"/>
	<path class="st4" d="M332.7,271.9H141.8c-13,0-23.6-10.6-23.6-23.6V85c0-13,10.6-23.6,23.6-23.6h190.9c13,0,23.6,10.6,23.6,23.6
		v163.3C356.3,261.4,345.8,271.9,332.7,271.9z"/>
	<g>
		<path class="st4" d="M77.7,340.3v-28.4h9.7c2.7,0,5.1,0.6,7.2,1.7c2.1,1.1,3.8,2.7,5,4.8c1.2,2.1,1.8,4.4,1.9,6.9v1.3
			c0,2.6-0.6,4.9-1.8,7c-1.2,2.1-2.9,3.7-5,4.9c-2.1,1.2-4.6,1.7-7.3,1.7H77.7z M84.8,317.6v17.1h2.7c2.4,0,4.2-0.6,5.3-1.8
			c1.1-1.2,1.7-3.2,1.7-5.8v-1.5c0-2.7-0.5-4.7-1.6-6c-1.1-1.3-2.8-1.9-5.1-2H84.8z"/>
		<path class="st4" d="M126.4,328.5h-11.7v6.2h13.8v5.7h-20.9v-28.4h20.9v5.7h-13.8v5.2h11.7V328.5z"/>
		<path class="st4" d="M158.2,330.6c-0.2,3.1-1.4,5.6-3.7,7.4c-2.3,1.8-5.2,2.7-8.9,2.7c-4,0-7.1-1.2-9.3-3.6
			c-2.3-2.4-3.4-5.7-3.5-10v-1.6c0-4.2,1.2-7.6,3.5-10.2c2.3-2.5,5.4-3.8,9.3-3.8c3.7,0,6.6,0.9,8.8,2.8c2.2,1.8,3.5,4.4,3.8,7.6
			h-7.1c-0.2-3.1-2-4.7-5.6-4.7c-3.7,0-5.6,2.6-5.7,7.8v1.8c0,2.9,0.5,5,1.4,6.3c0.9,1.3,2.4,2,4.4,2c1.8,0,3.1-0.4,4-1.1
			c0.9-0.7,1.4-1.8,1.5-3.4H158.2z"/>
		<path class="st4" d="M170.9,334.6h13v5.7h-20v-28.4h7.1V334.6z"/>
		<path class="st4" d="M206.8,334.9h-11l-2,5.4h-7.1l11.3-28.4h6.6l11.4,28.4h-7.1L206.8,334.9z M197.7,329.7h7.2l-3.6-9.6
			L197.7,329.7z"/>
		<path class="st4" d="M231.8,330.5h-4.4v9.8h-7.1v-28.4h11.9c3.6,0,6.4,0.7,8.4,2.2c2,1.5,3,3.6,3,6.3c0,2-0.4,3.7-1.3,5
			c-0.8,1.3-2.2,2.4-4.1,3.2l6.4,11.4v0.3h-7.6L231.8,330.5z M227.4,324.8h4.8c2.9,0,4.4-1.2,4.4-3.7c0-2.4-1.5-3.6-4.6-3.6h-4.6
			V324.8z"/>
		<path class="st4" d="M267.8,334.9h-11l-2,5.4h-7.1l11.3-28.4h6.6l11.4,28.4h-7.1L267.8,334.9z M258.7,329.7h7.2l-3.6-9.6
			L258.7,329.7z"/>
		<path class="st4" d="M305.6,330.6c-0.2,3.1-1.4,5.6-3.7,7.4c-2.3,1.8-5.2,2.7-8.9,2.7c-4,0-7.1-1.2-9.3-3.6
			c-2.3-2.4-3.4-5.7-3.5-10v-1.6c0-4.2,1.2-7.6,3.5-10.2c2.3-2.5,5.4-3.8,9.3-3.8c3.7,0,6.6,0.9,8.8,2.8c2.2,1.8,3.5,4.4,3.8,7.6
			h-7.1c-0.2-3.1-2-4.7-5.6-4.7c-3.7,0-5.6,2.6-5.7,7.8v1.8c0,2.9,0.5,5,1.4,6.3c0.9,1.3,2.4,2,4.4,2c1.8,0,3.1-0.4,4-1.1
			c0.9-0.7,1.4-1.8,1.5-3.4H305.6z"/>
		<path class="st4" d="M318.8,340.3h-7.1v-28.4h7.1V340.3z"/>
		<path class="st4" d="M351.8,326.7c0,2.8-0.5,5.2-1.6,7.4c-1.1,2.1-2.6,3.8-4.7,4.9c-2,1.2-4.3,1.7-6.9,1.7c-2.6,0-4.9-0.6-6.9-1.7
			c-2-1.1-3.6-2.8-4.7-4.9c-1.1-2.1-1.7-4.5-1.7-7.3v-1.3c0-2.8,0.5-5.3,1.6-7.4c1.1-2.1,2.6-3.8,4.7-4.9c2-1.2,4.3-1.7,7-1.7
			c2.6,0,4.9,0.6,6.9,1.7c2,1.1,3.6,2.8,4.7,4.9c1.1,2.1,1.7,4.6,1.7,7.3V326.7z M344.7,325.6c0-2.7-0.5-4.8-1.6-6.2
			c-1.1-1.4-2.6-2.2-4.6-2.2c-2,0-3.6,0.7-4.6,2.2c-1,1.4-1.6,3.5-1.6,6.2v1.1c0,2.6,0.5,4.7,1.6,6.2s2.6,2.2,4.6,2.2
			c1.9,0,3.4-0.7,4.5-2.2c1.1-1.5,1.6-3.6,1.6-6.3V325.6z M339.9,302.1h7.7l-6.8,7.6h-5.7L339.9,302.1z"/>
		<path class="st4" d="M383.2,340.3h-7.1l-11.2-17.7v17.7h-7.1v-28.4h7.1l11.2,17.7v-17.7h7.1V340.3z"/>
		<path class="st4" d="M156.7,362.5h7.1v18.8c0,3-1,5.4-2.9,7.3c-1.9,1.8-4.4,2.8-7.4,2.8c-3.4,0-6.1-0.8-7.9-2.5
			c-1.8-1.6-2.8-4-2.8-7h7.1c0,2.5,1.2,3.8,3.6,3.8c2.1,0,3.1-1.4,3.2-4.2V362.5z"/>
		<path class="st4" d="M194.4,362.5v18.4c0,3.2-1,5.8-3.1,7.6s-5,2.8-8.8,2.8c-3.7,0-6.7-0.9-8.8-2.8c-2.1-1.9-3.2-4.4-3.2-7.6
			v-18.4h7.1v18.8c0.1,2.9,1.7,4.4,4.9,4.4c1.6,0,2.8-0.4,3.6-1.1c0.8-0.7,1.2-1.9,1.2-3.6v-18.4H194.4z"/>
		<path class="st4" d="M212.6,381.1h-4.4v9.8h-7.1v-28.4H213c3.6,0,6.4,0.7,8.4,2.2c2,1.5,3,3.6,3,6.3c0,2-0.4,3.7-1.3,5
			c-0.8,1.3-2.2,2.4-4.1,3.2l6.4,11.4v0.3h-7.6L212.6,381.1z M208.2,375.5h4.8c2.9,0,4.4-1.2,4.4-3.6c0-2.4-1.5-3.6-4.6-3.6h-4.6
			V375.5z"/>
		<path class="st4" d="M248.6,385.5h-11l-2,5.4h-7.1l11.3-28.4h6.6l11.4,28.4h-7.1L248.6,385.5z M239.5,380.4h7.2l-3.6-9.6
			L239.5,380.4z"/>
		<path class="st4" d="M262.2,391v-28.4h9.7c2.7,0,5.1,0.6,7.2,1.7c2.1,1.1,3.8,2.7,5,4.8c1.2,2.1,1.8,4.4,1.9,6.9v1.3
			c0,2.6-0.6,4.9-1.8,7c-1.2,2.1-2.9,3.7-5,4.9c-2.1,1.2-4.6,1.7-7.3,1.7H262.2z M269.2,368.2v17.1h2.7c2.4,0,4.2-0.6,5.3-1.8
			c1.1-1.2,1.7-3.2,1.7-5.8v-1.5c0-2.7-0.5-4.7-1.6-6c-1.1-1.3-2.8-1.9-5.1-2H269.2z"/>
		<path class="st4" d="M309.7,385.5h-11l-2,5.4h-7.1l11.3-28.4h6.6l11.4,28.4h-7.1L309.7,385.5z M300.6,380.4h7.2l-3.6-9.6
			L300.6,380.4z"/>
	</g>
	<g>
		<path class="st2" d="M276.5,212.3c-0.4,0.3-0.7,0.6-1.1,0.9c-0.3,0.2-0.6,0.5-0.9,0.8c-6.6,6-14.5,6.6-20.6,6.6
			c-1.3,0-2.7-0.4-4.2-1.1c-2-0.9-4.1-2.6-4.3-5.7c-0.8,0.6-1.5,1.1-2.3,1.7c-1.8,1.4-3.6,2.7-5.5,4.1c-1.3,0.9-2.9,1.7-4.5,2.3
			c-0.7,0.3-1.5,0.4-2.2,0.4c-1,0-2-0.3-2.8-0.9c-1.4-1-2.2-2.7-2.2-4.7c0-3,1.3-5.4,2.7-7.6c0.4-0.6,0.8-1.2,1.2-1.8
			c-2,1.3-3.9,2.8-5.9,4.3c-0.7,0.6-1.5,1.1-2.2,1.7c-2.9,2.1-6.1,4.2-9.4,6.2c-2,1.2-4.3,1.3-5.5,1.2c-1.7-0.1-3.2-0.8-4.2-2
			c-1-1.4-1.4-3.2-0.9-5.2c1.3-5.6,8.7-11.9,14.3-12.3c0.8-0.1,1.5,0.2,2,0.3c0.1,0,0.2,0.1,0.2,0.1l3,0.8l-1.4,2.8
			c0,0.1-0.1,0.1-0.1,0.2c-0.1,0.2-0.2,0.5-0.4,0.8c0.4-0.3,0.8-0.5,1.2-0.8c3.5-2.4,7.1-4.8,10.8-7.1c1.5-1,3.5-1.6,5.9-2
			c1.7-0.3,3.2,0.3,4.2,1.4c0.9,1.2,1.1,2.9,0.4,4.5c-0.6,1.4-1.3,2.6-2,3.8c-0.2,0.3-0.4,0.6-0.5,0.9c-0.6,1.1-1.2,2.1-1.8,3.2
			c-0.4,0.7-0.8,1.4-1.3,2.2c0,0,0,0,0.1,0c1.1-0.9,2.2-1.8,3.3-2.7c1.7-1.3,3.4-2.7,5.1-4c1.1-0.8,2.5-1.4,4.4-1.8
			c2.4-0.5,3.7,0.4,4.4,1.1c0.6,0.6,1.6,2.1,1,4.5c-0.1,0.5-0.3,1-0.4,1.5c-0.1,0.2-0.1,0.4-0.2,0.5c-0.1,0.4-0.1,0.7,0,0.8
			c0,0,0.1,0.1,0.2,0.1c1.7,0.5,3.1,0.7,4.3,0.5c2.8-0.4,5.7-1,8.5-1.7l0.3-0.1c0.3-1.4,0.6-2.8,0.9-4.1c0.7-3.1,1.3-6.2,2.4-9.3
			c1-2.9,2.4-5.5,3.8-8c0.4-0.8,0.8-1.5,1.3-2.3c2.6-4.8,5.2-9.7,7.7-14.4l2.2-4c0.2-0.4,0.5-0.8,0.7-1.1v-33.3l0,0c0-0.3,0-0.7,0-1
			c0-1.2-0.3-2-1.2-2.9c-7.8-7.8-15.6-15.6-23.4-23.4c-0.8-0.8-1.7-1-2.7-1c-22.4,0-44.9,0-67.3,0c-4.4,0-6.8,2.5-6.8,6.9
			c0,38.7,0,77.4,0,116.1c0,4.4,2.5,6.8,6.9,6.8c29.2,0,58.4,0,87.7,0c0.3,0,0.5,0,0.8,0l1.1,0l0.2-0.2c2.2-0.5,3.7-1.8,4.3-3.9
			l0.4-0.4v-29.6C283.3,205.9,279.7,209.4,276.5,212.3z"/>
		<path class="st2" d="M210.7,211.9c1.2-0.8,2.4-1.6,3.6-2.4c0.4-0.3,0.9-0.6,1.3-0.9c0,0,0,0,0,0
			C213.6,209.1,212,210.2,210.7,211.9z"/>
		<path class="st2" d="M273.1,207.3c0.3-0.1,0.5-0.6,0.6-0.9c0.7-3.1,1.2-6.2,2.2-9.2c0.8-2.4,2.2-4.5,3.3-6.7
			c2.2-4.2,4.5-8.3,6.7-12.4c0.2-0.4,0.5-0.7,0.7-1.2c2.2,1.2,4.4,2.4,6.7,3.6c-1.4,2.6-2.8,5.1-4.2,7.7c-1.6,3-3.3,5.9-4.8,8.9
			c-1.7,3.3-4.2,5.9-7,8.4c-0.4,0.4-0.9,0.7-1.3,1.1l-3.8,1.8L273.1,207.3z"/>
		<path class="st2" d="M294.8,177.9c-2.3-1.2-4.5-2.4-6.7-3.6c1-1.9,2-3.7,3-5.6c2.8-5.2,5.6-10.4,8.5-15.6c0.8-1.5,1.2-1.7,2.9-1
			c0.5-0.9,1-1.9,1.6-2.9c0.4-0.7,1-1,1.8-0.8c0.8,0.2,1.1,0.8,1.1,1.5c0,0.3-0.2,0.7-0.3,1c-0.5,0.9-0.9,1.7-1.4,2.6
			c0.1,0.1,0.1,0.2,0.1,0.2c1.8,1.1,1.9,1.5,0.8,3.3c-0.7,1.2-0.9,2.1-0.2,3.5c1.8,3.4,1.8,6.9-0.2,10.4c-2.3,4-4.4,8.1-6.6,12.2
			c-0.4,0.8-1,1.2-1.8,1c-0.7-0.1-1.1-0.6-1.1-1.3c0-0.4,0.2-0.9,0.4-1.3c2.3-4.3,4.6-8.6,7-12.9c0.9-1.6,1-4.3-0.2-6.4
			C300.5,167.4,297.6,172.6,294.8,177.9z"/>
	</g>
	<g>
		<path class="st4" d="M194.4,169.8c0.4,0.1,0.9,0.1,1.3,0.1c20.8,0,41.7,0,62.5,0c0.6,0,1.1,0,1.7-0.1c1-0.2,1.6-1.4,1.7-3.1
			c0.1-1.8-0.5-3-1.6-3.4c-0.4-0.2-0.9-0.1-1.3-0.1c-10.5,0-20.9,0-31.4,0c-10.5,0-21.1,0-31.6,0c-0.4,0-0.8-0.1-1.2,0
			c-1.1,0.2-1.8,1.6-1.8,3.4C192.7,168.4,193.3,169.6,194.4,169.8z"/>
		<path class="st4" d="M194.4,186.5c0.4,0.1,0.9,0.1,1.3,0.1c20.8,0,41.7,0,62.5,0c0.6,0,1.1,0,1.7-0.1c1-0.2,1.6-1.4,1.7-3.1
			c0.1-1.8-0.5-3-1.6-3.4c-0.4-0.2-0.9-0.1-1.3-0.1c-10.5,0-20.9,0-31.4,0c-10.5,0-21.1,0-31.6,0c-0.4,0-0.8-0.1-1.2,0
			c-1.1,0.2-1.8,1.6-1.8,3.4C192.7,185.1,193.3,186.3,194.4,186.5z"/>
		<path class="st4" d="M194.4,202.4c0.4,0.1,0.9,0.1,1.3,0.1c20.8,0,41.7,0,62.5,0c0.6,0,1.1,0,1.7-0.1c1-0.2,1.6-1.4,1.7-3.1
			c0.1-1.8-0.5-3-1.6-3.4c-0.4-0.2-0.9-0.1-1.3-0.1c-10.5,0-20.9,0-31.4,0c-10.5,0-21.1,0-31.6,0c-0.4,0-0.8-0.1-1.2,0
			c-1.1,0.2-1.8,1.6-1.8,3.4C192.7,201,193.3,202.1,194.4,202.4z"/>
	</g>
</g>
</svg>
