<?xml version="1.0" encoding="utf-8"?>
<!-- Generator: Adobe Illustrator 24.2.1, SVG Export Plug-In . SVG Version: 6.00 Build 0)  -->
<svg version="1.1" id="Capa_1" xmlns="http://www.w3.org/2000/svg" xmlns:xlink="http://www.w3.org/1999/xlink" x="0px" y="0px"
	 viewBox="0 0 460.9 433.9" style="enable-background:new 0 0 460.9 433.9;" xml:space="preserve">
<style type="text/css">
	.st0{fill:#E9ECEA;}
	.st1{fill:#00B4C3;}
	.st2{fill:#FFFFFF;}
	.st3{fill:#EF4853;}
	.st4{fill:#A8C838;}
	.st5{fill:#F9A048;}
</style>
<g>
	<path class="st0" d="M427.2,0H33.6C15.1,0,0,15.1,0,33.6v54.7v257.2v54.7c0,18.6,15.1,33.6,33.6,33.6h393.6
		c18.6,0,33.6-15.1,33.6-33.6v-54.7V88.4V33.6C460.9,15.1,445.8,0,427.2,0z"/>
	<path class="st1" d="M325.2,272.1H134.3c-13,0-23.6-10.6-23.6-23.6V85.2c0-13,10.6-23.6,23.6-23.6h190.9c13,0,23.6,10.6,23.6,23.6
		v163.3C348.8,261.6,338.3,272.1,325.2,272.1z"/>
	<g>
		<path class="st1" d="M151.7,316.4v8.9h-8.3v-28.4h12.4c2.4,0,4.5,0.4,6.3,1.3c1.8,0.9,3.3,2.1,4.3,3.6c1,1.6,1.5,3.3,1.5,5.3
			c0,2.7-1.1,5-3.2,6.7c-2.2,1.7-5,2.6-8.6,2.7H151.7z M151.7,310.1h4.2c1.3,0,2.3-0.3,3-0.9c0.6-0.6,1-1.3,1-2.1c0-1.1-0.3-2-1-2.8
			c-0.7-0.7-1.7-1.1-2.9-1.1h-4.2V310.1z"/>
		<path class="st1" d="M185.1,315.9h-3.2v9.4h-8.3v-28.4h12.6c3.7,0,6.6,0.7,8.7,2.2c2.1,1.5,3.1,3.6,3.1,6.2c0,2.1-0.4,3.8-1.2,5.1
			c-0.8,1.3-2.1,2.4-4,3.3L199,325v0.3h-8.9L185.1,315.9z M181.9,309.6h4.3c2.4,0,3.6-1.1,3.6-3.2c0-2.1-1.3-3.1-3.8-3.1h-4.1V309.6
			z"/>
		<path class="st1" d="M228.9,296.9v18.2c0,3.4-1.1,6-3.2,7.8c-2.1,1.9-5.2,2.8-9.1,2.8c-3.8,0-6.8-0.9-9-2.8
			c-2.2-1.9-3.3-4.4-3.3-7.6v-18.4h8.3v18.2c0,1.5,0.3,2.6,1,3.3s1.7,1,3.1,1c1.4,0,2.4-0.3,3-1c0.6-0.7,1-1.8,1-3.3v-18.2H228.9z"
			/>
		<path class="st1" d="M254.4,313.8h-11.2v5.2h13.3v6.3h-21.5v-28.4h21.6v6.3h-13.4v4.2h11.2V313.8z"/>
		<path class="st1" d="M260.9,325.3v-28.4h11.4c4.1,0,7.1,0.7,9.3,2c2.1,1.3,3.2,3.3,3.2,5.9c0,3.1-1.4,5.2-4.2,6.3
			c1.5,0.4,2.7,1.1,3.6,2.2c0.9,1.1,1.3,2.4,1.3,3.9c0,2.8-0.9,4.8-2.8,6.1c-1.9,1.3-4.8,2-8.8,2H260.9z M269.1,308.7h3.9
			c1.3,0,2.1-0.2,2.7-0.7c0.5-0.4,0.8-1.1,0.8-1.9c0-1-0.3-1.7-0.8-2.2c-0.5-0.4-1.4-0.6-2.6-0.6h-4V308.7z M269.1,313.9v5.1h4.3
			c1.1,0,2-0.2,2.7-0.7c0.7-0.4,1-1,1-1.8c0-1.7-1-2.6-3-2.6H269.1z"/>
		<path class="st1" d="M308.7,320.4h-10.2l-1.7,5h-8.3l11-28.4h7.9l11.2,28.4h-8.3L308.7,320.4z M300.4,314.7h6.3l-3.1-8.8l-0.1-0.5
			l-0.1,0.5L300.4,314.7z"/>
		<path class="st1" d="M160.3,353.9h-9.1V376H143v-22.1h-8.8v-6.3h26.1V353.9z"/>
		<path class="st1" d="M184.4,364.5h-11.2v5.2h13.3v6.3H165v-28.4h21.6v6.3h-13.4v4.2h11.2V364.5z"/>
		<path class="st1" d="M217.5,362.3c0,2.8-0.6,5.3-1.7,7.4c-1.1,2.2-2.8,3.8-4.8,5c-2.1,1.2-4.4,1.7-7.1,1.7c-2.7,0-5-0.6-7.1-1.7
			c-2.1-1.1-3.7-2.8-4.9-4.9c-1.2-2.2-1.7-4.6-1.7-7.4v-1c0-2.8,0.6-5.2,1.7-7.4s2.7-3.8,4.8-5c2.1-1.2,4.5-1.8,7.2-1.8
			c2.6,0,5,0.6,7.1,1.7c2.1,1.2,3.7,2.8,4.8,4.9c1.1,2.1,1.7,4.5,1.8,7.2V362.3z M209.2,361.3c0-2.5-0.5-4.4-1.4-5.8
			c-0.9-1.4-2.3-2-4-2c-3.6,0-5.4,2.7-5.4,8v0.9c0,2.4,0.4,4.4,1.3,5.8c0.9,1.4,2.3,2.1,4.1,2.1c1.6,0,2.9-0.7,3.9-2.1
			c0.9-1.4,1.4-3.2,1.5-5.6V361.3z M204.8,337.8h8.7l-6.8,7.7l-6.7,0L204.8,337.8z"/>
		<path class="st1" d="M234.1,366.6h-3.2v9.4h-8.3v-28.4h12.6c3.7,0,6.6,0.7,8.7,2.2c2.1,1.5,3.1,3.6,3.1,6.2c0,2.1-0.4,3.8-1.2,5.1
			c-0.8,1.3-2.1,2.4-4,3.3l6.2,11.3v0.3h-8.9L234.1,366.6z M230.9,360.2h4.3c2.4,0,3.6-1.1,3.6-3.2c0-2.1-1.3-3.1-3.8-3.1h-4.1
			V360.2z"/>
		<path class="st1" d="M262,376h-8.2v-28.4h8.2V376z"/>
		<path class="st1" d="M293.9,366c-0.1,3.1-1.3,5.6-3.7,7.5c-2.4,1.9-5.5,2.8-9.2,2.8c-4.2,0-7.4-1.2-9.8-3.7
			c-2.3-2.5-3.5-6-3.5-10.5v-0.8c0-2.9,0.5-5.4,1.6-7.5c1.1-2.2,2.6-3.8,4.6-4.9c2-1.1,4.2-1.7,6.8-1.7c3.9,0,7,0.9,9.3,2.8
			c2.3,1.9,3.6,4.5,3.9,7.8h-8.2c0-1.3-0.4-2.4-1.3-3.1s-2.1-1.1-3.7-1.1c-2.9,0-4.5,2.2-4.7,6.6l0,2.2c0,2.8,0.4,4.8,1.1,6
			c0.7,1.2,2,1.8,3.9,1.8c3.2,0,4.8-1.3,4.7-4H293.9z"/>
		<path class="st1" d="M316.7,371h-10.2l-1.7,5h-8.3l11-28.4h7.9l11.2,28.4h-8.3L316.7,371z M308.4,365.4h6.3l-3.1-8.8l-0.1-0.5
			l-0.1,0.5L308.4,365.4z"/>
	</g>
	<g>
		<g>
			<g>
				<g>
					<g>
						<g>
							<g>
								<path class="st2" d="M278.2,182.9v-17.5h-11.2c-1-4.1-2.6-7.9-4.7-11.4l7.9-7.9l-12.4-12.4l-7.9,7.9
									c-3.5-2.2-7.3-3.8-11.4-4.7v-11.2H221v11.2c-4.1,1-7.9,2.6-11.4,4.7l-7.9-7.9L189.3,146l7.9,7.9c-2.2,3.5-3.8,7.3-4.7,11.4
									h-11.2v17.5h11.2c1,4.1,2.6,7.9,4.7,11.4l-7.9,7.9l12.4,12.4l7.9-7.9c3.5,2.1,7.3,3.8,11.4,4.7v11.2h17.5v-11.2
									c4.1-1,7.9-2.6,11.4-4.7l7.9,7.9l12.4-12.4l-7.9-7.9c2.2-3.5,3.8-7.3,4.7-11.4H278.2z M229.8,194.6
									c-11.3,0-20.5-9.2-20.5-20.5c0-11.3,9.2-20.5,20.5-20.5c11.3,0,20.5,9.2,20.5,20.5C250.2,185.4,241.1,194.6,229.8,194.6z
									 M229.8,181.6c-4.1,0-7.5-3.4-7.5-7.5c0-4.1,3.4-7.5,7.5-7.5c4.1,0,7.5,3.4,7.5,7.5C237.3,178.2,233.9,181.6,229.8,181.6z"
									/>
							</g>
						</g>
					</g>
				</g>
			</g>
		</g>
	</g>
</g>
</svg>
