<?xml version="1.0" encoding="utf-8"?>
<!-- Generator: Adobe Illustrator 24.2.1, SVG Export Plug-In . SVG Version: 6.00 Build 0)  -->
<svg version="1.1" id="Capa_1" xmlns="http://www.w3.org/2000/svg" xmlns:xlink="http://www.w3.org/1999/xlink" x="0px" y="0px"
	 viewBox="0 0 460.9 433.9" style="enable-background:new 0 0 460.9 433.9;" xml:space="preserve">
<style type="text/css">
	.st0{fill:#E9ECEA;}
	.st1{fill:#00B4C3;}
	.st2{fill:#FFFFFF;}
	.st3{fill:#EF4853;}
	.st4{fill:#A8C838;}
	.st5{fill:#F9A048;}
</style>
<g>
	<path class="st0" d="M427.2,0H33.6C15.1,0,0,15.1,0,33.6v54.7v257.2v54.7c0,18.6,15.1,33.6,33.6,33.6h393.6
		c18.6,0,33.6-15.1,33.6-33.6v-54.7V88.4V33.6C460.9,15.1,445.8,0,427.2,0z"/>
	<path class="st5" d="M335.2,265.8H144.3c-13,0-23.6-10.6-23.6-23.6V78.9c0-13,10.6-23.6,23.6-23.6h190.9c13,0,23.6,10.6,23.6,23.6
		v163.3C358.8,255.2,348.2,265.8,335.2,265.8z"/>
	<g>
		<path class="st5" d="M165.9,318.6v9.4h-7.1v-28.4H171c2.3,0,4.4,0.4,6.2,1.2c1.8,0.8,3.2,2,4.1,3.5c1,1.5,1.5,3.2,1.5,5.1
			c0,2.8-1.1,5.1-3.2,6.7c-2.1,1.7-5,2.5-8.7,2.5H165.9z M165.9,312.9h5.1c1.5,0,2.7-0.3,3.5-0.9c0.8-0.6,1.2-1.5,1.2-2.6
			c0-1.3-0.4-2.3-1.2-3c-0.8-0.8-2-1.2-3.4-1.2h-5.1V312.9z"/>
		<path class="st5" d="M200.3,318.1h-4.4v9.8h-7.1v-28.4h11.9c3.6,0,6.4,0.7,8.4,2.2c2,1.5,3,3.6,3,6.3c0,2-0.4,3.7-1.3,5
			c-0.8,1.3-2.2,2.4-4.1,3.2l6.4,11.4v0.3h-7.6L200.3,318.1z M195.9,312.4h4.8c2.9,0,4.4-1.2,4.4-3.6c0-2.4-1.5-3.6-4.6-3.6h-4.6
			V312.4z"/>
		<path class="st5" d="M242.4,299.5v18.4c0,3.2-1,5.8-3.1,7.6s-5,2.8-8.8,2.8c-3.7,0-6.7-0.9-8.8-2.8c-2.1-1.9-3.2-4.4-3.2-7.6
			v-18.4h7.1v18.8c0.1,2.9,1.7,4.4,4.9,4.4c1.6,0,2.8-0.4,3.6-1.1c0.8-0.7,1.2-1.9,1.2-3.6v-18.4H242.4z"/>
		<path class="st5" d="M268,316.1h-11.7v6.2h13.8v5.7h-20.9v-28.4h20.9v5.7h-13.8v5.2H268V316.1z"/>
		<path class="st5" d="M275.3,327.9v-28.4h11c3.8,0,6.7,0.7,8.7,2c2,1.3,3.1,3.3,3.1,5.8c0,1.4-0.4,2.7-1.1,3.8
			c-0.7,1.1-1.8,1.9-3.2,2.4c1.6,0.4,2.8,1.2,3.7,2.3c0.8,1.1,1.3,2.5,1.3,4c0,2.8-1,4.9-2.9,6.2c-1.9,1.3-4.8,2-8.4,2H275.3z
			 M282.3,311.3h4.3c2.8,0,4.3-1,4.3-3c0-1.1-0.3-2-1-2.4c-0.7-0.5-1.7-0.7-3.2-0.7h-4.4V311.3z M282.3,316.1v6.2h5
			c1.4,0,2.4-0.3,3.2-0.8c0.7-0.5,1.1-1.3,1.1-2.2c0-2.1-1.2-3.1-3.7-3.2H282.3z"/>
		<path class="st5" d="M322.6,322.5h-11l-2,5.4h-7.1l11.3-28.4h6.6l11.4,28.4h-7.1L322.6,322.5z M313.5,317.3h7.2l-3.6-9.6
			L313.5,317.3z"/>
		<path class="st5" d="M141.5,369.2v9.4h-7.1v-28.4h12.1c2.3,0,4.4,0.4,6.2,1.2c1.8,0.8,3.2,2,4.1,3.5c1,1.5,1.5,3.2,1.5,5.1
			c0,2.8-1.1,5.1-3.2,6.7c-2.1,1.7-5,2.5-8.7,2.5H141.5z M141.5,363.5h5.1c1.5,0,2.7-0.3,3.5-0.9c0.8-0.6,1.2-1.5,1.2-2.6
			c0-1.3-0.4-2.3-1.2-3c-0.8-0.8-2-1.2-3.4-1.2h-5.1V363.5z"/>
		<path class="st5" d="M175.9,368.8h-4.4v9.8h-7.1v-28.4h11.9c3.6,0,6.4,0.7,8.4,2.2c2,1.5,3,3.6,3,6.3c0,2-0.4,3.7-1.3,5
			c-0.8,1.3-2.2,2.4-4.1,3.2l6.4,11.4v0.3h-7.6L175.9,368.8z M171.4,363.1h4.8c2.9,0,4.4-1.2,4.4-3.7c0-2.4-1.5-3.6-4.6-3.6h-4.6
			V363.1z"/>
		<path class="st5" d="M211.9,373.2h-11l-2,5.4h-7.1l11.3-28.4h6.6l11.4,28.4h-7.1L211.9,373.2z M202.8,368h7.2l-3.6-9.6L202.8,368z
			 M207.9,340.4h7.7l-6.8,7.6h-5.7L207.9,340.4z"/>
		<path class="st5" d="M249.7,368.8c-0.2,3.1-1.4,5.6-3.7,7.4c-2.3,1.8-5.2,2.7-8.9,2.7c-4,0-7.1-1.2-9.3-3.6
			c-2.3-2.4-3.4-5.7-3.5-10v-1.6c0-4.2,1.2-7.6,3.5-10.2c2.3-2.5,5.4-3.8,9.3-3.8c3.7,0,6.6,0.9,8.8,2.8c2.2,1.8,3.5,4.4,3.8,7.6
			h-7.1c-0.2-3.1-2-4.7-5.6-4.7c-3.7,0-5.6,2.6-5.7,7.8v1.8c0,2.9,0.5,5,1.4,6.3c0.9,1.3,2.4,2,4.4,2c1.8,0,3.1-0.4,4-1.1
			c0.9-0.7,1.4-1.8,1.5-3.4H249.7z"/>
		<path class="st5" d="M279,355.8h-9.2v22.8h-7.1v-22.8h-9.1v-5.7H279V355.8z"/>
		<path class="st5" d="M291.8,378.6h-7.1v-28.4h7.1V378.6z"/>
		<path class="st5" d="M323.7,368.8c-0.2,3.1-1.4,5.6-3.7,7.4c-2.3,1.8-5.2,2.7-8.9,2.7c-4,0-7.1-1.2-9.3-3.6
			c-2.3-2.4-3.4-5.7-3.5-10v-1.6c0-4.2,1.2-7.6,3.5-10.2c2.3-2.5,5.4-3.8,9.3-3.8c3.7,0,6.6,0.9,8.8,2.8c2.2,1.8,3.5,4.4,3.8,7.6
			h-7.1c-0.2-3.1-2-4.7-5.6-4.7c-3.7,0-5.6,2.6-5.7,7.8v1.8c0,2.9,0.5,5,1.4,6.3c0.9,1.3,2.4,2,4.4,2c1.8,0,3.1-0.4,4-1.1
			c0.9-0.7,1.4-1.8,1.5-3.4H323.7z"/>
		<path class="st5" d="M347,373.2h-11l-2,5.4h-7.1l11.3-28.4h6.6l11.4,28.4H349L347,373.2z M337.9,368h7.2l-3.6-9.6L337.9,368z"/>
	</g>
	<g>
		<g>
			<path class="st2" d="M259.9,205h-39.2c-2,0-3.7,1.6-3.7,3.7c0,2,1.6,3.7,3.7,3.7h11.3v1.1c0,3.4,2.8,6.2,6.2,6.2h4.2
				c3.4,0,6.2-2.8,6.2-6.2v-1.1h11.3c2,0,3.7-1.6,3.7-3.7C263.6,206.7,261.9,205,259.9,205z"/>
			<path class="st2" d="M267.4,120.8c-8.6-7.7-20.2-11.4-31.8-10.1c-18.3,2-33.4,16.8-35.7,35c-1.7,13.4,2.9,26.3,12.7,35.3
				c5.2,4.8,7.3,8.9,7.3,14.3v1.3c0,1.8,1.4,3.2,3.2,3.2h34.3c1.8,0,3.2-1.4,3.2-3.2v-1.4c0-5.3,2.1-9.5,7.2-14.2
				c8.3-7.7,13.1-18.6,13.1-29.9C281,139.6,276.1,128.5,267.4,120.8z M236.1,176.6l-13.7-13.7l6.4-6.9l6.8,6.8l23-23l7.1,7.1
				L236.1,176.6z"/>
		</g>
	</g>
</g>
</svg>
