<?xml version="1.0" encoding="utf-8"?>
<!-- Generator: Adobe Illustrator 24.2.1, SVG Export Plug-In . SVG Version: 6.00 Build 0)  -->
<svg version="1.1" id="Capa_1" xmlns="http://www.w3.org/2000/svg" xmlns:xlink="http://www.w3.org/1999/xlink" x="0px" y="0px"
	 viewBox="0 0 460.9 433.9" style="enable-background:new 0 0 460.9 433.9;" xml:space="preserve">
<style type="text/css">
	.st0{fill:#E9ECEA;}
	.st1{fill:#00B4C3;}
	.st2{fill:#FFFFFF;}
	.st3{fill:#EF4853;}
	.st4{fill:#A8C838;}
	.st5{fill:#F9A048;}
</style>
<g>
	<path class="st0" d="M427.2,0H33.6C15.1,0,0,15.1,0,33.6v54.7v257.2v54.7c0,18.6,15.1,33.6,33.6,33.6h393.6
		c18.6,0,33.6-15.1,33.6-33.6v-54.7V88.4V33.6C460.9,15.1,445.8,0,427.2,0z"/>
	<path class="st3" d="M326.2,270.1H135.2c-13,0-23.6-10.6-23.6-23.6V83.2c0-13,10.6-23.6,23.6-23.6h190.9c13,0,23.6,10.6,23.6,23.6
		v163.3C349.7,259.6,339.2,270.1,326.2,270.1z"/>
	<g>
		<path class="st3" d="M143.8,316v9.4h-7.1v-28.4h12.1c2.3,0,4.4,0.4,6.2,1.2c1.8,0.8,3.2,2,4.1,3.5c1,1.5,1.5,3.2,1.5,5.1
			c0,2.8-1.1,5.1-3.2,6.7c-2.1,1.7-5,2.5-8.7,2.5H143.8z M143.8,310.3h5.1c1.5,0,2.7-0.3,3.5-0.9c0.8-0.6,1.2-1.5,1.2-2.6
			c0-1.3-0.4-2.3-1.2-3c-0.8-0.8-2-1.2-3.4-1.2h-5.1V310.3z"/>
		<path class="st3" d="M178.2,315.5h-4.4v9.8h-7.1v-28.4h11.9c3.6,0,6.4,0.7,8.4,2.2c2,1.5,3,3.6,3,6.3c0,2-0.4,3.7-1.3,5
			c-0.8,1.3-2.2,2.4-4.1,3.2l6.4,11.4v0.3h-7.6L178.2,315.5z M173.7,309.8h4.8c2.9,0,4.4-1.2,4.4-3.6c0-2.4-1.5-3.6-4.6-3.6h-4.6
			V309.8z"/>
		<path class="st3" d="M220.3,296.9v18.4c0,3.2-1,5.8-3.1,7.6s-5,2.8-8.8,2.8c-3.7,0-6.7-0.9-8.8-2.8c-2.1-1.9-3.2-4.4-3.2-7.6
			v-18.4h7.1v18.8c0.1,2.9,1.7,4.4,4.9,4.4c1.6,0,2.8-0.4,3.6-1.1c0.8-0.7,1.2-1.9,1.2-3.6v-18.4H220.3z"/>
		<path class="st3" d="M245.9,313.5h-11.7v6.2h13.8v5.7H227v-28.4H248v5.7h-13.8v5.2h11.7V313.5z"/>
		<path class="st3" d="M253.1,325.3v-28.4h11c3.8,0,6.7,0.7,8.7,2c2,1.3,3.1,3.3,3.1,5.8c0,1.4-0.4,2.7-1.1,3.8
			c-0.7,1.1-1.8,1.9-3.2,2.4c1.6,0.4,2.8,1.2,3.7,2.3c0.8,1.1,1.3,2.5,1.3,4c0,2.8-1,4.9-2.9,6.2c-1.9,1.3-4.8,2-8.4,2H253.1z
			 M260.2,308.7h4.3c2.8,0,4.3-1,4.3-3c0-1.1-0.3-2-1-2.4c-0.7-0.5-1.7-0.7-3.2-0.7h-4.4V308.7z M260.2,313.5v6.2h5
			c1.4,0,2.4-0.3,3.2-0.8c0.7-0.5,1.1-1.3,1.1-2.2c0-2.1-1.2-3.1-3.7-3.2H260.2z"/>
		<path class="st3" d="M300.4,319.9h-11l-2,5.4h-7.1l11.3-28.4h6.6l11.4,28.4h-7.1L300.4,319.9z M291.3,314.7h7.2l-3.6-9.6
			L291.3,314.7z"/>
		<path class="st3" d="M126.4,366.6v9.4h-7.1v-28.4h12.1c2.3,0,4.4,0.4,6.2,1.2c1.8,0.8,3.2,2,4.1,3.5c1,1.5,1.5,3.2,1.5,5.1
			c0,2.8-1.1,5.1-3.2,6.7c-2.1,1.7-5,2.5-8.7,2.5H126.4z M126.4,360.9h5.1c1.5,0,2.7-0.3,3.5-0.9c0.8-0.6,1.2-1.5,1.2-2.6
			c0-1.3-0.4-2.3-1.2-3c-0.8-0.8-2-1.2-3.4-1.2h-5.1V360.9z"/>
		<path class="st3" d="M165.1,368.3c0-0.9-0.4-1.7-1.2-2.3c-0.8-0.6-2.2-1.1-4.1-1.5c-1.9-0.5-3.5-0.9-4.8-1.5
			c-1.3-0.5-2.4-1.1-3.2-1.8c-0.8-0.7-1.5-1.5-1.9-2.4c-0.4-0.9-0.6-2-0.6-3.3c0-2.4,1-4.5,3.1-6c2-1.6,4.7-2.4,7.9-2.4
			c3.5,0,6.3,0.8,8.5,2.4c2.2,1.6,3.2,3.8,3.2,6.5h-7.1c0-1-0.4-1.9-1.3-2.6c-0.8-0.7-2-1-3.4-1c-1.3,0-2.3,0.3-3.1,0.8
			c-0.8,0.6-1.2,1.2-1.2,2.1s0.4,1.5,1.2,2c0.8,0.5,2.2,1,4.1,1.5c3.8,0.8,6.5,2,8.1,3.4c1.6,1.5,2.5,3.4,2.5,5.9c0,2.5-1,4.5-3,6
			c-2,1.5-4.7,2.2-8.2,2.2c-2.4,0-4.5-0.4-6.4-1.1s-3.4-1.9-4.4-3.3c-1-1.4-1.6-3.1-1.6-5h7.1c0,1.5,0.5,2.6,1.4,3.3
			c0.9,0.7,2.3,1,4.2,1c1.3,0,2.3-0.3,3-0.8C164.7,369.9,165.1,369.2,165.1,368.3z"/>
		<path class="st3" d="M185.6,376h-7.1v-28.4h7.1V376z M183.5,337.8h7.7l-6.8,7.6h-5.7L183.5,337.8z"/>
		<path class="st3" d="M218.6,362.3c0,2.6-0.5,4.9-1.4,6.8c-0.9,1.9-2.1,3.5-3.7,4.7l4.8,3.6l-4.4,3.8l-6.5-5
			c-0.7,0.1-1.3,0.1-2,0.1c-4,0-7.2-1.3-9.6-3.8c-2.5-2.5-3.7-6-3.7-10.4v-1c0-2.8,0.5-5.3,1.6-7.4c1.1-2.1,2.6-3.8,4.7-4.9
			c2-1.2,4.3-1.7,7-1.7c2.6,0,4.9,0.6,6.9,1.7c2,1.1,3.6,2.8,4.7,4.9c1.1,2.1,1.7,4.6,1.7,7.3V362.3z M211.6,361.2
			c0-2.7-0.5-4.8-1.6-6.2c-1.1-1.4-2.6-2.2-4.6-2.2c-2,0-3.6,0.7-4.6,2.2c-1.1,1.4-1.6,3.5-1.6,6.2v1.1c0,2.7,0.5,4.8,1.6,6.2
			c1.1,1.5,2.6,2.2,4.6,2.2c1.9,0,3.4-0.7,4.5-2.2c1.1-1.5,1.6-3.6,1.6-6.3V361.2z"/>
		<path class="st3" d="M248.4,347.5V366c0,3.2-1,5.8-3.1,7.6s-5,2.8-8.8,2.8c-3.7,0-6.7-0.9-8.8-2.8c-2.1-1.9-3.2-4.4-3.2-7.6v-18.4
			h7.1v18.8c0.1,2.9,1.7,4.4,4.9,4.4c1.6,0,2.8-0.4,3.6-1.1c0.8-0.7,1.2-1.9,1.2-3.6v-18.4H248.4z"/>
		<path class="st3" d="M262.7,376h-7.1v-28.4h7.1V376z"/>
		<path class="st3" d="M294.5,366.2c-0.2,3.1-1.4,5.6-3.7,7.4c-2.3,1.8-5.2,2.7-8.9,2.7c-4,0-7.1-1.2-9.3-3.6
			c-2.3-2.4-3.4-5.7-3.5-10v-1.6c0-4.2,1.2-7.6,3.5-10.2c2.3-2.5,5.4-3.8,9.3-3.8c3.7,0,6.6,0.9,8.8,2.8c2.2,1.8,3.5,4.4,3.8,7.6
			h-7.1c-0.2-3.1-2-4.7-5.6-4.7c-3.7,0-5.6,2.6-5.7,7.8v1.8c0,2.9,0.5,5,1.4,6.3c0.9,1.3,2.4,2,4.4,2c1.8,0,3.1-0.4,4-1.1
			c0.9-0.7,1.4-1.8,1.5-3.4H294.5z"/>
		<path class="st3" d="M317.8,370.6h-11l-2,5.4h-7.1l11.3-28.4h6.6L327,376h-7.1L317.8,370.6z M308.7,365.4h7.2l-3.6-9.6
			L308.7,365.4z"/>
	</g>
	<g>
		<path class="st2" d="M221.8,150c3.2-3.3,3.9-6.6,1.5-10.4c-0.4-0.6-0.3-1.7-0.2-2.4c1.4-7.1-2.1-13.1-8.8-14.9
			c-6.6-1.8-13.2,1.8-15.5,8.5c-0.2,0.7-0.5,1.4-0.7,2.1c-12.3,1.9-17.8,9.1-16.4,21.1c0.1,0.8-0.3,1.8-0.8,2.6
			c-1.9,3.2-2.8,6.5-2.1,10.3c0.2,1-0.2,2.3-0.7,3.2c-3,5.1-2.5,10.5,1.7,14.6c1.3,1.3,1.5,2.3,1.1,4c-2.7,10.3,4,19.8,14.6,20.8
			c1.8,0.2,2.6,0.7,3.1,2.5c2.1,7.2,9.4,11,16.3,8.7c7.1-2.3,10.5-9.8,8-16.9c-0.5-1.3-0.4-3.1,0-4.4c2.2-5.8,2.5-11.5-0.3-17.2
			c-0.3-0.7-0.2-1.9,0.3-2.5c3-3.9,3.5-8,1.3-12.5c-0.3-0.7-0.4-1.8-0.1-2.4C227.2,159.2,226.1,154.4,221.8,150z"/>
		<path class="st2" d="M281.8,171.1c-0.6-1.3-1.1-2.4-1.1-3.5l0-1.4c-0.1-3.4-0.2-6.9-2-10.3c-0.5-0.9-0.7-2-0.6-2.9
			c1.2-11-5.3-19.9-15.9-21.6c-1-0.2-1.2-0.3-1.6-1.5c-2.4-7.4-10.1-11.5-17.5-9.5c-7.6,2.1-11.7,8.8-10.2,16.7
			c0.1,0.3,0.2,1.1,0.3,1.1c-1.9,2.9-3.3,7.1,0.4,11.8c-4.1,4.9-4.6,10.2-1.5,15.5c0,0.1,0,0.4-0.1,0.6c-2.5,5.1-2,10,1.4,14.5
			c0.1,0.1,0.2,0.5,0.2,0.5c-2.9,5.7-3,12-0.4,19c0.3,0.8,0.3,2,0,2.8c-1.4,4-1.2,8.3,0.6,12c1.7,3.5,4.7,6.1,8.5,7.4
			c1.6,0.5,3.2,0.8,4.7,0.8c2.3,0,4.6-0.6,6.7-1.7c3.6-1.9,6.2-5.2,7.4-9.3c0.3-0.9,0.3-0.9,1.1-1c5.8-0.5,10.8-3.1,13.9-7.5
			c3.2-4.4,4.2-10.2,2.7-16c0-0.4,0.5-1.4,0.8-2c0.4-0.8,0.9-1.6,1.3-2.3c0.9-1.4,1.7-2.8,2.3-4.5
			C283.9,175.9,282.8,173.3,281.8,171.1z M274.7,181.9c-2.6,2.1-3.1,4.2-2.1,7.4c1.2,3.5,0.7,7.4-1.4,10.6c-2,3.1-5.3,5.1-8.8,5.4
			c-1.1,0.1-1.2,0.1-1.7-1.1c-0.8-2.4-2.4-4.3-3.9-6.2l-0.4-0.5c-0.8-1-2.1-1.1-3-1.1c-0.2,0-0.5,0-0.7,0c-0.7-0.1-1.3,0.2-1.7,0.7
			c-0.4,0.5-0.5,1.2-0.3,1.8c0.1,0.2,0.1,0.4,0.2,0.6c0.2,0.7,0.4,1.6,1.2,2.2c2.6,2.5,3.6,5,3.2,8c-0.6,3.7-2.4,6-5.8,7
			c-3.5,1.1-6.6,0.3-9-2.3c-2.5-2.7-3-5.8-1.6-9.1c1.1-2.4,1.1-4.5,0-6.9c-2.6-5.9-2.3-10.9,0.7-15.6c0.9-1.4,0.4-3.7-0.6-4.8
			c-3.3-3.6-3.5-5.7-1.1-10c0.7-1.2,0.7-3.2,0-4.3c-3-5-2.5-7.6,1.9-10.8c0.6-0.4,2.1-1.5,1.9-3.1c-0.1-1.6-1.7-2.4-2.4-2.8
			c-1.3-0.7-2-1.4-2.2-2.1c-0.2-0.8,0.1-1.8,1-3.2c1-1.5,0.9-3.7,0.6-5.1c-0.6-2.4-0.3-4.8,0.9-6.7c1.1-1.8,2.9-3.1,5.2-3.6
			c0.6-0.2,1.3-0.2,1.9-0.2c1.6,0,3.1,0.4,4.4,1.3c1.6,1,2.7,2.5,3.4,4.3l-1,0.6c-2,1.1-4,2.1-5.8,3.3c-0.4,0.2-0.7,0.6-0.9,0.9
			c0-0.4-0.1-0.7-0.1-1c0-0.1-0.1-0.3-0.1-0.4c0-0.5-0.3-1-0.7-1.3c-0.4-0.3-1-0.4-1.5-0.3c-0.1,0-0.3,0.1-0.5,0.1
			c-0.8,0.1-2.2,0.3-2.6,1.6c-0.2,0.5-0.4,1.1-0.6,1.6c-0.7,1.9-1.5,4-1,6.1c0.6,2.4,1.8,4.6,3.2,6.8c0.3,0.6,0.7,1.2,1,1.8
			c-0.2,0.2-0.3,0.4-0.5,0.6c-1.6,2.1-2.1,4.8-1.4,7.3c0.7,2.4,2.4,4.3,4.8,5.2c0.5,0.2,1,0.3,1.5,0.3c0.6,0,1.1-0.1,1.6-0.2
			c0.3-0.1,0.6-0.1,0.8-0.1c0.7-0.1,1.3-0.5,1.6-1.2c0.3-0.7,0.1-1.4-0.4-1.9c-0.2-0.2-0.3-0.4-0.5-0.5c-0.5-0.6-1.1-1.3-1.9-1.7
			c-1.5-0.8-1.7-1.5-1.6-2.5c0.1-0.8,0.5-1.7,2.2-1.8c0.4,0,0.8,0,1.2,0c0.7,0,1.4,0,2.2-0.1c1.5-0.3,2.9-0.8,4.2-1.4
			c1.1-0.5,1.3-1.6,1.4-2.4c0-0.1,0.1-0.3,0.1-0.4c0.2-0.5,0.1-1.1-0.2-1.5c-0.3-0.5-0.7-0.8-1.3-0.9l-0.5-0.1
			c-0.5-0.1-1-0.2-1.6-0.2c-0.7-0.1-1.5,0.1-2.2,0.2c-1.1,0.1-2.2,0.3-2.9,0c-2.1-0.8-3.5-2.2-4.3-3.9c-0.5-1.2-0.6-2.5-0.4-3.9
			c0.1,0.2,0.1,0.4,0.3,0.6c0.5,0.5,1.2,0.7,1.8,0.6c0.2-0.1,0.4-0.1,0.7-0.1c0.7-0.1,1.6-0.3,2.4-0.8c5.1-3.6,10.9-4,15.4-1
			c3.2,2.1,5.3,6.5,5.4,11.1c-0.1-0.1-0.1-0.2-0.2-0.2c-0.2-0.1-0.4-0.3-0.6-0.5c-0.6-0.5-1.4-1.2-2.5-1.4
			c-4.3-0.9-8.9,1.8-10.6,6.1c-1.7,4.3-0.2,9.3,3.6,11.7c1,0.6,2.1,0.7,2.9,0.7c0.3,0,0.6,0,0.8,0.1c0.1,0,0.2,0,0.3,0
			c0.6,0,1.2-0.3,1.5-0.8c0.4-0.6,0.4-1.4,0-2c-0.1-0.2-0.2-0.4-0.4-0.7c-0.4-0.7-0.8-1.4-1.5-2c-1.8-1.5-2.2-2.9-1.6-4.6
			c0.4-1.2,1.5-2.7,5.3-2.3c0.4,0.1,0.8-0.1,1.2-0.3l1.5-0.9c0,0,0-0.1,0.1-0.1c0,0.1,0,0.2,0,0.3c-0.3,1.6,0.1,3.5,1,4.8
			c2.1,3.1,2.6,6.4,1.5,9.2c-1.1,2.8-3.8,4.7-7.6,5.4c-1.1,0.2-1.8,0.9-2.3,1.5c-0.1,0.2-0.3,0.3-0.5,0.4c-0.5,0.4-0.7,1.1-0.6,1.7
			c0.1,0.6,0.5,1.2,1.2,1.4c0.2,0.1,0.3,0.2,0.5,0.3c0.8,0.4,1.8,0.9,2.9,0.5c2.9-1.1,5.6-2.3,8-3.6c0.3-0.2,0.6-0.4,0.8-0.6
			C277.8,177,277.1,179.9,274.7,181.9z"/>
		<path class="st2" d="M253.3,190.4c-0.8-0.6-1.7-1.2-2.9-1.3c-4.2-0.5-8.7,2.3-10.1,6.5c-1.5,4.3,0.3,9.6,4,11.7
			c0.7,0.4,1.5,0.5,2.1,0.5c0.2,0,0.5,0,0.7,0c0.3,0,0.5,0,0.7,0c0.7,0,1.3-0.3,1.7-0.9c0.3-0.6,0.3-1.3,0-1.9
			c-0.1-0.2-0.2-0.4-0.3-0.6c-0.3-0.6-0.7-1.4-1.5-2c-2.3-1.8-2.1-3.4-1.7-4.6c0.7-1.9,1.9-2.5,4-2.1c0.4,0.1,0.8,0,1.1-0.1l2.7-1.3
			c0.6-0.3,1-0.9,1-1.6c0-0.7-0.3-1.3-0.9-1.7C253.8,190.8,253.6,190.6,253.3,190.4z"/>
		<path class="st2" d="M240.3,176c0.2,0,0.3,0,0.5,0c0.6,0,1.4,0,2.2-0.4c0.7-0.4,1.5-0.8,2.2-1.2c0.9-0.5,1.7-1,2.5-1.4
			c3.2-1.3,6.5-1.1,10.4,0.8c0.9,0.4,1.9,0.4,2.7,0.4c0.2,0,0.5,0,0.7,0c0.9,0.1,1.8-0.7,1.9-1.6l0.1-0.9c0.1-0.5-0.4-1.3-0.7-1.7
			c-0.3-0.3-0.6-0.6-0.9-0.9c-5.7-4.5-17.7-3.4-22.5,2.1c-0.6,0.7-0.8,1.6-0.8,2.3c0,0.2,0,0.3-0.1,0.5c-0.1,0.6,0,1.2,0.4,1.6
			c0.3,0.4,0.9,0.6,1.4,0.6C240.2,176,240.2,176,240.3,176z"/>
		<path class="st2" d="M260.7,176.6c-0.1-0.2-0.2-0.3-0.3-0.5c-0.3-0.6-0.8-0.9-1.4-1c-0.6-0.1-1.2,0.1-1.6,0.6
			c-0.1,0.1-0.2,0.2-0.4,0.3c-0.5,0.4-1.1,1-1.4,1.9c-0.6,2.1-1.4,2.2-2.3,2.2c-0.8,0-1.7-0.2-2.3-2.2c-0.3-0.9-1-1.5-1.5-1.9
			c-0.1-0.1-0.3-0.2-0.4-0.3c-0.4-0.4-1-0.6-1.7-0.5c-0.6,0.1-1.1,0.5-1.3,1.1c-0.1,0.2-0.2,0.3-0.3,0.5c-0.3,0.6-0.8,1.5-0.7,2.5
			c0.3,3.9,3.9,7,8.1,7c0,0,0,0,0,0c4.2,0,7.8-3.2,8.1-7C261.6,178.1,261.1,177.2,260.7,176.6z"/>
		<path class="st2" d="M270.6,180.6c-0.2-0.1-0.3-0.2-0.5-0.3c-0.6-0.4-1.4-0.9-2.4-0.9c-4,0-7.4,3.7-7.5,8c-0.1,4,2.5,7.3,6.2,8
			c0.2,0,0.4,0.1,0.6,0.1c0.7,0,1.3-0.2,1.9-0.4c0.2-0.1,0.4-0.1,0.6-0.2c0.6-0.1,1.1-0.6,1.3-1.2c0.2-0.6,0.1-1.3-0.3-1.8
			c-0.1-0.1-0.2-0.3-0.3-0.4c-0.4-0.6-0.9-1.4-1.9-1.8c-1.8-0.7-2-1.5-1.9-2.3c0-0.8,0.2-1.7,2.2-2.1c1-0.2,1.6-0.9,2.1-1.4
			c0.1-0.1,0.2-0.2,0.3-0.3c0.5-0.4,0.7-1,0.6-1.6C271.5,181.4,271.1,180.9,270.6,180.6z"/>
	</g>
</g>
</svg>
