<?xml version="1.0" encoding="utf-8"?>
<!-- Generator: Adobe Illustrator 24.2.1, SVG Export Plug-In . SVG Version: 6.00 Build 0)  -->
<svg version="1.1" id="Layer_1" xmlns:sketch="http://www.bohemiancoding.com/sketch/ns"
	 xmlns="http://www.w3.org/2000/svg" xmlns:xlink="http://www.w3.org/1999/xlink" x="0px" y="0px" viewBox="0 0 40 40.6"
	 style="enable-background:new 0 0 40 40.6;" xml:space="preserve">
<style type="text/css">
	.st0{fill-rule:evenodd;clip-rule:evenodd;fill:#63A856;}
</style>
<desc>Created with Sketch.</desc>
<g sketch:type="MSPage">
	<g sketch:type="MSArtboardGroup">
		<path sketch:type="MSShapeGroup" class="st0" d="M19.9,38.7c-10.4,0-18.8-8.4-18.8-18.8S9.5,1.1,19.9,1.1s18.8,8.4,18.8,18.8
			S30.3,38.7,19.9,38.7L19.9,38.7z M19.9,36C28.8,36,36,28.8,36,19.9S28.8,3.8,19.9,3.8S3.8,11,3.8,19.9S11,36,19.9,36L19.9,36z
			 M17.2,22.8L13.4,19l-1.9,1.9l4.8,4.8l1,1l11.4-11.4l-1.9-1.9L17.2,22.8L17.2,22.8L17.2,22.8z"/>
	</g>
</g>
</svg>
