<?xml version="1.0" encoding="utf-8"?>
<!-- Generator: Adobe Illustrator 24.2.1, SVG Export Plug-In . SVG Version: 6.00 Build 0)  -->
<svg version="1.1" id="Layer_1" xmlns="http://www.w3.org/2000/svg" xmlns:xlink="http://www.w3.org/1999/xlink" x="0px" y="0px"
	 viewBox="0 0 468 439" style="enable-background:new 0 0 468 439;" xml:space="preserve">
<style type="text/css">
	.st0{fill:#E8EBE9;}
	.st1{enable-background:new    ;}
	.st2{fill:#EE4753;}
	.st3{fill:#FFFFFF;}
</style>
<g>
	<path class="st0" d="M430.9,0.7H37.2c-18.5,0-33.6,15-33.6,33.6V89v257.2V401c0,18.6,15.1,33.6,33.6,33.6h393.6
		c18.6,0,33.6-15.1,33.6-33.6v-54.7V89V34.3C464.5,15.7,449.4,0.7,430.9,0.7z"/>
	<g class="st1">
		<path class="st2" d="M169.7,317.6c0,4.5-1,8.2-3.1,10.9c-2.1,2.7-4.8,4.1-8.3,4.1c-3,0-5.4-1-7.2-3.1v13.9h-7.9v-40.8h7.3l0.3,2.9
			c1.9-2.3,4.4-3.4,7.5-3.4c3.6,0,6.5,1.3,8.5,4c2,2.7,3,6.4,3,11.1V317.6z M161.8,317c0-2.7-0.5-4.9-1.5-6.3s-2.4-2.2-4.2-2.2
			c-2.5,0-4.2,0.9-5.1,2.8v12.1c1,1.9,2.7,2.9,5.1,2.9C159.9,326.2,161.8,323.1,161.8,317z"/>
		<path class="st2" d="M193.1,309.9c-1.1-0.1-2-0.2-2.8-0.2c-3,0-4.9,1-5.9,3V332h-7.9v-29.5h7.4l0.2,3.5c1.6-2.7,3.8-4.1,6.6-4.1
			c0.9,0,1.7,0.1,2.5,0.4L193.1,309.9z"/>
		<path class="st2" d="M216.4,329c-1.9,2.4-4.6,3.5-8.1,3.5c-3.2,0-5.6-0.9-7.2-2.7c-1.7-1.8-2.5-4.5-2.5-8v-19.3h7.9v19.1
			c0,3.1,1.4,4.6,4.2,4.6c2.7,0,4.5-0.9,5.5-2.8v-20.9h7.9V332h-7.4L216.4,329z"/>
		<path class="st2" d="M245.5,332.6c-4.3,0-7.8-1.3-10.5-4c-2.7-2.6-4.1-6.2-4.1-10.6v-0.8c0-3,0.6-5.6,1.7-7.9s2.8-4.1,4.9-5.4
			s4.5-1.9,7.2-1.9c4,0,7.2,1.3,9.5,3.8s3.5,6.1,3.5,10.8v3.2h-18.8c0.3,1.9,1,3.5,2.3,4.6c1.3,1.2,2.9,1.7,4.9,1.7
			c3,0,5.4-1.1,7.1-3.3l3.9,4.3c-1.2,1.7-2.8,3-4.8,3.9S247.9,332.6,245.5,332.6z M244.6,308.4c-1.6,0-2.8,0.5-3.8,1.6
			s-1.6,2.6-1.9,4.5h10.9v-0.6c0-1.8-0.5-3.1-1.4-4.1S246.3,308.4,244.6,308.4z"/>
		<path class="st2" d="M290.6,317.6c0,4.7-1,8.4-3,11s-4.8,4-8.4,4c-3.2,0-5.7-1.2-7.7-3.7l-0.4,3.1H264v-41.8h7.9v15
			c1.8-2.1,4.2-3.2,7.2-3.2c3.6,0,6.4,1.3,8.5,4c2,2.6,3.1,6.4,3.1,11.1V317.6z M282.7,317c0-3-0.5-5.2-1.4-6.5
			c-0.9-1.4-2.4-2.1-4.2-2.1c-2.5,0-4.2,1-5.2,3.1v11.6c1,2.1,2.7,3.1,5.2,3.1c2.5,0,4.2-1.3,5-3.8
			C282.5,321.3,282.7,319.4,282.7,317z"/>
		<path class="st2" d="M314.4,332c-0.4-0.7-0.6-1.6-0.8-2.6c-1.9,2.1-4.4,3.2-7.4,3.2c-2.9,0-5.3-0.8-7.2-2.5s-2.8-3.8-2.8-6.3
			c0-3.1,1.2-5.5,3.5-7.2c2.3-1.7,5.7-2.5,10-2.5h3.6v-1.7c0-1.4-0.3-2.5-1-3.3c-0.7-0.8-1.8-1.2-3.3-1.2c-1.3,0-2.4,0.3-3.1,1
			c-0.8,0.6-1.1,1.5-1.1,2.6h-7.9c0-1.7,0.5-3.3,1.6-4.7c1.1-1.5,2.5-2.6,4.5-3.4c1.9-0.8,4.1-1.2,6.5-1.2c3.6,0,6.5,0.9,8.6,2.7
			s3.2,4.4,3.2,7.7v12.8c0,2.8,0.4,4.9,1.2,6.3v0.5H314.4z M307.9,326.5c1.2,0,2.2-0.3,3.2-0.8c1-0.5,1.7-1.2,2.2-2.1v-5.1h-2.9
			c-3.9,0-6,1.4-6.3,4.1l0,0.5c0,1,0.3,1.8,1,2.4C305.8,326.2,306.7,326.5,307.9,326.5z"/>
	</g>
	<g class="st1">
		<path class="st2" d="M149,368.2c0,4.5-1,8.2-3.1,10.9c-2.1,2.7-4.8,4.1-8.3,4.1c-3,0-5.4-1-7.2-3.1v13.9h-7.9v-40.8h7.3l0.3,2.9
			c1.9-2.3,4.4-3.4,7.5-3.4c3.6,0,6.5,1.3,8.5,4c2,2.7,3,6.4,3,11.1V368.2z M141.1,367.6c0-2.7-0.5-4.9-1.5-6.3s-2.4-2.2-4.2-2.2
			c-2.5,0-4.2,0.9-5.1,2.8v12.1c1,1.9,2.7,2.9,5.1,2.9C139.2,376.8,141.1,373.7,141.1,367.6z"/>
		<path class="st2" d="M171.8,374.5c0-1-0.5-1.7-1.4-2.3s-2.5-1-4.6-1.5c-7-1.5-10.5-4.4-10.5-8.9c0-2.6,1.1-4.8,3.3-6.5
			c2.2-1.8,5-2.6,8.5-2.6c3.7,0,6.7,0.9,9,2.6c2.2,1.8,3.4,4,3.4,6.9h-7.9c0-1.1-0.4-2.1-1.1-2.8c-0.7-0.7-1.9-1.1-3.4-1.1
			c-1.3,0-2.4,0.3-3.1,0.9c-0.7,0.6-1.1,1.4-1.1,2.3c0,0.9,0.4,1.6,1.2,2.1s2.2,1,4.2,1.4c2,0.4,3.6,0.8,5,1.3
			c4.2,1.5,6.2,4.2,6.2,7.9c0,2.7-1.2,4.9-3.5,6.5c-2.3,1.7-5.3,2.5-8.9,2.5c-2.5,0-4.7-0.4-6.6-1.3c-1.9-0.9-3.4-2.1-4.5-3.6
			c-1.1-1.5-1.6-3.2-1.6-5h7.5c0.1,1.4,0.6,2.5,1.6,3.2c1,0.7,2.3,1.1,3.9,1.1c1.5,0,2.6-0.3,3.4-0.9
			C171.4,376.2,171.8,375.4,171.8,374.5z"/>
		<path class="st2" d="M186.4,345.5c0-1.2,0.4-2.2,1.2-2.9c0.8-0.8,1.9-1.1,3.2-1.1c1.3,0,2.4,0.4,3.2,1.1c0.8,0.8,1.2,1.7,1.2,2.9
			c0,1.2-0.4,2.2-1.2,2.9c-0.8,0.8-1.9,1.1-3.2,1.1s-2.4-0.4-3.2-1.1C186.8,347.7,186.4,346.7,186.4,345.5z M194.7,382.6h-7.9v-29.5
			h7.9V382.6z"/>
		<path class="st2" d="M201.9,367.6c0-4.6,1-8.3,3.1-11c2.1-2.7,4.9-4,8.5-4c3.2,0,5.7,1.2,7.5,3.6l0.5-3.1h6.9v40.8h-7.9v-13.9
			c-1.8,2.1-4.2,3.1-7.1,3.1c-3.5,0-6.3-1.4-8.4-4.1S201.9,372.5,201.9,367.6z M209.8,368.2c0,2.8,0.5,5,1.5,6.4s2.4,2.2,4.2,2.2
			c2.4,0,4.1-1,5.1-2.9v-12.2c-1-1.9-2.7-2.8-5.1-2.8c-1.8,0-3.2,0.7-4.2,2.2S209.8,365,209.8,368.2z"/>
		<path class="st2" d="M254.2,379.6c-1.9,2.4-4.6,3.5-8.1,3.5c-3.2,0-5.6-0.9-7.2-2.7c-1.7-1.8-2.5-4.5-2.5-8v-19.3h7.9v19.1
			c0,3.1,1.4,4.6,4.2,4.6c2.7,0,4.5-0.9,5.5-2.8v-20.9h7.9v29.5h-7.4L254.2,379.6z"/>
		<path class="st2" d="M269.7,345.5c0-1.2,0.4-2.2,1.2-2.9c0.8-0.8,1.9-1.1,3.2-1.1c1.3,0,2.4,0.4,3.2,1.1c0.8,0.8,1.2,1.7,1.2,2.9
			c0,1.2-0.4,2.2-1.2,2.9c-0.8,0.8-1.9,1.1-3.2,1.1s-2.4-0.4-3.2-1.1C270.1,347.7,269.7,346.7,269.7,345.5z M278.1,382.6h-7.9v-29.5
			h7.9V382.6z"/>
		<path class="st2" d="M298.7,376.8c1.5,0,2.6-0.4,3.5-1.2c0.9-0.8,1.4-1.9,1.4-3.2h7.4c0,2-0.6,3.8-1.6,5.5
			c-1.1,1.7-2.5,2.9-4.4,3.9c-1.9,0.9-3.9,1.4-6.2,1.4c-4.2,0-7.5-1.3-10-4c-2.4-2.7-3.6-6.4-3.6-11.1v-0.5c0-4.5,1.2-8.2,3.6-10.9
			c2.4-2.7,5.7-4.1,9.9-4.1c3.7,0,6.6,1,8.9,3.1s3.4,4.9,3.4,8.4h-7.4c0-1.5-0.5-2.8-1.4-3.7c-0.9-1-2.1-1.4-3.6-1.4
			c-1.8,0-3.2,0.7-4.2,2c-0.9,1.3-1.4,3.5-1.4,6.5v0.8c0,3,0.5,5.2,1.4,6.5S296.9,376.8,298.7,376.8z"/>
		<path class="st2" d="M334.6,382.6c-0.4-0.7-0.6-1.6-0.8-2.6c-1.9,2.1-4.4,3.2-7.4,3.2c-2.9,0-5.3-0.8-7.2-2.5s-2.8-3.8-2.8-6.3
			c0-3.1,1.2-5.5,3.5-7.2c2.3-1.7,5.7-2.5,10-2.5h3.6v-1.7c0-1.4-0.3-2.5-1-3.3c-0.7-0.8-1.8-1.2-3.3-1.2c-1.3,0-2.4,0.3-3.1,1
			c-0.8,0.6-1.1,1.5-1.1,2.6H317c0-1.7,0.5-3.3,1.6-4.7c1.1-1.5,2.5-2.6,4.5-3.4c1.9-0.8,4.1-1.2,6.5-1.2c3.6,0,6.5,0.9,8.6,2.7
			s3.2,4.4,3.2,7.7v12.8c0,2.8,0.4,4.9,1.2,6.3v0.5H334.6z M328.1,377.1c1.2,0,2.2-0.3,3.2-0.8c1-0.5,1.7-1.2,2.2-2.1v-5.1h-2.9
			c-3.9,0-6,1.4-6.3,4.1l0,0.5c0,1,0.3,1.8,1,2.4C325.9,376.8,326.9,377.1,328.1,377.1z"/>
	</g>
</g>
<path class="st2" d="M329.5,276.8h-191c-13,0-23.6-10.6-23.6-23.6V89.9c0-13,10.6-23.6,23.6-23.6h190.9c13,0,23.6,10.6,23.6,23.6
	v163.3C353,266.2,342.5,276.8,329.5,276.8z"/>
<g>
	<path class="st3" d="M226,156.7c3.2-3.3,3.9-6.6,1.5-10.4c-0.4-0.6-0.3-1.7-0.2-2.4c1.4-7.1-2.1-13.1-8.8-14.9
		c-6.6-1.8-13.2,1.8-15.5,8.5c-0.2,0.7-0.5,1.4-0.7,2.1c-12.3,1.9-17.8,9.1-16.4,21.1c0.1,0.8-0.3,1.8-0.8,2.6
		c-1.9,3.2-2.8,6.5-2.1,10.3c0.2,1-0.2,2.3-0.7,3.2c-3,5.1-2.5,10.5,1.7,14.6c1.3,1.3,1.5,2.3,1.1,4c-2.7,10.3,4,19.8,14.6,20.8
		c1.8,0.2,2.6,0.7,3.1,2.5c2.1,7.2,9.4,11,16.3,8.7c7.1-2.3,10.5-9.8,8-16.9c-0.5-1.3-0.4-3.1,0-4.4c2.2-5.8,2.5-11.5-0.3-17.2
		c-0.3-0.7-0.2-1.9,0.3-2.5c3-3.9,3.5-8,1.3-12.5c-0.3-0.7-0.4-1.8-0.1-2.4C231.4,165.9,230.4,161.1,226,156.7z"/>
	<path class="st3" d="M286,177.8c-0.6-1.3-1.1-2.4-1.1-3.5v-1.4c-0.1-3.4-0.2-6.9-2-10.3c-0.5-0.9-0.7-2-0.6-2.9
		c1.2-11-5.3-19.9-15.9-21.6c-1-0.2-1.2-0.3-1.6-1.5c-2.4-7.4-10.1-11.5-17.5-9.5c-7.6,2.1-11.7,8.8-10.2,16.7
		c0.1,0.3,0.2,1.1,0.3,1.1c-1.9,2.9-3.3,7.1,0.4,11.8c-4.1,4.9-4.6,10.2-1.5,15.5c0,0.1,0,0.4-0.1,0.6c-2.5,5.1-2,10,1.4,14.5
		c0.1,0.1,0.2,0.5,0.2,0.5c-2.9,5.7-3,12-0.4,19c0.3,0.8,0.3,2,0,2.8c-1.4,4-1.2,8.3,0.6,12c1.7,3.5,4.7,6.1,8.5,7.4
		c1.6,0.5,3.2,0.8,4.7,0.8c2.3,0,4.6-0.6,6.7-1.7c3.6-1.9,6.2-5.2,7.4-9.3c0.3-0.9,0.3-0.9,1.1-1c5.8-0.5,10.8-3.1,13.9-7.5
		c3.2-4.4,4.2-10.2,2.7-16c0-0.4,0.5-1.4,0.8-2c0.4-0.8,0.9-1.6,1.3-2.3c0.9-1.4,1.7-2.8,2.3-4.5C288.2,182.6,287,180,286,177.8z
		 M278.9,188.6c-2.6,2.1-3.1,4.2-2.1,7.4c1.2,3.5,0.7,7.4-1.4,10.6c-2,3.1-5.3,5.1-8.8,5.4c-1.1,0.1-1.2,0.1-1.7-1.1
		c-0.8-2.4-2.4-4.3-3.9-6.2l-0.4-0.5c-0.8-1-2.1-1.1-3-1.1c-0.2,0-0.5,0-0.7,0c-0.7-0.1-1.3,0.2-1.7,0.7s-0.5,1.2-0.3,1.8
		c0.1,0.2,0.1,0.4,0.2,0.6c0.2,0.7,0.4,1.6,1.2,2.2c2.6,2.5,3.6,5,3.2,8c-0.6,3.7-2.4,6-5.8,7c-3.5,1.1-6.6,0.3-9-2.3
		c-2.5-2.7-3-5.8-1.6-9.1c1.1-2.4,1.1-4.5,0-6.9c-2.6-5.9-2.3-10.9,0.7-15.6c0.9-1.4,0.4-3.7-0.6-4.8c-3.3-3.6-3.5-5.7-1.1-10
		c0.7-1.2,0.7-3.2,0-4.3c-3-5-2.5-7.6,1.9-10.8c0.6-0.4,2.1-1.5,1.9-3.1c-0.1-1.6-1.7-2.4-2.4-2.8c-1.3-0.7-2-1.4-2.2-2.1
		c-0.2-0.8,0.1-1.8,1-3.2c1-1.5,0.9-3.7,0.6-5.1c-0.6-2.4-0.3-4.8,0.9-6.7c1.1-1.8,2.9-3.1,5.2-3.6c0.6-0.2,1.3-0.2,1.9-0.2
		c1.6,0,3.1,0.4,4.4,1.3c1.6,1,2.7,2.5,3.4,4.3l-1,0.6c-2,1.1-4,2.1-5.8,3.3c-0.4,0.2-0.7,0.6-0.9,0.9c0-0.4-0.1-0.7-0.1-1
		c0-0.1-0.1-0.3-0.1-0.4c0-0.5-0.3-1-0.7-1.3s-1-0.4-1.5-0.3c-0.1,0-0.3,0.1-0.5,0.1c-0.8,0.1-2.2,0.3-2.6,1.6
		c-0.2,0.5-0.4,1.1-0.6,1.6c-0.7,1.9-1.5,4-1,6.1c0.6,2.4,1.8,4.6,3.2,6.8c0.3,0.6,0.7,1.2,1,1.8c-0.2,0.2-0.3,0.4-0.5,0.6
		c-1.6,2.1-2.1,4.8-1.4,7.3c0.7,2.4,2.4,4.3,4.8,5.2c0.5,0.2,1,0.3,1.5,0.3c0.6,0,1.1-0.1,1.6-0.2c0.3-0.1,0.6-0.1,0.8-0.1
		c0.7-0.1,1.3-0.5,1.6-1.2s0.1-1.4-0.4-1.9c-0.2-0.2-0.3-0.4-0.5-0.5c-0.5-0.6-1.1-1.3-1.9-1.7c-1.5-0.8-1.7-1.5-1.6-2.5
		c0.1-0.8,0.5-1.7,2.2-1.8c0.4,0,0.8,0,1.2,0c0.7,0,1.4,0,2.2-0.1c1.5-0.3,2.9-0.8,4.2-1.4c1.1-0.5,1.3-1.6,1.4-2.4
		c0-0.1,0.1-0.3,0.1-0.4c0.2-0.5,0.1-1.1-0.2-1.5c-0.3-0.5-0.7-0.8-1.3-0.9l-0.5-0.1c-0.5-0.1-1-0.2-1.6-0.2
		c-0.7-0.1-1.5,0.1-2.2,0.2c-1.1,0.1-2.2,0.3-2.9,0c-2.1-0.8-3.5-2.2-4.3-3.9c-0.5-1.2-0.6-2.5-0.4-3.9c0.1,0.2,0.1,0.4,0.3,0.6
		c0.5,0.5,1.2,0.7,1.8,0.6c0.2-0.1,0.4-0.1,0.7-0.1c0.7-0.1,1.6-0.3,2.4-0.8c5.1-3.6,10.9-4,15.4-1c3.2,2.1,5.3,6.5,5.4,11.1
		c-0.1-0.1-0.1-0.2-0.2-0.2c-0.2-0.1-0.4-0.3-0.6-0.5c-0.6-0.5-1.4-1.2-2.5-1.4c-4.3-0.9-8.9,1.8-10.6,6.1s-0.2,9.3,3.6,11.7
		c1,0.6,2.1,0.7,2.9,0.7c0.3,0,0.6,0,0.8,0.1c0.1,0,0.2,0,0.3,0c0.6,0,1.2-0.3,1.5-0.8c0.4-0.6,0.4-1.4,0-2
		c-0.1-0.2-0.2-0.4-0.4-0.7c-0.4-0.7-0.8-1.4-1.5-2c-1.8-1.5-2.2-2.9-1.6-4.6c0.4-1.2,1.5-2.7,5.3-2.3c0.4,0.1,0.8-0.1,1.2-0.3
		l1.5-0.9c0,0,0-0.1,0.1-0.1c0,0.1,0,0.2,0,0.3c-0.3,1.6,0.1,3.5,1,4.8c2.1,3.1,2.6,6.4,1.5,9.2s-3.8,4.7-7.6,5.4
		c-1.1,0.2-1.8,0.9-2.3,1.5c-0.1,0.2-0.3,0.3-0.5,0.4c-0.5,0.4-0.7,1.1-0.6,1.7c0.1,0.6,0.5,1.2,1.2,1.4c0.2,0.1,0.3,0.2,0.5,0.3
		c0.8,0.4,1.8,0.9,2.9,0.5c2.9-1.1,5.6-2.3,8-3.6c0.3-0.2,0.6-0.4,0.8-0.6C282,183.7,281.3,186.5,278.9,188.6z"/>
	<path class="st3" d="M257.5,197.1c-0.8-0.6-1.7-1.2-2.9-1.3c-4.2-0.5-8.7,2.3-10.1,6.5c-1.5,4.3,0.3,9.6,4,11.7
		c0.7,0.4,1.5,0.5,2.1,0.5c0.2,0,0.5,0,0.7,0c0.3,0,0.5,0,0.7,0c0.7,0,1.3-0.3,1.7-0.9c0.3-0.6,0.3-1.3,0-1.9
		c-0.1-0.2-0.2-0.4-0.3-0.6c-0.3-0.6-0.7-1.4-1.5-2c-2.3-1.8-2.1-3.4-1.7-4.6c0.7-1.9,1.9-2.5,4-2.1c0.4,0.1,0.8,0,1.1-0.1l2.7-1.3
		c0.6-0.3,1-0.9,1-1.6c0-0.7-0.3-1.3-0.9-1.7C258.1,197.5,257.8,197.3,257.5,197.1z"/>
	<path class="st3" d="M244.5,182.6c0.2,0,0.3,0,0.5,0c0.6,0,1.4,0,2.2-0.4c0.7-0.4,1.5-0.8,2.2-1.2c0.9-0.5,1.7-1,2.5-1.4
		c3.2-1.3,6.5-1.1,10.4,0.8c0.9,0.4,1.9,0.4,2.7,0.4c0.2,0,0.5,0,0.7,0c0.9,0.1,1.8-0.7,1.9-1.6l0.1-0.9c0.1-0.5-0.4-1.3-0.7-1.7
		c-0.3-0.3-0.6-0.6-0.9-0.9c-5.7-4.5-17.7-3.4-22.5,2.1c-0.6,0.7-0.8,1.6-0.8,2.3c0,0.2,0,0.3-0.1,0.5c-0.1,0.6,0,1.2,0.4,1.6
		c0.3,0.4,0.9,0.6,1.4,0.6C244.4,182.7,244.4,182.6,244.5,182.6z"/>
	<path class="st3" d="M264.9,183.3c-0.1-0.2-0.2-0.3-0.3-0.5c-0.3-0.6-0.8-0.9-1.4-1s-1.2,0.1-1.6,0.6c-0.1,0.1-0.2,0.2-0.4,0.3
		c-0.5,0.4-1.1,1-1.4,1.9c-0.6,2.1-1.4,2.2-2.3,2.2c-0.8,0-1.7-0.2-2.3-2.2c-0.3-0.9-1-1.5-1.5-1.9c-0.1-0.1-0.3-0.2-0.4-0.3
		c-0.4-0.4-1-0.6-1.7-0.5c-0.6,0.1-1.1,0.5-1.3,1.1c-0.1,0.2-0.2,0.3-0.3,0.5c-0.3,0.6-0.8,1.5-0.7,2.5c0.3,3.9,3.9,7,8.1,7l0,0
		c4.2,0,7.8-3.2,8.1-7C265.8,184.8,265.3,183.9,264.9,183.3z"/>
	<path class="st3" d="M274.8,187.3c-0.2-0.1-0.3-0.2-0.5-0.3c-0.6-0.4-1.4-0.9-2.4-0.9c-4,0-7.4,3.7-7.5,8c-0.1,4,2.5,7.3,6.2,8
		c0.2,0,0.4,0.1,0.6,0.1c0.7,0,1.3-0.2,1.9-0.4c0.2-0.1,0.4-0.1,0.6-0.2c0.6-0.1,1.1-0.6,1.3-1.2c0.2-0.6,0.1-1.3-0.3-1.8
		c-0.1-0.1-0.2-0.3-0.3-0.4c-0.4-0.6-0.9-1.4-1.9-1.8c-1.8-0.7-2-1.5-1.9-2.3c0-0.8,0.2-1.7,2.2-2.1c1-0.2,1.6-0.9,2.1-1.4
		c0.1-0.1,0.2-0.2,0.3-0.3c0.5-0.4,0.7-1,0.6-1.6C275.7,188.1,275.3,187.6,274.8,187.3z"/>
</g>
</svg>
