<?xml version="1.0" encoding="utf-8"?>
<!-- Generator: Adobe Illustrator 24.2.1, SVG Export Plug-In . SVG Version: 6.00 Build 0)  -->
<svg version="1.1" id="Layer_1" xmlns="http://www.w3.org/2000/svg" xmlns:xlink="http://www.w3.org/1999/xlink" x="0px" y="0px"
	 viewBox="0 0 468 439" style="enable-background:new 0 0 468 439;" xml:space="preserve">
<style type="text/css">
	.st0{fill:#E8EBE9;}
	.st1{fill:#F89F47;}
	.st2{fill:#FFFFFF;}
</style>
<g>
	<path class="st0" d="M430.9,0.7H37.2C18.7,0.7,3.6,15.7,3.6,34.3V89v257.2V401c0,18.6,15.1,33.6,33.6,33.6h393.6
		c18.6,0,33.6-15.1,33.6-33.6v-54.7V89V34.3C464.5,15.7,449.4,0.7,430.9,0.7z"/>
	<g>
		<path class="st1" d="M169.7,317.6c0,4.5-1,8.2-3.1,10.9c-2.1,2.7-4.8,4.1-8.3,4.1c-3,0-5.4-1-7.2-3.1v13.9h-7.9v-40.8h7.3l0.3,2.9
			c1.9-2.3,4.4-3.4,7.5-3.4c3.6,0,6.5,1.3,8.5,4c2,2.7,3,6.4,3,11.1V317.6z M161.8,317c0-2.7-0.5-4.9-1.5-6.3s-2.4-2.2-4.2-2.2
			c-2.5,0-4.2,0.9-5.1,2.8v12.1c1,1.9,2.7,2.9,5.1,2.9C159.9,326.2,161.8,323.1,161.8,317z"/>
		<path class="st1" d="M193.3,309.9c-1.1-0.1-2-0.2-2.8-0.2c-3,0-4.9,1-5.9,3V332h-7.9v-29.5h7.4l0.2,3.5c1.6-2.7,3.8-4.1,6.6-4.1
			c0.9,0,1.7,0.1,2.5,0.4L193.3,309.9z"/>
		<path class="st1" d="M217,329c-1.9,2.4-4.6,3.5-8.1,3.5c-3.2,0-5.6-0.9-7.2-2.7c-1.7-1.8-2.5-4.5-2.5-8v-19.3h7.9v19.1
			c0,3.1,1.4,4.6,4.2,4.6c2.7,0,4.5-0.9,5.5-2.8v-20.9h7.9V332h-7.4L217,329z"/>
		<path class="st1" d="M246.3,332.6c-4.3,0-7.8-1.3-10.5-4s-4.1-6.2-4.1-10.6v-0.8c0-3,0.6-5.6,1.7-7.9s2.8-4.1,4.9-5.4
			s4.5-1.9,7.2-1.9c4,0,7.2,1.3,9.5,3.8s3.5,6.1,3.5,10.8v3.2h-18.8c0.3,1.9,1,3.5,2.3,4.6c1.3,1.2,2.9,1.7,4.9,1.7
			c3,0,5.4-1.1,7.1-3.3l3.9,4.3c-1.2,1.7-2.8,3-4.8,3.9S248.8,332.6,246.3,332.6z M245.4,308.4c-1.6,0-2.8,0.5-3.8,1.6
			s-1.6,2.6-1.9,4.5h10.9v-0.6c0-1.8-0.5-3.1-1.4-4.1S247.1,308.4,245.4,308.4z"/>
		<path class="st1" d="M291.7,317.6c0,4.7-1,8.4-3,11s-4.8,4-8.4,4c-3.2,0-5.7-1.2-7.7-3.7l-0.4,3.1h-7.1v-41.8h7.9v15
			c1.8-2.1,4.2-3.2,7.2-3.2c3.6,0,6.4,1.3,8.5,4s3.1,6.4,3.1,11.1V317.6z M283.8,317c0-3-0.5-5.1-1.4-6.5c-0.9-1.4-2.4-2.1-4.2-2.1
			c-2.5,0-4.2,1-5.2,3.1v11.6c1,2.1,2.7,3.1,5.2,3.1c2.5,0,4.2-1.3,5-3.8C283.6,321.3,283.8,319.4,283.8,317z"/>
		<path class="st1" d="M315.8,332c-0.4-0.7-0.6-1.6-0.8-2.6c-1.9,2.1-4.4,3.2-7.4,3.2c-2.9,0-5.3-0.8-7.2-2.5
			c-1.9-1.7-2.8-3.8-2.8-6.3c0-3.1,1.2-5.5,3.5-7.2c2.3-1.7,5.7-2.5,10-2.5h3.6v-1.7c0-1.4-0.3-2.5-1-3.3c-0.7-0.8-1.8-1.2-3.3-1.2
			c-1.3,0-2.4,0.3-3.1,1c-0.8,0.6-1.1,1.5-1.1,2.6h-7.9c0-1.7,0.5-3.3,1.6-4.7s2.5-2.6,4.5-3.4c1.9-0.8,4.1-1.2,6.5-1.2
			c3.6,0,6.5,0.9,8.6,2.7s3.2,4.4,3.2,7.7v12.8c0,2.8,0.4,4.9,1.2,6.3v0.5H315.8z M309.3,326.5c1.2,0,2.2-0.3,3.2-0.8
			c1-0.5,1.7-1.2,2.2-2.1v-5.1h-2.9c-3.9,0-6,1.4-6.3,4.1l0,0.5c0,1,0.3,1.8,1,2.4C307.2,326.2,308.1,326.5,309.3,326.5z"/>
		<path class="st1" d="M153.4,368.2c0,4.5-1,8.2-3.1,10.9c-2.1,2.7-4.8,4.1-8.3,4.1c-3,0-5.4-1-7.2-3.1V394h-7.9v-40.8h7.3l0.3,2.9
			c1.9-2.3,4.4-3.4,7.5-3.4c3.6,0,6.5,1.3,8.5,4c2,2.7,3,6.4,3,11.1V368.2z M145.5,367.6c0-2.7-0.5-4.9-1.5-6.3s-2.4-2.2-4.2-2.2
			c-2.5,0-4.2,0.9-5.1,2.8V374c1,1.9,2.7,2.9,5.1,2.9C143.6,376.9,145.5,373.8,145.5,367.6z"/>
		<path class="st1" d="M177,360.6c-1.1-0.1-2-0.2-2.8-0.2c-3,0-4.9,1-5.9,3v19.3h-7.9v-29.5h7.4l0.2,3.5c1.6-2.7,3.8-4.1,6.6-4.1
			c0.9,0,1.7,0.1,2.5,0.4L177,360.6z"/>
		<path class="st1" d="M199.3,382.7c-0.4-0.7-0.6-1.6-0.8-2.6c-1.9,2.1-4.4,3.2-7.4,3.2c-2.9,0-5.3-0.8-7.2-2.5
			c-1.9-1.7-2.8-3.8-2.8-6.3c0-3.1,1.2-5.5,3.5-7.2c2.3-1.7,5.7-2.5,10-2.5h3.6V363c0-1.4-0.3-2.5-1-3.3c-0.7-0.8-1.8-1.2-3.3-1.2
			c-1.3,0-2.4,0.3-3.1,1c-0.8,0.6-1.1,1.5-1.1,2.6h-7.9c0-1.7,0.5-3.3,1.6-4.7c1.1-1.5,2.5-2.6,4.5-3.4s4.1-1.2,6.5-1.2
			c3.6,0,6.5,0.9,8.6,2.7s3.2,4.4,3.2,7.7v12.8c0,2.8,0.4,4.9,1.2,6.3v0.5H199.3z M192.8,377.2c1.2,0,2.2-0.3,3.2-0.8
			c1-0.5,1.7-1.2,2.2-2.1v-5.1h-2.9c-3.9,0-6,1.4-6.3,4.1l0,0.5c0,1,0.3,1.8,1,2.4C190.7,376.9,191.6,377.2,192.8,377.2z
			 M195.8,340.8h8.6l-7.5,8.4h-6.4L195.8,340.8z"/>
		<path class="st1" d="M226.6,376.9c1.5,0,2.6-0.4,3.5-1.2c0.9-0.8,1.4-1.9,1.4-3.2h7.4c0,2-0.6,3.8-1.6,5.5c-1.1,1.7-2.5,3-4.4,3.9
			c-1.9,0.9-3.9,1.4-6.2,1.4c-4.2,0-7.5-1.3-10-4c-2.4-2.7-3.6-6.4-3.6-11.1v-0.5c0-4.5,1.2-8.2,3.6-10.9s5.7-4.1,9.9-4.1
			c3.7,0,6.6,1,8.9,3.1s3.4,4.9,3.4,8.4h-7.4c0-1.5-0.5-2.8-1.4-3.7c-0.9-1-2.1-1.4-3.6-1.4c-1.8,0-3.2,0.7-4.2,2
			c-0.9,1.3-1.4,3.5-1.4,6.5v0.8c0,3,0.5,5.2,1.4,6.5S224.7,376.9,226.6,376.9z"/>
		<path class="st1" d="M255.1,346v7.2h5v5.8h-5v14.7c0,1.1,0.2,1.9,0.6,2.3c0.4,0.5,1.2,0.7,2.4,0.7c0.9,0,1.6-0.1,2.3-0.2v6
			c-1.5,0.5-3.1,0.7-4.8,0.7c-5.5,0-8.3-2.8-8.4-8.4V359h-4.3v-5.8h4.3V346H255.1z"/>
		<path class="st1" d="M266.7,345.6c0-1.2,0.4-2.2,1.2-2.9c0.8-0.8,1.9-1.1,3.2-1.1c1.3,0,2.4,0.4,3.2,1.1c0.8,0.8,1.2,1.7,1.2,2.9
			c0,1.2-0.4,2.2-1.2,2.9c-0.8,0.8-1.9,1.1-3.2,1.1s-2.4-0.4-3.2-1.1C267.1,347.8,266.7,346.8,266.7,345.6z M275,382.7h-7.9v-29.5
			h7.9V382.7z"/>
		<path class="st1" d="M296,376.9c1.5,0,2.6-0.4,3.5-1.2c0.9-0.8,1.4-1.9,1.4-3.2h7.4c0,2-0.6,3.8-1.6,5.5c-1.1,1.7-2.5,3-4.4,3.9
			c-1.9,0.9-3.9,1.4-6.2,1.4c-4.2,0-7.5-1.3-10-4c-2.4-2.7-3.6-6.4-3.6-11.1v-0.5c0-4.5,1.2-8.2,3.6-10.9s5.7-4.1,9.9-4.1
			c3.7,0,6.6,1,8.9,3.1s3.4,4.9,3.4,8.4H301c0-1.5-0.5-2.8-1.4-3.7c-0.9-1-2.1-1.4-3.6-1.4c-1.8,0-3.2,0.7-4.2,2
			c-0.9,1.3-1.4,3.5-1.4,6.5v0.8c0,3,0.5,5.2,1.4,6.5S294.1,376.9,296,376.9z"/>
		<path class="st1" d="M332.1,382.7c-0.4-0.7-0.6-1.6-0.8-2.6c-1.9,2.1-4.4,3.2-7.4,3.2c-2.9,0-5.3-0.8-7.2-2.5
			c-1.9-1.7-2.8-3.8-2.8-6.3c0-3.1,1.2-5.5,3.5-7.2c2.3-1.7,5.7-2.5,10-2.5h3.6V363c0-1.4-0.3-2.5-1-3.3c-0.7-0.8-1.8-1.2-3.3-1.2
			c-1.3,0-2.4,0.3-3.1,1c-0.8,0.6-1.1,1.5-1.1,2.6h-7.9c0-1.7,0.5-3.3,1.6-4.7c1.1-1.5,2.5-2.6,4.5-3.4s4.1-1.2,6.5-1.2
			c3.6,0,6.5,0.9,8.6,2.7s3.2,4.4,3.2,7.7v12.8c0,2.8,0.4,4.9,1.2,6.3v0.5H332.1z M325.6,377.2c1.2,0,2.2-0.3,3.2-0.8
			c1-0.5,1.7-1.2,2.2-2.1v-5.1h-2.9c-3.9,0-6,1.4-6.3,4.1l0,0.5c0,1,0.3,1.8,1,2.4C323.5,376.9,324.4,377.2,325.6,377.2z"/>
	</g>
</g>
<path class="st1" d="M329.5,276.8H138.5c-13,0-23.6-10.6-23.6-23.6V89.9c0-13,10.6-23.6,23.6-23.6h190.9c13,0,23.6,10.6,23.6,23.6
	v163.3C353,266.2,342.5,276.8,329.5,276.8z"/>
<g>
	<g>
		<path class="st2" d="M253.6,216h-39.2c-2,0-3.7,1.6-3.7,3.7c0,2,1.6,3.7,3.7,3.7h11.3v1.1c0,3.4,2.8,6.2,6.2,6.2h4.2
			c3.4,0,6.2-2.8,6.2-6.2v-1.1h11.3c2,0,3.7-1.6,3.7-3.7C257.3,217.7,255.6,216,253.6,216z"/>
		<path class="st2" d="M261.2,131.8c-8.6-7.7-20.2-11.4-31.8-10.1c-18.3,2-33.4,16.8-35.7,35c-1.7,13.4,2.9,26.3,12.7,35.3
			c5.2,4.8,7.3,8.9,7.3,14.3v1.3c0,1.8,1.4,3.2,3.2,3.2h34.3c1.8,0,3.2-1.4,3.2-3.2v-1.4c0-5.3,2.1-9.5,7.2-14.2
			c8.3-7.7,13.1-18.6,13.1-29.9C274.7,150.6,269.8,139.6,261.2,131.8z M229.8,187.6l-13.7-13.7l6.4-6.9l6.8,6.8l23-23l7.1,7.1
			L229.8,187.6z"/>
	</g>
</g>
</svg>
