<?xml version="1.0" encoding="utf-8"?>
<!-- Generator: Adobe Illustrator 24.2.1, SVG Export Plug-In . SVG Version: 6.00 Build 0)  -->
<svg version="1.1" id="Layer_1" xmlns="http://www.w3.org/2000/svg" xmlns:xlink="http://www.w3.org/1999/xlink" x="0px" y="0px"
	 viewBox="0 0 468 439" style="enable-background:new 0 0 468 439;" xml:space="preserve">
<style type="text/css">
	.st0{fill:#E8EBE9;}
	.st1{fill:#00B3C2;}
	.st2{enable-background:new    ;}
	.st3{fill:#FFFFFF;}
</style>
<g>
	<path class="st0" d="M430.9,0.7H37.2c-18.5,0-33.6,15-33.6,33.6V89v257.2V401c0,18.6,15.1,33.6,33.6,33.6h393.6
		c18.6,0,33.6-15.1,33.6-33.6v-54.7V89V34.3C464.5,15.7,449.4,0.7,430.9,0.7z"/>
	<path class="st1" d="M328.9,276.4h-191c-13,0-23.6-10.6-23.6-23.6V89.5c0-13,10.6-23.6,23.6-23.6h190.9c13,0,23.6,10.6,23.6,23.6
		v163.3C352.4,265.9,341.9,276.4,328.9,276.4z"/>
	<g class="st2">
		<path class="st1" d="M169.7,317.6c0,4.5-1,8.2-3.1,10.9c-2.1,2.7-4.8,4.1-8.3,4.1c-3,0-5.4-1-7.2-3.1v13.9h-7.9v-40.8h7.3l0.3,2.9
			c1.9-2.3,4.4-3.4,7.5-3.4c3.6,0,6.5,1.3,8.5,4c2,2.7,3,6.4,3,11.1V317.6z M161.8,317c0-2.7-0.5-4.9-1.5-6.3s-2.4-2.2-4.2-2.2
			c-2.5,0-4.2,0.9-5.1,2.8v12.1c1,1.9,2.7,2.9,5.1,2.9C159.9,326.2,161.8,323.1,161.8,317z"/>
		<path class="st1" d="M193.1,309.9c-1.1-0.1-2-0.2-2.8-0.2c-3,0-4.9,1-5.9,3V332h-7.9v-29.5h7.4l0.2,3.5c1.6-2.7,3.8-4.1,6.6-4.1
			c0.9,0,1.7,0.1,2.5,0.4L193.1,309.9z"/>
		<path class="st1" d="M216.4,329c-1.9,2.4-4.6,3.5-8.1,3.5c-3.2,0-5.6-0.9-7.2-2.7c-1.7-1.8-2.5-4.5-2.5-8v-19.3h7.9v19.1
			c0,3.1,1.4,4.6,4.2,4.6c2.7,0,4.5-0.9,5.5-2.8v-20.9h7.9V332h-7.4L216.4,329z"/>
		<path class="st1" d="M245.5,332.6c-4.3,0-7.8-1.3-10.5-4c-2.7-2.6-4.1-6.2-4.1-10.6v-0.8c0-3,0.6-5.6,1.7-7.9s2.8-4.1,4.9-5.4
			s4.5-1.9,7.2-1.9c4,0,7.2,1.3,9.5,3.8s3.5,6.1,3.5,10.8v3.2h-18.8c0.3,1.9,1,3.5,2.3,4.6c1.3,1.2,2.9,1.7,4.9,1.7
			c3,0,5.4-1.1,7.1-3.3l3.9,4.3c-1.2,1.7-2.8,3-4.8,3.9S247.9,332.6,245.5,332.6z M244.6,308.4c-1.6,0-2.8,0.5-3.8,1.6
			s-1.6,2.6-1.9,4.5h10.9v-0.6c0-1.8-0.5-3.1-1.4-4.1S246.3,308.4,244.6,308.4z"/>
		<path class="st1" d="M290.6,317.6c0,4.7-1,8.4-3,11s-4.8,4-8.4,4c-3.2,0-5.7-1.2-7.7-3.7l-0.4,3.1H264v-41.8h7.9v15
			c1.8-2.1,4.2-3.2,7.2-3.2c3.6,0,6.4,1.3,8.5,4c2,2.6,3.1,6.4,3.1,11.1V317.6z M282.7,317c0-3-0.5-5.2-1.4-6.5
			c-0.9-1.4-2.4-2.1-4.2-2.1c-2.5,0-4.2,1-5.2,3.1v11.6c1,2.1,2.7,3.1,5.2,3.1c2.5,0,4.2-1.3,5-3.8
			C282.5,321.3,282.7,319.4,282.7,317z"/>
		<path class="st1" d="M314.4,332c-0.4-0.7-0.6-1.6-0.8-2.6c-1.9,2.1-4.4,3.2-7.4,3.2c-2.9,0-5.3-0.8-7.2-2.5s-2.8-3.8-2.8-6.3
			c0-3.1,1.2-5.5,3.5-7.2c2.3-1.7,5.7-2.5,10-2.5h3.6v-1.7c0-1.4-0.3-2.5-1-3.3c-0.7-0.8-1.8-1.2-3.3-1.2c-1.3,0-2.4,0.3-3.1,1
			c-0.8,0.6-1.1,1.5-1.1,2.6h-7.9c0-1.7,0.5-3.3,1.6-4.7c1.1-1.5,2.5-2.6,4.5-3.4c1.9-0.8,4.1-1.2,6.5-1.2c3.6,0,6.5,0.9,8.6,2.7
			s3.2,4.4,3.2,7.7v12.8c0,2.8,0.4,4.9,1.2,6.3v0.5H314.4z M307.9,326.5c1.2,0,2.2-0.3,3.2-0.8c1-0.5,1.7-1.2,2.2-2.1v-5.1h-2.9
			c-3.9,0-6,1.4-6.3,4.1l0,0.5c0,1,0.3,1.8,1,2.4C305.8,326.2,306.7,326.5,307.9,326.5z"/>
	</g>
	<g class="st2">
		<path class="st1" d="M151.4,345.9v7.2h5v5.8h-5v14.7c0,1.1,0.2,1.9,0.6,2.3c0.4,0.5,1.2,0.7,2.4,0.7c0.9,0,1.6-0.1,2.3-0.2v6
			c-1.5,0.5-3.1,0.7-4.8,0.7c-5.5,0-8.3-2.8-8.4-8.4v-15.9h-4.3v-5.8h4.3v-7.2H151.4z"/>
		<path class="st1" d="M176.3,383.2c-4.3,0-7.8-1.3-10.5-4c-2.7-2.6-4.1-6.2-4.1-10.6v-0.8c0-3,0.6-5.6,1.7-7.9s2.8-4.1,4.9-5.4
			s4.5-1.9,7.2-1.9c4,0,7.2,1.3,9.5,3.8s3.5,6.1,3.5,10.8v3.2h-18.8c0.3,1.9,1,3.5,2.3,4.6c1.3,1.2,2.9,1.7,4.9,1.7
			c3,0,5.4-1.1,7.1-3.3l3.9,4.3c-1.2,1.7-2.8,3-4.8,3.9S178.8,383.2,176.3,383.2z M175.4,359c-1.6,0-2.8,0.5-3.8,1.6
			s-1.6,2.6-1.9,4.5h10.9v-0.6c0-1.8-0.5-3.1-1.4-4.1S177.1,359,175.4,359z"/>
		<path class="st1" d="M193.6,367.6c0-2.9,0.6-5.5,1.7-7.8c1.1-2.3,2.7-4.1,4.9-5.3c2.1-1.3,4.6-1.9,7.4-1.9c4,0,7.2,1.2,9.7,3.6
			s3.9,5.7,4.2,9.9l0.1,2c0,4.5-1.3,8.1-3.8,10.9c-2.5,2.7-5.9,4.1-10.2,4.1s-7.6-1.4-10.2-4.1s-3.8-6.4-3.8-11.1V367.6z
			 M201.5,368.2c0,2.8,0.5,4.9,1.6,6.4s2.6,2.2,4.5,2.2c1.9,0,3.4-0.7,4.5-2.2c1.1-1.5,1.6-3.8,1.6-7c0-2.7-0.5-4.9-1.6-6.4
			c-1.1-1.5-2.6-2.3-4.5-2.3c-1.9,0-3.4,0.8-4.5,2.2C202,362.7,201.5,365,201.5,368.2z M209.1,340.8h8.6l-7.5,8.4h-6.4L209.1,340.8z
			"/>
		<path class="st1" d="M244.9,360.5c-1.1-0.1-2-0.2-2.8-0.2c-3,0-4.9,1-5.9,3v19.3h-7.9v-29.5h7.4l0.2,3.5c1.6-2.7,3.8-4.1,6.6-4.1
			c0.9,0,1.7,0.1,2.5,0.4L244.9,360.5z"/>
		<path class="st1" d="M250.6,345.5c0-1.2,0.4-2.2,1.2-2.9c0.8-0.8,1.9-1.1,3.2-1.1c1.3,0,2.4,0.4,3.2,1.1c0.8,0.8,1.2,1.7,1.2,2.9
			c0,1.2-0.4,2.2-1.2,2.9c-0.8,0.8-1.9,1.1-3.2,1.1s-2.4-0.4-3.2-1.1C251,347.7,250.6,346.7,250.6,345.5z M258.9,382.6H251v-29.5
			h7.9V382.6z"/>
		<path class="st1" d="M279.6,376.8c1.5,0,2.6-0.4,3.5-1.2c0.9-0.8,1.4-1.9,1.4-3.2h7.4c0,2-0.6,3.8-1.6,5.5
			c-1.1,1.7-2.5,2.9-4.4,3.9c-1.9,0.9-3.9,1.4-6.2,1.4c-4.2,0-7.5-1.3-10-4c-2.4-2.7-3.6-6.4-3.6-11.1v-0.5c0-4.5,1.2-8.2,3.6-10.9
			c2.4-2.7,5.7-4.1,9.9-4.1c3.7,0,6.6,1,8.9,3.1s3.4,4.9,3.4,8.4h-7.4c0-1.5-0.5-2.8-1.4-3.7c-0.9-1-2.1-1.4-3.6-1.4
			c-1.8,0-3.2,0.7-4.2,2c-0.9,1.3-1.4,3.5-1.4,6.5v0.8c0,3,0.5,5.2,1.4,6.5S277.7,376.8,279.6,376.8z"/>
		<path class="st1" d="M315.4,382.6c-0.4-0.7-0.6-1.6-0.8-2.6c-1.9,2.1-4.4,3.2-7.4,3.2c-2.9,0-5.3-0.8-7.2-2.5s-2.8-3.8-2.8-6.3
			c0-3.1,1.2-5.5,3.5-7.2c2.3-1.7,5.7-2.5,10-2.5h3.6v-1.7c0-1.4-0.3-2.5-1-3.3c-0.7-0.8-1.8-1.2-3.3-1.2c-1.3,0-2.4,0.3-3.1,1
			c-0.8,0.6-1.1,1.5-1.1,2.6h-7.9c0-1.7,0.5-3.3,1.6-4.7c1.1-1.5,2.5-2.6,4.5-3.4c1.9-0.8,4.1-1.2,6.5-1.2c3.6,0,6.5,0.9,8.6,2.7
			s3.2,4.4,3.2,7.7v12.8c0,2.8,0.4,4.9,1.2,6.3v0.5H315.4z M308.9,377.1c1.2,0,2.2-0.3,3.2-0.8c1-0.5,1.7-1.2,2.2-2.1v-5.1h-2.9
			c-3.9,0-6,1.4-6.3,4.1l0,0.5c0,1,0.3,1.8,1,2.4C306.8,376.8,307.7,377.1,308.9,377.1z"/>
	</g>
	<g>
		<g>
			<g>
				<g>
					<g>
						<g>
							<g>
								<path class="st3" d="M281.9,179.9v-17.5h-11.2c-1-4.1-2.6-7.9-4.7-11.4l7.9-7.9l-12.4-12.4l-7.9,7.9
									c-3.5-2.2-7.3-3.8-11.4-4.7v-11.2h-17.5v11.2c-4.1,1-7.9,2.6-11.4,4.7l-7.9-7.9L193,143.1l7.9,7.9
									c-2.2,3.5-3.8,7.3-4.7,11.4H185v17.5h11.2c1,4.1,2.6,7.9,4.7,11.4l-7.9,7.9l12.4,12.4l7.9-7.9c3.5,2.1,7.3,3.8,11.4,4.7
									v11.2h17.5v-11.2c4.1-1,7.9-2.6,11.4-4.7l7.9,7.9l12.4-12.4l-7.9-7.9c2.2-3.5,3.8-7.3,4.7-11.4H281.9z M233.4,191.6
									c-11.3,0-20.5-9.2-20.5-20.5s9.2-20.5,20.5-20.5s20.5,9.2,20.5,20.5C253.9,182.5,244.7,191.6,233.4,191.6z M233.4,178.7
									c-4.1,0-7.5-3.4-7.5-7.5s3.4-7.5,7.5-7.5s7.5,3.4,7.5,7.5S237.5,178.7,233.4,178.7z"/>
							</g>
						</g>
					</g>
				</g>
			</g>
		</g>
	</g>
</g>
</svg>
