<?xml version="1.0" encoding="utf-8"?>
<!-- Generator: Adobe Illustrator 24.2.1, SVG Export Plug-In . SVG Version: 6.00 Build 0)  -->
<svg version="1.1" id="Capa_1" xmlns="http://www.w3.org/2000/svg" xmlns:xlink="http://www.w3.org/1999/xlink" x="0px" y="0px"
	 viewBox="0 0 1200 1432.6" style="enable-background:new 0 0 1200 1432.6;" xml:space="preserve">
<style type="text/css">
	.st0{fill:#F0F2F1;}
	.st1{fill:#1E1E1C;}
	.st2{fill:#E83C49;}
	.st3{fill:#FFFFFF;}
	.st4{fill:none;stroke:#1E1E1C;stroke-miterlimit:10;}
	.st5{fill:#232D3E;}
	.st6{fill:#EFF1F0;}
	.st7{fill:#E73B49;}
	.st8{fill:#222D3D;}
	.st9{font-family:'Calibri-Bold';}
	.st10{font-size:52.131px;}
	.st11{font-size:55.7581px;}
	.st12{letter-spacing:2;}
</style>
<g>
	<path class="st6" d="M796.8,102.7H403.2c-18.6,0-33.6,15.1-33.6,33.6v54.7v257.2v54.7c0,18.6,15.1,33.6,33.6,33.6h393.6
		c18.6,0,33.6-15.1,33.6-33.6v-54.7V191.1v-54.7C830.4,117.8,815.4,102.7,796.8,102.7z"/>
	<text transform="matrix(1 0 0 1 248.0778 729.6237)"><tspan x="0" y="0" class="st1 st9 st10">Se iluminaran unas figuras en un</tspan><tspan x="-88.9" y="62.6" class="st1 st9 st10">orden especifico que deberas memorizar</tspan><tspan x="-0.5" y="125.1" class="st1 st9 st10">y reprocucir cuando sea tu turno</tspan></text>
	<text transform="matrix(1 0 0 1 412.528 652.5621)" class="st7 st9 st10">¿Cómo funciona?</text>
	<g>
		<path class="st7" d="M695.5,376.2H504.5c-13,0-23.6-10.6-23.6-23.6V189.3c0-13,10.6-23.6,23.6-23.6h190.9
			c13,0,23.6,10.6,23.6,23.6v163.3C719,365.7,708.5,376.2,695.5,376.2z"/>
		<text transform="matrix(1 0 0 1 506.6777 429.464)"><tspan x="0" y="0" class="st7 st9 st11 st12">prueba</tspan><tspan x="-17.2" y="50.6" class="st7 st9 st11 st12">psíquica</tspan></text>
		<g>
			<path class="st3" d="M592,256.1c3.2-3.3,3.9-6.6,1.5-10.4c-0.4-0.6-0.3-1.7-0.2-2.4c1.4-7.1-2.1-13.1-8.8-14.9
				c-6.6-1.8-13.2,1.8-15.5,8.5c-0.2,0.7-0.5,1.4-0.7,2.1c-12.3,1.9-17.8,9.1-16.4,21.1c0.1,0.8-0.3,1.8-0.8,2.6
				c-1.9,3.2-2.8,6.5-2.1,10.3c0.2,1-0.2,2.3-0.7,3.2c-3,5.1-2.5,10.5,1.7,14.6c1.3,1.3,1.5,2.3,1.1,4c-2.7,10.3,4,19.8,14.6,20.8
				c1.8,0.2,2.6,0.7,3.1,2.5c2.1,7.2,9.4,11,16.3,8.7c7.1-2.3,10.5-9.8,8-16.9c-0.5-1.3-0.4-3.1,0-4.4c2.2-5.8,2.5-11.5-0.3-17.2
				c-0.3-0.7-0.2-1.9,0.3-2.5c3-3.9,3.5-8,1.3-12.5c-0.3-0.7-0.4-1.8-0.1-2.4C597.4,265.3,596.4,260.6,592,256.1z"/>
			<path class="st3" d="M652,277.3c-0.6-1.3-1.1-2.4-1.1-3.5l0-1.4c-0.1-3.4-0.2-6.9-2-10.3c-0.5-0.9-0.7-2-0.6-2.9
				c1.2-11-5.3-19.9-15.9-21.6c-1-0.2-1.2-0.3-1.6-1.5c-2.4-7.4-10.1-11.5-17.5-9.5c-7.6,2.1-11.7,8.8-10.2,16.7
				c0.1,0.3,0.2,1.1,0.3,1.1c-1.9,2.9-3.3,7.1,0.4,11.8c-4.1,4.9-4.6,10.2-1.5,15.5c0,0.1,0,0.4-0.1,0.6c-2.5,5.1-2,10,1.4,14.5
				c0.1,0.1,0.2,0.5,0.2,0.5c-2.9,5.7-3,12-0.4,19c0.3,0.8,0.3,2,0,2.8c-1.4,4-1.2,8.3,0.6,12c1.7,3.5,4.7,6.1,8.5,7.4
				c1.6,0.5,3.2,0.8,4.7,0.8c2.3,0,4.6-0.6,6.7-1.7c3.6-1.9,6.2-5.2,7.4-9.3c0.3-0.9,0.3-0.9,1.1-1c5.8-0.5,10.8-3.1,13.9-7.5
				c3.2-4.4,4.2-10.2,2.7-16c0-0.4,0.5-1.4,0.8-2c0.4-0.8,0.9-1.6,1.3-2.3c0.9-1.4,1.7-2.8,2.3-4.5C654.2,282,653,279.4,652,277.3z
				 M644.9,288c-2.6,2.1-3.1,4.2-2.1,7.4c1.2,3.5,0.7,7.4-1.4,10.6c-2,3.1-5.3,5.1-8.8,5.4c-1.1,0.1-1.2,0.1-1.7-1.1
				c-0.8-2.4-2.4-4.3-3.9-6.2l-0.4-0.5c-0.8-1-2.1-1.1-3-1.1c-0.2,0-0.5,0-0.7,0c-0.7-0.1-1.3,0.2-1.7,0.7c-0.4,0.5-0.5,1.2-0.3,1.8
				c0.1,0.2,0.1,0.4,0.2,0.6c0.2,0.7,0.4,1.6,1.2,2.2c2.6,2.5,3.6,5,3.2,8c-0.6,3.7-2.4,6-5.8,7c-3.5,1.1-6.6,0.3-9-2.3
				c-2.5-2.7-3-5.8-1.6-9.1c1.1-2.4,1.1-4.5,0-6.9c-2.6-5.9-2.3-10.9,0.7-15.6c0.9-1.4,0.4-3.7-0.6-4.8c-3.3-3.6-3.5-5.7-1.1-10
				c0.7-1.2,0.7-3.2,0-4.3c-3-5-2.5-7.6,1.9-10.8c0.6-0.4,2.1-1.5,1.9-3.1c-0.1-1.6-1.7-2.4-2.4-2.8c-1.3-0.7-2-1.4-2.2-2.1
				c-0.2-0.8,0.1-1.8,1-3.2c1-1.5,0.9-3.7,0.6-5.1c-0.6-2.4-0.3-4.8,0.9-6.7c1.1-1.8,2.9-3.1,5.2-3.6c0.6-0.2,1.3-0.2,1.9-0.2
				c1.6,0,3.1,0.4,4.4,1.3c1.6,1,2.7,2.5,3.4,4.3l-1,0.6c-2,1.1-4,2.1-5.8,3.3c-0.4,0.2-0.7,0.6-0.9,0.9c0-0.4-0.1-0.7-0.1-1
				c0-0.1-0.1-0.3-0.1-0.4c0-0.5-0.3-1-0.7-1.3c-0.4-0.3-1-0.4-1.5-0.3c-0.1,0-0.3,0.1-0.5,0.1c-0.8,0.1-2.2,0.3-2.6,1.6
				c-0.2,0.5-0.4,1.1-0.6,1.6c-0.7,1.9-1.5,4-1,6.1c0.6,2.4,1.8,4.6,3.2,6.8c0.3,0.6,0.7,1.2,1,1.8c-0.2,0.2-0.3,0.4-0.5,0.6
				c-1.6,2.1-2.1,4.8-1.4,7.3c0.7,2.4,2.4,4.3,4.8,5.2c0.5,0.2,1,0.3,1.5,0.3c0.6,0,1.1-0.1,1.6-0.2c0.3-0.1,0.6-0.1,0.8-0.1
				c0.7-0.1,1.3-0.5,1.6-1.2c0.3-0.7,0.1-1.4-0.4-1.9c-0.2-0.2-0.3-0.4-0.5-0.5c-0.5-0.6-1.1-1.3-1.9-1.7c-1.5-0.8-1.7-1.5-1.6-2.5
				c0.1-0.8,0.5-1.7,2.2-1.8c0.4,0,0.8,0,1.2,0c0.7,0,1.4,0,2.2-0.1c1.5-0.3,2.9-0.8,4.2-1.4c1.1-0.5,1.3-1.6,1.4-2.4
				c0-0.1,0.1-0.3,0.1-0.4c0.2-0.5,0.1-1.1-0.2-1.5c-0.3-0.5-0.7-0.8-1.3-0.9l-0.5-0.1c-0.5-0.1-1-0.2-1.6-0.2
				c-0.7-0.1-1.5,0.1-2.2,0.2c-1.1,0.1-2.2,0.3-2.9,0c-2.1-0.8-3.5-2.2-4.3-3.9c-0.5-1.2-0.6-2.5-0.4-3.9c0.1,0.2,0.1,0.4,0.3,0.6
				c0.5,0.5,1.2,0.7,1.8,0.6c0.2-0.1,0.4-0.1,0.7-0.1c0.7-0.1,1.6-0.3,2.4-0.8c5.1-3.6,10.9-4,15.4-1c3.2,2.1,5.3,6.5,5.4,11.1
				c-0.1-0.1-0.1-0.2-0.2-0.2c-0.2-0.1-0.4-0.3-0.6-0.5c-0.6-0.5-1.4-1.2-2.5-1.4c-4.3-0.9-8.9,1.8-10.6,6.1
				c-1.7,4.3-0.2,9.3,3.6,11.7c1,0.6,2.1,0.7,2.9,0.7c0.3,0,0.6,0,0.8,0.1c0.1,0,0.2,0,0.3,0c0.6,0,1.2-0.3,1.5-0.8
				c0.4-0.6,0.4-1.4,0-2c-0.1-0.2-0.2-0.4-0.4-0.7c-0.4-0.7-0.8-1.4-1.5-2c-1.8-1.5-2.2-2.9-1.6-4.6c0.4-1.2,1.5-2.7,5.3-2.3
				c0.4,0.1,0.8-0.1,1.2-0.3l1.5-0.9c0,0,0-0.1,0.1-0.1c0,0.1,0,0.2,0,0.3c-0.3,1.6,0.1,3.5,1,4.8c2.1,3.1,2.6,6.4,1.5,9.2
				c-1.1,2.8-3.8,4.7-7.6,5.4c-1.1,0.2-1.8,0.9-2.3,1.5c-0.1,0.2-0.3,0.3-0.5,0.4c-0.5,0.4-0.7,1.1-0.6,1.7c0.1,0.6,0.5,1.2,1.2,1.4
				c0.2,0.1,0.3,0.2,0.5,0.3c0.8,0.4,1.8,0.9,2.9,0.5c2.9-1.1,5.6-2.3,8-3.6c0.3-0.2,0.6-0.4,0.8-0.6C648,283.1,647.3,286,644.9,288
				z"/>
			<path class="st3" d="M623.5,296.6c-0.8-0.6-1.7-1.2-2.9-1.3c-4.2-0.5-8.7,2.3-10.1,6.5c-1.5,4.3,0.3,9.6,4,11.7
				c0.7,0.4,1.5,0.5,2.1,0.5c0.2,0,0.5,0,0.7,0c0.3,0,0.5,0,0.7,0c0.7,0,1.3-0.3,1.7-0.9c0.3-0.6,0.3-1.3,0-1.9
				c-0.1-0.2-0.2-0.4-0.3-0.6c-0.3-0.6-0.7-1.4-1.5-2c-2.3-1.8-2.1-3.4-1.7-4.6c0.7-1.9,1.9-2.5,4-2.1c0.4,0.1,0.8,0,1.1-0.1
				l2.7-1.3c0.6-0.3,1-0.9,1-1.6c0-0.7-0.3-1.3-0.9-1.7C624.1,296.9,623.8,296.7,623.5,296.6z"/>
			<path class="st3" d="M610.5,282.1c0.2,0,0.3,0,0.5,0c0.6,0,1.4,0,2.2-0.4c0.7-0.4,1.5-0.8,2.2-1.2c0.9-0.5,1.7-1,2.5-1.4
				c3.2-1.3,6.5-1.1,10.4,0.8c0.9,0.4,1.9,0.4,2.7,0.4c0.2,0,0.5,0,0.7,0c0.9,0.1,1.8-0.7,1.9-1.6l0.1-0.9c0.1-0.5-0.4-1.3-0.7-1.7
				c-0.3-0.3-0.6-0.6-0.9-0.9c-5.7-4.5-17.7-3.4-22.5,2.1c-0.6,0.7-0.8,1.6-0.8,2.3c0,0.2,0,0.3-0.1,0.5c-0.1,0.6,0,1.2,0.4,1.6
				c0.3,0.4,0.9,0.6,1.4,0.6C610.4,282.1,610.4,282.1,610.5,282.1z"/>
			<path class="st3" d="M630.9,282.7c-0.1-0.2-0.2-0.3-0.3-0.5c-0.3-0.6-0.8-0.9-1.4-1c-0.6-0.1-1.2,0.1-1.6,0.6
				c-0.1,0.1-0.2,0.2-0.4,0.3c-0.5,0.4-1.1,1-1.4,1.9c-0.6,2.1-1.4,2.2-2.3,2.2c-0.8,0-1.7-0.2-2.3-2.2c-0.3-0.9-1-1.5-1.5-1.9
				c-0.1-0.1-0.3-0.2-0.4-0.3c-0.4-0.4-1-0.6-1.7-0.5c-0.6,0.1-1.1,0.5-1.3,1.1c-0.1,0.2-0.2,0.3-0.3,0.5c-0.3,0.6-0.8,1.5-0.7,2.5
				c0.3,3.9,3.9,7,8.1,7c0,0,0,0,0,0c4.2,0,7.8-3.2,8.1-7C631.8,284.2,631.3,283.3,630.9,282.7z"/>
			<path class="st3" d="M640.8,286.7c-0.2-0.1-0.3-0.2-0.5-0.3c-0.6-0.4-1.4-0.9-2.4-0.9c-4,0-7.4,3.7-7.5,8c-0.1,4,2.5,7.3,6.2,8
				c0.2,0,0.4,0.1,0.6,0.1c0.7,0,1.3-0.2,1.9-0.4c0.2-0.1,0.4-0.1,0.6-0.2c0.6-0.1,1.1-0.6,1.3-1.2c0.2-0.6,0.1-1.3-0.3-1.8
				c-0.1-0.1-0.2-0.3-0.3-0.4c-0.4-0.6-0.9-1.4-1.9-1.8c-1.8-0.7-2-1.5-1.9-2.3c0-0.8,0.2-1.7,2.2-2.1c1-0.2,1.6-0.9,2.1-1.4
				c0.1-0.1,0.2-0.2,0.3-0.3c0.5-0.4,0.7-1,0.6-1.6C641.7,287.5,641.3,287,640.8,286.7z"/>
		</g>
	</g>
	<g>
		<path class="st6" d="M384.7,1077h-47.7c-3.3,0-5.9-2.6-5.9-5.9v-40.8c0-3.3,2.6-5.9,5.9-5.9h47.7c3.3,0,5.9,2.6,5.9,5.9v40.8
			C390.6,1074.3,387.9,1077,384.7,1077z"/>
		<path class="st6" d="M288.4,1117.1h-47.7c-3.3,0-5.9-2.6-5.9-5.9v-40.8c0-3.3,2.6-5.9,5.9-5.9h47.7c3.3,0,5.9,2.6,5.9,5.9v40.8
			C294.3,1114.5,291.7,1117.1,288.4,1117.1z"/>
		<path class="st6" d="M374.3,1166.3h-47.7c-3.3,0-5.9-2.6-5.9-5.9v-40.8c0-3.3,2.6-5.9,5.9-5.9h47.7c3.3,0,5.9,2.6,5.9,5.9v40.8
			C380.2,1163.7,377.6,1166.3,374.3,1166.3z"/>
		<path class="st7" d="M247.6,1038.9h-47.7c-3.3,0-5.9-2.6-5.9-5.9v-40.8c0-3.3,2.6-5.9,5.9-5.9h47.7c3.3,0,5.9,2.6,5.9,5.9v40.8
			C253.5,1036.3,250.9,1038.9,247.6,1038.9z"/>
		<path class="st6" d="M340.4,1280.5h-47.7c-3.3,0-5.9-2.6-5.9-5.9v-40.8c0-3.3,2.6-5.9,5.9-5.9h47.7c3.3,0,5.9,2.6,5.9,5.9v40.8
			C346.3,1277.9,343.6,1280.5,340.4,1280.5z"/>
		<path class="st6" d="M247.6,1201.6h-47.7c-3.3,0-5.9-2.6-5.9-5.9v-40.8c0-3.3,2.6-5.9,5.9-5.9h47.7c3.3,0,5.9,2.6,5.9,5.9v40.8
			C253.5,1199,250.9,1201.6,247.6,1201.6z"/>
	</g>
	<g>
		<path class="st6" d="M696.1,1077h-47.7c-3.3,0-5.9-2.6-5.9-5.9v-40.8c0-3.3,2.6-5.9,5.9-5.9h47.7c3.3,0,5.9,2.6,5.9,5.9v40.8
			C702,1074.3,699.4,1077,696.1,1077z"/>
		<path class="st6" d="M599.9,1117.1h-47.7c-3.3,0-5.9-2.6-5.9-5.9v-40.8c0-3.3,2.6-5.9,5.9-5.9h47.7c3.3,0,5.9,2.6,5.9,5.9v40.8
			C605.8,1114.5,603.1,1117.1,599.9,1117.1z"/>
		<path class="st6" d="M685.7,1166.3H638c-3.3,0-5.9-2.6-5.9-5.9v-40.8c0-3.3,2.6-5.9,5.9-5.9h47.7c3.3,0,5.9,2.6,5.9,5.9v40.8
			C691.6,1163.7,689,1166.3,685.7,1166.3z"/>
		<path class="st7" d="M559,1038.9h-47.7c-3.3,0-5.9-2.6-5.9-5.9v-40.8c0-3.3,2.6-5.9,5.9-5.9H559c3.3,0,5.9,2.6,5.9,5.9v40.8
			C564.9,1036.3,562.3,1038.9,559,1038.9z"/>
		<path class="st7" d="M651.8,1280.5H604c-3.3,0-5.9-2.6-5.9-5.9v-40.8c0-3.3,2.6-5.9,5.9-5.9h47.7c3.3,0,5.9,2.6,5.9,5.9v40.8
			C657.7,1277.9,655,1280.5,651.8,1280.5z"/>
		<path class="st6" d="M559,1201.6h-47.7c-3.3,0-5.9-2.6-5.9-5.9v-40.8c0-3.3,2.6-5.9,5.9-5.9H559c3.3,0,5.9,2.6,5.9,5.9v40.8
			C564.9,1199,562.3,1201.6,559,1201.6z"/>
	</g>
	<g>
		<path class="st6" d="M999.4,1077h-47.7c-3.3,0-5.9-2.6-5.9-5.9v-40.8c0-3.3,2.6-5.9,5.9-5.9h47.7c3.3,0,5.9,2.6,5.9,5.9v40.8
			C1005.3,1074.3,1002.6,1077,999.4,1077z"/>
		<path class="st6" d="M903.1,1117.1h-47.7c-3.3,0-5.9-2.6-5.9-5.9v-40.8c0-3.3,2.6-5.9,5.9-5.9h47.7c3.3,0,5.9,2.6,5.9,5.9v40.8
			C909,1114.5,906.4,1117.1,903.1,1117.1z"/>
		<path class="st6" d="M989,1166.3h-47.7c-3.3,0-5.9-2.6-5.9-5.9v-40.8c0-3.3,2.6-5.9,5.9-5.9H989c3.3,0,5.9,2.6,5.9,5.9v40.8
			C994.9,1163.7,992.2,1166.3,989,1166.3z"/>
		<path class="st6" d="M862.3,1038.9h-47.7c-3.3,0-5.9-2.6-5.9-5.9v-40.8c0-3.3,2.6-5.9,5.9-5.9h47.7c3.3,0,5.9,2.6,5.9,5.9v40.8
			C868.2,1036.3,865.5,1038.9,862.3,1038.9z"/>
		<path class="st6" d="M955.1,1280.5h-47.7c-3.3,0-5.9-2.6-5.9-5.9v-40.8c0-3.3,2.6-5.9,5.9-5.9h47.7c3.3,0,5.9,2.6,5.9,5.9v40.8
			C961,1277.9,958.3,1280.5,955.1,1280.5z"/>
		<path class="st6" d="M862.3,1201.6h-47.7c-3.3,0-5.9-2.6-5.9-5.9v-40.8c0-3.3,2.6-5.9,5.9-5.9h47.7c3.3,0,5.9,2.6,5.9,5.9v40.8
			C868.2,1199,865.5,1201.6,862.3,1201.6z"/>
	</g>
	<g>
		<g>
			<path class="st4" d="M410.3,1351.4H174.2c-14.1,0-25.5-11.4-25.5-25.5V946.3c0-14.1,11.4-25.5,25.5-25.5h236.1
				c14.1,0,25.5,11.4,25.5,25.5v379.6C435.8,1340,424.4,1351.4,410.3,1351.4z"/>
			<path class="st4" d="M718,1351.4H482c-14.1,0-25.5-11.4-25.5-25.5V946.3c0-14.1,11.4-25.5,25.5-25.5H718
				c14.1,0,25.5,11.4,25.5,25.5v379.6C743.5,1340,732.1,1351.4,718,1351.4z"/>
			<path class="st4" d="M1025.8,1351.4H789.7c-14.1,0-25.5-11.4-25.5-25.5V946.3c0-14.1,11.4-25.5,25.5-25.5h236.1
				c14.1,0,25.5,11.4,25.5,25.5v379.6C1051.2,1340,1039.8,1351.4,1025.8,1351.4z"/>
		</g>
		<g>
			<g>
				<g>
					<path class="st3" d="M889,1006.7c-2.5,2.4-2.5,6.3-0.1,8.7l5.6,5.6l-8.2-8.2c-2.4-2.4-6.4-2.6-8.9-0.2
						c-2.5,2.4-2.6,6.5-0.1,8.9l6.7,6.7l-9.4-9.4c-2.5-2.5-6.5-2.6-9-0.2c-2.6,2.5-2.6,6.5-0.1,9l8.7,8.7l-24.3-24.3
						c-6.2-6.2-10.6-6.1-13.2-3.2c-2.4,2.6-2.2,6.9,0.3,9.4l37.2,37.2l-3-3l-11.6-2.1c-2.6-0.2-5.1,1.3-6,3.8c0,0,0,0,0,0
						c-1.2,3.2,2.1,6.2,4.9,8.3c10.6,7.8,23,13.6,36.1,15.6c2.8,0.4,5.6-0.5,7.5-2.5l23.2-23.2c2.8-2.8,3.5-7.2,1.7-10.8
						c-3.2-6.5-7.5-12.5-12.7-17.6l-16.9-16.9C895.2,1004.5,891.4,1004.4,889,1006.7z"/>
					<path class="st8" d="M926.6,1053.4l-23.2,23.2c-2.4,2.4-5.7,3.5-8.9,3c-12.5-1.9-25.3-7.4-36.8-15.9c-1.8-1.3-7.3-5.4-5.5-10.2
						c1.2-3.2,4.4-5.2,7.7-4.9c0.1,0,0.1,0,0.1,0l6.4,1.1l-30.5-30.5c-3.1-3.1-3.3-8.5-0.4-11.7c1.4-1.5,3.2-2.4,5.2-2.4
						c3.1-0.1,6.6,1.8,10.4,5.6l11,11c0.3-1.7,1.1-3.3,2.3-4.5c2.5-2.5,6.4-2.8,9.4-1.1c0.2-1.8,1-3.5,2.4-4.8
						c2.5-2.4,6.3-2.8,9.3-1.2c0.2-1.8,1-3.4,2.3-4.6c3-2.9,7.9-2.8,10.9,0.3l16.9,16.9c5.3,5.3,9.7,11.4,13,18.1
						C930.7,1044.9,929.9,1050,926.6,1053.4z M856.2,1053.1c-0.4,0.4-0.7,0.9-1,1.5c-0.6,1.7,0.8,3.9,4.4,6.5
						c11.1,8.2,23.3,13.5,35.3,15.2c2.2,0.3,4.5-0.4,6.1-2.1l23.2-23.2c2.3-2.3,2.9-5.9,1.4-8.9c-3.2-6.4-7.3-12.2-12.4-17.2
						l-16.9-16.9c-1.8-1.8-4.6-1.9-6.3-0.2l0,0c-0.9,0.8-1.3,1.9-1.4,3.1c0,1.2,0.4,2.3,1.3,3.2l5.6,5.6c0.6,0.6,0.6,1.7,0,2.3
						c-0.6,0.6-1.7,0.6-2.3,0l-8.2-8.2c-1.8-1.8-4.8-1.9-6.6-0.2c-0.9,0.8-1.4,2-1.4,3.3c0,1.2,0.5,2.4,1.4,3.3l6.7,6.7
						c0.6,0.6,0.6,1.7,0,2.3c-0.6,0.6-1.7,0.6-2.3,0l-9.4-9.4c-1.9-1.9-4.9-2-6.7-0.2c-0.9,0.9-1.4,2.1-1.4,3.3
						c0,1.3,0.5,2.5,1.4,3.4l8.7,8.7c0.6,0.6,0.6,1.7,0,2.3c-0.6,0.6-1.7,0.6-2.3,0l-24.3-24.3c-3.9-3.9-6.5-4.7-8-4.6
						c-1.1,0-2,0.5-2.8,1.4c-1.8,1.9-1.6,5.2,0.3,7.1l37.2,37.2c0.6,0.6,0.6,1.7,0,2.3c-0.6,0.6-1.7,0.6-2.3,0l-2.6-2.6l-11-2
						C858.2,1051.8,857,1052.3,856.2,1053.1z"/>
				</g>
				<g>
					<path class="st7" d="M941.7,1062.5l-29.3,29.3c-1.6,1.6-4.1,1.6-5.7,0l-8.9-8.9c-1.6-1.6-1.6-4.1,0-5.7l29.3-29.3
						c1.6-1.6,4.1-1.6,5.7,0l8.9,8.9C943.2,1058.4,943.2,1061,941.7,1062.5z"/>
					<path class="st8" d="M942.8,1063.7l-29.3,29.3c-2.2,2.2-5.8,2.2-8,0l-8.9-8.9c-2.2-2.2-2.2-5.8,0-8l29.3-29.3
						c2.2-2.2,5.8-2.2,8,0l8.9,8.9C945,1057.9,945,1061.5,942.8,1063.7z M899,1078.5c-0.9,0.9-0.9,2.4,0,3.4l8.9,8.9
						c0.9,0.9,2.4,0.9,3.4,0l29.3-29.3c0.9-0.9,0.9-2.4,0-3.4l-8.9-8.9c-0.9-0.9-2.4-0.9-3.4,0L899,1078.5z"/>
				</g>
				<g>
					<path class="st8" d="M932.1,1057.6c-1.3-1.3-3.5-1.3-4.8,0c-1.3,1.3-1.3,3.5,0,4.8c1.3,1.3,3.5,1.3,4.8,0
						C933.4,1061.1,933.4,1058.9,932.1,1057.6z"/>
				</g>
			</g>
			<g>
				<g>
					<path class="st3" d="M825.7,997.3c-0.7-0.7-1.9-0.6-2.5,0.1c-0.7,0.7-0.6,1.9,0.1,2.5l4.9,4.5c0.7,0.7,1.9,0.6,2.5-0.1
						c0.7-0.7,0.6-1.9-0.1-2.5L825.7,997.3z"/>
				</g>
				<g>
					<path class="st3" d="M824.8,1013.9l-4.5,0.2c-1,0-1.7,0.9-1.7,1.9c0,1,0.9,1.7,1.9,1.7l4.5-0.2c0.5,0,0.9-0.2,1.2-0.6
						c0.3-0.3,0.5-0.8,0.5-1.3C826.6,1014.6,825.8,1013.8,824.8,1013.9z"/>
				</g>
				<g>
					<path class="st3" d="M828.8,1025.4l-4.5,4.9c-0.7,0.7-0.6,1.9,0.1,2.5s1.9,0.6,2.5-0.1l4.5-4.9c0.7-0.7,0.6-1.9-0.1-2.5
						C830.6,1024.6,829.5,1024.7,828.8,1025.4z"/>
				</g>
				<g>
					<path class="st3" d="M840.7,1030.6c-1,0-1.7,0.9-1.7,1.9l0.2,5.1c0,1,0.9,1.7,1.9,1.7c0.5,0,0.9-0.2,1.2-0.6
						c0.3-0.3,0.5-0.8,0.5-1.3l-0.2-5.1C842.5,1031.3,841.7,1030.5,840.7,1030.6z"/>
				</g>
				<g>
					<path class="st3" d="M864.4,1010.2l-4.9,0.2c-1,0-1.7,0.9-1.7,1.9c0,1,0.9,1.7,1.9,1.7l4.9-0.2c0.5,0,0.9-0.2,1.2-0.6
						c0.3-0.3,0.5-0.8,0.5-1.3C866.3,1010.9,865.4,1010.2,864.4,1010.2z"/>
				</g>
				<g>
					<path class="st3" d="M858.9,995c-0.7-0.7-1.9-0.6-2.5,0.1l-4.5,4.9c-0.7,0.7-0.6,1.9,0.1,2.5c0.7,0.7,1.9,0.6,2.5-0.1l4.5-4.9
						C859.7,996.8,859.7,995.6,858.9,995z"/>
				</g>
				<g>
					<path class="st3" d="M841.2,991.1c-1,0-1.7,0.9-1.7,1.9l0.2,4.5c0,1,0.9,1.7,1.9,1.7c0.5,0,0.9-0.2,1.2-0.6
						c0.3-0.3,0.5-0.8,0.5-1.3l-0.2-4.5C843,991.9,842.2,991.1,841.2,991.1z"/>
				</g>
			</g>
		</g>
	</g>
</g>
</svg>
