<?xml version="1.0" encoding="utf-8"?>
<!-- Generator: Adobe Illustrator 24.2.1, SVG Export Plug-In . SVG Version: 6.00 Build 0)  -->
<svg version="1.1" id="Capa_1" xmlns="http://www.w3.org/2000/svg" xmlns:xlink="http://www.w3.org/1999/xlink" x="0px" y="0px"
	 viewBox="0 0 1200 1432.6" style="enable-background:new 0 0 1200 1432.6;" xml:space="preserve">
<style type="text/css">
	.st0{fill:#F0F2F1;}
	.st1{fill:#1E1E1C;}
	.st2{fill:#E83C49;}
	.st3{fill:#FFFFFF;}
	.st4{fill:none;stroke:#1E1E1C;stroke-miterlimit:10;}
	.st5{fill:#232D3E;}
	.st6{fill:#EFF1F0;}
	.st7{font-family:'Calibri-Bold';}
	.st8{font-size:52.131px;}
	.st9{fill:#E73B49;}
	.st10{font-size:55.7581px;}
	.st11{letter-spacing:2;}
	.st12{fill:#F29100;}
	.st13{font-size:70.6215px;}
	.st14{fill:#E20613;}
	.st15{fill:#222D3D;}
</style>
<g>
	<path class="st6" d="M796.8,102.7H403.2c-18.6,0-33.6,15.1-33.6,33.6v54.7v257.2v54.7c0,18.6,15.1,33.6,33.6,33.6h393.6
		c18.6,0,33.6-15.1,33.6-33.6v-54.7V191.1v-54.7C830.4,117.8,815.4,102.7,796.8,102.7z"/>
	<text transform="matrix(1 0 0 1 227.3067 729.6227)"><tspan x="0" y="0" class="st1 st7 st8">Toca la pantalla cuando el nombre</tspan><tspan x="-17.3" y="62.6" class="st1 st7 st8">del color y el color de las letras sean</tspan><tspan x="-41.6" y="125.1" class="st1 st7 st8">las mismas; si no lo son no hagas nada</tspan><tspan x="-17" y="187.7" class="st1 st7 st8">Ej: Color rojo escrito con letras rojas</tspan></text>
	<text transform="matrix(1 0 0 1 412.5274 652.5612)" class="st9 st7 st8">¿Cómo funciona?</text>
	<g>
		<path class="st9" d="M695.5,376.2H504.5c-13,0-23.6-10.6-23.6-23.6V189.3c0-13,10.6-23.6,23.6-23.6h190.9
			c13,0,23.6,10.6,23.6,23.6v163.3C719,365.7,708.5,376.2,695.5,376.2z"/>
		<text transform="matrix(1 0 0 1 506.6767 429.463)"><tspan x="0" y="0" class="st9 st7 st10 st11">prueba</tspan><tspan x="-17.2" y="50.6" class="st9 st7 st10 st11">psíquica</tspan></text>
		<g>
			<path class="st3" d="M592,256.1c3.2-3.3,3.9-6.6,1.5-10.4c-0.4-0.6-0.3-1.7-0.2-2.4c1.4-7.1-2.1-13.1-8.8-14.9
				c-6.6-1.8-13.2,1.8-15.5,8.5c-0.2,0.7-0.5,1.4-0.7,2.1c-12.3,1.9-17.8,9.1-16.4,21.1c0.1,0.8-0.3,1.8-0.8,2.6
				c-1.9,3.2-2.8,6.5-2.1,10.3c0.2,1-0.2,2.3-0.7,3.2c-3,5.1-2.5,10.5,1.7,14.6c1.3,1.3,1.5,2.3,1.1,4c-2.7,10.3,4,19.8,14.6,20.8
				c1.8,0.2,2.6,0.7,3.1,2.5c2.1,7.2,9.4,11,16.3,8.7c7.1-2.3,10.5-9.8,8-16.9c-0.5-1.3-0.4-3.1,0-4.4c2.2-5.8,2.5-11.5-0.3-17.2
				c-0.3-0.7-0.2-1.9,0.3-2.5c3-3.9,3.5-8,1.3-12.5c-0.3-0.7-0.4-1.8-0.1-2.4C597.4,265.3,596.4,260.6,592,256.1z"/>
			<path class="st3" d="M652,277.3c-0.6-1.3-1.1-2.4-1.1-3.5l0-1.4c-0.1-3.4-0.2-6.9-2-10.3c-0.5-0.9-0.7-2-0.6-2.9
				c1.2-11-5.3-19.9-15.9-21.6c-1-0.2-1.2-0.3-1.6-1.5c-2.4-7.4-10.1-11.5-17.5-9.5c-7.6,2.1-11.7,8.8-10.2,16.7
				c0.1,0.3,0.2,1.1,0.3,1.1c-1.9,2.9-3.3,7.1,0.4,11.8c-4.1,4.9-4.6,10.2-1.5,15.5c0,0.1,0,0.4-0.1,0.6c-2.5,5.1-2,10,1.4,14.5
				c0.1,0.1,0.2,0.5,0.2,0.5c-2.9,5.7-3,12-0.4,19c0.3,0.8,0.3,2,0,2.8c-1.4,4-1.2,8.3,0.6,12c1.7,3.5,4.7,6.1,8.5,7.4
				c1.6,0.5,3.2,0.8,4.7,0.8c2.3,0,4.6-0.6,6.7-1.7c3.6-1.9,6.2-5.2,7.4-9.3c0.3-0.9,0.3-0.9,1.1-1c5.8-0.5,10.8-3.1,13.9-7.5
				c3.2-4.4,4.2-10.2,2.7-16c0-0.4,0.5-1.4,0.8-2c0.4-0.8,0.9-1.6,1.3-2.3c0.9-1.4,1.7-2.8,2.3-4.5C654.2,282,653,279.4,652,277.3z
				 M644.9,288c-2.6,2.1-3.1,4.2-2.1,7.4c1.2,3.5,0.7,7.4-1.4,10.6c-2,3.1-5.3,5.1-8.8,5.4c-1.1,0.1-1.2,0.1-1.7-1.1
				c-0.8-2.4-2.4-4.3-3.9-6.2l-0.4-0.5c-0.8-1-2.1-1.1-3-1.1c-0.2,0-0.5,0-0.7,0c-0.7-0.1-1.3,0.2-1.7,0.7c-0.4,0.5-0.5,1.2-0.3,1.8
				c0.1,0.2,0.1,0.4,0.2,0.6c0.2,0.7,0.4,1.6,1.2,2.2c2.6,2.5,3.6,5,3.2,8c-0.6,3.7-2.4,6-5.8,7c-3.5,1.1-6.6,0.3-9-2.3
				c-2.5-2.7-3-5.8-1.6-9.1c1.1-2.4,1.1-4.5,0-6.9c-2.6-5.9-2.3-10.9,0.7-15.6c0.9-1.4,0.4-3.7-0.6-4.8c-3.3-3.6-3.5-5.7-1.1-10
				c0.7-1.2,0.7-3.2,0-4.3c-3-5-2.5-7.6,1.9-10.8c0.6-0.4,2.1-1.5,1.9-3.1c-0.1-1.6-1.7-2.4-2.4-2.8c-1.3-0.7-2-1.4-2.2-2.1
				c-0.2-0.8,0.1-1.8,1-3.2c1-1.5,0.9-3.7,0.6-5.1c-0.6-2.4-0.3-4.8,0.9-6.7c1.1-1.8,2.9-3.1,5.2-3.6c0.6-0.2,1.3-0.2,1.9-0.2
				c1.6,0,3.1,0.4,4.4,1.3c1.6,1,2.7,2.5,3.4,4.3l-1,0.6c-2,1.1-4,2.1-5.8,3.3c-0.4,0.2-0.7,0.6-0.9,0.9c0-0.4-0.1-0.7-0.1-1
				c0-0.1-0.1-0.3-0.1-0.4c0-0.5-0.3-1-0.7-1.3c-0.4-0.3-1-0.4-1.5-0.3c-0.1,0-0.3,0.1-0.5,0.1c-0.8,0.1-2.2,0.3-2.6,1.6
				c-0.2,0.5-0.4,1.1-0.6,1.6c-0.7,1.9-1.5,4-1,6.1c0.6,2.4,1.8,4.6,3.2,6.8c0.3,0.6,0.7,1.2,1,1.8c-0.2,0.2-0.3,0.4-0.5,0.6
				c-1.6,2.1-2.1,4.8-1.4,7.3c0.7,2.4,2.4,4.3,4.8,5.2c0.5,0.2,1,0.3,1.5,0.3c0.6,0,1.1-0.1,1.6-0.2c0.3-0.1,0.6-0.1,0.8-0.1
				c0.7-0.1,1.3-0.5,1.6-1.2c0.3-0.7,0.1-1.4-0.4-1.9c-0.2-0.2-0.3-0.4-0.5-0.5c-0.5-0.6-1.1-1.3-1.9-1.7c-1.5-0.8-1.7-1.5-1.6-2.5
				c0.1-0.8,0.5-1.7,2.2-1.8c0.4,0,0.8,0,1.2,0c0.7,0,1.4,0,2.2-0.1c1.5-0.3,2.9-0.8,4.2-1.4c1.1-0.5,1.3-1.6,1.4-2.4
				c0-0.1,0.1-0.3,0.1-0.4c0.2-0.5,0.1-1.1-0.2-1.5c-0.3-0.5-0.7-0.8-1.3-0.9l-0.5-0.1c-0.5-0.1-1-0.2-1.6-0.2
				c-0.7-0.1-1.5,0.1-2.2,0.2c-1.1,0.1-2.2,0.3-2.9,0c-2.1-0.8-3.5-2.2-4.3-3.9c-0.5-1.2-0.6-2.5-0.4-3.9c0.1,0.2,0.1,0.4,0.3,0.6
				c0.5,0.5,1.2,0.7,1.8,0.6c0.2-0.1,0.4-0.1,0.7-0.1c0.7-0.1,1.6-0.3,2.4-0.8c5.1-3.6,10.9-4,15.4-1c3.2,2.1,5.3,6.5,5.4,11.1
				c-0.1-0.1-0.1-0.2-0.2-0.2c-0.2-0.1-0.4-0.3-0.6-0.5c-0.6-0.5-1.4-1.2-2.5-1.4c-4.3-0.9-8.9,1.8-10.6,6.1
				c-1.7,4.3-0.2,9.3,3.6,11.7c1,0.6,2.1,0.7,2.9,0.7c0.3,0,0.6,0,0.8,0.1c0.1,0,0.2,0,0.3,0c0.6,0,1.2-0.3,1.5-0.8
				c0.4-0.6,0.4-1.4,0-2c-0.1-0.2-0.2-0.4-0.4-0.7c-0.4-0.7-0.8-1.4-1.5-2c-1.8-1.5-2.2-2.9-1.6-4.6c0.4-1.2,1.5-2.7,5.3-2.3
				c0.4,0.1,0.8-0.1,1.2-0.3l1.5-0.9c0,0,0-0.1,0.1-0.1c0,0.1,0,0.2,0,0.3c-0.3,1.6,0.1,3.5,1,4.8c2.1,3.1,2.6,6.4,1.5,9.2
				c-1.1,2.8-3.8,4.7-7.6,5.4c-1.1,0.2-1.8,0.9-2.3,1.5c-0.1,0.2-0.3,0.3-0.5,0.4c-0.5,0.4-0.7,1.1-0.6,1.7c0.1,0.6,0.5,1.2,1.2,1.4
				c0.2,0.1,0.3,0.2,0.5,0.3c0.8,0.4,1.8,0.9,2.9,0.5c2.9-1.1,5.6-2.3,8-3.6c0.3-0.2,0.6-0.4,0.8-0.6C648,283.1,647.3,286,644.9,288
				z"/>
			<path class="st3" d="M623.5,296.6c-0.8-0.6-1.7-1.2-2.9-1.3c-4.2-0.5-8.7,2.3-10.1,6.5c-1.5,4.3,0.3,9.6,4,11.7
				c0.7,0.4,1.5,0.5,2.1,0.5c0.2,0,0.5,0,0.7,0c0.3,0,0.5,0,0.7,0c0.7,0,1.3-0.3,1.7-0.9c0.3-0.6,0.3-1.3,0-1.9
				c-0.1-0.2-0.2-0.4-0.3-0.6c-0.3-0.6-0.7-1.4-1.5-2c-2.3-1.8-2.1-3.4-1.7-4.6c0.7-1.9,1.9-2.5,4-2.1c0.4,0.1,0.8,0,1.1-0.1
				l2.7-1.3c0.6-0.3,1-0.9,1-1.6c0-0.7-0.3-1.3-0.9-1.7C624.1,296.9,623.8,296.7,623.5,296.6z"/>
			<path class="st3" d="M610.5,282.1c0.2,0,0.3,0,0.5,0c0.6,0,1.4,0,2.2-0.4c0.7-0.4,1.5-0.8,2.2-1.2c0.9-0.5,1.7-1,2.5-1.4
				c3.2-1.3,6.5-1.1,10.4,0.8c0.9,0.4,1.9,0.4,2.7,0.4c0.2,0,0.5,0,0.7,0c0.9,0.1,1.8-0.7,1.9-1.6l0.1-0.9c0.1-0.5-0.4-1.3-0.7-1.7
				c-0.3-0.3-0.6-0.6-0.9-0.9c-5.7-4.5-17.7-3.4-22.5,2.1c-0.6,0.7-0.8,1.6-0.8,2.3c0,0.2,0,0.3-0.1,0.5c-0.1,0.6,0,1.2,0.4,1.6
				c0.3,0.4,0.9,0.6,1.4,0.6C610.4,282.1,610.4,282.1,610.5,282.1z"/>
			<path class="st3" d="M630.9,282.7c-0.1-0.2-0.2-0.3-0.3-0.5c-0.3-0.6-0.8-0.9-1.4-1c-0.6-0.1-1.2,0.1-1.6,0.6
				c-0.1,0.1-0.2,0.2-0.4,0.3c-0.5,0.4-1.1,1-1.4,1.9c-0.6,2.1-1.4,2.2-2.3,2.2c-0.8,0-1.7-0.2-2.3-2.2c-0.3-0.9-1-1.5-1.5-1.9
				c-0.1-0.1-0.3-0.2-0.4-0.3c-0.4-0.4-1-0.6-1.7-0.5c-0.6,0.1-1.1,0.5-1.3,1.1c-0.1,0.2-0.2,0.3-0.3,0.5c-0.3,0.6-0.8,1.5-0.7,2.5
				c0.3,3.9,3.9,7,8.1,7c0,0,0,0,0,0c4.2,0,7.8-3.2,8.1-7C631.8,284.2,631.3,283.3,630.9,282.7z"/>
			<path class="st3" d="M640.8,286.7c-0.2-0.1-0.3-0.2-0.5-0.3c-0.6-0.4-1.4-0.9-2.4-0.9c-4,0-7.4,3.7-7.5,8c-0.1,4,2.5,7.3,6.2,8
				c0.2,0,0.4,0.1,0.6,0.1c0.7,0,1.3-0.2,1.9-0.4c0.2-0.1,0.4-0.1,0.6-0.2c0.6-0.1,1.1-0.6,1.3-1.2c0.2-0.6,0.1-1.3-0.3-1.8
				c-0.1-0.1-0.2-0.3-0.3-0.4c-0.4-0.6-0.9-1.4-1.9-1.8c-1.8-0.7-2-1.5-1.9-2.3c0-0.8,0.2-1.7,2.2-2.1c1-0.2,1.6-0.9,2.1-1.4
				c0.1-0.1,0.2-0.2,0.3-0.3c0.5-0.4,0.7-1,0.6-1.6C641.7,287.5,641.3,287,640.8,286.7z"/>
		</g>
	</g>
	<g>
		<text transform="matrix(1 0 0 1 372.0955 1204.2008)" class="st12 st7 st13 st11">rojo</text>
		<text transform="matrix(1 0 0 1 674.8958 1204.2008)" class="st14 st7 st13 st11">rojo</text>
		<g>
			<g>
				<path class="st4" d="M564.2,1409.9H328.1c-14.1,0-25.5-11.4-25.5-25.5v-379.6c0-14.1,11.4-25.5,25.5-25.5h236.1
					c14.1,0,25.5,11.4,25.5,25.5v379.6C589.7,1398.5,578.3,1409.9,564.2,1409.9z"/>
				<path class="st4" d="M871.9,1409.9H635.8c-14.1,0-25.5-11.4-25.5-25.5v-379.6c0-14.1,11.4-25.5,25.5-25.5h236.1
					c14.1,0,25.5,11.4,25.5,25.5v379.6C897.4,1398.5,886,1409.9,871.9,1409.9z"/>
			</g>
		</g>
		<g>
			<g>
				<g>
					<path class="st3" d="M804,1201.6c-2.5,2.4-2.5,6.3-0.1,8.7l5.6,5.6l-8.2-8.2c-2.4-2.4-6.4-2.6-8.9-0.2
						c-2.5,2.4-2.6,6.5-0.1,8.9l6.7,6.7l-9.4-9.4c-2.5-2.5-6.5-2.6-9-0.2c-2.6,2.5-2.6,6.5-0.1,9l8.7,8.7l-24.3-24.3
						c-6.2-6.2-10.6-6.1-13.2-3.2c-2.4,2.6-2.2,6.9,0.3,9.4l37.2,37.2l-3-3l-11.6-2.1c-2.6-0.2-5.1,1.3-6,3.8c0,0,0,0,0,0
						c-1.2,3.2,2.1,6.2,4.9,8.3c10.6,7.8,23,13.6,36.1,15.6c2.8,0.4,5.6-0.5,7.5-2.5l23.2-23.2c2.8-2.8,3.5-7.2,1.7-10.8
						c-3.2-6.5-7.5-12.5-12.7-17.6l-16.9-16.9C810.3,1199.4,806.4,1199.2,804,1201.6z"/>
					<path class="st15" d="M841.6,1248.3l-23.2,23.2c-2.4,2.4-5.7,3.5-8.9,3c-12.5-1.9-25.3-7.4-36.8-15.9
						c-1.8-1.3-7.3-5.4-5.5-10.2c1.2-3.2,4.4-5.2,7.7-4.9c0.1,0,0.1,0,0.1,0l6.4,1.1l-30.5-30.5c-3.1-3.1-3.3-8.5-0.4-11.7
						c1.4-1.5,3.2-2.4,5.2-2.4c3.1-0.1,6.6,1.8,10.4,5.6l11,11c0.3-1.7,1.1-3.3,2.3-4.5c2.5-2.5,6.4-2.8,9.4-1.1
						c0.2-1.8,1-3.5,2.4-4.8c2.5-2.4,6.3-2.8,9.3-1.2c0.2-1.8,1-3.4,2.3-4.6c3-2.9,7.9-2.8,10.9,0.3l16.9,16.9
						c5.3,5.3,9.7,11.4,13,18.1C845.7,1239.8,844.9,1244.9,841.6,1248.3z M771.2,1248c-0.4,0.4-0.7,0.9-1,1.5
						c-0.6,1.7,0.8,3.9,4.4,6.5c11.1,8.2,23.3,13.5,35.3,15.2c2.2,0.3,4.5-0.4,6.1-2.1l23.2-23.2c2.3-2.3,2.9-5.9,1.4-8.9
						c-3.2-6.4-7.3-12.2-12.4-17.2l-16.9-16.9c-1.8-1.8-4.6-1.9-6.3-0.2l0,0c-0.9,0.8-1.3,1.9-1.4,3.1c0,1.2,0.4,2.3,1.3,3.2
						l5.6,5.6c0.6,0.6,0.6,1.7,0,2.3c-0.6,0.6-1.7,0.6-2.3,0l-8.2-8.2c-1.8-1.8-4.8-1.9-6.6-0.2c-0.9,0.8-1.4,2-1.4,3.3
						c0,1.2,0.5,2.4,1.4,3.3l6.7,6.7c0.6,0.6,0.6,1.7,0,2.3c-0.6,0.6-1.7,0.6-2.3,0l-9.4-9.4c-1.9-1.9-4.9-2-6.7-0.2
						c-0.9,0.9-1.4,2.1-1.4,3.3c0,1.3,0.5,2.5,1.4,3.4l8.7,8.7c0.6,0.6,0.6,1.7,0,2.3c-0.6,0.6-1.7,0.6-2.3,0l-24.3-24.3
						c-3.9-3.9-6.5-4.7-8-4.6c-1.1,0-2,0.5-2.8,1.4c-1.8,1.9-1.6,5.2,0.3,7.1l37.2,37.2c0.6,0.6,0.6,1.7,0,2.3
						c-0.6,0.6-1.7,0.6-2.3,0l-2.6-2.6l-11-2C773.3,1246.7,772,1247.2,771.2,1248z"/>
				</g>
				<g>
					<path class="st9" d="M856.7,1257.4l-29.3,29.3c-1.6,1.6-4.1,1.6-5.7,0l-8.9-8.9c-1.6-1.6-1.6-4.1,0-5.7l29.3-29.3
						c1.6-1.6,4.1-1.6,5.7,0l8.9,8.9C858.3,1253.3,858.3,1255.9,856.7,1257.4z"/>
					<path class="st15" d="M857.8,1258.6l-29.3,29.3c-2.2,2.2-5.8,2.2-8,0l-8.9-8.9c-2.2-2.2-2.2-5.8,0-8l29.3-29.3
						c2.2-2.2,5.8-2.2,8,0l8.9,8.9C860.1,1252.8,860.1,1256.4,857.8,1258.6z M814,1273.4c-0.9,0.9-0.9,2.4,0,3.4l8.9,8.9
						c0.9,0.9,2.4,0.9,3.4,0l29.3-29.3c0.9-0.9,0.9-2.4,0-3.4l-8.9-8.9c-0.9-0.9-2.4-0.9-3.4,0L814,1273.4z"/>
				</g>
				<g>
					<path class="st15" d="M847.1,1252.5c-1.3-1.3-3.5-1.3-4.8,0c-1.3,1.3-1.3,3.5,0,4.8c1.3,1.3,3.5,1.3,4.8,0
						C848.5,1256,848.5,1253.8,847.1,1252.5z"/>
				</g>
			</g>
			<g>
				<g>
					<path class="st3" d="M740.7,1192.2c-0.7-0.7-1.9-0.6-2.5,0.1c-0.7,0.7-0.6,1.9,0.1,2.5l4.9,4.5c0.7,0.7,1.9,0.6,2.5-0.1
						c0.7-0.7,0.6-1.9-0.1-2.5L740.7,1192.2z"/>
				</g>
				<g>
					<path class="st3" d="M739.8,1208.8l-4.5,0.2c-1,0-1.7,0.9-1.7,1.9c0,1,0.9,1.7,1.9,1.7l4.5-0.2c0.5,0,0.9-0.2,1.2-0.6
						c0.3-0.3,0.5-0.8,0.5-1.3C741.7,1209.5,740.8,1208.7,739.8,1208.8z"/>
				</g>
				<g>
					<path class="st3" d="M743.9,1220.3l-4.5,4.9c-0.7,0.7-0.6,1.9,0.1,2.5s1.9,0.6,2.5-0.1l4.5-4.9c0.7-0.7,0.6-1.9-0.1-2.5
						C745.6,1219.5,744.5,1219.6,743.9,1220.3z"/>
				</g>
				<g>
					<path class="st3" d="M755.7,1225.5c-1,0-1.7,0.9-1.7,1.9l0.2,5.1c0,1,0.9,1.7,1.9,1.7c0.5,0,0.9-0.2,1.2-0.6
						c0.3-0.3,0.5-0.8,0.5-1.3l-0.2-5.1C757.6,1226.2,756.7,1225.4,755.7,1225.5z"/>
				</g>
				<g>
					<path class="st3" d="M779.5,1205.1l-4.9,0.2c-1,0-1.7,0.9-1.7,1.9c0,1,0.9,1.7,1.9,1.7l4.9-0.2c0.5,0,0.9-0.2,1.2-0.6
						c0.3-0.3,0.5-0.8,0.5-1.3C781.3,1205.8,780.4,1205.1,779.5,1205.1z"/>
				</g>
				<g>
					<path class="st3" d="M774,1189.9c-0.7-0.7-1.9-0.6-2.5,0.1l-4.5,4.9c-0.7,0.7-0.6,1.9,0.1,2.5c0.7,0.7,1.9,0.6,2.5-0.1l4.5-4.9
						C774.7,1191.7,774.7,1190.5,774,1189.9z"/>
				</g>
				<g>
					<path class="st3" d="M756.2,1186c-1,0-1.7,0.9-1.7,1.9l0.2,4.5c0,1,0.9,1.7,1.9,1.7c0.5,0,0.9-0.2,1.2-0.6
						c0.3-0.3,0.5-0.8,0.5-1.3l-0.2-4.5C758,1186.7,757.2,1186,756.2,1186z"/>
				</g>
			</g>
		</g>
	</g>
</g>
</svg>
