<?xml version="1.0" encoding="utf-8"?>
<!-- Generator: Adobe Illustrator 24.2.1, SVG Export Plug-In . SVG Version: 6.00 Build 0)  -->
<svg version="1.1" id="Capa_1" xmlns="http://www.w3.org/2000/svg" xmlns:xlink="http://www.w3.org/1999/xlink" x="0px" y="0px"
	 viewBox="0 0 1200 1432.6" style="enable-background:new 0 0 1200 1432.6;" xml:space="preserve">
<style type="text/css">
	.st0{fill:#F0F2F1;}
	.st1{fill:#1E1E1C;}
	.st2{fill:#E83C49;}
	.st3{fill:#FFFFFF;}
	.st4{fill:none;stroke:#1E1E1C;stroke-miterlimit:10;}
	.st5{fill:#232D3E;}
	.st6{fill:#EFF1F0;}
	.st7{fill:#E73B49;}
	.st8{fill:#222D3D;}
	.st9{font-family:'Calibri-Bold';}
	.st10{font-size:126.7616px;}
	.st11{letter-spacing:5;}
	.st12{font-size:84.7264px;}
	.st13{letter-spacing:3;}
	.st14{font-size:52.131px;}
	.st15{font-size:55.7581px;}
	.st16{letter-spacing:2;}
</style>
<g>
	<path class="st6" d="M646.9,1092.1h-96c-4.5,0-8.2,3.7-8.2,8.2v13.4v62.8v13.4c0,4.5,3.7,8.2,8.2,8.2h96c4.5,0,8.2-3.7,8.2-8.2
		v-13.4v-62.8v-13.4C655.1,1095.8,651.4,1092.1,646.9,1092.1z"/>
	<g>
		<path class="st6" d="M669.5,911.4H528.3c-6.7,0-12.1,5.4-12.1,12.1v19.6v92.2v19.6c0,6.7,5.4,12.1,12.1,12.1h141.1
			c6.7,0,12.1-5.4,12.1-12.1v-19.6v-92.2v-19.6C681.5,916.8,676.1,911.4,669.5,911.4z"/>
	</g>
	<text transform="matrix(1 0 0 1 569.8921 1031.4323)" class="st7 st9 st10 st11">7</text>
	<text transform="matrix(1 0 0 1 575.7173 1172.6666)" class="st7 st9 st12 st13">0</text>
	<g>
		<path class="st6" d="M245.9,1017.9h96c4.5,0,8.2-3.7,8.2-8.2v-13.4v-62.8v-13.4c0-4.5-3.7-8.2-8.2-8.2h-96c-4.5,0-8.2,3.7-8.2,8.2
			v13.4v62.8v13.4C237.7,1014.2,241.4,1017.9,245.9,1017.9z"/>
		<g>
			<path class="st6" d="M223.4,1198.6h141.1c6.7,0,12.1-5.4,12.1-12.1v-19.6v-92.2v-19.6c0-6.7-5.4-12.1-12.1-12.1H223.4
				c-6.7,0-12.1,5.4-12.1,12.1v19.6v92.2v19.6C211.3,1193.2,216.7,1198.6,223.4,1198.6z"/>
		</g>
		<text transform="matrix(1 0 0 1 258.0557 1161.7252)" class="st7 st9 st10 st11">1</text>
		<text transform="matrix(-1 0 0 -1 317.1348 937.3126)" class="st7 st9 st12 st13">6</text>
	</g>
	<path class="st6" d="M795.1,102.7H401.5c-18.6,0-33.6,15.1-33.6,33.6v54.7v257.2v54.7c0,18.6,15.1,33.6,33.6,33.6h393.6
		c18.6,0,33.6-15.1,33.6-33.6v-54.7V191.1v-54.7C828.8,117.8,813.7,102.7,795.1,102.7z"/>
	<text transform="matrix(1 0 0 1 215.3667 729.6237)"><tspan x="0" y="0" class="st1 st9 st14">Pulsa en la figura de mayor tamaño</tspan><tspan x="20.1" y="62.6" class="st1 st9 st14">sin presta atención a los números</tspan></text>
	<text transform="matrix(1 0 0 1 410.8589 652.5621)" class="st7 st9 st14">¿Cómo funciona?</text>
	<g>
		<path class="st7" d="M693.8,376.2H502.9c-13,0-23.6-10.6-23.6-23.6V189.3c0-13,10.6-23.6,23.6-23.6h190.9
			c13,0,23.6,10.6,23.6,23.6v163.3C717.4,365.7,706.8,376.2,693.8,376.2z"/>
		<text transform="matrix(1 0 0 1 505.0083 429.4635)"><tspan x="0" y="0" class="st7 st9 st15 st16">prueba</tspan><tspan x="-17.2" y="50.6" class="st7 st9 st15 st16">psíquica</tspan></text>
		<g>
			<path class="st3" d="M590.3,256.1c3.2-3.3,3.9-6.6,1.5-10.4c-0.4-0.6-0.3-1.7-0.2-2.4c1.4-7.1-2.1-13.1-8.8-14.9
				c-6.6-1.8-13.2,1.8-15.5,8.5c-0.2,0.7-0.5,1.4-0.7,2.1c-12.3,1.9-17.8,9.1-16.4,21.1c0.1,0.8-0.3,1.8-0.8,2.6
				c-1.9,3.2-2.8,6.5-2.1,10.3c0.2,1-0.2,2.3-0.7,3.2c-3,5.1-2.5,10.5,1.7,14.6c1.3,1.3,1.5,2.3,1.1,4c-2.7,10.3,4,19.8,14.6,20.8
				c1.8,0.2,2.6,0.7,3.1,2.5c2.1,7.2,9.4,11,16.3,8.7c7.1-2.3,10.5-9.8,8-16.9c-0.5-1.3-0.4-3.1,0-4.4c2.2-5.8,2.5-11.5-0.3-17.2
				c-0.3-0.7-0.2-1.9,0.3-2.5c3-3.9,3.5-8,1.3-12.5c-0.3-0.7-0.4-1.8-0.1-2.4C595.8,265.3,594.7,260.6,590.3,256.1z"/>
			<path class="st3" d="M650.4,277.3c-0.6-1.3-1.1-2.4-1.1-3.5l0-1.4c-0.1-3.4-0.2-6.9-2-10.3c-0.5-0.9-0.7-2-0.6-2.9
				c1.2-11-5.3-19.9-15.9-21.6c-1-0.2-1.2-0.3-1.6-1.5c-2.4-7.4-10.1-11.5-17.5-9.5c-7.6,2.1-11.7,8.8-10.2,16.7
				c0.1,0.3,0.2,1.1,0.3,1.1c-1.9,2.9-3.3,7.1,0.4,11.8c-4.1,4.9-4.6,10.2-1.5,15.5c0,0.1,0,0.4-0.1,0.6c-2.5,5.1-2,10,1.4,14.5
				c0.1,0.1,0.2,0.5,0.2,0.5c-2.9,5.7-3,12-0.4,19c0.3,0.8,0.3,2,0,2.8c-1.4,4-1.2,8.3,0.6,12c1.7,3.5,4.7,6.1,8.5,7.4
				c1.6,0.5,3.2,0.8,4.7,0.8c2.3,0,4.6-0.6,6.7-1.7c3.6-1.9,6.2-5.2,7.4-9.3c0.3-0.9,0.3-0.9,1.1-1c5.8-0.5,10.8-3.1,13.9-7.5
				c3.2-4.4,4.2-10.2,2.7-16c0-0.4,0.5-1.4,0.8-2c0.4-0.8,0.9-1.6,1.3-2.3c0.9-1.4,1.7-2.8,2.3-4.5
				C652.5,282,651.3,279.4,650.4,277.3z M643.2,288c-2.6,2.1-3.1,4.2-2.1,7.4c1.2,3.5,0.7,7.4-1.4,10.6c-2,3.1-5.3,5.1-8.8,5.4
				c-1.1,0.1-1.2,0.1-1.7-1.1c-0.8-2.4-2.4-4.3-3.9-6.2l-0.4-0.5c-0.8-1-2.1-1.1-3-1.1c-0.2,0-0.5,0-0.7,0c-0.7-0.1-1.3,0.2-1.7,0.7
				c-0.4,0.5-0.5,1.2-0.3,1.8c0.1,0.2,0.1,0.4,0.2,0.6c0.2,0.7,0.4,1.6,1.2,2.2c2.6,2.5,3.6,5,3.2,8c-0.6,3.7-2.4,6-5.8,7
				c-3.5,1.1-6.6,0.3-9-2.3c-2.5-2.7-3-5.8-1.6-9.1c1.1-2.4,1.1-4.5,0-6.9c-2.6-5.9-2.3-10.9,0.7-15.6c0.9-1.4,0.4-3.7-0.6-4.8
				c-3.3-3.6-3.5-5.7-1.1-10c0.7-1.2,0.7-3.2,0-4.3c-3-5-2.5-7.6,1.9-10.8c0.6-0.4,2.1-1.5,1.9-3.1c-0.1-1.6-1.7-2.4-2.4-2.8
				c-1.3-0.7-2-1.4-2.2-2.1c-0.2-0.8,0.1-1.8,1-3.2c1-1.5,0.9-3.7,0.6-5.1c-0.6-2.4-0.3-4.8,0.9-6.7c1.1-1.8,2.9-3.1,5.2-3.6
				c0.6-0.2,1.3-0.2,1.9-0.2c1.6,0,3.1,0.4,4.4,1.3c1.6,1,2.7,2.5,3.4,4.3l-1,0.6c-2,1.1-4,2.1-5.8,3.3c-0.4,0.2-0.7,0.6-0.9,0.9
				c0-0.4-0.1-0.7-0.1-1c0-0.1-0.1-0.3-0.1-0.4c0-0.5-0.3-1-0.7-1.3c-0.4-0.3-1-0.4-1.5-0.3c-0.1,0-0.3,0.1-0.5,0.1
				c-0.8,0.1-2.2,0.3-2.6,1.6c-0.2,0.5-0.4,1.1-0.6,1.6c-0.7,1.9-1.5,4-1,6.1c0.6,2.4,1.8,4.6,3.2,6.8c0.3,0.6,0.7,1.2,1,1.8
				c-0.2,0.2-0.3,0.4-0.5,0.6c-1.6,2.1-2.1,4.8-1.4,7.3c0.7,2.4,2.4,4.3,4.8,5.2c0.5,0.2,1,0.3,1.5,0.3c0.6,0,1.1-0.1,1.6-0.2
				c0.3-0.1,0.6-0.1,0.8-0.1c0.7-0.1,1.3-0.5,1.6-1.2s0.1-1.4-0.4-1.9c-0.2-0.2-0.3-0.4-0.5-0.5c-0.5-0.6-1.1-1.3-1.9-1.7
				c-1.5-0.8-1.7-1.5-1.6-2.5c0.1-0.8,0.5-1.7,2.2-1.8c0.4,0,0.8,0,1.2,0c0.7,0,1.4,0,2.2-0.1c1.5-0.3,2.9-0.8,4.2-1.4
				c1.1-0.5,1.3-1.6,1.4-2.4c0-0.1,0.1-0.3,0.1-0.4c0.2-0.5,0.1-1.1-0.2-1.5c-0.3-0.5-0.7-0.8-1.3-0.9L626,254
				c-0.5-0.1-1-0.2-1.6-0.2c-0.7-0.1-1.5,0.1-2.2,0.2c-1.1,0.1-2.2,0.3-2.9,0c-2.1-0.8-3.5-2.2-4.3-3.9c-0.5-1.2-0.6-2.5-0.4-3.9
				c0.1,0.2,0.1,0.4,0.3,0.6c0.5,0.5,1.2,0.7,1.8,0.6c0.2-0.1,0.4-0.1,0.7-0.1c0.7-0.1,1.6-0.3,2.4-0.8c5.1-3.6,10.9-4,15.4-1
				c3.2,2.1,5.3,6.5,5.4,11.1c-0.1-0.1-0.1-0.2-0.2-0.2c-0.2-0.1-0.4-0.3-0.6-0.5c-0.6-0.5-1.4-1.2-2.5-1.4
				c-4.3-0.9-8.9,1.8-10.6,6.1c-1.7,4.3-0.2,9.3,3.6,11.7c1,0.6,2.1,0.7,2.9,0.7c0.3,0,0.6,0,0.8,0.1c0.1,0,0.2,0,0.3,0
				c0.6,0,1.2-0.3,1.5-0.8c0.4-0.6,0.4-1.4,0-2c-0.1-0.2-0.2-0.4-0.4-0.7c-0.4-0.7-0.8-1.4-1.5-2c-1.8-1.5-2.2-2.9-1.6-4.6
				c0.4-1.2,1.5-2.7,5.3-2.3c0.4,0.1,0.8-0.1,1.2-0.3l1.5-0.9c0,0,0-0.1,0.1-0.1c0,0.1,0,0.2,0,0.3c-0.3,1.6,0.1,3.5,1,4.8
				c2.1,3.1,2.6,6.4,1.5,9.2c-1.1,2.8-3.8,4.7-7.6,5.4c-1.1,0.2-1.8,0.9-2.3,1.5c-0.1,0.2-0.3,0.3-0.5,0.4c-0.5,0.4-0.7,1.1-0.6,1.7
				c0.1,0.6,0.5,1.2,1.2,1.4c0.2,0.1,0.3,0.2,0.5,0.3c0.8,0.4,1.8,0.9,2.9,0.5c2.9-1.1,5.6-2.3,8-3.6c0.3-0.2,0.6-0.4,0.8-0.6
				C646.4,283.1,645.7,286,643.2,288z"/>
			<path class="st3" d="M621.9,296.6c-0.8-0.6-1.7-1.2-2.9-1.3c-4.2-0.5-8.7,2.3-10.1,6.5c-1.5,4.3,0.3,9.6,4,11.7
				c0.7,0.4,1.5,0.5,2.1,0.5c0.2,0,0.5,0,0.7,0c0.3,0,0.5,0,0.7,0c0.7,0,1.3-0.3,1.7-0.9c0.3-0.6,0.3-1.3,0-1.9
				c-0.1-0.2-0.2-0.4-0.3-0.6c-0.3-0.6-0.7-1.4-1.5-2c-2.3-1.8-2.1-3.4-1.7-4.6c0.7-1.9,1.9-2.5,4-2.1c0.4,0.1,0.8,0,1.1-0.1
				l2.7-1.3c0.6-0.3,1-0.9,1-1.6c0-0.7-0.3-1.3-0.9-1.7C622.4,296.9,622.1,296.7,621.9,296.6z"/>
			<path class="st3" d="M608.8,282.1c0.2,0,0.3,0,0.5,0c0.6,0,1.4,0,2.2-0.4c0.7-0.4,1.5-0.8,2.2-1.2c0.9-0.5,1.7-1,2.5-1.4
				c3.2-1.3,6.5-1.1,10.4,0.8c0.9,0.4,1.9,0.4,2.7,0.4c0.2,0,0.5,0,0.7,0c0.9,0.1,1.8-0.7,1.9-1.6l0.1-0.9c0.1-0.5-0.4-1.3-0.7-1.7
				c-0.3-0.3-0.6-0.6-0.9-0.9c-5.7-4.5-17.7-3.4-22.5,2.1c-0.6,0.7-0.8,1.6-0.8,2.3c0,0.2,0,0.3-0.1,0.5c-0.1,0.6,0,1.2,0.4,1.6
				c0.3,0.4,0.9,0.6,1.4,0.6C608.7,282.1,608.8,282.1,608.8,282.1z"/>
			<path class="st3" d="M629.2,282.7c-0.1-0.2-0.2-0.3-0.3-0.5c-0.3-0.6-0.8-0.9-1.4-1c-0.6-0.1-1.2,0.1-1.6,0.6
				c-0.1,0.1-0.2,0.2-0.4,0.3c-0.5,0.4-1.1,1-1.4,1.9c-0.6,2.1-1.4,2.2-2.3,2.2c-0.8,0-1.7-0.2-2.3-2.2c-0.3-0.9-1-1.5-1.5-1.9
				c-0.1-0.1-0.3-0.2-0.4-0.3c-0.4-0.4-1-0.6-1.7-0.5c-0.6,0.1-1.1,0.5-1.3,1.1c-0.1,0.2-0.2,0.3-0.3,0.5c-0.3,0.6-0.8,1.5-0.7,2.5
				c0.3,3.9,3.9,7,8.1,7c0,0,0,0,0,0c4.2,0,7.8-3.2,8.1-7C630.1,284.2,629.6,283.3,629.2,282.7z"/>
			<path class="st3" d="M639.1,286.7c-0.2-0.1-0.3-0.2-0.5-0.3c-0.6-0.4-1.4-0.9-2.4-0.9c-4,0-7.4,3.7-7.5,8c-0.1,4,2.5,7.3,6.2,8
				c0.2,0,0.4,0.1,0.6,0.1c0.7,0,1.3-0.2,1.9-0.4c0.2-0.1,0.4-0.1,0.6-0.2c0.6-0.1,1.1-0.6,1.3-1.2c0.2-0.6,0.1-1.3-0.3-1.8
				c-0.1-0.1-0.2-0.3-0.3-0.4c-0.4-0.6-0.9-1.4-1.9-1.8c-1.8-0.7-2-1.5-1.9-2.3c0-0.8,0.2-1.7,2.2-2.1c1-0.2,1.6-0.9,2.1-1.4
				c0.1-0.1,0.2-0.2,0.3-0.3c0.5-0.4,0.7-1,0.6-1.6C640,287.5,639.7,287,639.1,286.7z"/>
		</g>
	</g>
	<g>
		<path class="st4" d="M408.7,1276.3H172.6c-14.1,0-25.5-11.4-25.5-25.5V871.2c0-14.1,11.4-25.5,25.5-25.5h236.1
			c14.1,0,25.5,11.4,25.5,25.5v379.6C434.2,1264.9,422.7,1276.3,408.7,1276.3z"/>
		<path class="st4" d="M716.4,1276.3H480.3c-14.1,0-25.5-11.4-25.5-25.5V871.2c0-14.1,11.4-25.5,25.5-25.5h236.1
			c14.1,0,25.5,11.4,25.5,25.5v379.6C741.9,1264.9,730.5,1276.3,716.4,1276.3z"/>
		<path class="st4" d="M1024.1,1276.3H788c-14.1,0-25.5-11.4-25.5-25.5V871.2c0-14.1,11.4-25.5,25.5-25.5h236.1
			c14.1,0,25.5,11.4,25.5,25.5v379.6C1049.6,1264.9,1038.2,1276.3,1024.1,1276.3z"/>
	</g>
	<g>
		<g>
			<g>
				<path class="st3" d="M686.9,1015.3c-2.5,2.4-2.5,6.3-0.1,8.7l5.6,5.6l-8.2-8.2c-2.4-2.4-6.4-2.6-8.9-0.2
					c-2.5,2.4-2.6,6.5-0.1,8.9l6.7,6.7l-9.4-9.4c-2.5-2.5-6.5-2.6-9-0.2c-2.6,2.5-2.6,6.5-0.1,9l8.7,8.7l-24.3-24.3
					c-6.2-6.2-10.6-6.1-13.2-3.2c-2.4,2.6-2.2,6.9,0.3,9.4l37.2,37.2l-3-3l-11.6-2.1c-2.6-0.2-5.1,1.3-6,3.8c0,0,0,0,0,0
					c-1.2,3.2,2.1,6.2,4.9,8.3c10.6,7.8,23,13.6,36.1,15.6c2.8,0.4,5.6-0.5,7.5-2.5l23.2-23.2c2.8-2.8,3.5-7.2,1.7-10.8
					c-3.2-6.5-7.5-12.5-12.7-17.6l-16.9-16.9C693.2,1013.2,689.3,1013,686.9,1015.3z"/>
				<path class="st8" d="M724.5,1062l-23.2,23.2c-2.4,2.4-5.7,3.5-8.9,3c-12.5-1.9-25.3-7.4-36.8-15.9c-1.8-1.3-7.3-5.4-5.5-10.2
					c1.2-3.2,4.4-5.2,7.7-4.9c0.1,0,0.1,0,0.1,0l6.4,1.1l-30.5-30.5c-3.1-3.1-3.3-8.5-0.4-11.7c1.4-1.5,3.2-2.4,5.2-2.4
					c3.1-0.1,6.6,1.8,10.4,5.6l11,11c0.3-1.7,1.1-3.3,2.3-4.5c2.5-2.5,6.4-2.8,9.4-1.1c0.2-1.8,1-3.5,2.4-4.8
					c2.5-2.4,6.3-2.8,9.3-1.2c0.2-1.8,1-3.4,2.3-4.6c3-2.9,7.9-2.8,10.9,0.3l16.9,16.9c5.3,5.3,9.7,11.4,13,18.1
					C728.7,1053.6,727.8,1058.7,724.5,1062z M654.1,1061.7c-0.4,0.4-0.7,0.9-1,1.5c-0.6,1.7,0.8,3.9,4.4,6.5
					c11.1,8.2,23.3,13.5,35.3,15.2c2.2,0.3,4.5-0.4,6.1-2.1l23.2-23.2c2.3-2.3,2.9-5.9,1.4-8.9c-3.2-6.4-7.3-12.2-12.4-17.2
					l-16.9-16.9c-1.8-1.8-4.6-1.9-6.3-0.2l0,0c-0.9,0.8-1.3,1.9-1.4,3.1c0,1.2,0.4,2.3,1.3,3.2l5.6,5.6c0.6,0.6,0.6,1.7,0,2.3
					s-1.7,0.6-2.3,0l-8.2-8.2c-1.8-1.8-4.8-1.9-6.6-0.2c-0.9,0.8-1.4,2-1.4,3.3c0,1.2,0.5,2.4,1.4,3.3l6.7,6.7
					c0.6,0.6,0.6,1.7,0,2.3c-0.6,0.6-1.7,0.6-2.3,0l-9.4-9.4c-1.9-1.9-4.9-2-6.7-0.2c-0.9,0.9-1.4,2.1-1.4,3.3
					c0,1.3,0.5,2.5,1.4,3.4l8.7,8.7c0.6,0.6,0.6,1.7,0,2.3c-0.6,0.6-1.7,0.6-2.3,0l-24.3-24.3c-3.9-3.9-6.5-4.7-8-4.6
					c-1.1,0-2,0.5-2.8,1.4c-1.8,1.9-1.6,5.2,0.3,7.1l37.2,37.2c0.6,0.6,0.6,1.7,0,2.3c-0.6,0.6-1.7,0.6-2.3,0l-2.6-2.6l-11-2
					C656.2,1060.4,655,1060.9,654.1,1061.7z"/>
			</g>
			<g>
				<path class="st7" d="M739.6,1071.2l-29.3,29.3c-1.6,1.6-4.1,1.6-5.7,0l-8.9-8.9c-1.6-1.6-1.6-4.1,0-5.7l29.3-29.3
					c1.6-1.6,4.1-1.6,5.7,0l8.9,8.9C741.2,1067.1,741.2,1069.6,739.6,1071.2z"/>
				<path class="st8" d="M740.8,1072.3l-29.3,29.3c-2.2,2.2-5.8,2.2-8,0l-8.9-8.9c-2.2-2.2-2.2-5.8,0-8l29.3-29.3
					c2.2-2.2,5.8-2.2,8,0l8.9,8.9C743,1066.5,743,1070.1,740.8,1072.3z M697,1087.1c-0.9,0.9-0.9,2.4,0,3.4l8.9,8.9
					c0.9,0.9,2.4,0.9,3.4,0l29.3-29.3c0.9-0.9,0.9-2.4,0-3.4l-8.9-8.9c-0.9-0.9-2.4-0.9-3.4,0L697,1087.1z"/>
			</g>
			<g>
				<path class="st8" d="M730,1066.2c-1.3-1.3-3.5-1.3-4.8,0s-1.3,3.5,0,4.8s3.5,1.3,4.8,0S731.4,1067.5,730,1066.2z"/>
			</g>
		</g>
		<g>
			<g>
				<path class="st3" d="M623.7,1005.9c-0.7-0.7-1.9-0.6-2.5,0.1c-0.7,0.7-0.6,1.9,0.1,2.5l4.9,4.5c0.7,0.7,1.9,0.6,2.5-0.1
					c0.7-0.7,0.6-1.9-0.1-2.5L623.7,1005.9z"/>
			</g>
			<g>
				<path class="st3" d="M622.8,1022.5l-4.5,0.2c-1,0-1.7,0.9-1.7,1.9c0,1,0.9,1.7,1.9,1.7l4.5-0.2c0.5,0,0.9-0.2,1.2-0.6
					c0.3-0.3,0.5-0.8,0.5-1.3C624.6,1023.2,623.8,1022.4,622.8,1022.5z"/>
			</g>
			<g>
				<path class="st3" d="M626.8,1034l-4.5,4.9c-0.7,0.7-0.6,1.9,0.1,2.5s1.9,0.6,2.5-0.1l4.5-4.9c0.7-0.7,0.6-1.9-0.1-2.5
					C628.6,1033.3,627.4,1033.3,626.8,1034z"/>
			</g>
			<g>
				<path class="st3" d="M638.7,1039.2c-1,0-1.7,0.9-1.7,1.9l0.2,5.1c0,1,0.9,1.7,1.9,1.7c0.5,0,0.9-0.2,1.2-0.6
					c0.3-0.3,0.5-0.8,0.5-1.3l-0.2-5.1C640.5,1039.9,639.6,1039.1,638.7,1039.2z"/>
			</g>
			<g>
				<path class="st3" d="M662.4,1018.8l-4.9,0.2c-1,0-1.7,0.9-1.7,1.9c0,1,0.9,1.7,1.9,1.7l4.9-0.2c0.5,0,0.9-0.2,1.2-0.6
					c0.3-0.3,0.5-0.8,0.5-1.3C664.2,1019.5,663.4,1018.8,662.4,1018.8z"/>
			</g>
			<g>
				<path class="st3" d="M656.9,1003.6c-0.7-0.7-1.9-0.6-2.5,0.1l-4.5,4.9c-0.7,0.7-0.6,1.9,0.1,2.5c0.7,0.7,1.9,0.6,2.5-0.1
					l4.5-4.9C657.7,1005.4,657.6,1004.3,656.9,1003.6z"/>
			</g>
			<g>
				<path class="st3" d="M639.2,999.8c-1,0-1.7,0.9-1.7,1.9l0.2,4.5c0,1,0.9,1.7,1.9,1.7c0.5,0,0.9-0.2,1.2-0.6
					c0.3-0.3,0.5-0.8,0.5-1.3l-0.2-4.5C641,1000.5,640.1,999.7,639.2,999.8z"/>
			</g>
		</g>
	</g>
	<path class="st6" d="M957.4,1092.1h-96c-4.5,0-8.2,3.7-8.2,8.2v13.4v62.8v13.4c0,4.5,3.7,8.2,8.2,8.2h96c4.5,0,8.2-3.7,8.2-8.2
		v-13.4v-62.8v-13.4C965.6,1095.8,961.9,1092.1,957.4,1092.1z"/>
	<g>
		<path class="st6" d="M979.9,911.4H838.8c-6.7,0-12.1,5.4-12.1,12.1v19.6v92.2v19.6c0,6.7,5.4,12.1,12.1,12.1h141.1
			c6.7,0,12.1-5.4,12.1-12.1v-19.6v-92.2v-19.6C992,916.8,986.6,911.4,979.9,911.4z"/>
	</g>
	<text transform="matrix(1 0 0 1 880.3782 1031.4323)" class="st7 st9 st10 st11">3</text>
	<text transform="matrix(1 0 0 1 886.2034 1172.6666)" class="st7 st9 st12 st13">5</text>
	<g>
		<g>
			<g>
				<path class="st3" d="M997.4,1015.3c-2.5,2.4-2.5,6.3-0.1,8.7l5.6,5.6l-8.2-8.2c-2.4-2.4-6.4-2.6-8.9-0.2
					c-2.5,2.4-2.6,6.5-0.1,8.9l6.7,6.7l-9.4-9.4c-2.5-2.5-6.5-2.6-9-0.2c-2.6,2.5-2.6,6.5-0.1,9l8.7,8.7l-24.3-24.3
					c-6.2-6.2-10.6-6.1-13.2-3.2c-2.4,2.6-2.2,6.9,0.3,9.4l37.2,37.2l-3-3l-11.6-2.1c-2.6-0.2-5.1,1.3-6,3.8c0,0,0,0,0,0
					c-1.2,3.2,2.1,6.2,4.9,8.3c10.6,7.8,23,13.6,36.1,15.6c2.8,0.4,5.6-0.5,7.5-2.5l23.2-23.2c2.8-2.8,3.5-7.2,1.7-10.8
					c-3.2-6.5-7.5-12.5-12.7-17.6l-16.9-16.9C1003.7,1013.2,999.8,1013,997.4,1015.3z"/>
				<path class="st8" d="M1035,1062l-23.2,23.2c-2.4,2.4-5.7,3.5-8.9,3c-12.5-1.9-25.3-7.4-36.8-15.9c-1.8-1.3-7.3-5.4-5.5-10.2
					c1.2-3.2,4.4-5.2,7.7-4.9c0.1,0,0.1,0,0.1,0l6.4,1.1l-30.5-30.5c-3.1-3.1-3.3-8.5-0.4-11.7c1.4-1.5,3.2-2.4,5.2-2.4
					c3.1-0.1,6.6,1.8,10.4,5.6l11,11c0.3-1.7,1.1-3.3,2.3-4.5c2.5-2.5,6.4-2.8,9.4-1.1c0.2-1.8,1-3.5,2.4-4.8
					c2.5-2.4,6.3-2.8,9.3-1.2c0.2-1.8,1-3.4,2.3-4.6c3-2.9,7.9-2.8,10.9,0.3l16.9,16.9c5.3,5.3,9.7,11.4,13,18.1
					C1039.2,1053.6,1038.3,1058.7,1035,1062z M964.6,1061.7c-0.4,0.4-0.7,0.9-1,1.5c-0.6,1.7,0.8,3.9,4.4,6.5
					c11.1,8.2,23.3,13.5,35.3,15.2c2.2,0.3,4.5-0.4,6.1-2.1l23.2-23.2c2.3-2.3,2.9-5.9,1.4-8.9c-3.2-6.4-7.3-12.2-12.4-17.2
					l-16.9-16.9c-1.8-1.8-4.6-1.9-6.3-0.2l0,0c-0.9,0.8-1.3,1.9-1.4,3.1c0,1.2,0.4,2.3,1.3,3.2l5.6,5.6c0.6,0.6,0.6,1.7,0,2.3
					s-1.7,0.6-2.3,0l-8.2-8.2c-1.8-1.8-4.8-1.9-6.6-0.2c-0.9,0.8-1.4,2-1.4,3.3c0,1.2,0.5,2.4,1.4,3.3l6.7,6.7
					c0.6,0.6,0.6,1.7,0,2.3c-0.6,0.6-1.7,0.6-2.3,0l-9.4-9.4c-1.9-1.9-4.9-2-6.7-0.2c-0.9,0.9-1.4,2.1-1.4,3.3
					c0,1.3,0.5,2.5,1.4,3.4l8.7,8.7c0.6,0.6,0.6,1.7,0,2.3c-0.6,0.6-1.7,0.6-2.3,0l-24.3-24.3c-3.9-3.9-6.5-4.7-8-4.6
					c-1.1,0-2,0.5-2.8,1.4c-1.8,1.9-1.6,5.2,0.3,7.1l37.2,37.2c0.6,0.6,0.6,1.7,0,2.3c-0.6,0.6-1.7,0.6-2.3,0l-2.6-2.6l-11-2
					C966.7,1060.4,965.5,1060.9,964.6,1061.7z"/>
			</g>
			<g>
				<path class="st7" d="M1050.1,1071.2l-29.3,29.3c-1.6,1.6-4.1,1.6-5.7,0l-8.9-8.9c-1.6-1.6-1.6-4.1,0-5.7l29.3-29.3
					c1.6-1.6,4.1-1.6,5.7,0l8.9,8.9C1051.7,1067.1,1051.7,1069.6,1050.1,1071.2z"/>
				<path class="st8" d="M1051.3,1072.3l-29.3,29.3c-2.2,2.2-5.8,2.2-8,0l-8.9-8.9c-2.2-2.2-2.2-5.8,0-8l29.3-29.3
					c2.2-2.2,5.8-2.2,8,0l8.9,8.9C1053.5,1066.5,1053.5,1070.1,1051.3,1072.3z M1007.4,1087.1c-0.9,0.9-0.9,2.4,0,3.4l8.9,8.9
					c0.9,0.9,2.4,0.9,3.4,0l29.3-29.3c0.9-0.9,0.9-2.4,0-3.4l-8.9-8.9c-0.9-0.9-2.4-0.9-3.4,0L1007.4,1087.1z"/>
			</g>
			<g>
				<path class="st8" d="M1040.5,1066.2c-1.3-1.3-3.5-1.3-4.8,0c-1.3,1.3-1.3,3.5,0,4.8c1.3,1.3,3.5,1.3,4.8,0
					C1041.9,1069.7,1041.9,1067.5,1040.5,1066.2z"/>
			</g>
		</g>
		<g>
			<g>
				<path class="st3" d="M934.1,1005.9c-0.7-0.7-1.9-0.6-2.5,0.1c-0.7,0.7-0.6,1.9,0.1,2.5l4.9,4.5c0.7,0.7,1.9,0.6,2.5-0.1
					c0.7-0.7,0.6-1.9-0.1-2.5L934.1,1005.9z"/>
			</g>
			<g>
				<path class="st3" d="M933.3,1022.5l-4.5,0.2c-1,0-1.7,0.9-1.7,1.9c0,1,0.9,1.7,1.9,1.7l4.5-0.2c0.5,0,0.9-0.2,1.2-0.6
					c0.3-0.3,0.5-0.8,0.5-1.3C935.1,1023.2,934.2,1022.4,933.3,1022.5z"/>
			</g>
			<g>
				<path class="st3" d="M937.3,1034l-4.5,4.9c-0.7,0.7-0.6,1.9,0.1,2.5s1.9,0.6,2.5-0.1l4.5-4.9c0.7-0.7,0.6-1.9-0.1-2.5
					C939.1,1033.3,937.9,1033.3,937.3,1034z"/>
			</g>
			<g>
				<path class="st3" d="M949.1,1039.2c-1,0-1.7,0.9-1.7,1.9l0.2,5.1c0,1,0.9,1.7,1.9,1.7c0.5,0,0.9-0.2,1.2-0.6
					c0.3-0.3,0.5-0.8,0.5-1.3l-0.2-5.1C951,1039.9,950.1,1039.1,949.1,1039.2z"/>
			</g>
			<g>
				<path class="st3" d="M972.9,1018.8l-4.9,0.2c-1,0-1.7,0.9-1.7,1.9c0,1,0.9,1.7,1.9,1.7l4.9-0.2c0.5,0,0.9-0.2,1.2-0.6
					c0.3-0.3,0.5-0.8,0.5-1.3C974.7,1019.5,973.9,1018.8,972.9,1018.8z"/>
			</g>
			<g>
				<path class="st3" d="M967.4,1003.6c-0.7-0.7-1.9-0.6-2.5,0.1l-4.5,4.9c-0.7,0.7-0.6,1.9,0.1,2.5c0.7,0.7,1.9,0.6,2.5-0.1
					l4.5-4.9C968.2,1005.4,968.1,1004.3,967.4,1003.6z"/>
			</g>
			<g>
				<path class="st3" d="M949.6,999.8c-1,0-1.7,0.9-1.7,1.9l0.2,4.5c0,1,0.9,1.7,1.9,1.7c0.5,0,0.9-0.2,1.2-0.6
					c0.3-0.3,0.5-0.8,0.5-1.3l-0.2-4.5C951.5,1000.5,950.6,999.7,949.6,999.8z"/>
			</g>
		</g>
	</g>
	<g>
		<g>
			<g>
				<path class="st3" d="M375.3,1108.9c-2.5,2.4-2.5,6.3-0.1,8.7l5.6,5.6l-8.2-8.2c-2.4-2.4-6.4-2.6-8.9-0.2
					c-2.5,2.4-2.6,6.5-0.1,8.9l6.7,6.7l-9.4-9.4c-2.5-2.5-6.5-2.6-9-0.2c-2.6,2.5-2.6,6.5-0.1,9l8.7,8.7l-24.3-24.3
					c-6.2-6.2-10.6-6.1-13.2-3.2c-2.4,2.6-2.2,6.9,0.3,9.4l37.2,37.2l-3-3l-11.6-2.1c-2.6-0.2-5.1,1.3-6,3.8c0,0,0,0,0,0
					c-1.2,3.2,2.1,6.2,4.9,8.3c10.6,7.8,23,13.6,36.1,15.6c2.8,0.4,5.6-0.5,7.5-2.5l23.2-23.2c2.8-2.8,3.5-7.2,1.7-10.8
					c-3.2-6.5-7.5-12.5-12.7-17.6l-16.9-16.9C381.6,1106.7,377.7,1106.6,375.3,1108.9z"/>
				<path class="st8" d="M412.9,1155.6l-23.2,23.2c-2.4,2.4-5.7,3.5-8.9,3c-12.5-1.9-25.3-7.4-36.8-15.9c-1.8-1.3-7.3-5.4-5.5-10.2
					c1.2-3.2,4.4-5.2,7.7-4.9c0.1,0,0.1,0,0.1,0l6.4,1.1l-30.5-30.5c-3.1-3.1-3.3-8.5-0.4-11.7c1.4-1.5,3.2-2.4,5.2-2.4
					c3.1-0.1,6.6,1.8,10.4,5.6l11,11c0.3-1.7,1.1-3.3,2.3-4.5c2.5-2.5,6.4-2.8,9.4-1.1c0.2-1.8,1-3.5,2.4-4.8
					c2.5-2.4,6.3-2.8,9.3-1.2c0.2-1.8,1-3.4,2.3-4.6c3-2.9,7.9-2.8,10.9,0.3l16.9,16.9c5.3,5.3,9.7,11.4,13,18.1
					C417.1,1147.1,416.3,1152.2,412.9,1155.6z M342.5,1155.3c-0.4,0.4-0.7,0.9-1,1.5c-0.6,1.7,0.8,3.9,4.4,6.5
					c11.1,8.2,23.3,13.5,35.3,15.2c2.2,0.3,4.5-0.4,6.1-2.1l23.2-23.2c2.3-2.3,2.9-5.9,1.4-8.9c-3.2-6.4-7.3-12.2-12.4-17.2
					l-16.9-16.9c-1.8-1.8-4.6-1.9-6.3-0.2l0,0c-0.9,0.8-1.3,1.9-1.4,3.1c0,1.2,0.4,2.3,1.3,3.2l5.6,5.6c0.6,0.6,0.6,1.7,0,2.3
					c-0.6,0.6-1.7,0.6-2.3,0l-8.2-8.2c-1.8-1.8-4.8-1.9-6.6-0.2c-0.9,0.8-1.4,2-1.4,3.3c0,1.2,0.5,2.4,1.4,3.3l6.7,6.7
					c0.6,0.6,0.6,1.7,0,2.3c-0.6,0.6-1.7,0.6-2.3,0l-9.4-9.4c-1.9-1.9-4.9-2-6.7-0.2c-0.9,0.9-1.4,2.1-1.4,3.3
					c0,1.3,0.5,2.5,1.4,3.4l8.7,8.7c0.6,0.6,0.6,1.7,0,2.3c-0.6,0.6-1.7,0.6-2.3,0l-24.3-24.3c-3.9-3.9-6.5-4.7-8-4.6
					c-1.1,0-2,0.5-2.8,1.4c-1.8,1.9-1.6,5.2,0.3,7.1l37.2,37.2c0.6,0.6,0.6,1.7,0,2.3c-0.6,0.6-1.7,0.6-2.3,0l-2.6-2.6l-11-2
					C344.6,1154,343.4,1154.5,342.5,1155.3z"/>
			</g>
			<g>
				<path class="st7" d="M428,1164.8l-29.3,29.3c-1.6,1.6-4.1,1.6-5.7,0l-8.9-8.9c-1.6-1.6-1.6-4.1,0-5.7l29.3-29.3
					c1.6-1.6,4.1-1.6,5.7,0l8.9,8.9C429.6,1160.6,429.6,1163.2,428,1164.8z"/>
				<path class="st8" d="M429.2,1165.9l-29.3,29.3c-2.2,2.2-5.8,2.2-8,0l-8.9-8.9c-2.2-2.2-2.2-5.8,0-8l29.3-29.3
					c2.2-2.2,5.8-2.2,8,0l8.9,8.9C431.4,1160.1,431.4,1163.7,429.2,1165.9z M385.4,1180.7c-0.9,0.9-0.9,2.4,0,3.4l8.9,8.9
					c0.9,0.9,2.4,0.9,3.4,0l29.3-29.3c0.9-0.9,0.9-2.4,0-3.4l-8.9-8.9c-0.9-0.9-2.4-0.9-3.4,0L385.4,1180.7z"/>
			</g>
			<g>
				<path class="st8" d="M418.5,1159.8c-1.3-1.3-3.5-1.3-4.8,0c-1.3,1.3-1.3,3.5,0,4.8c1.3,1.3,3.5,1.3,4.8,0
					S419.8,1161.1,418.5,1159.8z"/>
			</g>
		</g>
		<g>
			<g>
				<path class="st3" d="M312.1,1099.5c-0.7-0.7-1.9-0.6-2.5,0.1c-0.7,0.7-0.6,1.9,0.1,2.5l4.9,4.5c0.7,0.7,1.9,0.6,2.5-0.1
					c0.7-0.7,0.6-1.9-0.1-2.5L312.1,1099.5z"/>
			</g>
			<g>
				<path class="st3" d="M311.2,1116.1l-4.5,0.2c-1,0-1.7,0.9-1.7,1.9c0,1,0.9,1.7,1.9,1.7l4.5-0.2c0.5,0,0.9-0.2,1.2-0.6
					c0.3-0.3,0.5-0.8,0.5-1.3C313,1116.8,312.2,1116,311.2,1116.1z"/>
			</g>
			<g>
				<path class="st3" d="M315.2,1127.6l-4.5,4.9c-0.7,0.7-0.6,1.9,0.1,2.5s1.9,0.6,2.5-0.1l4.5-4.9c0.7-0.7,0.6-1.9-0.1-2.5
					C317,1126.8,315.9,1126.9,315.2,1127.6z"/>
			</g>
			<g>
				<path class="st3" d="M327.1,1132.8c-1,0-1.7,0.9-1.7,1.9l0.2,5.1c0,1,0.9,1.7,1.9,1.7c0.5,0,0.9-0.2,1.2-0.6
					c0.3-0.3,0.5-0.8,0.5-1.3l-0.2-5.1C328.9,1133.5,328.1,1132.7,327.1,1132.8z"/>
			</g>
			<g>
				<path class="st3" d="M350.8,1112.4l-4.9,0.2c-1,0-1.7,0.9-1.7,1.9c0,1,0.9,1.7,1.9,1.7l4.9-0.2c0.5,0,0.9-0.2,1.2-0.6
					c0.3-0.3,0.5-0.8,0.5-1.3C352.6,1113.1,351.8,1112.4,350.8,1112.4z"/>
			</g>
			<g>
				<path class="st3" d="M345.3,1097.2c-0.7-0.7-1.9-0.6-2.5,0.1l-4.5,4.9c-0.7,0.7-0.6,1.9,0.1,2.5c0.7,0.7,1.9,0.6,2.5-0.1
					l4.5-4.9C346.1,1099,346,1097.8,345.3,1097.2z"/>
			</g>
			<g>
				<path class="st3" d="M327.6,1093.3c-1,0-1.7,0.9-1.7,1.9l0.2,4.5c0,1,0.9,1.7,1.9,1.7c0.5,0,0.9-0.2,1.2-0.6
					c0.3-0.3,0.5-0.8,0.5-1.3l-0.2-4.5C329.4,1094.1,328.5,1093.3,327.6,1093.3z"/>
			</g>
		</g>
	</g>
</g>
</svg>
