<?xml version="1.0" encoding="utf-8"?>
<!-- Generator: Adobe Illustrator 24.2.1, SVG Export Plug-In . SVG Version: 6.00 Build 0)  -->
<svg version="1.1" id="Capa_1" xmlns="http://www.w3.org/2000/svg" xmlns:xlink="http://www.w3.org/1999/xlink" x="0px" y="0px"
	 viewBox="0 0 1200 1432.6" style="enable-background:new 0 0 1200 1432.6;" xml:space="preserve">
<style type="text/css">
	.st0{fill:#FFFFFF;}
	.st1{fill:#F04953;}
	.st2{fill:#EF4853;}
	.st3{fill:#E9EBEA;}
	.st4{fill:#DF2639;}
	.st5{font-family:'ArialMT';}
	.st6{font-size:303.2576px;}
	.st7{font-size:312.8969px;}
	.st8{fill:none;stroke:#181817;stroke-width:1.0125;stroke-miterlimit:101.2522;}
	.st9{fill-rule:evenodd;clip-rule:evenodd;fill:#ECEFEE;}
	.st10{font-size:39.6138px;}
	.st11{fill-rule:evenodd;clip-rule:evenodd;fill:#FFFFFF;}
	.st12{fill-rule:evenodd;clip-rule:evenodd;fill:#1A222F;}
	.st13{fill-rule:evenodd;clip-rule:evenodd;fill:#DF2639;}
</style>
<rect class="st0" width="1200" height="1432.6"/>
<g>
	<path class="st1" d="M414.6,647.4c0-1.4,0.2-2.6,0.6-3.8c0.4-1.1,1-2.1,1.7-2.9c0.7-0.8,1.6-1.5,2.6-2s2.1-0.8,3.3-0.9l0.2-5
		c0-0.3,0.3-0.5,0.7-0.7c0.5-0.2,1.1-0.2,2-0.2c0.6,0,1,0,1.4,0s0.7,0.1,0.9,0.1c0.2,0.1,0.4,0.2,0.5,0.3s0.2,0.3,0.2,0.5l0.2,6
		c0,0.5,0,1-0.1,1.3c-0.1,0.3-0.2,0.6-0.4,0.8c-0.2,0.2-0.4,0.3-0.7,0.4s-0.6,0.1-1,0.1h-0.4c-0.9,0-1.7,0.1-2.3,0.4
		c-0.7,0.3-1.2,0.7-1.6,1.1c-0.4,0.5-0.7,1-0.9,1.7c-0.2,0.6-0.3,1.3-0.3,2.1c0,0.8,0.1,1.6,0.3,2.2c0.2,0.7,0.6,1.3,1,1.8
		s1.1,0.9,1.8,1.1s1.5,0.4,2.5,0.4c0.9,0,1.6-0.1,2.3-0.3c0.7-0.2,1.2-0.4,1.7-0.6c0.5-0.2,0.9-0.4,1.2-0.6c0.3-0.2,0.6-0.3,0.7-0.3
		c0.1,0,0.2,0,0.3,0.1s0.2,0.2,0.3,0.4c0.1,0.2,0.1,0.5,0.2,0.9c0,0.4,0.1,0.8,0.1,1.4c0,0.6,0,1-0.1,1.3c-0.1,0.3-0.2,0.5-0.3,0.7
		c-0.2,0.2-0.5,0.4-1,0.6c-0.5,0.2-1,0.4-1.7,0.6c-0.7,0.2-1.4,0.4-2.2,0.5c-0.8,0.1-1.7,0.2-2.5,0.2c-2,0-3.7-0.3-5.1-0.8
		c-1.4-0.6-2.6-1.3-3.5-2.2c-0.9-0.9-1.6-2-2-3.2C414.9,650,414.6,648.7,414.6,647.4z M422.2,625.6c0-0.7,0.1-1.3,0.2-1.8
		s0.3-0.9,0.6-1.1c0.3-0.3,0.7-0.5,1.1-0.6c0.5-0.1,1-0.2,1.7-0.2c0.7,0,1.3,0.1,1.8,0.2c0.5,0.1,0.8,0.3,1.1,0.6
		c0.3,0.3,0.5,0.7,0.6,1.1s0.2,1.1,0.2,1.8c0,0.7-0.1,1.3-0.2,1.8s-0.3,0.9-0.6,1.2c-0.3,0.3-0.6,0.5-1.1,0.6
		c-0.5,0.1-1,0.2-1.8,0.2c-0.7,0-1.3-0.1-1.7-0.2c-0.5-0.1-0.8-0.3-1.1-0.6c-0.3-0.3-0.5-0.7-0.6-1.2S422.2,626.3,422.2,625.6z"/>
	<path class="st1" d="M463.1,647.6c0,0.4,0,0.8,0,1.1s-0.1,0.6-0.1,0.8c-0.1,0.2-0.1,0.4-0.2,0.5c-0.1,0.2-0.2,0.3-0.4,0.5
		c-0.2,0.2-0.5,0.4-1.1,0.8c-0.5,0.3-1.2,0.6-2,0.9s-1.7,0.5-2.6,0.7c-1,0.2-2.1,0.3-3.2,0.3c-2.3,0-4.3-0.3-6.1-1
		c-1.8-0.7-3.4-1.7-4.6-3.1c-1.3-1.4-2.2-3.1-2.9-5.2s-1-4.5-1-7.2c0-2.8,0.4-5.3,1.1-7.5c0.7-2.2,1.8-4,3.1-5.5
		c1.3-1.5,2.9-2.6,4.8-3.4c1.9-0.8,3.9-1.1,6.2-1.1c0.9,0,1.8,0.1,2.6,0.2c0.8,0.2,1.6,0.4,2.4,0.6c0.7,0.2,1.4,0.5,1.9,0.9
		c0.6,0.3,1,0.6,1.2,0.8c0.2,0.2,0.4,0.4,0.5,0.6c0.1,0.2,0.2,0.3,0.2,0.6c0.1,0.2,0.1,0.5,0.1,0.8c0,0.3,0,0.7,0,1.2
		c0,0.5,0,0.9-0.1,1.3s-0.1,0.6-0.2,0.9c-0.1,0.2-0.2,0.4-0.3,0.5s-0.3,0.2-0.4,0.2c-0.3,0-0.6-0.1-1-0.4c-0.4-0.3-0.9-0.6-1.5-1
		c-0.6-0.4-1.4-0.7-2.2-1c-0.9-0.3-1.9-0.4-3.1-0.4c-1.3,0-2.5,0.3-3.5,0.8c-1,0.5-1.9,1.3-2.6,2.3c-0.7,1-1.3,2.2-1.6,3.6
		c-0.4,1.4-0.6,3-0.6,4.8c0,1.9,0.2,3.6,0.6,5s1,2.6,1.7,3.5c0.7,0.9,1.6,1.6,2.7,2c1,0.5,2.2,0.7,3.5,0.7c1.2,0,2.2-0.1,3.1-0.4
		c0.9-0.3,1.6-0.6,2.2-0.9c0.6-0.3,1.1-0.6,1.5-0.9s0.7-0.4,0.9-0.4c0.2,0,0.3,0,0.4,0.1c0.1,0.1,0.2,0.2,0.3,0.4
		c0.1,0.2,0.1,0.5,0.2,0.9C463,646.5,463.1,647,463.1,647.6z"/>
	<path class="st1" d="M490.4,640.1c0,1.9-0.3,3.7-0.8,5.3c-0.5,1.6-1.3,3-2.3,4.1c-1,1.2-2.3,2-3.9,2.7c-1.6,0.6-3.4,0.9-5.5,0.9
		c-2,0-3.8-0.3-5.3-0.8c-1.5-0.6-2.7-1.4-3.7-2.4s-1.7-2.4-2.2-3.9c-0.5-1.6-0.7-3.3-0.7-5.3c0-1.9,0.3-3.7,0.8-5.3
		c0.5-1.6,1.3-3,2.3-4.1c1-1.1,2.3-2,3.9-2.7s3.4-0.9,5.5-0.9c2,0,3.8,0.3,5.3,0.8c1.5,0.6,2.7,1.4,3.7,2.4c1,1.1,1.7,2.4,2.2,3.9
		C490.2,636.3,490.4,638.1,490.4,640.1z M483.9,640.4c0-1.1-0.1-2.2-0.3-3.1c-0.2-0.9-0.5-1.8-0.9-2.5c-0.4-0.7-1-1.2-1.7-1.6
		c-0.7-0.4-1.6-0.6-2.7-0.6c-1,0-1.8,0.2-2.5,0.5s-1.3,0.9-1.8,1.5s-0.8,1.5-1,2.4c-0.2,0.9-0.3,2-0.3,3.2c0,1.1,0.1,2.2,0.3,3.1
		c0.2,0.9,0.5,1.8,0.9,2.5c0.4,0.7,1,1.2,1.7,1.6s1.6,0.6,2.6,0.6c1,0,1.8-0.2,2.5-0.5c0.7-0.3,1.3-0.9,1.8-1.5s0.8-1.5,1-2.4
		C483.7,642.6,483.9,641.6,483.9,640.4z M479.5,617.8c0.1-0.2,0.3-0.3,0.4-0.5c0.2-0.1,0.4-0.2,0.6-0.3c0.3-0.1,0.6-0.1,1-0.2
		c0.4,0,0.9-0.1,1.4-0.1c0.8,0,1.4,0,1.8,0.1c0.4,0.1,0.8,0.2,1,0.3s0.3,0.3,0.3,0.4c0,0.2-0.1,0.3-0.3,0.5l-4.9,5.9
		c-0.1,0.2-0.3,0.3-0.4,0.4c-0.1,0.1-0.3,0.2-0.5,0.3c-0.2,0.1-0.5,0.1-0.8,0.2s-0.7,0.1-1.2,0.1c-0.6,0-1.1,0-1.4-0.1
		s-0.6-0.1-0.7-0.2c-0.1-0.1-0.2-0.2-0.2-0.4c0-0.2,0.1-0.4,0.3-0.6L479.5,617.8z"/>
	<path class="st1" d="M531.6,651.7c0,0.2-0.1,0.3-0.2,0.4c-0.1,0.1-0.3,0.2-0.5,0.3c-0.2,0.1-0.6,0.1-1,0.2c-0.4,0-0.9,0.1-1.6,0.1
		c-0.6,0-1.2,0-1.6-0.1c-0.4,0-0.7-0.1-1-0.2s-0.4-0.2-0.5-0.3c-0.1-0.1-0.1-0.3-0.1-0.4v-13.5c0-0.8-0.1-1.5-0.2-2.1
		s-0.4-1.2-0.7-1.6c-0.3-0.5-0.7-0.8-1.1-1c-0.5-0.2-1-0.4-1.6-0.4c-0.8,0-1.5,0.3-2.3,0.9c-0.8,0.6-1.6,1.5-2.5,2.6v15.1
		c0,0.2-0.1,0.3-0.2,0.4c-0.1,0.1-0.3,0.2-0.5,0.3s-0.6,0.1-1,0.2c-0.4,0-0.9,0.1-1.5,0.1c-0.6,0-1.1,0-1.6-0.1
		c-0.4,0-0.7-0.1-1-0.2s-0.4-0.2-0.5-0.3c-0.1-0.1-0.2-0.3-0.2-0.4v-13.5c0-0.8-0.1-1.5-0.2-2.1c-0.1-0.6-0.4-1.2-0.6-1.6
		c-0.3-0.5-0.7-0.8-1.1-1c-0.5-0.2-1-0.4-1.6-0.4c-0.8,0-1.6,0.3-2.3,0.9c-0.8,0.6-1.6,1.5-2.5,2.6v15.1c0,0.2-0.1,0.3-0.2,0.4
		c-0.1,0.1-0.3,0.2-0.5,0.3s-0.6,0.1-1,0.2c-0.4,0-0.9,0.1-1.6,0.1c-0.6,0-1.1,0-1.6-0.1c-0.4,0-0.7-0.1-1-0.2s-0.4-0.2-0.5-0.3
		c-0.1-0.1-0.2-0.3-0.2-0.4V629c0-0.2,0-0.3,0.1-0.4c0.1-0.1,0.2-0.2,0.5-0.3c0.2-0.1,0.5-0.1,0.9-0.2s0.8-0.1,1.3-0.1
		c0.5,0,1,0,1.3,0.1s0.6,0.1,0.8,0.2c0.2,0.1,0.3,0.2,0.4,0.3s0.1,0.3,0.1,0.4v2.6c1.3-1.4,2.5-2.4,3.8-3.1s2.5-1,3.9-1
		c0.9,0,1.8,0.1,2.5,0.3c0.7,0.2,1.4,0.5,2,0.8c0.6,0.4,1.1,0.8,1.5,1.3c0.4,0.5,0.8,1.1,1.1,1.7c0.7-0.7,1.3-1.4,2-1.9
		c0.7-0.5,1.3-1,1.9-1.3c0.6-0.3,1.3-0.6,1.9-0.7c0.6-0.2,1.3-0.2,1.9-0.2c1.5,0,2.8,0.3,3.8,0.8c1,0.5,1.9,1.2,2.5,2.1
		c0.6,0.9,1.1,1.9,1.4,3.1s0.4,2.4,0.4,3.7V651.7z"/>
	<path class="st1" d="M560.9,640.1c0,1.9-0.3,3.7-0.8,5.3c-0.5,1.6-1.3,3-2.3,4.1c-1,1.2-2.3,2-3.9,2.7c-1.6,0.6-3.4,0.9-5.5,0.9
		c-2,0-3.8-0.3-5.3-0.8c-1.5-0.6-2.7-1.4-3.7-2.4s-1.7-2.4-2.2-3.9c-0.5-1.6-0.7-3.3-0.7-5.3c0-1.9,0.3-3.7,0.8-5.3
		c0.5-1.6,1.3-3,2.3-4.1c1-1.1,2.3-2,3.9-2.7s3.4-0.9,5.5-0.9c2,0,3.8,0.3,5.3,0.8c1.5,0.6,2.7,1.4,3.7,2.4c1,1.1,1.7,2.4,2.2,3.9
		C560.6,636.3,560.9,638.1,560.9,640.1z M554.3,640.4c0-1.1-0.1-2.2-0.3-3.1c-0.2-0.9-0.5-1.8-0.9-2.5c-0.4-0.7-1-1.2-1.7-1.6
		c-0.7-0.4-1.6-0.6-2.7-0.6c-1,0-1.8,0.2-2.5,0.5s-1.3,0.9-1.8,1.5s-0.8,1.5-1,2.4c-0.2,0.9-0.3,2-0.3,3.2c0,1.1,0.1,2.2,0.3,3.1
		c0.2,0.9,0.5,1.8,0.9,2.5c0.4,0.7,1,1.2,1.7,1.6s1.6,0.6,2.6,0.6c1,0,1.8-0.2,2.5-0.5c0.7-0.3,1.3-0.9,1.8-1.5s0.8-1.5,1-2.4
		C554.2,642.6,554.3,641.6,554.3,640.4z"/>
	<path class="st1" d="M591.4,620.3c0,0.5,0,0.9-0.1,1.2s-0.1,0.5-0.2,0.7c-0.1,0.2-0.1,0.3-0.2,0.3s-0.2,0.1-0.3,0.1
		c-0.1,0-0.3,0-0.4-0.1c-0.1-0.1-0.3-0.1-0.5-0.2c-0.2-0.1-0.5-0.1-0.8-0.2c-0.3-0.1-0.6-0.1-1-0.1c-0.5,0-0.9,0.1-1.2,0.2
		c-0.3,0.1-0.6,0.4-0.8,0.7c-0.2,0.3-0.4,0.7-0.5,1.2c-0.1,0.5-0.2,1.1-0.2,1.8v2.1h4.1c0.2,0,0.3,0,0.4,0.1
		c0.1,0.1,0.2,0.2,0.3,0.4c0.1,0.2,0.1,0.5,0.2,0.8c0,0.3,0.1,0.8,0.1,1.2c0,0.9-0.1,1.6-0.3,2c-0.2,0.4-0.4,0.6-0.7,0.6h-4.1v18.4
		c0,0.2-0.1,0.3-0.2,0.4c-0.1,0.1-0.3,0.2-0.5,0.3s-0.6,0.1-1,0.2c-0.4,0-0.9,0.1-1.6,0.1c-0.6,0-1.1,0-1.5-0.1
		c-0.4,0-0.7-0.1-1-0.2s-0.4-0.2-0.5-0.3c-0.1-0.1-0.1-0.3-0.1-0.4v-18.4h-2.9c-0.3,0-0.6-0.2-0.7-0.6c-0.2-0.4-0.2-1.1-0.2-2
		c0-0.5,0-0.9,0.1-1.2c0-0.3,0.1-0.6,0.2-0.8c0.1-0.2,0.2-0.3,0.3-0.4c0.1-0.1,0.3-0.1,0.4-0.1h2.8v-1.9c0-1.5,0.2-2.9,0.5-4.1
		c0.3-1.2,0.8-2.1,1.4-2.9c0.7-0.8,1.5-1.4,2.5-1.7c1-0.4,2.2-0.6,3.6-0.6c0.7,0,1.3,0.1,1.9,0.2c0.6,0.1,1.1,0.2,1.4,0.4
		c0.3,0.1,0.6,0.2,0.7,0.4c0.1,0.1,0.2,0.3,0.3,0.5s0.1,0.5,0.2,0.8S591.4,619.8,591.4,620.3z"/>
	<path class="st1" d="M615.8,651.7c0,0.2,0,0.3-0.1,0.4c-0.1,0.1-0.2,0.2-0.4,0.3s-0.5,0.1-0.8,0.2c-0.3,0-0.8,0.1-1.3,0.1
		c-0.6,0-1,0-1.4-0.1c-0.3,0-0.6-0.1-0.8-0.2c-0.2-0.1-0.3-0.2-0.4-0.3c-0.1-0.1-0.1-0.3-0.1-0.4v-2.6c-1.3,1.4-2.5,2.4-3.8,3.1
		c-1.3,0.7-2.6,1-4,1c-1.6,0-2.9-0.3-3.9-0.8c-1.1-0.5-1.9-1.2-2.6-2.1c-0.7-0.9-1.1-1.9-1.4-3.1c-0.3-1.2-0.4-2.6-0.4-4.3V629
		c0-0.2,0-0.3,0.1-0.4c0.1-0.1,0.3-0.2,0.5-0.3c0.2-0.1,0.6-0.1,1-0.2s0.9-0.1,1.5-0.1c0.6,0,1.1,0,1.6,0.1s0.7,0.1,1,0.2
		c0.2,0.1,0.4,0.2,0.5,0.3s0.2,0.3,0.2,0.4v12.8c0,1.2,0.1,2.1,0.2,2.7c0.2,0.6,0.4,1.2,0.7,1.6c0.3,0.4,0.7,0.8,1.2,1
		s1,0.4,1.7,0.4c0.8,0,1.6-0.3,2.5-0.9c0.8-0.6,1.7-1.5,2.6-2.6V629c0-0.2,0-0.3,0.1-0.4c0.1-0.1,0.3-0.2,0.5-0.3
		c0.2-0.1,0.6-0.1,1-0.2c0.4,0,0.9-0.1,1.6-0.1s1.1,0,1.6,0.1c0.4,0,0.7,0.1,1,0.2c0.2,0.1,0.4,0.2,0.5,0.3c0.1,0.1,0.2,0.3,0.2,0.4
		V651.7z"/>
	<path class="st1" d="M643.9,651.7c0,0.2-0.1,0.3-0.2,0.4c-0.1,0.1-0.3,0.2-0.5,0.3c-0.2,0.1-0.6,0.1-1,0.2c-0.4,0-0.9,0.1-1.5,0.1
		c-0.6,0-1.2,0-1.6-0.1c-0.4,0-0.7-0.1-1-0.2s-0.4-0.2-0.5-0.3c-0.1-0.1-0.2-0.3-0.2-0.4v-13c0-1.1-0.1-2-0.2-2.6s-0.4-1.2-0.7-1.6
		c-0.3-0.5-0.7-0.8-1.2-1s-1-0.4-1.7-0.4c-0.8,0-1.6,0.3-2.5,0.9c-0.8,0.6-1.7,1.5-2.6,2.6v15.1c0,0.2-0.1,0.3-0.2,0.4
		c-0.1,0.1-0.3,0.2-0.5,0.3s-0.6,0.1-1,0.2c-0.4,0-0.9,0.1-1.6,0.1c-0.6,0-1.1,0-1.6-0.1c-0.4,0-0.7-0.1-1-0.2s-0.4-0.2-0.5-0.3
		c-0.1-0.1-0.2-0.3-0.2-0.4V629c0-0.2,0-0.3,0.1-0.4c0.1-0.1,0.2-0.2,0.5-0.3c0.2-0.1,0.5-0.1,0.9-0.2s0.8-0.1,1.3-0.1
		c0.5,0,1,0,1.3,0.1s0.6,0.1,0.8,0.2c0.2,0.1,0.3,0.2,0.4,0.3s0.1,0.3,0.1,0.4v2.6c1.3-1.4,2.5-2.4,3.8-3.1c1.3-0.7,2.7-1,4.1-1
		c1.5,0,2.8,0.3,3.9,0.8c1.1,0.5,1.9,1.2,2.6,2.1s1.1,1.9,1.4,3.1c0.3,1.2,0.4,2.6,0.4,4.2V651.7z"/>
	<path class="st1" d="M667.4,648.1c0,0.4,0,0.8,0,1.1c0,0.3-0.1,0.5-0.1,0.8c0,0.2-0.1,0.4-0.2,0.5c-0.1,0.1-0.2,0.3-0.4,0.5
		c-0.2,0.2-0.6,0.4-1,0.7c-0.5,0.3-1.1,0.5-1.7,0.8c-0.6,0.2-1.3,0.4-2,0.5c-0.7,0.1-1.5,0.2-2.3,0.2c-1.7,0-3.3-0.3-4.6-0.8
		c-1.3-0.5-2.5-1.3-3.4-2.4c-0.9-1.1-1.6-2.4-2.1-3.9c-0.5-1.5-0.7-3.3-0.7-5.2c0-2.3,0.3-4.2,0.9-5.9c0.6-1.7,1.4-3,2.4-4.1
		s2.2-1.9,3.6-2.4s2.9-0.8,4.6-0.8c0.7,0,1.3,0.1,2,0.2c0.7,0.1,1.3,0.3,1.8,0.5c0.6,0.2,1.1,0.4,1.5,0.7c0.4,0.3,0.8,0.5,1,0.7
		s0.3,0.3,0.4,0.5c0.1,0.1,0.1,0.3,0.2,0.5c0,0.2,0.1,0.5,0.1,0.8c0,0.3,0,0.7,0,1.1c0,1-0.1,1.7-0.3,2.1c-0.2,0.4-0.4,0.6-0.7,0.6
		c-0.3,0-0.6-0.1-0.9-0.4s-0.7-0.5-1.1-0.8c-0.4-0.3-1-0.6-1.6-0.8c-0.6-0.2-1.3-0.4-2.2-0.4c-1.7,0-2.9,0.6-3.8,1.9
		c-0.9,1.3-1.3,3.2-1.3,5.6c0,1.2,0.1,2.3,0.3,3.2s0.5,1.7,1,2.3s1,1.1,1.6,1.4c0.7,0.3,1.4,0.5,2.3,0.5c0.9,0,1.6-0.1,2.3-0.4
		s1.2-0.6,1.7-0.9s0.9-0.6,1.2-0.9c0.3-0.3,0.6-0.4,0.8-0.4c0.2,0,0.3,0,0.4,0.1c0.1,0.1,0.2,0.2,0.2,0.5c0.1,0.2,0.1,0.5,0.1,0.9
		S667.4,647.5,667.4,648.1z"/>
	<path class="st1" d="M678.9,621.3c0,1.3-0.3,2.2-0.8,2.7c-0.5,0.5-1.5,0.7-2.9,0.7c-1.4,0-2.4-0.2-2.9-0.7
		c-0.5-0.5-0.8-1.3-0.8-2.6c0-1.3,0.3-2.2,0.8-2.7s1.5-0.8,2.9-0.8c1.4,0,2.4,0.2,2.9,0.7S678.9,620.1,678.9,621.3z M678.4,651.7
		c0,0.2-0.1,0.3-0.2,0.4c-0.1,0.1-0.3,0.2-0.5,0.3s-0.6,0.1-1,0.2c-0.4,0-0.9,0.1-1.6,0.1c-0.6,0-1.1,0-1.6-0.1
		c-0.4,0-0.7-0.1-1-0.2s-0.4-0.2-0.5-0.3c-0.1-0.1-0.2-0.3-0.2-0.4V629c0-0.2,0.1-0.3,0.2-0.4c0.1-0.1,0.3-0.2,0.5-0.3
		c0.2-0.1,0.6-0.2,1-0.2c0.4-0.1,0.9-0.1,1.6-0.1c0.6,0,1.1,0,1.6,0.1c0.4,0.1,0.7,0.1,1,0.2c0.2,0.1,0.4,0.2,0.5,0.3
		c0.1,0.1,0.2,0.3,0.2,0.4V651.7z"/>
	<path class="st1" d="M707.7,640.1c0,1.9-0.3,3.7-0.8,5.3c-0.5,1.6-1.3,3-2.3,4.1c-1,1.2-2.3,2-3.9,2.7c-1.6,0.6-3.4,0.9-5.5,0.9
		c-2,0-3.8-0.3-5.3-0.8c-1.5-0.6-2.7-1.4-3.7-2.4s-1.7-2.4-2.2-3.9c-0.5-1.6-0.7-3.3-0.7-5.3c0-1.9,0.3-3.7,0.8-5.3
		c0.5-1.6,1.3-3,2.3-4.1c1-1.1,2.3-2,3.9-2.7s3.4-0.9,5.5-0.9c2,0,3.8,0.3,5.3,0.8c1.5,0.6,2.7,1.4,3.7,2.4c1,1.1,1.7,2.4,2.2,3.9
		C707.5,636.3,707.7,638.1,707.7,640.1z M701.2,640.4c0-1.1-0.1-2.2-0.3-3.1c-0.2-0.9-0.5-1.8-0.9-2.5c-0.4-0.7-1-1.2-1.7-1.6
		c-0.7-0.4-1.6-0.6-2.7-0.6c-1,0-1.8,0.2-2.5,0.5s-1.3,0.9-1.8,1.5s-0.8,1.5-1,2.4c-0.2,0.9-0.3,2-0.3,3.2c0,1.1,0.1,2.2,0.3,3.1
		c0.2,0.9,0.5,1.8,0.9,2.5c0.4,0.7,1,1.2,1.7,1.6s1.6,0.6,2.6,0.6c1,0,1.8-0.2,2.5-0.5c0.7-0.3,1.3-0.9,1.8-1.5s0.8-1.5,1-2.4
		C701,642.6,701.2,641.6,701.2,640.4z"/>
	<path class="st1" d="M734.5,651.7c0,0.2-0.1,0.3-0.2,0.4c-0.1,0.1-0.3,0.2-0.5,0.3c-0.2,0.1-0.6,0.1-1,0.2c-0.4,0-0.9,0.1-1.5,0.1
		c-0.6,0-1.2,0-1.6-0.1c-0.4,0-0.7-0.1-1-0.2s-0.4-0.2-0.5-0.3c-0.1-0.1-0.2-0.3-0.2-0.4v-13c0-1.1-0.1-2-0.2-2.6s-0.4-1.2-0.7-1.6
		c-0.3-0.5-0.7-0.8-1.2-1s-1-0.4-1.7-0.4c-0.8,0-1.6,0.3-2.5,0.9c-0.8,0.6-1.7,1.5-2.6,2.6v15.1c0,0.2-0.1,0.3-0.2,0.4
		c-0.1,0.1-0.3,0.2-0.5,0.3s-0.6,0.1-1,0.2c-0.4,0-0.9,0.1-1.6,0.1c-0.6,0-1.1,0-1.6-0.1c-0.4,0-0.7-0.1-1-0.2s-0.4-0.2-0.5-0.3
		c-0.1-0.1-0.2-0.3-0.2-0.4V629c0-0.2,0-0.3,0.1-0.4c0.1-0.1,0.2-0.2,0.5-0.3c0.2-0.1,0.5-0.1,0.9-0.2s0.8-0.1,1.3-0.1
		c0.5,0,1,0,1.3,0.1s0.6,0.1,0.8,0.2c0.2,0.1,0.3,0.2,0.4,0.3s0.1,0.3,0.1,0.4v2.6c1.3-1.4,2.5-2.4,3.8-3.1c1.3-0.7,2.7-1,4.1-1
		c1.5,0,2.8,0.3,3.9,0.8c1.1,0.5,1.9,1.2,2.6,2.1s1.1,1.9,1.4,3.1c0.3,1.2,0.4,2.6,0.4,4.2V651.7z"/>
	<path class="st1" d="M760.1,651.8c0,0.2-0.1,0.4-0.3,0.6c-0.2,0.1-0.4,0.2-0.8,0.3s-0.9,0.1-1.6,0.1c-0.8,0-1.3,0-1.7-0.1
		s-0.6-0.2-0.7-0.3c-0.1-0.1-0.2-0.3-0.2-0.6V650c-0.9,1-2,1.8-3.2,2.3c-1.2,0.6-2.5,0.8-4,0.8c-1.2,0-2.3-0.2-3.3-0.5
		c-1-0.3-1.9-0.8-2.6-1.4c-0.7-0.6-1.3-1.4-1.7-2.3s-0.6-2-0.6-3.2c0-1.3,0.3-2.5,0.8-3.4c0.5-1,1.3-1.8,2.3-2.4
		c1-0.6,2.3-1.1,3.8-1.4c1.5-0.3,3.3-0.5,5.3-0.5h2.2v-1.4c0-0.7-0.1-1.3-0.2-1.9c-0.1-0.5-0.4-1-0.7-1.3c-0.3-0.4-0.8-0.6-1.3-0.8
		s-1.2-0.3-2-0.3c-1.1,0-2,0.1-2.9,0.4c-0.8,0.2-1.6,0.5-2.2,0.8c-0.6,0.3-1.2,0.6-1.6,0.8c-0.4,0.2-0.8,0.4-1.1,0.4
		c-0.2,0-0.4-0.1-0.5-0.2c-0.1-0.1-0.3-0.3-0.4-0.5c-0.1-0.2-0.2-0.5-0.2-0.8c-0.1-0.3-0.1-0.7-0.1-1.1c0-0.5,0-0.9,0.1-1.2
		s0.2-0.6,0.5-0.8c0.2-0.2,0.7-0.5,1.2-0.8c0.6-0.3,1.3-0.6,2.1-0.8s1.7-0.5,2.6-0.6c0.9-0.2,1.9-0.2,2.9-0.2c1.8,0,3.3,0.2,4.6,0.5
		c1.3,0.3,2.3,0.9,3.1,1.6c0.8,0.7,1.4,1.7,1.8,2.8c0.4,1.1,0.6,2.5,0.6,4V651.8z M753.8,642h-2.4c-1,0-1.9,0.1-2.6,0.2
		c-0.7,0.2-1.3,0.4-1.8,0.7c-0.5,0.3-0.8,0.7-1,1.1c-0.2,0.4-0.3,0.9-0.3,1.5c0,1,0.3,1.7,0.9,2.2s1.4,0.8,2.5,0.8
		c0.9,0,1.7-0.2,2.5-0.7s1.5-1.1,2.3-2V642z"/>
	<path class="st1" d="M785.4,627.4c0,1.4-0.2,2.6-0.6,3.8s-1,2.1-1.7,2.9c-0.7,0.8-1.6,1.5-2.6,2c-1,0.5-2.1,0.8-3.3,0.9l-0.2,5
		c0,0.3-0.3,0.5-0.7,0.7c-0.5,0.2-1.1,0.2-2,0.2c-0.6,0-1,0-1.4,0s-0.7-0.1-0.9-0.1c-0.2-0.1-0.4-0.2-0.5-0.3
		c-0.1-0.1-0.2-0.3-0.2-0.5l-0.2-6c0-0.5,0-1,0.1-1.3c0.1-0.3,0.2-0.6,0.4-0.8c0.2-0.2,0.4-0.3,0.7-0.4c0.3-0.1,0.6-0.1,1-0.1h0.4
		c0.9,0,1.7-0.1,2.3-0.4c0.7-0.3,1.2-0.7,1.6-1.1c0.4-0.5,0.7-1,0.9-1.7c0.2-0.6,0.3-1.3,0.3-2.1c0-0.8-0.1-1.6-0.3-2.2
		c-0.2-0.7-0.6-1.3-1-1.8c-0.5-0.5-1.1-0.9-1.8-1.1c-0.7-0.3-1.5-0.4-2.5-0.4c-0.9,0-1.6,0.1-2.3,0.3s-1.2,0.4-1.7,0.6
		c-0.5,0.2-0.9,0.4-1.2,0.6c-0.3,0.2-0.6,0.3-0.7,0.3c-0.1,0-0.2,0-0.3-0.1s-0.2-0.2-0.3-0.4c-0.1-0.2-0.1-0.5-0.2-0.9
		c0-0.4-0.1-0.8-0.1-1.4c0-0.6,0-1,0.1-1.3s0.2-0.5,0.3-0.7c0.2-0.2,0.5-0.4,1-0.6c0.5-0.2,1-0.4,1.7-0.6c0.7-0.2,1.4-0.4,2.2-0.5
		s1.7-0.2,2.5-0.2c2,0,3.7,0.3,5.1,0.8c1.4,0.6,2.6,1.3,3.5,2.2c0.9,0.9,1.6,2,2,3.2C785.1,624.8,785.4,626.1,785.4,627.4z
		 M777.8,649.2c0,0.7-0.1,1.3-0.2,1.8c-0.1,0.5-0.3,0.9-0.6,1.1c-0.3,0.3-0.7,0.5-1.1,0.6c-0.5,0.1-1,0.2-1.7,0.2
		c-0.7,0-1.3-0.1-1.8-0.2c-0.5-0.1-0.8-0.3-1.1-0.6c-0.3-0.3-0.5-0.7-0.6-1.1c-0.1-0.5-0.2-1.1-0.2-1.8c0-0.7,0.1-1.3,0.2-1.8
		s0.3-0.9,0.6-1.2c0.3-0.3,0.6-0.5,1.1-0.6c0.5-0.1,1-0.2,1.8-0.2c0.7,0,1.3,0.1,1.7,0.2c0.5,0.1,0.8,0.3,1.1,0.6
		c0.3,0.3,0.5,0.7,0.6,1.2S777.8,648.5,777.8,649.2z"/>
</g>
<path class="st2" d="M684.8,355.5H493.9c-13,0-23.6-10.6-23.6-23.6V168.6c0-13,10.6-23.6,23.6-23.6h190.9c13,0,23.6,10.6,23.6,23.6
	V332C708.4,345,697.8,355.5,684.8,355.5z"/>
<g>
	<path class="st0" d="M580.4,235.4c3.2-3.3,3.9-6.6,1.5-10.4c-0.4-0.6-0.3-1.7-0.2-2.4c1.4-7.1-2.1-13.1-8.8-14.9
		c-6.6-1.8-13.2,1.8-15.5,8.5c-0.2,0.7-0.5,1.4-0.7,2.1c-12.3,1.9-17.8,9.1-16.4,21.1c0.1,0.8-0.3,1.8-0.8,2.6
		c-1.9,3.2-2.8,6.5-2.1,10.3c0.2,1-0.2,2.3-0.7,3.2c-3,5.1-2.5,10.5,1.7,14.6c1.3,1.3,1.5,2.3,1.1,4c-2.7,10.3,4,19.8,14.6,20.8
		c1.8,0.2,2.6,0.7,3.1,2.5c2.1,7.2,9.4,11,16.3,8.7c7.1-2.3,10.5-9.8,8-16.9c-0.5-1.3-0.4-3.1,0-4.4c2.2-5.8,2.5-11.5-0.3-17.2
		c-0.3-0.7-0.2-1.9,0.3-2.5c3-3.9,3.5-8,1.3-12.5c-0.3-0.7-0.4-1.8-0.1-2.4C585.8,244.6,584.8,239.9,580.4,235.4z"/>
	<path class="st0" d="M640.4,256.6c-0.6-1.3-1.1-2.4-1.1-3.5l0-1.4c-0.1-3.4-0.2-6.9-2-10.3c-0.5-0.9-0.7-2-0.6-2.9
		c1.2-11-5.3-19.9-15.9-21.6c-1-0.2-1.2-0.3-1.6-1.5c-2.4-7.4-10.1-11.5-17.5-9.5c-7.6,2.1-11.7,8.8-10.2,16.7
		c0.1,0.3,0.2,1.1,0.3,1.1c-1.9,2.9-3.3,7.1,0.4,11.8c-4.1,4.9-4.6,10.2-1.5,15.5c0,0.1,0,0.4-0.1,0.6c-2.5,5.1-2,10,1.4,14.5
		c0.1,0.1,0.2,0.5,0.2,0.5c-2.9,5.7-3,12-0.4,19c0.3,0.8,0.3,2,0,2.8c-1.4,4-1.2,8.3,0.6,12c1.7,3.5,4.7,6.1,8.5,7.4
		c1.6,0.5,3.2,0.8,4.7,0.8c2.3,0,4.6-0.6,6.7-1.7c3.6-1.9,6.2-5.2,7.4-9.3c0.3-0.9,0.3-0.9,1.1-1c5.8-0.5,10.8-3.1,13.9-7.5
		c3.2-4.4,4.2-10.2,2.7-16c0-0.4,0.5-1.4,0.8-2c0.4-0.8,0.9-1.6,1.3-2.3c0.9-1.4,1.7-2.8,2.3-4.5
		C642.6,261.3,641.4,258.7,640.4,256.6z M633.3,267.3c-2.6,2.1-3.1,4.2-2.1,7.4c1.2,3.5,0.7,7.4-1.4,10.6c-2,3.1-5.3,5.1-8.8,5.4
		c-1.1,0.1-1.2,0.1-1.7-1.1c-0.8-2.4-2.4-4.3-3.9-6.2l-0.4-0.5c-0.8-1-2.1-1.1-3-1.1c-0.2,0-0.5,0-0.7,0c-0.7-0.1-1.3,0.2-1.7,0.7
		c-0.4,0.5-0.5,1.2-0.3,1.8c0.1,0.2,0.1,0.4,0.2,0.6c0.2,0.7,0.4,1.6,1.2,2.2c2.6,2.5,3.6,5,3.2,8c-0.6,3.7-2.4,6-5.8,7
		c-3.5,1.1-6.6,0.3-9-2.3c-2.5-2.7-3-5.8-1.6-9.1c1.1-2.4,1.1-4.5,0-6.9c-2.6-5.9-2.3-10.9,0.7-15.6c0.9-1.4,0.4-3.7-0.6-4.8
		c-3.3-3.6-3.5-5.7-1.1-10c0.7-1.2,0.7-3.2,0-4.3c-3-5-2.5-7.6,1.9-10.8c0.6-0.4,2.1-1.5,1.9-3.1c-0.1-1.6-1.7-2.4-2.4-2.8
		c-1.3-0.7-2-1.4-2.2-2.1c-0.2-0.8,0.1-1.8,1-3.2c1-1.5,0.9-3.7,0.6-5.1c-0.6-2.4-0.3-4.8,0.9-6.7c1.1-1.8,2.9-3.1,5.2-3.6
		c0.6-0.2,1.3-0.2,1.9-0.2c1.6,0,3.1,0.4,4.4,1.3c1.6,1,2.7,2.5,3.4,4.3l-1,0.6c-2,1.1-4,2.1-5.8,3.3c-0.4,0.2-0.7,0.6-0.9,0.9
		c0-0.4-0.1-0.7-0.1-1c0-0.1-0.1-0.3-0.1-0.4c0-0.5-0.3-1-0.7-1.3c-0.4-0.3-1-0.4-1.5-0.3c-0.1,0-0.3,0.1-0.5,0.1
		c-0.8,0.1-2.2,0.3-2.6,1.6c-0.2,0.5-0.4,1.1-0.6,1.6c-0.7,1.9-1.5,4-1,6.1c0.6,2.4,1.8,4.6,3.2,6.8c0.3,0.6,0.7,1.2,1,1.8
		c-0.2,0.2-0.3,0.4-0.5,0.6c-1.6,2.1-2.1,4.8-1.4,7.3c0.7,2.4,2.4,4.3,4.8,5.2c0.5,0.2,1,0.3,1.5,0.3c0.6,0,1.1-0.1,1.6-0.2
		c0.3-0.1,0.6-0.1,0.8-0.1c0.7-0.1,1.3-0.5,1.6-1.2c0.3-0.7,0.1-1.4-0.4-1.9c-0.2-0.2-0.3-0.4-0.5-0.5c-0.5-0.6-1.1-1.3-1.9-1.7
		c-1.5-0.8-1.7-1.5-1.6-2.5c0.1-0.8,0.5-1.7,2.2-1.8c0.4,0,0.8,0,1.2,0c0.7,0,1.4,0,2.2-0.1c1.5-0.3,2.9-0.8,4.2-1.4
		c1.1-0.5,1.3-1.6,1.4-2.4c0-0.1,0.1-0.3,0.1-0.4c0.2-0.5,0.1-1.1-0.2-1.5c-0.3-0.5-0.7-0.8-1.3-0.9l-0.5-0.1
		c-0.5-0.1-1-0.2-1.6-0.2c-0.7-0.1-1.5,0.1-2.2,0.2c-1.1,0.1-2.2,0.3-2.9,0c-2.1-0.8-3.5-2.2-4.3-3.9c-0.5-1.2-0.6-2.5-0.4-3.9
		c0.1,0.2,0.1,0.4,0.3,0.6c0.5,0.5,1.2,0.7,1.8,0.6c0.2-0.1,0.4-0.1,0.7-0.1c0.7-0.1,1.6-0.3,2.4-0.8c5.1-3.6,10.9-4,15.4-1
		c3.2,2.1,5.3,6.5,5.4,11.1c-0.1-0.1-0.1-0.2-0.2-0.2c-0.2-0.1-0.4-0.3-0.6-0.5c-0.6-0.5-1.4-1.2-2.5-1.4c-4.3-0.9-8.9,1.8-10.6,6.1
		c-1.7,4.3-0.2,9.3,3.6,11.7c1,0.6,2.1,0.7,2.9,0.7c0.3,0,0.6,0,0.8,0.1c0.1,0,0.2,0,0.3,0c0.6,0,1.2-0.3,1.5-0.8
		c0.4-0.6,0.4-1.4,0-2c-0.1-0.2-0.2-0.4-0.4-0.7c-0.4-0.7-0.8-1.4-1.5-2c-1.8-1.5-2.2-2.9-1.6-4.6c0.4-1.2,1.5-2.7,5.3-2.3
		c0.4,0.1,0.8-0.1,1.2-0.3l1.5-0.9c0,0,0-0.1,0.1-0.1c0,0.1,0,0.2,0,0.3c-0.3,1.6,0.1,3.5,1,4.8c2.1,3.1,2.6,6.4,1.5,9.2
		c-1.1,2.8-3.8,4.7-7.6,5.4c-1.1,0.2-1.8,0.9-2.3,1.5c-0.1,0.2-0.3,0.3-0.5,0.4c-0.5,0.4-0.7,1.1-0.6,1.7c0.1,0.6,0.5,1.2,1.2,1.4
		c0.2,0.1,0.3,0.2,0.5,0.3c0.8,0.4,1.8,0.9,2.9,0.5c2.9-1.1,5.6-2.3,8-3.6c0.3-0.2,0.6-0.4,0.8-0.6
		C636.4,262.4,635.7,265.3,633.3,267.3z"/>
	<path class="st0" d="M611.9,275.9c-0.8-0.6-1.7-1.2-2.9-1.3c-4.2-0.5-8.7,2.3-10.1,6.5c-1.5,4.3,0.3,9.6,4,11.7
		c0.7,0.4,1.5,0.5,2.1,0.5c0.2,0,0.5,0,0.7,0c0.3,0,0.5,0,0.7,0c0.7,0,1.3-0.3,1.7-0.9c0.3-0.6,0.3-1.3,0-1.9
		c-0.1-0.2-0.2-0.4-0.3-0.6c-0.3-0.6-0.7-1.4-1.5-2c-2.3-1.8-2.1-3.4-1.7-4.6c0.7-1.9,1.9-2.5,4-2.1c0.4,0.1,0.8,0,1.1-0.1l2.7-1.3
		c0.6-0.3,1-0.9,1-1.6c0-0.7-0.3-1.3-0.9-1.7C612.5,276.2,612.2,276,611.9,275.9z"/>
	<path class="st0" d="M598.9,261.4c0.2,0,0.3,0,0.5,0c0.6,0,1.4,0,2.2-0.4c0.7-0.4,1.5-0.8,2.2-1.2c0.9-0.5,1.7-1,2.5-1.4
		c3.2-1.3,6.5-1.1,10.4,0.8c0.9,0.4,1.9,0.4,2.7,0.4c0.2,0,0.5,0,0.7,0c0.9,0.1,1.8-0.7,1.9-1.6l0.1-0.9c0.1-0.5-0.4-1.3-0.7-1.7
		c-0.3-0.3-0.6-0.6-0.9-0.9c-5.7-4.5-17.7-3.4-22.5,2.1c-0.6,0.7-0.8,1.6-0.8,2.3c0,0.2,0,0.3-0.1,0.5c-0.1,0.6,0,1.2,0.4,1.6
		c0.3,0.4,0.9,0.6,1.4,0.6C598.8,261.4,598.9,261.4,598.9,261.4z"/>
	<path class="st0" d="M619.3,262c-0.1-0.2-0.2-0.3-0.3-0.5c-0.3-0.6-0.8-0.9-1.4-1c-0.6-0.1-1.2,0.1-1.6,0.6
		c-0.1,0.1-0.2,0.2-0.4,0.3c-0.5,0.4-1.1,1-1.4,1.9c-0.6,2.1-1.4,2.2-2.3,2.2c-0.8,0-1.7-0.2-2.3-2.2c-0.3-0.9-1-1.5-1.5-1.9
		c-0.1-0.1-0.3-0.2-0.4-0.3c-0.4-0.4-1-0.6-1.7-0.5c-0.6,0.1-1.1,0.5-1.3,1.1c-0.1,0.2-0.2,0.3-0.3,0.5c-0.3,0.6-0.8,1.5-0.7,2.5
		c0.3,3.9,3.9,7,8.1,7c0,0,0,0,0,0c4.2,0,7.8-3.2,8.1-7C620.2,263.5,619.7,262.6,619.3,262z"/>
	<path class="st0" d="M629.2,266c-0.2-0.1-0.3-0.2-0.5-0.3c-0.6-0.4-1.4-0.9-2.4-0.9c-4,0-7.4,3.7-7.5,8c-0.1,4,2.5,7.3,6.2,8
		c0.2,0,0.4,0.1,0.6,0.1c0.7,0,1.3-0.2,1.9-0.4c0.2-0.1,0.4-0.1,0.6-0.2c0.6-0.1,1.1-0.6,1.3-1.2c0.2-0.6,0.1-1.3-0.3-1.8
		c-0.1-0.1-0.2-0.3-0.3-0.4c-0.4-0.6-0.9-1.4-1.9-1.8c-1.8-0.7-2-1.5-1.9-2.3c0-0.8,0.2-1.7,2.2-2.1c1-0.2,1.6-0.9,2.1-1.4
		c0.1-0.1,0.2-0.2,0.3-0.3c0.5-0.4,0.7-1,0.6-1.6C630.1,266.9,629.7,266.3,629.2,266z"/>
</g>
<g>
	<path class="st3" d="M796.8,104.2H403.2c-18.5,0-33.6,15.1-33.6,33.6v54.7v257.2v54.7c0,18.6,15.1,33.6,33.6,33.6h393.6
		c18.6,0,33.6-15.1,33.6-33.6v-54.7V192.6v-54.8C830.5,119.3,815.4,104.2,796.8,104.2z"/>
	<path class="st1" d="M695.8,404.8h-191c-13,0-23.6-10.6-23.6-23.6V217.9c0-13,10.6-23.6,23.6-23.6h190.9c13,0,23.6,10.6,23.6,23.6
		v163.3C719.3,394.2,708.8,404.8,695.8,404.8z"/>
	<g>
		<path class="st1" d="M526.4,438c0,1.7-0.3,3.2-0.8,4.5s-1.3,2.4-2.3,3.2c-1,0.9-2.3,1.5-3.8,1.9s-3.3,0.7-5.4,0.7h-2.9v8.8
			c0,0.2-0.1,0.3-0.2,0.5c-0.1,0.1-0.3,0.2-0.6,0.3c-0.3,0.1-0.6,0.1-1.1,0.2c-0.5,0-1,0.1-1.7,0.1c-0.7,0-1.3,0-1.7-0.1
			s-0.8-0.1-1.1-0.2c-0.3-0.1-0.4-0.2-0.6-0.3c-0.1-0.1-0.2-0.3-0.2-0.5v-25.8c0-0.7,0.2-1.3,0.6-1.7c0.4-0.4,1-0.6,1.7-0.6h8.2
			c0.7,0,1.4,0,2.1,0.1s1.4,0.1,2,0.3c1.2,0.2,2.3,0.5,3.2,1c0.9,0.5,1.7,1.1,2.4,1.8c0.7,0.7,1.2,1.6,1.5,2.5
			C526.2,435.7,526.4,436.8,526.4,438z M519,438.6c0-1-0.2-1.9-0.7-2.6c-0.4-0.7-1.1-1.2-1.9-1.5c-0.3-0.1-0.7-0.2-1.1-0.2
			s-0.8-0.1-1.3-0.1h-2.9v9h3.2c0.9,0,1.7-0.1,2.2-0.4c0.5-0.2,1-0.6,1.4-1c0.4-0.4,0.6-0.9,0.8-1.5
			C518.9,439.9,519,439.2,519,438.6z"/>
		<path class="st1" d="M557.7,457.5c0,0.1-0.1,0.2-0.2,0.3c-0.1,0.1-0.3,0.2-0.6,0.2c-0.3,0-0.7,0.1-1.2,0.1s-1.2,0-2,0
			c-0.8,0-1.4,0-1.9-0.1s-0.9-0.1-1.1-0.2s-0.5-0.2-0.6-0.4c-0.1-0.2-0.2-0.3-0.3-0.5l-2.1-6.2c-0.3-0.7-0.5-1.3-0.8-1.9
			c-0.3-0.5-0.6-0.9-0.9-1.3s-0.7-0.6-1.1-0.8s-1-0.2-1.6-0.2h-2v10.7c0,0.2-0.1,0.3-0.2,0.5c-0.1,0.1-0.3,0.2-0.6,0.3
			c-0.3,0.1-0.6,0.1-1.1,0.2c-0.5,0-1,0.1-1.7,0.1s-1.3,0-1.7-0.1c-0.4-0.1-0.8-0.1-1.1-0.2s-0.4-0.2-0.6-0.3
			c-0.1-0.1-0.2-0.3-0.2-0.5v-26.1c0-0.7,0.2-1.2,0.6-1.5s0.8-0.5,1.4-0.5h9.3c1.8,0,3.4,0.2,4.7,0.5c1.3,0.3,2.4,0.8,3.4,1.4
			s1.7,1.5,2.2,2.5s0.8,2.2,0.8,3.6c0,1-0.1,1.9-0.4,2.7c-0.2,0.8-0.6,1.5-1.1,2.2c-0.5,0.6-1.1,1.2-1.8,1.7s-1.5,0.9-2.5,1.2
			c0.5,0.2,0.9,0.4,1.3,0.7c0.4,0.3,0.7,0.6,1.1,1c0.4,0.4,0.7,0.9,1,1.4c0.3,0.6,0.6,1.2,0.9,1.9l2.3,5.9c0.2,0.5,0.3,0.9,0.4,1.2
			C557.7,457.2,557.7,457.4,557.7,457.5z M549,437.8c0-0.5-0.1-1-0.2-1.4c-0.2-0.4-0.4-0.8-0.7-1.1s-0.8-0.6-1.3-0.7
			c-0.5-0.2-1.3-0.3-2.3-0.3h-3.2v7.5h3c0.9,0,1.7-0.1,2.2-0.3c0.6-0.2,1-0.4,1.4-0.8c0.4-0.4,0.7-0.7,0.9-1.2
			C548.9,439,549,438.4,549,437.8z"/>
		<path class="st1" d="M590.6,446.7c0,2.1-0.3,3.9-0.8,5.3c-0.6,1.4-1.4,2.6-2.5,3.6c-1.1,1-2.4,1.7-4,2.3c-1.6,0.5-3.4,0.8-5.5,0.8
			c-2,0-3.8-0.2-5.3-0.7c-1.6-0.5-2.9-1.2-4-2.1c-1.1-0.9-1.9-2.1-2.5-3.5c-0.6-1.4-0.8-3.3-0.8-5.6V430c0-0.2,0.1-0.3,0.2-0.4
			c0.1-0.1,0.3-0.2,0.6-0.3c0.3-0.1,0.6-0.1,1.1-0.2c0.5,0,1-0.1,1.7-0.1s1.3,0,1.7,0.1c0.5,0,0.8,0.1,1.1,0.2s0.5,0.2,0.6,0.3
			c0.1,0.1,0.2,0.3,0.2,0.4v16.4c0,1.5,0.1,2.6,0.4,3.4s0.7,1.4,1.2,1.9s1.1,0.9,1.9,1.1s1.5,0.4,2.3,0.4c0.8,0,1.6-0.1,2.3-0.4
			c0.7-0.3,1.3-0.6,1.8-1.1s0.9-1.1,1.1-1.8c0.3-0.7,0.4-1.7,0.4-3.1v-16.7c0-0.2,0-0.3,0.1-0.4c0.1-0.1,0.3-0.2,0.6-0.3
			c0.3-0.1,0.6-0.1,1.1-0.2c0.4,0,1-0.1,1.7-0.1s1.3,0,1.8,0.1c0.4,0,0.8,0.1,1,0.2c0.3,0.1,0.4,0.2,0.5,0.3
			c0.1,0.1,0.1,0.3,0.1,0.4v16.6H590.6z"/>
		<path class="st1" d="M618.6,455.4c0,0.5,0,0.9-0.1,1.2c0,0.3-0.1,0.6-0.2,0.8c-0.1,0.2-0.2,0.4-0.3,0.4c-0.1,0.1-0.2,0.1-0.4,0.1
			H602c-0.5,0-1-0.2-1.4-0.5c-0.4-0.3-0.6-0.8-0.6-1.5V431c0-0.7,0.2-1.2,0.6-1.5s0.8-0.5,1.4-0.5h15.5c0.1,0,0.3,0,0.4,0.1
			c0.1,0.1,0.2,0.2,0.3,0.4c0.1,0.2,0.1,0.5,0.2,0.8c0,0.3,0.1,0.8,0.1,1.3s0,0.9-0.1,1.2c0,0.3-0.1,0.6-0.2,0.8
			c-0.1,0.2-0.2,0.4-0.3,0.4c-0.1,0.1-0.2,0.1-0.4,0.1h-10.4v6.2h8.8c0.1,0,0.3,0,0.4,0.1s0.2,0.2,0.3,0.4c0.1,0.2,0.1,0.5,0.2,0.8
			c0,0.3,0.1,0.8,0.1,1.3s0,0.9-0.1,1.2c0,0.3-0.1,0.6-0.2,0.8s-0.2,0.3-0.3,0.4c-0.1,0.1-0.3,0.1-0.4,0.1h-8.8v7h10.5
			c0.1,0,0.3,0,0.4,0.1c0.1,0.1,0.2,0.2,0.3,0.4c0.1,0.2,0.1,0.5,0.2,0.8C618.5,454.5,618.6,454.9,618.6,455.4z"/>
		<path class="st1" d="M650.9,449.2c0,1.1-0.2,2.1-0.5,2.9s-0.8,1.6-1.3,2.3c-0.6,0.7-1.2,1.2-2,1.7s-1.6,0.8-2.5,1.1
			c-0.9,0.3-1.9,0.5-2.9,0.6s-2.2,0.2-3.5,0.2h-9.1c-0.5,0-1-0.2-1.4-0.5c-0.4-0.3-0.6-0.8-0.6-1.5v-24.9c0-0.7,0.2-1.2,0.6-1.5
			c0.4-0.3,0.8-0.5,1.4-0.5h9.2c1.8,0,3.4,0.1,4.7,0.4s2.4,0.7,3.3,1.3c0.9,0.6,1.6,1.4,2.1,2.3s0.7,2,0.7,3.3c0,0.7-0.1,1.4-0.3,2
			c-0.2,0.6-0.5,1.2-0.8,1.7s-0.8,1-1.3,1.3s-1.1,0.7-1.8,0.9c0.9,0.1,1.6,0.4,2.4,0.7c0.7,0.4,1.4,0.8,1.9,1.4s1,1.2,1.3,2
			S650.9,448.2,650.9,449.2z M642,437.4c0-0.5-0.1-1-0.2-1.4c-0.2-0.4-0.4-0.8-0.8-1.1c-0.3-0.3-0.8-0.5-1.3-0.7
			c-0.5-0.1-1.2-0.2-2.1-0.2h-3.8v6.9h4c0.9,0,1.5-0.1,2-0.3c0.5-0.2,0.9-0.4,1.2-0.8c0.3-0.3,0.5-0.7,0.7-1.1
			C641.9,438.4,642,437.9,642,437.4z M643.4,449.4c0-0.6-0.1-1.1-0.3-1.6c-0.2-0.5-0.5-0.9-0.9-1.2c-0.4-0.3-0.9-0.6-1.5-0.7
			c-0.6-0.1-1.5-0.3-2.5-0.3H634v7.4h4.9c0.9,0,1.5-0.1,2.1-0.2c0.5-0.2,1-0.4,1.3-0.7c0.4-0.3,0.7-0.7,0.9-1.1
			C643.3,450.5,643.4,450,643.4,449.4z"/>
		<path class="st1" d="M683.6,455.4c0.2,0.6,0.3,1.1,0.4,1.5c0.1,0.4,0,0.6-0.2,0.8c-0.2,0.2-0.6,0.3-1.1,0.4
			c-0.5,0-1.3,0.1-2.3,0.1c-0.9,0-1.6,0-2.1,0s-0.9-0.1-1.1-0.1c-0.3-0.1-0.4-0.2-0.5-0.3c-0.1-0.1-0.2-0.3-0.3-0.6l-1.8-5.2h-11.2
			l-1.7,5c-0.1,0.3-0.2,0.5-0.3,0.6s-0.3,0.3-0.6,0.4s-0.6,0.1-1.1,0.2c-0.5,0-1.1,0-1.9,0s-1.4,0-1.9-0.1c-0.4-0.1-0.8-0.2-0.9-0.4
			c-0.2-0.2-0.2-0.5-0.2-0.9c0.1-0.4,0.2-0.9,0.4-1.5l9.1-25.1c0.1-0.3,0.2-0.5,0.4-0.7c0.2-0.2,0.4-0.3,0.7-0.4s0.8-0.2,1.3-0.2
			s1.3-0.1,2.2-0.1c0.7,0,1.4,0,1.9,0s1,0,1.4,0.1c0.4,0,0.7,0.1,0.9,0.1c0.2,0.1,0.4,0.1,0.6,0.3c0.2,0.1,0.3,0.2,0.4,0.4
			c0.1,0.2,0.2,0.3,0.2,0.6L683.6,455.4z M669.1,434.9L669.1,434.9l-4,11.9h8L669.1,434.9z"/>
		<path class="st1" d="M509.1,488.7c0,1.7-0.3,3.2-0.8,4.5s-1.3,2.4-2.3,3.2c-1,0.9-2.3,1.5-3.8,1.9s-3.3,0.7-5.4,0.7h-2.9v8.8
			c0,0.2-0.1,0.3-0.2,0.5c-0.1,0.1-0.3,0.2-0.6,0.3c-0.3,0.1-0.6,0.1-1.1,0.2c-0.5,0-1,0.1-1.7,0.1c-0.7,0-1.3,0-1.7-0.1
			c-0.5,0-0.8-0.1-1.1-0.2c-0.3-0.1-0.4-0.2-0.6-0.3c-0.1-0.1-0.2-0.3-0.2-0.5V482c0-0.7,0.2-1.3,0.6-1.7c0.4-0.4,1-0.6,1.7-0.6h8.2
			c0.7,0,1.4,0,2.1,0.1c0.7,0.1,1.4,0.1,2,0.3c1.2,0.2,2.3,0.5,3.2,1s1.7,1.1,2.4,1.8c0.7,0.7,1.2,1.6,1.5,2.5
			C508.9,486.4,509.1,487.5,509.1,488.7z M501.7,489.2c0-1-0.2-1.9-0.7-2.6c-0.4-0.7-1.1-1.2-1.9-1.5c-0.3-0.1-0.7-0.2-1.1-0.2
			s-0.8-0.1-1.3-0.1h-2.9v9h3.2c0.9,0,1.7-0.1,2.2-0.4c0.5-0.2,1-0.6,1.4-1s0.6-0.9,0.8-1.5C501.6,490.5,501.7,489.9,501.7,489.2z"
			/>
		<path class="st1" d="M534.9,500.1c0,1.4-0.3,2.7-0.8,3.8c-0.6,1.1-1.3,2.1-2.4,2.9c-1,0.8-2.2,1.4-3.6,1.8
			c-1.4,0.4-2.9,0.6-4.6,0.6c-1,0-1.9-0.1-2.8-0.2c-0.9-0.1-1.7-0.3-2.4-0.6c-0.7-0.2-1.3-0.5-1.9-0.7c-0.5-0.3-0.9-0.5-1-0.6
			c-0.2-0.2-0.3-0.3-0.4-0.4c-0.1-0.1-0.1-0.3-0.2-0.5s-0.1-0.4-0.1-0.7c0-0.3,0-0.6,0-1c0-0.6,0-1,0-1.4s0.1-0.7,0.1-0.9
			s0.2-0.4,0.3-0.5c0.1-0.1,0.3-0.1,0.4-0.1c0.2,0,0.5,0.1,1,0.4c0.4,0.3,1,0.5,1.6,0.8c0.6,0.3,1.4,0.6,2.3,0.8
			c0.9,0.2,1.9,0.4,3,0.4c0.7,0,1.3-0.1,1.8-0.2s1-0.4,1.4-0.6c0.4-0.2,0.7-0.6,0.9-1s0.3-0.9,0.3-1.4c0-0.6-0.2-1.1-0.5-1.6
			c-0.4-0.4-0.8-0.8-1.4-1.2c-0.6-0.4-1.3-0.7-2-1c-0.8-0.3-1.5-0.6-2.3-1c-0.8-0.4-1.6-0.8-2.3-1.2c-0.8-0.5-1.4-1-2-1.7
			c-0.6-0.6-1.1-1.4-1.4-2.3c-0.4-0.9-0.5-1.9-0.5-3.1c0-1.3,0.3-2.5,0.8-3.6s1.3-1.9,2.2-2.7c0.9-0.7,2-1.3,3.3-1.7
			s2.6-0.6,4.1-0.6c0.8,0,1.6,0.1,2.4,0.2s1.5,0.3,2.1,0.5c0.6,0.2,1.2,0.4,1.6,0.6c0.5,0.2,0.8,0.4,0.9,0.6
			c0.1,0.1,0.2,0.3,0.3,0.4c0.1,0.1,0.1,0.3,0.2,0.5c0,0.2,0.1,0.5,0.1,0.8s0,0.7,0,1.1c0,0.5,0,0.9,0,1.2c0,0.3-0.1,0.5-0.1,0.7
			c-0.1,0.2-0.1,0.3-0.2,0.4c-0.1,0.1-0.2,0.1-0.4,0.1s-0.5-0.1-0.9-0.3c-0.4-0.2-0.8-0.4-1.4-0.7c-0.6-0.2-1.2-0.5-1.9-0.7
			c-0.7-0.2-1.5-0.3-2.4-0.3c-0.6,0-1.1,0.1-1.6,0.2s-0.9,0.3-1.2,0.6c-0.3,0.3-0.6,0.6-0.7,0.9c-0.2,0.4-0.2,0.7-0.2,1.1
			c0,0.6,0.2,1.1,0.6,1.6s0.9,0.8,1.5,1.2c0.6,0.4,1.3,0.7,2.1,1c0.8,0.3,1.6,0.6,2.4,1s1.6,0.8,2.4,1.2c0.8,0.5,1.5,1,2.1,1.6
			c0.6,0.6,1.1,1.4,1.5,2.3C534.8,497.8,534.9,498.9,534.9,500.1z"/>
		<path class="st1" d="M547.5,469.2c0.2-0.2,0.3-0.4,0.5-0.6c0.2-0.2,0.4-0.3,0.7-0.4c0.3-0.1,0.7-0.2,1.1-0.2c0.4,0,1,0,1.6,0
			c0.8,0,1.5,0,2,0.1s0.8,0.2,1,0.4c0.2,0.2,0.3,0.3,0.2,0.5c-0.1,0.2-0.2,0.4-0.4,0.6l-5.7,5.9c-0.1,0.2-0.3,0.3-0.5,0.4
			s-0.4,0.2-0.6,0.3s-0.5,0.1-0.9,0.2c-0.4,0-0.8,0.1-1.4,0.1c-0.6,0-1.1,0-1.5-0.1c-0.4-0.1-0.6-0.1-0.8-0.3
			c-0.1-0.1-0.2-0.3-0.2-0.4c0-0.2,0.1-0.4,0.3-0.7L547.5,469.2z M549.8,507.8c0,0.2-0.1,0.3-0.2,0.5c-0.1,0.1-0.3,0.2-0.6,0.3
			c-0.3,0.1-0.6,0.1-1.1,0.2c-0.5,0-1,0.1-1.7,0.1c-0.7,0-1.3,0-1.7-0.1c-0.5,0-0.8-0.1-1.1-0.2s-0.5-0.2-0.6-0.3
			c-0.1-0.1-0.2-0.3-0.2-0.5v-27.3c0-0.2,0.1-0.3,0.2-0.4c0.1-0.1,0.3-0.2,0.6-0.3c0.3-0.1,0.6-0.1,1.1-0.2c0.5,0,1-0.1,1.7-0.1
			c0.7,0,1.2,0,1.7,0.1c0.5,0,0.8,0.1,1.1,0.2c0.3,0.1,0.5,0.2,0.6,0.3c0.1,0.1,0.2,0.3,0.2,0.4V507.8z"/>
		<path class="st1" d="M589.7,511.5c0,0.5,0,1-0.1,1.4c-0.1,0.4-0.2,0.7-0.3,1c-0.1,0.3-0.3,0.4-0.5,0.4c-0.5,0-1.3-0.2-2.5-0.6
			c-1.2-0.4-2.3-0.9-3.3-1.5c-1-0.6-1.9-1.2-2.6-1.9c-0.8-0.7-1.4-1.4-2-2.1c-0.8,0.3-1.6,0.6-2.7,0.8c-1,0.2-2.1,0.3-3.3,0.3
			c-2.3,0-4.4-0.3-6.2-0.8c-1.8-0.5-3.3-1.4-4.5-2.6c-1.2-1.2-2.1-2.7-2.7-4.6c-0.6-1.9-0.9-4.2-0.9-6.8c0-2.3,0.3-4.5,1-6.3
			c0.7-1.9,1.6-3.5,2.9-4.8s2.8-2.3,4.6-3s4-1,6.3-1c2.2,0,4.3,0.3,6,0.8c1.7,0.5,3.3,1.4,4.5,2.6c1.2,1.2,2.2,2.7,2.8,4.6
			c0.7,1.9,1,4.1,1,6.7c0,1.3-0.1,2.6-0.3,3.7c-0.2,1.2-0.5,2.2-0.8,3.2c-0.4,1-0.8,1.9-1.3,2.7c-0.5,0.8-1.1,1.5-1.7,2.1
			c0.9,0.8,1.8,1.4,2.8,1.9s2,0.9,3.1,1.2c0.3,0.1,0.5,0.4,0.7,0.9C589.6,509.9,589.7,510.6,589.7,511.5z M579.8,494.2
			c0-1.5-0.1-2.8-0.4-3.9c-0.2-1.2-0.6-2.2-1.2-3c-0.6-0.8-1.3-1.5-2.2-1.9c-0.9-0.4-2-0.7-3.4-0.7c-1.4,0-2.5,0.2-3.5,0.7
			c-0.9,0.5-1.7,1.2-2.2,2c-0.6,0.9-1,1.9-1.2,3s-0.4,2.3-0.4,3.6c0,1.5,0.1,2.9,0.4,4.1s0.6,2.2,1.2,3c0.6,0.8,1.3,1.5,2.2,1.9
			c0.9,0.4,2,0.6,3.3,0.6c1.3,0,2.5-0.2,3.4-0.7c0.9-0.5,1.7-1.2,2.3-2c0.6-0.8,1-1.9,1.3-3C579.7,496.7,579.8,495.5,579.8,494.2z"
			/>
		<path class="st1" d="M620.8,497.3c0,2.1-0.3,3.9-0.8,5.3c-0.6,1.4-1.4,2.6-2.5,3.6c-1.1,1-2.4,1.7-4,2.3c-1.6,0.5-3.4,0.8-5.5,0.8
			c-2,0-3.8-0.2-5.3-0.7c-1.6-0.5-2.9-1.2-4-2.1c-1.1-0.9-1.9-2.1-2.5-3.5c-0.6-1.4-0.8-3.3-0.8-5.6v-16.8c0-0.2,0.1-0.3,0.2-0.4
			s0.3-0.2,0.6-0.3c0.3-0.1,0.6-0.1,1.1-0.2c0.5,0,1-0.1,1.7-0.1c0.7,0,1.3,0,1.7,0.1c0.5,0,0.8,0.1,1.1,0.2s0.5,0.2,0.6,0.3
			c0.1,0.1,0.2,0.3,0.2,0.4V497c0,1.5,0.1,2.6,0.4,3.4s0.7,1.4,1.2,1.9s1.1,0.9,1.9,1.1s1.5,0.4,2.3,0.4s1.6-0.1,2.3-0.4
			c0.7-0.3,1.3-0.6,1.8-1.1s0.9-1.1,1.1-1.8c0.3-0.7,0.4-1.7,0.4-3.1v-16.7c0-0.2,0-0.3,0.1-0.4c0.1-0.1,0.3-0.2,0.6-0.3
			c0.3-0.1,0.6-0.1,1.1-0.2c0.4,0,1-0.1,1.7-0.1s1.3,0,1.8,0.1c0.4,0,0.8,0.1,1,0.2c0.3,0.1,0.4,0.2,0.5,0.3
			c0.1,0.1,0.1,0.3,0.1,0.4v16.6H620.8z"/>
		<path class="st1" d="M637.3,507.8c0,0.2-0.1,0.3-0.2,0.5c-0.1,0.1-0.3,0.2-0.6,0.3c-0.3,0.1-0.6,0.1-1.1,0.2c-0.5,0-1,0.1-1.7,0.1
			s-1.3,0-1.7-0.1c-0.5,0-0.8-0.1-1.1-0.2s-0.5-0.2-0.6-0.3c-0.1-0.1-0.2-0.3-0.2-0.5v-27.3c0-0.2,0.1-0.3,0.2-0.4
			c0.1-0.1,0.3-0.2,0.6-0.3c0.3-0.1,0.6-0.1,1.1-0.2c0.5,0,1-0.1,1.7-0.1s1.2,0,1.7,0.1c0.5,0,0.8,0.1,1.1,0.2
			c0.3,0.1,0.5,0.2,0.6,0.3c0.1,0.1,0.2,0.3,0.2,0.4V507.8z"/>
		<path class="st1" d="M667.9,504.2c0,0.7,0,1.3-0.1,1.8c-0.1,0.4-0.3,0.8-0.5,1c-0.3,0.3-0.6,0.5-1.1,0.8s-1,0.5-1.7,0.7
			s-1.4,0.4-2.2,0.5c-0.8,0.1-1.7,0.2-2.7,0.2c-2.1,0-4-0.3-5.8-0.9c-1.7-0.6-3.2-1.5-4.4-2.8c-1.2-1.3-2.2-2.8-2.8-4.6
			c-0.7-1.9-1-4-1-6.5s0.3-4.7,1-6.6s1.7-3.5,2.9-4.8c1.2-1.3,2.7-2.3,4.5-2.9c1.7-0.7,3.7-1,5.8-1c0.8,0,1.5,0.1,2.3,0.2
			s1.5,0.3,2.1,0.5c0.6,0.2,1.2,0.4,1.7,0.7c0.5,0.3,0.9,0.5,1.1,0.8c0.3,0.3,0.4,0.6,0.5,1c0.1,0.4,0.2,1.1,0.2,2
			c0,0.5,0,1-0.1,1.3c0,0.3-0.1,0.6-0.2,0.8c-0.1,0.2-0.2,0.4-0.3,0.5s-0.2,0.1-0.4,0.1s-0.5-0.1-0.8-0.4c-0.3-0.2-0.8-0.5-1.3-0.8
			s-1.2-0.6-1.9-0.8c-0.7-0.2-1.6-0.4-2.7-0.4c-1.1,0-2.1,0.2-3,0.7c-0.9,0.4-1.6,1.1-2.2,1.9c-0.6,0.8-1,1.8-1.3,2.9
			s-0.5,2.4-0.5,3.8c0,1.6,0.2,3,0.5,4.2s0.9,2.2,1.5,2.9c0.7,0.8,1.5,1.3,2.4,1.7c0.9,0.4,1.9,0.5,3.1,0.5c0.9,0,1.8-0.1,2.5-0.3
			c0.7-0.2,1.3-0.5,1.8-0.7c0.5-0.3,0.9-0.5,1.3-0.7c0.4-0.2,0.6-0.3,0.9-0.3c0.1,0,0.2,0,0.3,0.1c0.1,0.1,0.2,0.2,0.2,0.4
			c0.1,0.2,0.1,0.5,0.1,0.9C667.9,503.1,667.9,503.6,667.9,504.2z"/>
		<path class="st1" d="M700.9,506.1c0.2,0.6,0.3,1.1,0.4,1.5c0.1,0.4,0,0.6-0.2,0.8c-0.2,0.2-0.6,0.3-1.1,0.4
			c-0.5,0-1.3,0.1-2.3,0.1c-0.9,0-1.6,0-2.1,0s-0.9-0.1-1.1-0.1c-0.3-0.1-0.4-0.2-0.5-0.3c-0.1-0.1-0.2-0.3-0.3-0.6l-1.8-5.2h-11.2
			l-1.7,5c-0.1,0.3-0.2,0.5-0.3,0.6s-0.3,0.3-0.6,0.4s-0.6,0.2-1.1,0.2s-1.1,0-1.9,0s-1.4,0-1.9-0.1c-0.4-0.1-0.8-0.2-0.9-0.4
			c-0.2-0.2-0.2-0.5-0.2-0.9c0.1-0.4,0.2-0.9,0.4-1.5l9.1-25.1c0.1-0.3,0.2-0.5,0.4-0.7c0.2-0.2,0.4-0.3,0.7-0.4s0.8-0.2,1.3-0.2
			c0.6,0,1.3-0.1,2.2-0.1c0.7,0,1.4,0,1.9,0s1,0,1.4,0.1c0.4,0,0.7,0.1,0.9,0.1c0.2,0.1,0.4,0.2,0.6,0.3c0.2,0.1,0.3,0.2,0.4,0.4
			c0.1,0.2,0.2,0.3,0.2,0.6L700.9,506.1z M686.4,485.5L686.4,485.5l-4,11.9h8L686.4,485.5z"/>
	</g>
	<g>
		<path class="st0" d="M591.4,284.7c3.2-3.3,3.9-6.6,1.5-10.4c-0.4-0.6-0.3-1.7-0.2-2.4c1.4-7.1-2.1-13.1-8.8-14.9
			c-6.6-1.8-13.2,1.8-15.5,8.5c-0.2,0.7-0.5,1.4-0.7,2.1c-12.3,1.9-17.8,9.1-16.4,21.1c0.1,0.8-0.3,1.8-0.8,2.6
			c-1.9,3.2-2.8,6.5-2.1,10.3c0.2,1-0.2,2.3-0.7,3.2c-3,5.1-2.5,10.5,1.7,14.6c1.3,1.3,1.5,2.3,1.1,4c-2.7,10.3,4,19.8,14.6,20.8
			c1.8,0.2,2.6,0.7,3.1,2.5c2.1,7.2,9.4,11,16.3,8.7c7.1-2.3,10.5-9.8,8-16.9c-0.5-1.3-0.4-3.1,0-4.4c2.2-5.8,2.5-11.5-0.3-17.2
			c-0.3-0.7-0.2-1.9,0.3-2.5c3-3.9,3.5-8,1.3-12.5c-0.3-0.7-0.4-1.8-0.1-2.4C596.8,293.9,595.7,289.1,591.4,284.7z"/>
		<path class="st0" d="M651.4,305.8c-0.6-1.3-1.1-2.4-1.1-3.5v-1.4c-0.1-3.4-0.2-6.9-2-10.3c-0.5-0.9-0.7-2-0.6-2.9
			c1.2-11-5.3-19.9-15.9-21.6c-1-0.2-1.2-0.3-1.6-1.5c-2.4-7.4-10.1-11.5-17.5-9.5c-7.6,2.1-11.7,8.8-10.2,16.7
			c0.1,0.3,0.2,1.1,0.3,1.1c-1.9,2.9-3.3,7.1,0.4,11.8c-4.1,4.9-4.6,10.2-1.5,15.5c0,0.1,0,0.4-0.1,0.6c-2.5,5.1-2,10,1.4,14.5
			c0.1,0.1,0.2,0.5,0.2,0.5c-2.9,5.7-3,12-0.4,19c0.3,0.8,0.3,2,0,2.8c-1.4,4-1.2,8.3,0.6,12c1.7,3.5,4.7,6.1,8.5,7.4
			c1.6,0.5,3.2,0.8,4.7,0.8c2.3,0,4.6-0.6,6.7-1.7c3.6-1.9,6.2-5.2,7.4-9.3c0.3-0.9,0.3-0.9,1.1-1c5.8-0.5,10.8-3.1,13.9-7.5
			c3.2-4.4,4.2-10.2,2.7-16c0-0.4,0.5-1.4,0.8-2c0.4-0.8,0.9-1.6,1.3-2.3c0.9-1.4,1.7-2.8,2.3-4.5
			C653.5,310.6,652.4,307.9,651.4,305.8z M644.3,316.5c-2.6,2.1-3.1,4.2-2.1,7.4c1.2,3.5,0.7,7.4-1.4,10.6c-2,3.1-5.3,5.1-8.8,5.4
			c-1.1,0.1-1.2,0.1-1.7-1.1c-0.8-2.4-2.4-4.3-3.9-6.2l-0.4-0.5c-0.8-1-2.1-1.1-3-1.1c-0.2,0-0.5,0-0.7,0c-0.7-0.1-1.3,0.2-1.7,0.7
			c-0.4,0.5-0.5,1.2-0.3,1.8c0.1,0.2,0.1,0.4,0.2,0.6c0.2,0.7,0.4,1.6,1.2,2.2c2.6,2.5,3.6,5,3.2,8c-0.6,3.7-2.4,6-5.8,7
			c-3.5,1.1-6.6,0.3-9-2.3c-2.5-2.7-3-5.8-1.6-9.1c1.1-2.4,1.1-4.5,0-6.9c-2.6-5.9-2.3-10.9,0.7-15.6c0.9-1.4,0.4-3.7-0.6-4.8
			c-3.3-3.6-3.5-5.7-1.1-10c0.7-1.2,0.7-3.2,0-4.3c-3-5-2.5-7.6,1.9-10.8c0.6-0.4,2.1-1.5,1.9-3.1c-0.1-1.6-1.7-2.4-2.4-2.8
			c-1.3-0.7-2-1.4-2.2-2.1c-0.2-0.8,0.1-1.8,1-3.2c1-1.5,0.9-3.7,0.6-5.1c-0.6-2.4-0.3-4.8,0.9-6.7c1.1-1.8,2.9-3.1,5.2-3.6
			c0.6-0.2,1.3-0.2,1.9-0.2c1.6,0,3.1,0.4,4.4,1.3c1.6,1,2.7,2.5,3.4,4.3l-1,0.6c-2,1.1-4,2.1-5.8,3.3c-0.4,0.2-0.7,0.6-0.9,0.9
			c0-0.4-0.1-0.7-0.1-1c0-0.1-0.1-0.3-0.1-0.4c0-0.5-0.3-1-0.7-1.3c-0.4-0.3-1-0.4-1.5-0.3c-0.1,0-0.3,0.1-0.5,0.1
			c-0.8,0.1-2.2,0.3-2.6,1.6c-0.2,0.5-0.4,1.1-0.6,1.6c-0.7,1.9-1.5,4-1,6.1c0.6,2.4,1.8,4.6,3.2,6.8c0.3,0.6,0.7,1.2,1,1.8
			c-0.2,0.2-0.3,0.4-0.5,0.6c-1.6,2.1-2.1,4.8-1.4,7.3c0.7,2.4,2.4,4.3,4.8,5.2c0.5,0.2,1,0.3,1.5,0.3c0.6,0,1.1-0.1,1.6-0.2
			c0.3-0.1,0.6-0.1,0.8-0.1c0.7-0.1,1.3-0.5,1.6-1.2c0.3-0.7,0.1-1.4-0.4-1.9c-0.2-0.2-0.3-0.4-0.5-0.5c-0.5-0.6-1.1-1.3-1.9-1.7
			c-1.5-0.8-1.7-1.5-1.6-2.5c0.1-0.8,0.5-1.7,2.2-1.8c0.4,0,0.8,0,1.2,0c0.7,0,1.4,0,2.2-0.1c1.5-0.3,2.9-0.8,4.2-1.4
			c1.1-0.5,1.3-1.6,1.4-2.4c0-0.1,0.1-0.3,0.1-0.4c0.2-0.5,0.1-1.1-0.2-1.5c-0.3-0.5-0.7-0.8-1.3-0.9l-0.5-0.1
			c-0.5-0.1-1-0.2-1.6-0.2c-0.7-0.1-1.5,0.1-2.2,0.2c-1.1,0.1-2.2,0.3-2.9,0c-2.1-0.8-3.5-2.2-4.3-3.9c-0.5-1.2-0.6-2.5-0.4-3.9
			c0.1,0.2,0.1,0.4,0.3,0.6c0.5,0.5,1.2,0.7,1.8,0.6c0.2-0.1,0.4-0.1,0.7-0.1c0.7-0.1,1.6-0.3,2.4-0.8c5.1-3.6,10.9-4,15.4-1
			c3.2,2.1,5.3,6.5,5.4,11.1c-0.1-0.1-0.1-0.2-0.2-0.2c-0.2-0.1-0.4-0.3-0.6-0.5c-0.6-0.5-1.4-1.2-2.5-1.4
			c-4.3-0.9-8.9,1.8-10.6,6.1c-1.7,4.3-0.2,9.3,3.6,11.7c1,0.6,2.1,0.7,2.9,0.7c0.3,0,0.6,0,0.8,0.1c0.1,0,0.2,0,0.3,0
			c0.6,0,1.2-0.3,1.5-0.8c0.4-0.6,0.4-1.4,0-2c-0.1-0.2-0.2-0.4-0.4-0.7c-0.4-0.7-0.8-1.4-1.5-2c-1.8-1.5-2.2-2.9-1.6-4.6
			c0.4-1.2,1.5-2.7,5.3-2.3c0.4,0.1,0.8-0.1,1.2-0.3l1.5-0.9c0,0,0-0.1,0.1-0.1c0,0.1,0,0.2,0,0.3c-0.3,1.6,0.1,3.5,1,4.8
			c2.1,3.1,2.6,6.4,1.5,9.2c-1.1,2.8-3.8,4.7-7.6,5.4c-1.1,0.2-1.8,0.9-2.3,1.5c-0.1,0.2-0.3,0.3-0.5,0.4c-0.5,0.4-0.7,1.1-0.6,1.7
			c0.1,0.6,0.5,1.2,1.2,1.4c0.2,0.1,0.3,0.2,0.5,0.3c0.8,0.4,1.8,0.9,2.9,0.5c2.9-1.1,5.6-2.3,8-3.6c0.3-0.2,0.6-0.4,0.8-0.6
			C647.4,311.7,646.7,314.5,644.3,316.5z"/>
		<path class="st0" d="M622.9,325.1c-0.8-0.6-1.7-1.2-2.9-1.3c-4.2-0.5-8.7,2.3-10.1,6.5c-1.5,4.3,0.3,9.6,4,11.7
			c0.7,0.4,1.5,0.5,2.1,0.5c0.2,0,0.5,0,0.7,0c0.3,0,0.5,0,0.7,0c0.7,0,1.3-0.3,1.7-0.9c0.3-0.6,0.3-1.3,0-1.9
			c-0.1-0.2-0.2-0.4-0.3-0.6c-0.3-0.6-0.7-1.4-1.5-2c-2.3-1.8-2.1-3.4-1.7-4.6c0.7-1.9,1.9-2.5,4-2.1c0.4,0.1,0.8,0,1.1-0.1l2.7-1.3
			c0.6-0.3,1-0.9,1-1.6c0-0.7-0.3-1.3-0.9-1.7C623.4,325.5,623.2,325.3,622.9,325.1z"/>
		<path class="st0" d="M609.9,310.6c0.2,0,0.3,0,0.5,0c0.6,0,1.4,0,2.2-0.4c0.7-0.4,1.5-0.8,2.2-1.2c0.9-0.5,1.7-1,2.5-1.4
			c3.2-1.3,6.5-1.1,10.4,0.8c0.9,0.4,1.9,0.4,2.7,0.4c0.2,0,0.5,0,0.7,0c0.9,0.1,1.8-0.7,1.9-1.6l0.1-0.9c0.1-0.5-0.4-1.3-0.7-1.7
			c-0.3-0.3-0.6-0.6-0.9-0.9c-5.7-4.5-17.7-3.4-22.5,2.1c-0.6,0.7-0.8,1.6-0.8,2.3c0,0.2,0,0.3-0.1,0.5c-0.1,0.6,0,1.2,0.4,1.6
			c0.3,0.4,0.9,0.6,1.4,0.6C609.8,310.6,609.8,310.6,609.9,310.6z"/>
		<path class="st0" d="M630.3,311.3c-0.1-0.2-0.2-0.3-0.3-0.5c-0.3-0.6-0.8-0.9-1.4-1c-0.6-0.1-1.2,0.1-1.6,0.6
			c-0.1,0.1-0.2,0.2-0.4,0.3c-0.5,0.4-1.1,1-1.4,1.9c-0.6,2.1-1.4,2.2-2.3,2.2c-0.8,0-1.7-0.2-2.3-2.2c-0.3-0.9-1-1.5-1.5-1.9
			c-0.1-0.1-0.3-0.2-0.4-0.3c-0.4-0.4-1-0.6-1.7-0.5c-0.6,0.1-1.1,0.5-1.3,1.1c-0.1,0.2-0.2,0.3-0.3,0.5c-0.3,0.6-0.8,1.5-0.7,2.5
			c0.3,3.9,3.9,7,8.1,7l0,0c4.2,0,7.8-3.2,8.1-7C631.2,312.8,630.7,311.9,630.3,311.3z"/>
		<path class="st0" d="M640.2,315.3c-0.2-0.1-0.3-0.2-0.5-0.3c-0.6-0.4-1.4-0.9-2.4-0.9c-4,0-7.4,3.7-7.5,8c-0.1,4,2.5,7.3,6.2,8
			c0.2,0,0.4,0.1,0.6,0.1c0.7,0,1.3-0.2,1.9-0.4c0.2-0.1,0.4-0.1,0.6-0.2c0.6-0.1,1.1-0.6,1.3-1.2s0.1-1.3-0.3-1.8
			c-0.1-0.1-0.2-0.3-0.3-0.4c-0.4-0.6-0.9-1.4-1.9-1.8c-1.8-0.7-2-1.5-1.9-2.3c0-0.8,0.2-1.7,2.2-2.1c1-0.2,1.6-0.9,2.1-1.4
			c0.1-0.1,0.2-0.2,0.3-0.3c0.5-0.4,0.7-1,0.6-1.6C641.1,316.1,640.7,315.6,640.2,315.3z"/>
	</g>
</g>
<g>
	<path d="M252.4,716v24.8c0,4.1-1.3,7.4-3.9,9.8c-2.6,2.4-6.1,3.6-10.6,3.6c-4.4,0-7.9-1.2-10.5-3.5c-2.6-2.3-3.9-5.5-4-9.6V716h7.8
		v24.9c0,2.5,0.6,4.3,1.8,5.4s2.8,1.7,4.9,1.7c4.4,0,6.6-2.3,6.7-6.9V716H252.4z"/>
	<path d="M265.2,725.7l0.2,3.2c2-2.5,4.7-3.8,8-3.8c3,0,5.2,0.9,6.6,2.6c1.4,1.7,2.2,4.3,2.2,7.8v18.1h-7.5v-17.9
		c0-1.6-0.3-2.7-1-3.5c-0.7-0.7-1.8-1.1-3.4-1.1c-2.1,0-3.7,0.9-4.7,2.7v19.7h-7.5v-28H265.2z"/>
	<path d="M304.2,753.7c-0.3-0.7-0.6-1.5-0.8-2.5c-1.8,2-4.2,3-7.1,3c-2.7,0-5-0.8-6.8-2.4c-1.8-1.6-2.7-3.6-2.7-6
		c0-3,1.1-5.2,3.3-6.8c2.2-1.6,5.4-2.4,9.5-2.4h3.4V735c0-1.3-0.3-2.3-1-3.1c-0.7-0.8-1.7-1.2-3.1-1.2c-1.3,0-2.2,0.3-3,0.9
		c-0.7,0.6-1.1,1.4-1.1,2.5h-7.5c0-1.6,0.5-3.1,1.5-4.5c1-1.4,2.4-2.5,4.2-3.2c1.8-0.8,3.9-1.2,6.2-1.2c3.5,0,6.2,0.9,8.2,2.6
		c2,1.7,3,4.2,3,7.3v12.1c0,2.7,0.4,4.7,1.1,6v0.4H304.2z M298,748.5c1.1,0,2.1-0.2,3.1-0.7c0.9-0.5,1.6-1.2,2.1-2V741h-2.8
		c-3.7,0-5.7,1.3-6,3.9l0,0.4c0,0.9,0.3,1.7,1,2.3C296,748.2,296.9,748.5,298,748.5z"/>
	<path d="M344.7,746c0-0.9-0.5-1.6-1.4-2.2c-0.9-0.5-2.4-1-4.4-1.4c-6.7-1.4-10-4.2-10-8.5c0-2.5,1-4.6,3.1-6.2
		c2.1-1.7,4.8-2.5,8.1-2.5c3.6,0,6.4,0.8,8.5,2.5c2.1,1.7,3.2,3.8,3.2,6.5h-7.5c0-1.1-0.3-2-1-2.7c-0.7-0.7-1.8-1-3.2-1
		c-1.3,0-2.2,0.3-2.9,0.9c-0.7,0.6-1,1.3-1,2.2c0,0.8,0.4,1.5,1.2,2c0.8,0.5,2.1,0.9,4,1.3s3.4,0.8,4.7,1.3c4,1.4,5.9,4,5.9,7.5
		c0,2.6-1.1,4.6-3.3,6.2c-2.2,1.6-5,2.4-8.5,2.4c-2.3,0-4.4-0.4-6.2-1.3c-1.8-0.8-3.2-2-4.3-3.4c-1-1.5-1.6-3-1.6-4.7h7.1
		c0.1,1.3,0.6,2.3,1.5,3.1c0.9,0.7,2.1,1.1,3.7,1.1c1.4,0,2.5-0.3,3.2-0.8C344.4,747.5,344.7,746.8,344.7,746z"/>
	<path d="M369.7,754.2c-4.1,0-7.4-1.3-10-3.8c-2.6-2.5-3.9-5.9-3.9-10.1v-0.7c0-2.8,0.5-5.3,1.6-7.5c1.1-2.2,2.6-3.9,4.6-5.1
		c2-1.2,4.3-1.8,6.8-1.8c3.8,0,6.8,1.2,9,3.6c2.2,2.4,3.3,5.8,3.3,10.3v3.1h-17.8c0.2,1.8,1,3.3,2.2,4.4c1.2,1.1,2.8,1.7,4.6,1.7
		c2.9,0,5.1-1,6.8-3.1l3.7,4.1c-1.1,1.6-2.6,2.8-4.6,3.7C374.2,753.8,372.1,754.2,369.7,754.2z M368.9,731.2c-1.5,0-2.7,0.5-3.6,1.5
		c-0.9,1-1.5,2.4-1.8,4.3h10.4v-0.6c0-1.7-0.5-3-1.3-3.9C371.7,731.7,370.5,731.2,368.9,731.2z"/>
	<path d="M401.2,732.7c-1-0.1-1.9-0.2-2.7-0.2c-2.8,0-4.7,1-5.6,2.9v18.3h-7.5v-28h7.1l0.2,3.3c1.5-2.6,3.6-3.9,6.2-3.9
		c0.8,0,1.6,0.1,2.3,0.3L401.2,732.7z"/>
	<path d="M404.8,718.4c0-1.1,0.4-2,1.1-2.8c0.8-0.7,1.8-1.1,3.1-1.1c1.3,0,2.3,0.4,3.1,1.1c0.8,0.7,1.1,1.6,1.1,2.8
		c0,1.1-0.4,2.1-1.2,2.8s-1.8,1.1-3,1.1c-1.3,0-2.3-0.4-3-1.1C405.1,720.5,404.8,719.6,404.8,718.4z M412.7,753.7h-7.5v-28h7.5
		V753.7z"/>
	<path d="M431.8,754.2c-4.1,0-7.4-1.3-10-3.8c-2.6-2.5-3.9-5.9-3.9-10.1v-0.7c0-2.8,0.5-5.3,1.6-7.5c1.1-2.2,2.6-3.9,4.6-5.1
		c2-1.2,4.3-1.8,6.8-1.8c3.8,0,6.8,1.2,9,3.6c2.2,2.4,3.3,5.8,3.3,10.3v3.1h-17.8c0.2,1.8,1,3.3,2.2,4.4c1.2,1.1,2.8,1.7,4.6,1.7
		c2.9,0,5.1-1,6.8-3.1l3.7,4.1c-1.1,1.6-2.6,2.8-4.6,3.7C436.2,753.8,434.1,754.2,431.8,754.2z M430.9,731.2c-1.5,0-2.7,0.5-3.6,1.5
		c-0.9,1-1.5,2.4-1.8,4.3h10.4v-0.6c0-1.7-0.5-3-1.3-3.9C433.7,731.7,432.5,731.2,430.9,731.2z"/>
	<path d="M459.6,739.5c0-4.4,1-7.8,2.9-10.4c2-2.6,4.6-3.9,8-3.9c2.7,0,5,1,6.8,3.1v-14.3h7.5v39.8H478l-0.4-3
		c-1.9,2.3-4.3,3.5-7.2,3.5c-3.3,0-5.9-1.3-7.9-3.9C460.5,747.7,459.6,744.1,459.6,739.5z M467,740c0,2.6,0.5,4.6,1.4,6
		c0.9,1.4,2.2,2.1,4,2.1c2.3,0,3.9-1,4.9-2.9v-11.1c-0.9-2-2.5-2.9-4.8-2.9C468.8,731.3,467,734.2,467,740z"/>
	<path d="M503.5,754.2c-4.1,0-7.4-1.3-10-3.8c-2.6-2.5-3.9-5.9-3.9-10.1v-0.7c0-2.8,0.5-5.3,1.6-7.5c1.1-2.2,2.6-3.9,4.6-5.1
		c2-1.2,4.3-1.8,6.8-1.8c3.8,0,6.8,1.2,9,3.6c2.2,2.4,3.3,5.8,3.3,10.3v3.1h-17.8c0.2,1.8,1,3.3,2.2,4.4c1.2,1.1,2.8,1.7,4.6,1.7
		c2.9,0,5.1-1,6.8-3.1l3.7,4.1c-1.1,1.6-2.6,2.8-4.6,3.7C507.9,753.8,505.8,754.2,503.5,754.2z M502.6,731.2c-1.5,0-2.7,0.5-3.6,1.5
		c-0.9,1-1.5,2.4-1.8,4.3h10.4v-0.6c0-1.7-0.5-3-1.3-3.9C505.4,731.7,504.2,731.2,502.6,731.2z"/>
	<path d="M539.3,725.7l0.2,3.2c2-2.5,4.7-3.8,8-3.8c3,0,5.2,0.9,6.6,2.6c1.4,1.7,2.2,4.3,2.2,7.8v18.1H549v-17.9
		c0-1.6-0.3-2.7-1-3.5c-0.7-0.7-1.8-1.1-3.4-1.1c-2.1,0-3.7,0.9-4.7,2.7v19.7h-7.5v-28H539.3z"/>
	<path d="M578.9,750.8c-1.8,2.2-4.4,3.4-7.7,3.4c-3,0-5.3-0.9-6.9-2.6c-1.6-1.7-2.4-4.3-2.4-7.6v-18.3h7.5v18.1c0,2.9,1.3,4.4,4,4.4
		c2.5,0,4.3-0.9,5.2-2.6v-19.8h7.5v28h-7L578.9,750.8z M575.5,713.9h8.2l-7.2,8h-6.1L575.5,713.9z"/>
	<path d="M598.8,725.7l0.2,3.1c2-2.4,4.7-3.6,8-3.6c3.6,0,6.1,1.4,7.4,4.3c2-2.8,4.8-4.3,8.4-4.3c3,0,5.3,0.9,6.8,2.7
		c1.5,1.8,2.2,4.4,2.2,8v17.9h-7.5v-17.9c0-1.6-0.3-2.7-0.9-3.5s-1.7-1.1-3.3-1.1c-2.2,0-3.8,1.1-4.7,3.2l0,19.2h-7.5v-17.8
		c0-1.6-0.3-2.8-1-3.5c-0.6-0.7-1.7-1.1-3.3-1.1c-2.1,0-3.7,0.9-4.6,2.6v19.8h-7.5v-28H598.8z"/>
	<path d="M650.5,754.2c-4.1,0-7.4-1.3-10-3.8c-2.6-2.5-3.9-5.9-3.9-10.1v-0.7c0-2.8,0.5-5.3,1.6-7.5c1.1-2.2,2.6-3.9,4.6-5.1
		c2-1.2,4.3-1.8,6.8-1.8c3.8,0,6.8,1.2,9,3.6c2.2,2.4,3.3,5.8,3.3,10.3v3.1h-17.8c0.2,1.8,1,3.3,2.2,4.4c1.2,1.1,2.8,1.7,4.6,1.7
		c2.9,0,5.1-1,6.8-3.1l3.7,4.1c-1.1,1.6-2.6,2.8-4.6,3.7C655,753.8,652.9,754.2,650.5,754.2z M649.7,731.2c-1.5,0-2.7,0.5-3.6,1.5
		c-0.9,1-1.5,2.4-1.8,4.3h10.4v-0.6c0-1.7-0.5-3-1.3-3.9C652.5,731.7,651.3,731.2,649.7,731.2z"/>
	<path d="M682,732.7c-1-0.1-1.9-0.2-2.7-0.2c-2.8,0-4.7,1-5.6,2.9v18.3h-7.5v-28h7.1l0.2,3.3c1.5-2.6,3.6-3.9,6.2-3.9
		c0.8,0,1.6,0.1,2.3,0.3L682,732.7z"/>
	<path d="M683.5,739.4c0-2.8,0.5-5.3,1.6-7.4c1.1-2.2,2.6-3.9,4.6-5c2-1.2,4.3-1.8,7-1.8c3.8,0,6.9,1.2,9.3,3.5
		c2.4,2.3,3.7,5.5,4,9.4l0.1,1.9c0,4.3-1.2,7.7-3.6,10.3c-2.4,2.6-5.6,3.9-9.7,3.9s-7.3-1.3-9.7-3.9c-2.4-2.6-3.6-6.1-3.6-10.6
		V739.4z M691,740c0,2.7,0.5,4.7,1.5,6.1c1,1.4,2.4,2.1,4.3,2.1c1.8,0,3.2-0.7,4.2-2.1c1-1.4,1.5-3.6,1.5-6.7c0-2.6-0.5-4.6-1.5-6.1
		c-1-1.4-2.5-2.2-4.3-2.2c-1.8,0-3.2,0.7-4.2,2.1C691.5,734.8,691,737,691,740z"/>
	<path d="M729.8,746c0-0.9-0.5-1.6-1.4-2.2c-0.9-0.5-2.4-1-4.4-1.4c-6.7-1.4-10-4.2-10-8.5c0-2.5,1-4.6,3.1-6.2
		c2.1-1.7,4.8-2.5,8.1-2.5c3.6,0,6.4,0.8,8.5,2.5c2.1,1.7,3.2,3.8,3.2,6.5h-7.5c0-1.1-0.3-2-1-2.7c-0.7-0.7-1.8-1-3.2-1
		c-1.3,0-2.2,0.3-2.9,0.9c-0.7,0.6-1,1.3-1,2.2c0,0.8,0.4,1.5,1.2,2c0.8,0.5,2.1,0.9,4,1.3s3.4,0.8,4.7,1.3c4,1.4,5.9,4,5.9,7.5
		c0,2.6-1.1,4.6-3.3,6.2c-2.2,1.6-5,2.4-8.5,2.4c-2.3,0-4.4-0.4-6.2-1.3c-1.8-0.8-3.2-2-4.3-3.4c-1-1.5-1.6-3-1.6-4.7h7.1
		c0.1,1.3,0.6,2.3,1.5,3.1c0.9,0.7,2.1,1.1,3.7,1.1c1.4,0,2.5-0.3,3.2-0.8C729.5,747.5,729.8,746.8,729.8,746z"/>
	<path d="M771.3,753.7c-0.3-0.7-0.6-1.5-0.8-2.5c-1.8,2-4.2,3-7.1,3c-2.7,0-5-0.8-6.8-2.4c-1.8-1.6-2.7-3.6-2.7-6
		c0-3,1.1-5.2,3.3-6.8c2.2-1.6,5.4-2.4,9.5-2.4h3.4V735c0-1.3-0.3-2.3-1-3.1c-0.7-0.8-1.7-1.2-3.1-1.2c-1.3,0-2.2,0.3-3,0.9
		c-0.7,0.6-1.1,1.4-1.1,2.5h-7.5c0-1.6,0.5-3.1,1.5-4.5c1-1.4,2.4-2.5,4.2-3.2c1.8-0.8,3.9-1.2,6.2-1.2c3.5,0,6.2,0.9,8.2,2.6
		c2,1.7,3,4.2,3,7.3v12.1c0,2.7,0.4,4.7,1.1,6v0.4H771.3z M765.2,748.5c1.1,0,2.1-0.2,3.1-0.7c0.9-0.5,1.6-1.2,2.1-2V741h-2.8
		c-3.7,0-5.7,1.3-6,3.9l0,0.4c0,0.9,0.3,1.7,1,2.3C763.1,748.2,764,748.5,765.2,748.5z"/>
	<path d="M808.7,739.9c0,4.3-1,7.8-2.9,10.4c-2,2.6-4.6,3.9-7.9,3.9c-2.8,0-5.1-1-6.9-3v13.2h-7.5v-38.8h6.9l0.3,2.7
		c1.8-2.2,4.2-3.3,7.1-3.3c3.5,0,6.1,1.3,8,3.8c1.9,2.6,2.9,6.1,2.9,10.6V739.9z M801.3,739.4c0-2.6-0.5-4.6-1.4-6
		c-0.9-1.4-2.3-2.1-4-2.1c-2.3,0-4,0.9-4.8,2.7v11.5c0.9,1.8,2.5,2.8,4.9,2.8C799.5,748.2,801.3,745.3,801.3,739.4z"/>
	<path d="M829.6,753.7c-0.3-0.7-0.6-1.5-0.8-2.5c-1.8,2-4.2,3-7.1,3c-2.7,0-5-0.8-6.8-2.4c-1.8-1.6-2.7-3.6-2.7-6
		c0-3,1.1-5.2,3.3-6.8c2.2-1.6,5.4-2.4,9.5-2.4h3.4V735c0-1.3-0.3-2.3-1-3.1c-0.7-0.8-1.7-1.2-3.1-1.2c-1.3,0-2.2,0.3-3,0.9
		c-0.7,0.6-1.1,1.4-1.1,2.5h-7.5c0-1.6,0.5-3.1,1.5-4.5c1-1.4,2.4-2.5,4.2-3.2c1.8-0.8,3.9-1.2,6.2-1.2c3.5,0,6.2,0.9,8.2,2.6
		c2,1.7,3,4.2,3,7.3v12.1c0,2.7,0.4,4.7,1.1,6v0.4H829.6z M823.4,748.5c1.1,0,2.1-0.2,3.1-0.7c0.9-0.5,1.6-1.2,2.1-2V741h-2.8
		c-3.7,0-5.7,1.3-6,3.9l0,0.4c0,0.9,0.3,1.7,1,2.3C821.4,748.2,822.3,748.5,823.4,748.5z"/>
	<path d="M857.5,732.7c-1-0.1-1.9-0.2-2.7-0.2c-2.8,0-4.7,1-5.6,2.9v18.3h-7.5v-28h7.1l0.2,3.3c1.5-2.6,3.6-3.9,6.2-3.9
		c0.8,0,1.6,0.1,2.3,0.3L857.5,732.7z"/>
	<path d="M873.5,754.2c-4.1,0-7.4-1.3-10-3.8c-2.6-2.5-3.9-5.9-3.9-10.1v-0.7c0-2.8,0.5-5.3,1.6-7.5c1.1-2.2,2.6-3.9,4.6-5.1
		c2-1.2,4.3-1.8,6.8-1.8c3.8,0,6.8,1.2,9,3.6c2.2,2.4,3.3,5.8,3.3,10.3v3.1h-17.8c0.2,1.8,1,3.3,2.2,4.4c1.2,1.1,2.8,1.7,4.6,1.7
		c2.9,0,5.1-1,6.8-3.1l3.7,4.1c-1.1,1.6-2.6,2.8-4.6,3.7C878,753.8,875.8,754.2,873.5,754.2z M872.7,731.2c-1.5,0-2.7,0.5-3.6,1.5
		c-0.9,1-1.5,2.4-1.8,4.3h10.4v-0.6c0-1.7-0.5-3-1.3-3.9C875.5,731.7,874.2,731.2,872.7,731.2z"/>
	<path d="M900.9,748.2c1.4,0,2.5-0.4,3.4-1.1c0.9-0.8,1.3-1.8,1.3-3h7c0,1.9-0.5,3.6-1.6,5.2c-1,1.6-2.4,2.8-4.2,3.7
		s-3.7,1.3-5.9,1.3c-4,0-7.2-1.3-9.5-3.8c-2.3-2.5-3.5-6.1-3.5-10.5v-0.5c0-4.3,1.1-7.8,3.4-10.3c2.3-2.6,5.4-3.9,9.4-3.9
		c3.5,0,6.3,1,8.4,3c2.1,2,3.2,4.6,3.2,8h-7c0-1.5-0.5-2.6-1.3-3.6c-0.9-0.9-2-1.4-3.4-1.4c-1.7,0-3.1,0.6-3.9,1.9
		c-0.9,1.3-1.3,3.3-1.3,6.2v0.8c0,2.9,0.4,5,1.3,6.2C897.8,747.5,899.1,748.2,900.9,748.2z"/>
	<path d="M929.8,754.2c-4.1,0-7.4-1.3-10-3.8c-2.6-2.5-3.9-5.9-3.9-10.1v-0.7c0-2.8,0.5-5.3,1.6-7.5c1.1-2.2,2.6-3.9,4.6-5.1
		c2-1.2,4.3-1.8,6.8-1.8c3.8,0,6.8,1.2,9,3.6c2.2,2.4,3.3,5.8,3.3,10.3v3.1h-17.8c0.2,1.8,1,3.3,2.2,4.4c1.2,1.1,2.8,1.7,4.6,1.7
		c2.9,0,5.1-1,6.8-3.1l3.7,4.1c-1.1,1.6-2.6,2.8-4.6,3.7C934.2,753.8,932.1,754.2,929.8,754.2z M928.9,731.2c-1.5,0-2.7,0.5-3.6,1.5
		c-0.9,1-1.5,2.4-1.8,4.3H934v-0.6c0-1.7-0.5-3-1.3-3.9C931.8,731.7,930.5,731.2,928.9,731.2z"/>
	<path d="M961.3,732.7c-1-0.1-1.9-0.2-2.7-0.2c-2.8,0-4.7,1-5.6,2.9v18.3h-7.5v-28h7.1l0.2,3.3c1.5-2.6,3.6-3.9,6.2-3.9
		c0.8,0,1.6,0.1,2.3,0.3L961.3,732.7z"/>
	<path d="M980.3,753.7c-0.3-0.7-0.6-1.5-0.8-2.5c-1.8,2-4.2,3-7.1,3c-2.7,0-5-0.8-6.8-2.4c-1.8-1.6-2.7-3.6-2.7-6
		c0-3,1.1-5.2,3.3-6.8c2.2-1.6,5.4-2.4,9.5-2.4h3.4V735c0-1.3-0.3-2.3-1-3.1c-0.7-0.8-1.7-1.2-3.1-1.2c-1.3,0-2.2,0.3-3,0.9
		c-0.7,0.6-1.1,1.4-1.1,2.5h-7.5c0-1.6,0.5-3.1,1.5-4.5c1-1.4,2.4-2.5,4.2-3.2c1.8-0.8,3.9-1.2,6.2-1.2c3.5,0,6.2,0.9,8.2,2.6
		c2,1.7,3,4.2,3,7.3v12.1c0,2.7,0.4,4.7,1.1,6v0.4H980.3z M974.2,748.5c1.1,0,2.1-0.2,3.1-0.7c0.9-0.5,1.6-1.2,2.1-2V741h-2.8
		c-3.7,0-5.7,1.3-6,3.9l0,0.4c0,0.9,0.3,1.7,1,2.3C972.1,748.2,973,748.5,974.2,748.5z M977,713.9h8.2l-7.2,8h-6.1L977,713.9z"/>
	<path d="M217,817.3c-0.3-0.7-0.6-1.5-0.8-2.5c-1.8,2-4.2,3-7.1,3c-2.7,0-5-0.8-6.8-2.4c-1.8-1.6-2.7-3.6-2.7-6c0-3,1.1-5.2,3.3-6.8
		c2.2-1.6,5.4-2.4,9.5-2.4h3.4v-1.6c0-1.3-0.3-2.3-1-3.1c-0.7-0.8-1.7-1.2-3.1-1.2c-1.3,0-2.2,0.3-3,0.9c-0.7,0.6-1.1,1.4-1.1,2.5
		h-7.5c0-1.6,0.5-3.1,1.5-4.5c1-1.4,2.4-2.5,4.2-3.2c1.8-0.8,3.9-1.2,6.2-1.2c3.5,0,6.2,0.9,8.2,2.6c2,1.7,3,4.2,3,7.3v12.1
		c0,2.7,0.4,4.7,1.1,6v0.4H217z M210.8,812.1c1.1,0,2.1-0.2,3.1-0.7c0.9-0.5,1.6-1.2,2.1-2v-4.8h-2.8c-3.7,0-5.7,1.3-6,3.9l0,0.4
		c0,0.9,0.3,1.7,1,2.3C208.7,811.8,209.6,812.1,210.8,812.1z"/>
	<path d="M237,817.3h-7.5v-39.8h7.5V817.3z"/>
	<path d="M256.1,817.8c-4.1,0-7.4-1.3-10-3.8c-2.6-2.5-3.9-5.9-3.9-10.1v-0.7c0-2.8,0.5-5.3,1.6-7.5c1.1-2.2,2.6-3.9,4.6-5.1
		c2-1.2,4.3-1.8,6.8-1.8c3.8,0,6.8,1.2,9,3.6c2.2,2.4,3.3,5.8,3.3,10.3v3.1h-17.8c0.2,1.8,1,3.3,2.2,4.4c1.2,1.1,2.8,1.7,4.6,1.7
		c2.9,0,5.1-1,6.8-3.1l3.7,4.1c-1.1,1.6-2.6,2.8-4.6,3.7C260.5,817.4,258.4,817.8,256.1,817.8z M255.2,794.8c-1.5,0-2.7,0.5-3.6,1.5
		c-0.9,1-1.5,2.4-1.8,4.3h10.4V800c0-1.7-0.5-3-1.3-3.9C258,795.3,256.8,794.8,255.2,794.8z"/>
	<path d="M288.1,817.3c-0.3-0.7-0.6-1.5-0.8-2.5c-1.8,2-4.2,3-7.1,3c-2.7,0-5-0.8-6.8-2.4c-1.8-1.6-2.7-3.6-2.7-6
		c0-3,1.1-5.2,3.3-6.8c2.2-1.6,5.4-2.4,9.5-2.4h3.4v-1.6c0-1.3-0.3-2.3-1-3.1c-0.7-0.8-1.7-1.2-3.1-1.2c-1.3,0-2.2,0.3-3,0.9
		c-0.7,0.6-1.1,1.4-1.1,2.5h-7.5c0-1.6,0.5-3.1,1.5-4.5c1-1.4,2.4-2.5,4.2-3.2c1.8-0.8,3.9-1.2,6.2-1.2c3.5,0,6.2,0.9,8.2,2.6
		c2,1.7,3,4.2,3,7.3v12.1c0,2.7,0.4,4.7,1.1,6v0.4H288.1z M281.9,812.1c1.1,0,2.1-0.2,3.1-0.7c0.9-0.5,1.6-1.2,2.1-2v-4.8h-2.8
		c-3.7,0-5.7,1.3-6,3.9l0,0.4c0,0.9,0.3,1.7,1,2.3C279.9,811.8,280.8,812.1,281.9,812.1z"/>
	<path d="M309.2,782.4v6.9h4.8v5.5h-4.8v14c0,1,0.2,1.8,0.6,2.2c0.4,0.4,1.2,0.7,2.3,0.7c0.8,0,1.6-0.1,2.2-0.2v5.7
		c-1.5,0.4-3,0.7-4.5,0.7c-5.2,0-7.9-2.6-8-7.9v-15.1h-4.1v-5.5h4.1v-6.9H309.2z"/>
	<path d="M316.2,803c0-2.8,0.5-5.3,1.6-7.4c1.1-2.2,2.6-3.9,4.6-5c2-1.2,4.3-1.8,7-1.8c3.8,0,6.9,1.2,9.3,3.5c2.4,2.3,3.7,5.5,4,9.4
		l0.1,1.9c0,4.3-1.2,7.7-3.6,10.3c-2.4,2.6-5.6,3.9-9.7,3.9s-7.3-1.3-9.7-3.9c-2.4-2.6-3.6-6.1-3.6-10.6V803z M323.7,803.6
		c0,2.7,0.5,4.7,1.5,6.1c1,1.4,2.4,2.1,4.3,2.1c1.8,0,3.2-0.7,4.2-2.1c1-1.4,1.5-3.6,1.5-6.7c0-2.6-0.5-4.6-1.5-6.1
		c-1-1.4-2.5-2.2-4.3-2.2c-1.8,0-3.2,0.7-4.2,2.1C324.2,798.4,323.7,800.6,323.7,803.6z"/>
	<path d="M363.1,796.3c-1-0.1-1.9-0.2-2.7-0.2c-2.8,0-4.7,1-5.6,2.9v18.3h-7.5v-28h7.1l0.2,3.3c1.5-2.6,3.6-3.9,6.2-3.9
		c0.8,0,1.6,0.1,2.3,0.3L363.1,796.3z"/>
	<path d="M366.6,782c0-1.1,0.4-2,1.1-2.8c0.8-0.7,1.8-1.1,3.1-1.1c1.3,0,2.3,0.4,3.1,1.1c0.8,0.7,1.1,1.6,1.1,2.8
		c0,1.1-0.4,2.1-1.2,2.8s-1.8,1.1-3,1.1c-1.3,0-2.3-0.4-3-1.1C367,784.1,366.6,783.2,366.6,782z M374.6,817.3h-7.5v-28h7.5V817.3z"
		/>
	<path d="M397,817.3c-0.3-0.7-0.6-1.5-0.8-2.5c-1.8,2-4.2,3-7.1,3c-2.7,0-5-0.8-6.8-2.4c-1.8-1.6-2.7-3.6-2.7-6c0-3,1.1-5.2,3.3-6.8
		c2.2-1.6,5.4-2.4,9.5-2.4h3.4v-1.6c0-1.3-0.3-2.3-1-3.1c-0.7-0.8-1.7-1.2-3.1-1.2c-1.3,0-2.2,0.3-3,0.9c-0.7,0.6-1.1,1.4-1.1,2.5
		h-7.5c0-1.6,0.5-3.1,1.5-4.5c1-1.4,2.4-2.5,4.2-3.2c1.8-0.8,3.9-1.2,6.2-1.2c3.5,0,6.2,0.9,8.2,2.6c2,1.7,3,4.2,3,7.3v12.1
		c0,2.7,0.4,4.7,1.1,6v0.4H397z M390.8,812.1c1.1,0,2.1-0.2,3.1-0.7c0.9-0.5,1.6-1.2,2.1-2v-4.8h-2.8c-3.7,0-5.7,1.3-6,3.9l0,0.4
		c0,0.9,0.3,1.7,1,2.3C388.8,811.8,389.7,812.1,390.8,812.1z"/>
	<path d="M416.2,789.3l0.2,3.1c2-2.4,4.7-3.6,8-3.6c3.6,0,6.1,1.4,7.4,4.3c2-2.8,4.8-4.3,8.4-4.3c3,0,5.3,0.9,6.8,2.7
		c1.5,1.8,2.2,4.4,2.2,8v17.9h-7.5v-17.9c0-1.6-0.3-2.7-0.9-3.5s-1.7-1.1-3.3-1.1c-2.2,0-3.8,1.1-4.7,3.2l0,19.2h-7.5v-17.8
		c0-1.6-0.3-2.8-1-3.5c-0.6-0.7-1.7-1.1-3.3-1.1c-2.1,0-3.7,0.9-4.6,2.6v19.8h-7.5v-28H416.2z"/>
	<path d="M467.9,817.8c-4.1,0-7.4-1.3-10-3.8c-2.6-2.5-3.9-5.9-3.9-10.1v-0.7c0-2.8,0.5-5.3,1.6-7.5c1.1-2.2,2.6-3.9,4.6-5.1
		c2-1.2,4.3-1.8,6.8-1.8c3.8,0,6.8,1.2,9,3.6c2.2,2.4,3.3,5.8,3.3,10.3v3.1h-17.8c0.2,1.8,1,3.3,2.2,4.4c1.2,1.1,2.8,1.7,4.6,1.7
		c2.9,0,5.1-1,6.8-3.1l3.7,4.1c-1.1,1.6-2.6,2.8-4.6,3.7C472.4,817.4,470.3,817.8,467.9,817.8z M467.1,794.8c-1.5,0-2.7,0.5-3.6,1.5
		c-0.9,1-1.5,2.4-1.8,4.3h10.4V800c0-1.7-0.5-3-1.3-3.9C469.9,795.3,468.7,794.8,467.1,794.8z"/>
	<path d="M490.6,789.3l0.2,3.2c2-2.5,4.7-3.8,8-3.8c3,0,5.2,0.9,6.6,2.6c1.4,1.7,2.2,4.3,2.2,7.8v18.1h-7.5v-17.9
		c0-1.6-0.3-2.7-1-3.5c-0.7-0.7-1.8-1.1-3.4-1.1c-2.1,0-3.7,0.9-4.7,2.7v19.7h-7.5v-28H490.6z"/>
	<path d="M522.3,782.4v6.9h4.8v5.5h-4.8v14c0,1,0.2,1.8,0.6,2.2c0.4,0.4,1.2,0.7,2.3,0.7c0.8,0,1.6-0.1,2.2-0.2v5.7
		c-1.5,0.4-3,0.7-4.5,0.7c-5.2,0-7.9-2.6-8-7.9v-15.1h-4.1v-5.5h4.1v-6.9H522.3z"/>
	<path d="M544.2,817.8c-4.1,0-7.4-1.3-10-3.8c-2.6-2.5-3.9-5.9-3.9-10.1v-0.7c0-2.8,0.5-5.3,1.6-7.5c1.1-2.2,2.6-3.9,4.6-5.1
		c2-1.2,4.3-1.8,6.8-1.8c3.8,0,6.8,1.2,9,3.6c2.2,2.4,3.3,5.8,3.3,10.3v3.1h-17.8c0.2,1.8,1,3.3,2.2,4.4c1.2,1.1,2.8,1.7,4.6,1.7
		c2.9,0,5.1-1,6.8-3.1l3.7,4.1c-1.1,1.6-2.6,2.8-4.6,3.7C548.6,817.4,546.5,817.8,544.2,817.8z M543.3,794.8c-1.5,0-2.7,0.5-3.6,1.5
		c-0.9,1-1.5,2.4-1.8,4.3h10.4V800c0-1.7-0.5-3-1.3-3.9C546.1,795.3,544.9,794.8,543.3,794.8z"/>
	<path d="M561.9,826.7l-3.9-2l0.9-1.7c1.2-2.1,1.8-4.2,1.8-6.3v-5.8h6.3l0,5.2c0,1.9-0.5,3.8-1.4,5.8
		C564.6,823.8,563.4,825.5,561.9,826.7z"/>
	<path d="M593.1,789.3l0.2,3.1c2-2.4,4.7-3.6,8-3.6c3.6,0,6.1,1.4,7.4,4.3c2-2.8,4.8-4.3,8.4-4.3c3,0,5.3,0.9,6.8,2.7
		c1.5,1.8,2.2,4.4,2.2,8v17.9h-7.5v-17.9c0-1.6-0.3-2.7-0.9-3.5s-1.7-1.1-3.3-1.1c-2.2,0-3.8,1.1-4.7,3.2l0,19.2h-7.5v-17.8
		c0-1.6-0.3-2.8-1-3.5c-0.6-0.7-1.7-1.1-3.3-1.1c-2.1,0-3.7,0.9-4.6,2.6v19.8h-7.5v-28H593.1z"/>
	<path d="M644.8,817.8c-4.1,0-7.4-1.3-10-3.8c-2.6-2.5-3.9-5.9-3.9-10.1v-0.7c0-2.8,0.5-5.3,1.6-7.5c1.1-2.2,2.6-3.9,4.6-5.1
		c2-1.2,4.3-1.8,6.8-1.8c3.8,0,6.8,1.2,9,3.6c2.2,2.4,3.3,5.8,3.3,10.3v3.1h-17.8c0.2,1.8,1,3.3,2.2,4.4c1.2,1.1,2.8,1.7,4.6,1.7
		c2.9,0,5.1-1,6.8-3.1l3.7,4.1c-1.1,1.6-2.6,2.8-4.6,3.7C649.3,817.4,647.2,817.8,644.8,817.8z M644,794.8c-1.5,0-2.7,0.5-3.6,1.5
		c-0.9,1-1.5,2.4-1.8,4.3H649V800c0-1.7-0.5-3-1.3-3.9C646.8,795.3,645.6,794.8,644,794.8z"/>
	<path d="M667.6,789.3l0.2,3.1c2-2.4,4.7-3.6,8-3.6c3.6,0,6.1,1.4,7.4,4.3c2-2.8,4.8-4.3,8.4-4.3c3,0,5.3,0.9,6.8,2.7
		c1.5,1.8,2.2,4.4,2.2,8v17.9h-7.5v-17.9c0-1.6-0.3-2.7-0.9-3.5s-1.7-1.1-3.3-1.1c-2.2,0-3.8,1.1-4.7,3.2l0,19.2h-7.5v-17.8
		c0-1.6-0.3-2.8-1-3.5c-0.6-0.7-1.7-1.1-3.3-1.1c-2.1,0-3.7,0.9-4.6,2.6v19.8h-7.5v-28H667.6z"/>
	<path d="M705.3,803c0-2.8,0.5-5.3,1.6-7.4c1.1-2.2,2.6-3.9,4.6-5c2-1.2,4.3-1.8,7-1.8c3.8,0,6.9,1.2,9.3,3.5c2.4,2.3,3.7,5.5,4,9.4
		l0.1,1.9c0,4.3-1.2,7.7-3.6,10.3c-2.4,2.6-5.6,3.9-9.7,3.9s-7.3-1.3-9.7-3.9c-2.4-2.6-3.6-6.1-3.6-10.6V803z M712.8,803.6
		c0,2.7,0.5,4.7,1.5,6.1c1,1.4,2.4,2.1,4.3,2.1c1.8,0,3.2-0.7,4.2-2.1c1-1.4,1.5-3.6,1.5-6.7c0-2.6-0.5-4.6-1.5-6.1
		c-1-1.4-2.5-2.2-4.3-2.2c-1.8,0-3.2,0.7-4.2,2.1C713.3,798.4,712.8,800.6,712.8,803.6z"/>
	<path d="M752.2,796.3c-1-0.1-1.9-0.2-2.7-0.2c-2.8,0-4.7,1-5.6,2.9v18.3h-7.5v-28h7.1l0.2,3.3c1.5-2.6,3.6-3.9,6.2-3.9
		c0.8,0,1.6,0.1,2.3,0.3L752.2,796.3z"/>
	<path d="M763.9,817.3h-7.5v-28h7.5V817.3z M761.7,777.9h8.2l-7.2,8h-6.1L761.7,777.9z"/>
	<path d="M778.9,811.3h13.7v6h-23.2v-4.6l13.2-17.4h-12.8v-6h22.4v4.4L778.9,811.3z"/>
	<path d="M809.7,817.8c-4.1,0-7.4-1.3-10-3.8c-2.6-2.5-3.9-5.9-3.9-10.1v-0.7c0-2.8,0.5-5.3,1.6-7.5c1.1-2.2,2.6-3.9,4.6-5.1
		c2-1.2,4.3-1.8,6.8-1.8c3.8,0,6.8,1.2,9,3.6c2.2,2.4,3.3,5.8,3.3,10.3v3.1h-17.8c0.2,1.8,1,3.3,2.2,4.4c1.2,1.1,2.8,1.7,4.6,1.7
		c2.9,0,5.1-1,6.8-3.1l3.7,4.1c-1.1,1.6-2.6,2.8-4.6,3.7C814.2,817.4,812.1,817.8,809.7,817.8z M808.9,794.8c-1.5,0-2.7,0.5-3.6,1.5
		c-0.9,1-1.5,2.4-1.8,4.3h10.4V800c0-1.7-0.5-3-1.3-3.9C811.7,795.3,810.5,794.8,808.9,794.8z"/>
	<path d="M833.4,817.3h-7.5v-39.8h7.5V817.3z"/>
	<path d="M838.4,803c0-2.8,0.5-5.3,1.6-7.4c1.1-2.2,2.6-3.9,4.6-5c2-1.2,4.3-1.8,7-1.8c3.8,0,6.9,1.2,9.3,3.5c2.4,2.3,3.7,5.5,4,9.4
		l0.1,1.9c0,4.3-1.2,7.7-3.6,10.3c-2.4,2.6-5.6,3.9-9.7,3.9s-7.3-1.3-9.7-3.9c-2.4-2.6-3.6-6.1-3.6-10.6V803z M845.9,803.6
		c0,2.7,0.5,4.7,1.5,6.1c1,1.4,2.4,2.1,4.3,2.1c1.8,0,3.2-0.7,4.2-2.1c1-1.4,1.5-3.6,1.5-6.7c0-2.6-0.5-4.6-1.5-6.1
		c-1-1.4-2.5-2.2-4.3-2.2c-1.8,0-3.2,0.7-4.2,2.1C846.4,798.4,845.9,800.6,845.9,803.6z"/>
	<path d="M884.7,809.6c0-0.9-0.5-1.6-1.4-2.2c-0.9-0.5-2.4-1-4.4-1.4c-6.7-1.4-10-4.2-10-8.5c0-2.5,1-4.6,3.1-6.2
		c2.1-1.7,4.8-2.5,8.1-2.5c3.6,0,6.4,0.8,8.5,2.5c2.1,1.7,3.2,3.8,3.2,6.5h-7.5c0-1.1-0.3-2-1-2.7c-0.7-0.7-1.8-1-3.2-1
		c-1.3,0-2.2,0.3-2.9,0.9c-0.7,0.6-1,1.3-1,2.2c0,0.8,0.4,1.5,1.2,2c0.8,0.5,2.1,0.9,4,1.3s3.4,0.8,4.7,1.3c4,1.4,5.9,4,5.9,7.5
		c0,2.6-1.1,4.6-3.3,6.2c-2.2,1.6-5,2.4-8.5,2.4c-2.3,0-4.4-0.4-6.2-1.3c-1.8-0.8-3.2-2-4.3-3.4c-1-1.5-1.6-3-1.6-4.7h7.1
		c0.1,1.3,0.6,2.3,1.5,3.1c0.9,0.7,2.1,1.1,3.7,1.1c1.4,0,2.5-0.3,3.2-0.8C884.3,811.1,884.7,810.4,884.7,809.6z"/>
	<path d="M935.2,803.5c0,4.3-1,7.8-2.9,10.4c-2,2.6-4.6,3.9-7.9,3.9c-2.8,0-5.1-1-6.9-3v13.2H910v-38.8h6.9l0.3,2.7
		c1.8-2.2,4.2-3.3,7.1-3.3c3.5,0,6.1,1.3,8,3.8c1.9,2.6,2.9,6.1,2.9,10.6V803.5z M927.7,803c0-2.6-0.5-4.6-1.4-6
		c-0.9-1.4-2.3-2.1-4-2.1c-2.3,0-4,0.9-4.8,2.7V809c0.9,1.8,2.5,2.8,4.9,2.8C925.9,811.8,927.7,808.9,927.7,803z"/>
	<path d="M956,817.3c-0.3-0.7-0.6-1.5-0.8-2.5c-1.8,2-4.2,3-7.1,3c-2.7,0-5-0.8-6.8-2.4c-1.8-1.6-2.7-3.6-2.7-6c0-3,1.1-5.2,3.3-6.8
		c2.2-1.6,5.4-2.4,9.5-2.4h3.4v-1.6c0-1.3-0.3-2.3-1-3.1c-0.7-0.8-1.7-1.2-3.1-1.2c-1.3,0-2.2,0.3-3,0.9c-0.7,0.6-1.1,1.4-1.1,2.5
		h-7.5c0-1.6,0.5-3.1,1.5-4.5c1-1.4,2.4-2.5,4.2-3.2c1.8-0.8,3.9-1.2,6.2-1.2c3.5,0,6.2,0.9,8.2,2.6c2,1.7,3,4.2,3,7.3v12.1
		c0,2.7,0.4,4.7,1.1,6v0.4H956z M949.9,812.1c1.1,0,2.1-0.2,3.1-0.7c0.9-0.5,1.6-1.2,2.1-2v-4.8h-2.8c-3.7,0-5.7,1.3-6,3.9l0,0.4
		c0,0.9,0.3,1.7,1,2.3C947.8,811.8,948.7,812.1,949.9,812.1z"/>
	<path d="M984,796.3c-1-0.1-1.9-0.2-2.7-0.2c-2.8,0-4.7,1-5.6,2.9v18.3h-7.5v-28h7.1l0.2,3.3c1.5-2.6,3.6-3.9,6.2-3.9
		c0.8,0,1.6,0.1,2.3,0.3L984,796.3z"/>
	<path d="M1003,817.3c-0.3-0.7-0.6-1.5-0.8-2.5c-1.8,2-4.2,3-7.1,3c-2.7,0-5-0.8-6.8-2.4c-1.8-1.6-2.7-3.6-2.7-6
		c0-3,1.1-5.2,3.3-6.8c2.2-1.6,5.4-2.4,9.5-2.4h3.4v-1.6c0-1.3-0.3-2.3-1-3.1c-0.7-0.8-1.7-1.2-3.1-1.2c-1.3,0-2.2,0.3-3,0.9
		c-0.7,0.6-1.1,1.4-1.1,2.5h-7.5c0-1.6,0.5-3.1,1.5-4.5c1-1.4,2.4-2.5,4.2-3.2c1.8-0.8,3.9-1.2,6.2-1.2c3.5,0,6.2,0.9,8.2,2.6
		c2,1.7,3,4.2,3,7.3v12.1c0,2.7,0.4,4.7,1.1,6v0.4H1003z M996.8,812.1c1.1,0,2.1-0.2,3.1-0.7c0.9-0.5,1.6-1.2,2.1-2v-4.8h-2.8
		c-3.7,0-5.7,1.3-6,3.9l0,0.4c0,0.9,0.3,1.7,1,2.3C994.8,811.8,995.7,812.1,996.8,812.1z"/>
	<path d="M384.2,880.9h-7.5v-39.8h7.5V880.9z"/>
	<path d="M407.1,878c-1.8,2.2-4.4,3.4-7.7,3.4c-3,0-5.3-0.9-6.9-2.6c-1.6-1.7-2.4-4.3-2.4-7.6v-18.3h7.5V871c0,2.9,1.3,4.4,4,4.4
		c2.5,0,4.3-0.9,5.2-2.6v-19.8h7.5v28h-7L407.1,878z"/>
	<path d="M432.9,881.4c-4.1,0-7.4-1.3-10-3.8c-2.6-2.5-3.9-5.9-3.9-10.1v-0.7c0-2.8,0.5-5.3,1.6-7.5c1.1-2.2,2.6-3.9,4.6-5.1
		c2-1.2,4.3-1.8,6.8-1.8c3.8,0,6.8,1.2,9,3.6c2.2,2.4,3.3,5.8,3.3,10.3v3.1h-17.8c0.2,1.8,1,3.3,2.2,4.4c1.2,1.1,2.8,1.7,4.6,1.7
		c2.9,0,5.1-1,6.8-3.1l3.7,4.1c-1.1,1.6-2.6,2.8-4.6,3.7C437.4,881,435.2,881.4,432.9,881.4z M432.1,858.4c-1.5,0-2.7,0.5-3.6,1.5
		c-0.9,1-1.5,2.4-1.8,4.3h10.4v-0.6c0-1.7-0.5-3-1.3-3.9C434.9,858.9,433.7,858.4,432.1,858.4z"/>
	<path d="M447.6,866.7c0-4.3,1-7.8,3.1-10.4c2-2.6,4.8-3.9,8.3-3.9c3.1,0,5.5,1.1,7.2,3.2l0.3-2.6h6.8V880c0,2.4-0.6,4.6-1.7,6.4
		c-1.1,1.8-2.7,3.2-4.7,4.1c-2,0.9-4.4,1.4-7.1,1.4c-2.1,0-4.1-0.4-6-1.2c-2-0.8-3.4-1.9-4.4-3.2l3.3-4.6c1.9,2.1,4.1,3.1,6.8,3.1
		c2,0,3.5-0.5,4.6-1.6c1.1-1.1,1.7-2.6,1.7-4.5v-1.5c-1.7,1.9-4,2.9-6.8,2.9c-3.4,0-6.1-1.3-8.2-3.9c-2.1-2.6-3.1-6.1-3.1-10.5
		V866.7z M455.1,867.2c0,2.5,0.5,4.5,1.5,6c1,1.4,2.4,2.2,4.2,2.2c2.3,0,3.9-0.9,4.9-2.6V861c-1-1.7-2.6-2.6-4.8-2.6
		c-1.8,0-3.2,0.7-4.2,2.2C455.6,862.1,455.1,864.3,455.1,867.2z"/>
	<path d="M477.8,866.6c0-2.8,0.5-5.3,1.6-7.4c1.1-2.2,2.6-3.9,4.6-5c2-1.2,4.3-1.8,7-1.8c3.8,0,6.9,1.2,9.3,3.5
		c2.4,2.3,3.7,5.5,4,9.4l0.1,1.9c0,4.3-1.2,7.7-3.6,10.3c-2.4,2.6-5.6,3.9-9.7,3.9s-7.3-1.3-9.7-3.9c-2.4-2.6-3.6-6.1-3.6-10.6
		V866.6z M485.2,867.2c0,2.7,0.5,4.7,1.5,6.1c1,1.4,2.4,2.1,4.3,2.1c1.8,0,3.2-0.7,4.2-2.1c1-1.4,1.5-3.6,1.5-6.7
		c0-2.6-0.5-4.6-1.5-6.1c-1-1.4-2.5-2.2-4.3-2.2c-1.8,0-3.2,0.7-4.2,2.1C485.7,862,485.2,864.2,485.2,867.2z"/>
	<path d="M537.8,859.9c-1-0.1-1.9-0.2-2.7-0.2c-2.8,0-4.7,1-5.6,2.9v18.3h-7.5v-28h7.1l0.2,3.3c1.5-2.6,3.6-3.9,6.2-3.9
		c0.8,0,1.6,0.1,2.3,0.3L537.8,859.9z"/>
	<path d="M553.8,881.4c-4.1,0-7.4-1.3-10-3.8c-2.6-2.5-3.9-5.9-3.9-10.1v-0.7c0-2.8,0.5-5.3,1.6-7.5c1.1-2.2,2.6-3.9,4.6-5.1
		c2-1.2,4.3-1.8,6.8-1.8c3.8,0,6.8,1.2,9,3.6c2.2,2.4,3.3,5.8,3.3,10.3v3.1h-17.8c0.2,1.8,1,3.3,2.2,4.4c1.2,1.1,2.8,1.7,4.6,1.7
		c2.9,0,5.1-1,6.8-3.1l3.7,4.1c-1.1,1.6-2.6,2.8-4.6,3.7C558.3,881,556.2,881.4,553.8,881.4z M553,858.4c-1.5,0-2.7,0.5-3.6,1.5
		c-0.9,1-1.5,2.4-1.8,4.3H558v-0.6c0-1.7-0.5-3-1.3-3.9C555.8,858.9,554.6,858.4,553,858.4z"/>
	<path d="M594.8,867.1c0,4.3-1,7.8-2.9,10.4c-2,2.6-4.6,3.9-7.9,3.9c-2.8,0-5.1-1-6.9-3v13.2h-7.5v-38.8h6.9l0.3,2.7
		c1.8-2.2,4.2-3.3,7.1-3.3c3.5,0,6.1,1.3,8,3.8c1.9,2.6,2.9,6.1,2.9,10.6V867.1z M587.3,866.6c0-2.6-0.5-4.6-1.4-6
		c-0.9-1.4-2.3-2.1-4-2.1c-2.3,0-4,0.9-4.8,2.7v11.5c0.9,1.8,2.5,2.8,4.9,2.8C585.5,875.4,587.3,872.5,587.3,866.6z"/>
	<path d="M615.2,859.9c-1-0.1-1.9-0.2-2.7-0.2c-2.8,0-4.7,1-5.6,2.9v18.3h-7.5v-28h7.1l0.2,3.3c1.5-2.6,3.6-3.9,6.2-3.9
		c0.8,0,1.6,0.1,2.3,0.3L615.2,859.9z"/>
	<path d="M616.7,866.6c0-2.8,0.5-5.3,1.6-7.4c1.1-2.2,2.6-3.9,4.6-5c2-1.2,4.3-1.8,7-1.8c3.8,0,6.9,1.2,9.3,3.5
		c2.4,2.3,3.7,5.5,4,9.4l0.1,1.9c0,4.3-1.2,7.7-3.6,10.3c-2.4,2.6-5.6,3.9-9.7,3.9s-7.3-1.3-9.7-3.9c-2.4-2.6-3.6-6.1-3.6-10.6
		V866.6z M624.1,867.2c0,2.7,0.5,4.7,1.5,6.1c1,1.4,2.4,2.1,4.3,2.1c1.8,0,3.2-0.7,4.2-2.1c1-1.4,1.5-3.6,1.5-6.7
		c0-2.6-0.5-4.6-1.5-6.1c-1-1.4-2.5-2.2-4.3-2.2c-1.8,0-3.2,0.7-4.2,2.1C624.6,862,624.1,864.2,624.1,867.2z"/>
	<path d="M646.6,866.7c0-4.4,1-7.8,2.9-10.4c2-2.6,4.6-3.9,8-3.9c2.7,0,5,1,6.8,3.1v-14.3h7.5v39.8h-6.8l-0.4-3
		c-1.9,2.3-4.3,3.5-7.2,3.5c-3.3,0-5.9-1.3-7.9-3.9C647.6,874.9,646.6,871.3,646.6,866.7z M654.1,867.2c0,2.6,0.5,4.6,1.4,6
		c0.9,1.4,2.2,2.1,4,2.1c2.3,0,3.9-1,4.9-2.9v-11.1c-0.9-2-2.5-2.9-4.8-2.9C655.9,858.5,654.1,861.4,654.1,867.2z"/>
	<path d="M694.4,878c-1.8,2.2-4.4,3.4-7.7,3.4c-3,0-5.3-0.9-6.9-2.6c-1.6-1.7-2.4-4.3-2.4-7.6v-18.3h7.5V871c0,2.9,1.3,4.4,4,4.4
		c2.5,0,4.3-0.9,5.2-2.6v-19.8h7.5v28h-7L694.4,878z"/>
	<path d="M719,875.4c1.4,0,2.5-0.4,3.4-1.1c0.9-0.8,1.3-1.8,1.3-3h7c0,1.9-0.5,3.6-1.6,5.2c-1,1.6-2.4,2.8-4.2,3.7s-3.7,1.3-5.9,1.3
		c-4,0-7.2-1.3-9.5-3.8c-2.3-2.5-3.5-6.1-3.5-10.5v-0.5c0-4.3,1.1-7.8,3.4-10.3c2.3-2.6,5.4-3.9,9.4-3.9c3.5,0,6.3,1,8.4,3
		c2.1,2,3.2,4.6,3.2,8h-7c0-1.5-0.5-2.6-1.3-3.6c-0.9-0.9-2-1.4-3.4-1.4c-1.7,0-3.1,0.6-3.9,1.9c-0.9,1.3-1.3,3.3-1.3,6.2v0.8
		c0,2.9,0.4,5,1.3,6.2C715.8,874.7,717.2,875.4,719,875.4z"/>
	<path d="M734.9,845.6c0-1.1,0.4-2,1.1-2.8c0.8-0.7,1.8-1.1,3.1-1.1c1.3,0,2.3,0.4,3.1,1.1c0.8,0.7,1.1,1.6,1.1,2.8
		c0,1.1-0.4,2.1-1.2,2.8s-1.8,1.1-3,1.1c-1.3,0-2.3-0.4-3-1.1C735.3,847.7,734.9,846.8,734.9,845.6z M742.8,880.9h-7.5v-28h7.5
		V880.9z"/>
	<path d="M764.7,859.9c-1-0.1-1.9-0.2-2.7-0.2c-2.8,0-4.7,1-5.6,2.9v18.3H749v-28h7.1l0.2,3.3c1.5-2.6,3.6-3.9,6.2-3.9
		c0.8,0,1.6,0.1,2.3,0.3L764.7,859.9z"/>
	<path d="M776.2,880.9h-7.5v-39.8h7.5V880.9z"/>
	<path d="M781.2,866.6c0-2.8,0.5-5.3,1.6-7.4c1.1-2.2,2.6-3.9,4.6-5c2-1.2,4.3-1.8,7-1.8c3.8,0,6.9,1.2,9.3,3.5
		c2.4,2.3,3.7,5.5,4,9.4l0.1,1.9c0,4.3-1.2,7.7-3.6,10.3c-2.4,2.6-5.6,3.9-9.7,3.9s-7.3-1.3-9.7-3.9c-2.4-2.6-3.6-6.1-3.6-10.6
		V866.6z M788.7,867.2c0,2.7,0.5,4.7,1.5,6.1c1,1.4,2.4,2.1,4.3,2.1c1.8,0,3.2-0.7,4.2-2.1c1-1.4,1.5-3.6,1.5-6.7
		c0-2.6-0.5-4.6-1.5-6.1c-1-1.4-2.5-2.2-4.3-2.2c-1.8,0-3.2,0.7-4.2,2.1C789.2,862,788.7,864.2,788.7,867.2z"/>
	<path d="M827.5,873.2c0-0.9-0.5-1.6-1.4-2.2c-0.9-0.5-2.4-1-4.4-1.4c-6.7-1.4-10-4.2-10-8.5c0-2.5,1-4.6,3.1-6.2
		c2.1-1.7,4.8-2.5,8.1-2.5c3.6,0,6.4,0.8,8.5,2.5c2.1,1.7,3.2,3.8,3.2,6.5h-7.5c0-1.1-0.3-2-1-2.7c-0.7-0.7-1.8-1-3.2-1
		c-1.3,0-2.2,0.3-2.9,0.9c-0.7,0.6-1,1.3-1,2.2c0,0.8,0.4,1.5,1.2,2c0.8,0.5,2.1,0.9,4,1.3s3.4,0.8,4.7,1.3c4,1.4,5.9,4,5.9,7.5
		c0,2.6-1.1,4.6-3.3,6.2c-2.2,1.6-5,2.4-8.5,2.4c-2.3,0-4.4-0.4-6.2-1.3c-1.8-0.8-3.2-2-4.3-3.4c-1-1.5-1.6-3-1.6-4.7h7.1
		c0.1,1.3,0.6,2.3,1.5,3.1c0.9,0.7,2.1,1.1,3.7,1.1c1.4,0,2.5-0.3,3.2-0.8C827.2,874.7,827.5,874,827.5,873.2z"/>
</g>
<text transform="matrix(1 0 0 1 249.332 1271.3196)" class="st4 st5 st6">2</text>
<text transform="matrix(1 0 0 1 519.8896 1272.4338)" class="st4 st5 st7">5</text>
<path class="st8" d="M220,971.2h215.2c12.8,0,23.2,10.4,23.2,23.2c0,0,0,0,0,0v346.1c0,12.8-10.4,23.2-23.2,23.2c0,0,0,0,0,0H220
	c-12.8,0-23.2-10.4-23.2-23.2c0,0,0,0,0,0V994.4C196.8,981.6,207.2,971.2,220,971.2C220,971.2,220,971.2,220,971.2L220,971.2z"/>
<path class="st8" d="M497.3,971.2h215.2c12.8,0,23.2,10.4,23.2,23.2c0,0,0,0,0,0v346.1c0,12.8-10.4,23.2-23.2,23.2c0,0,0,0,0,0
	H497.3c-12.8,0-23.2-10.4-23.2-23.2c0,0,0,0,0,0V994.4C474.1,981.6,484.5,971.2,497.3,971.2C497.3,971.2,497.3,971.2,497.3,971.2z"
	/>
<path class="st8" d="M774.6,971.2h215.2c12.8,0,23.2,10.4,23.2,23.2c0,0,0,0,0,0v346.1c0,12.8-10.4,23.2-23.2,23.2c0,0,0,0,0,0
	H774.6c-12.8,0-23.2-10.4-23.2-23.2c0,0,0,0,0,0V994.4C751.4,981.6,761.7,971.2,774.6,971.2C774.6,971.2,774.6,971.2,774.6,971.2z"
	/>
<path class="st9" d="M815,1047.7H881c3.7,0,6.6,3,6.6,6.6v31.7c0,3.7-3,6.6-6.6,6.6H815c-3.7,0-6.6-3-6.6-6.6v-31.7
	C808.4,1050.7,811.4,1047.7,815,1047.7z"/>
<path class="st9" d="M897.9,1047.7h65.9c3.7,0,6.6,3,6.6,6.6v31.7c0,3.7-3,6.6-6.6,6.6h-65.9c-3.7,0-6.6-3-6.6-6.6v-31.7
	C891.2,1050.7,894.2,1047.7,897.9,1047.7z"/>
<path class="st9" d="M815,1098.2H881c3.7,0,6.6,3,6.6,6.6v31.7c0,3.7-3,6.6-6.6,6.6H815c-3.7,0-6.6-3-6.6-6.6v-31.7
	C808.4,1101.1,811.4,1098.2,815,1098.2z"/>
<path class="st9" d="M897.9,1098.2h65.9c3.7,0,6.6,3,6.6,6.6v31.7c0,3.7-3,6.6-6.6,6.6h-65.9c-3.7,0-6.6-3-6.6-6.6v-31.7
	C891.2,1101.1,894.2,1098.2,897.9,1098.2z"/>
<path class="st9" d="M815,1148.6H881c3.7,0,6.6,3,6.6,6.6v31.7c0,3.7-3,6.6-6.6,6.6H815c-3.7,0-6.6-3-6.6-6.6v-31.7
	C808.4,1151.5,811.4,1148.6,815,1148.6z"/>
<path class="st9" d="M897.9,1148.6h65.9c3.7,0,6.6,3,6.6,6.6v31.7c0,3.7-3,6.6-6.6,6.6h-65.9c-3.7,0-6.6-3-6.6-6.6v-31.7
	C891.2,1151.5,894.2,1148.6,897.9,1148.6z"/>
<path class="st9" d="M815,1199H881c3.7,0,6.6,3,6.6,6.6v31.7c0,3.7-3,6.6-6.6,6.6H815c-3.7,0-6.6-3-6.6-6.6v-31.7
	C808.4,1202,811.4,1199,815,1199z"/>
<path class="st9" d="M897.9,1199h65.9c3.7,0,6.6,3,6.6,6.6v31.7c0,3.7-3,6.6-6.6,6.6h-65.9c-3.7,0-6.6-3-6.6-6.6v-31.7
	C891.2,1202,894.2,1199,897.9,1199z"/>
<path class="st9" d="M815,1249.4H881c3.7,0,6.6,3,6.6,6.6v31.7c0,3.7-3,6.6-6.6,6.6H815c-3.7,0-6.6-3-6.6-6.6V1256
	C808.4,1252.4,811.4,1249.4,815,1249.4L815,1249.4z"/>
<path class="st9" d="M897.9,1249.4h65.9c3.7,0,6.6,3,6.6,6.6v31.7c0,3.7-3,6.6-6.6,6.6h-65.9c-3.7,0-6.6-3-6.6-6.6V1256
	C891.2,1252.4,894.2,1249.4,897.9,1249.4L897.9,1249.4z"/>
<text transform="matrix(1 0 0 1 836.9922 1084.3596)" class="st4 st5 st10">0</text>
<text transform="matrix(1 0 0 1 835.1074 1135.3635)" class="st4 st5 st10">2</text>
<text transform="matrix(1 0 0 1 835.1055 1186.3713)" class="st4 st5 st10">4</text>
<text transform="matrix(1 0 0 1 835.1055 1237.3733)" class="st4 st5 st10">6</text>
<text transform="matrix(1 0 0 1 835.1074 1288.3743)" class="st4 st5 st10">8</text>
<text transform="matrix(1 0 0 1 917.2188 1084.3596)" class="st4 st5 st10">1</text>
<text transform="matrix(1 0 0 1 917.2188 1134.8577)" class="st4 st5 st10">3</text>
<text transform="matrix(1 0 0 1 917.2188 1185.3606)" class="st4 st5 st10">5</text>
<text transform="matrix(1 0 0 1 917.2188 1235.8616)" class="st4 st5 st10">7</text>
<text transform="matrix(1 0 0 1 917.2188 1286.3655)" class="st4 st5 st10">9</text>
<path class="st11" d="M916.1,1120.6c-2.2,2.2-2.3,5.7-0.2,8c0,0,0.1,0.1,0.1,0.1l5.2,5.2l-7.7-7.7c-2.3-2.3-6-2.4-8.3-0.2
	c-2.3,2.2-2.4,5.9-0.2,8.2c0,0,0,0.1,0.1,0.1l6.2,6.2l-8.7-8.7c-2.3-2.3-6-2.5-8.4-0.2c-2.3,2.2-2.4,6-0.2,8.3c0,0,0.1,0.1,0.1,0.1
	l8.1,8.1l-22.5-22.5c-5.8-5.8-9.8-5.6-12.2-3c-2.2,2.4-2,6.4,0.3,8.7l34.5,34.5l-2.8-2.8l-10.8-1.9c-2.4-0.2-4.7,1.2-5.6,3.5l0,0
	c-1.1,3,1.9,5.8,4.6,7.7c9.9,7.3,21.3,12.6,33.5,14.4c2.6,0.4,5.2-0.5,7-2.3l21.6-21.6c2.6-2.6,3.3-6.7,1.6-10
	c-3-6.1-7-11.6-11.8-16.4l-15.7-15.7C921.9,1118.7,918.3,1118.5,916.1,1120.6z"/>
<path class="st12" d="M949.4,1162.3l-21.7,21.7c-2.2,2.2-5.3,3.2-8.4,2.8c-11.7-1.8-23.6-6.9-34.4-14.8c-1.7-1.2-6.8-5-5.1-9.5
	c1.1-3,4.2-4.9,7.4-4.6l6,1.1l-28.5-28.5c-2.9-2.9-3.1-7.9-0.4-10.9c1.3-1.4,3-2.2,4.8-2.3c2.9-0.1,6.2,1.7,9.7,5.2l10.3,10.3
	c0.2-1.6,1-3.1,2.2-4.2c2.4-2.3,6-2.6,8.8-1.1c0.2-1.7,1-3.3,2.2-4.5c2.3-2.3,5.9-2.6,8.7-1.1c0.2-1.6,0.9-3.2,2.2-4.3
	c2.8-2.7,7.4-2.6,10.2,0.2l15.8,15.8c4.9,4.9,9,10.6,12.1,16.9C953.3,1154.4,952.6,1159.2,949.4,1162.3L949.4,1162.3z M883.6,1162.1
	c-0.4,0.4-0.7,0.9-0.9,1.4c-0.6,1.6,0.7,3.6,4.1,6.1c10.4,7.7,21.8,12.6,33,14.3c2.1,0.3,4.2-0.4,5.7-1.9l21.7-21.7
	c2.2-2.2,2.7-5.5,1.3-8.3c-3-6-6.9-11.4-11.6-16.1l-15.8-15.8c-1.7-1.7-4.3-1.7-5.9-0.2c-0.8,0.8-1.3,1.8-1.3,2.9
	c0,1.1,0.4,2.2,1.2,3l5.3,5.3c0.6,0.6,0.6,1.6,0,2.2c-0.6,0.6-1.6,0.6-2.2,0l-7.7-7.7c-1.7-1.7-4.5-1.8-6.2-0.2
	c-0.8,0.8-1.3,1.9-1.3,3.1c0,1.2,0.4,2.3,1.3,3.1l6.2,6.2c0.6,0.6,0.6,1.6,0,2.2c-0.6,0.6-1.6,0.6-2.2,0l-8.8-8.8
	c-1.8-1.8-4.6-1.8-6.3-0.2c-0.9,0.8-1.3,1.9-1.3,3.1c0,1.2,0.4,2.3,1.3,3.1l8.2,8.2c0.6,0.6,0.6,1.6,0,2.2s-1.6,0.6-2.2,0
	l-22.7-22.7c-3.6-3.6-6.1-4.4-7.4-4.3c-1,0-1.9,0.4-2.6,1.3c-1.7,1.8-1.5,4.9,0.3,6.7l34.8,34.8c0.6,0.6,0.6,1.6,0,2.2
	c-0.6,0.6-1.6,0.6-2.2,0l-2.5-2.4l-10.3-1.8C885.6,1160.8,884.4,1161.2,883.6,1162.1L883.6,1162.1z"/>
<path class="st13" d="M921.2,1185.7l29.7-29.7c1.6-1.6,4.2-1.6,5.8,0c0,0,0,0,0,0l9,9c1.6,1.6,1.6,4.2,0,5.7c0,0,0,0,0,0l-29.7,29.7
	c-1.6,1.6-4.2,1.6-5.8,0c0,0,0,0,0,0l-9-9C919.6,1189.9,919.6,1187.3,921.2,1185.7C921.2,1185.7,921.2,1185.7,921.2,1185.7
	L921.2,1185.7z"/>
<path class="st12" d="M965.3,1172.4l-27.7,27.7c-2.1,2.1-5.5,2.1-7.6,0l-8.4-8.4c-2.1-2.1-2.1-5.5,0-7.6l27.7-27.7
	c2.1-2.1,5.5-2.1,7.6,0l8.4,8.4C967.4,1166.9,967.4,1170.3,965.3,1172.4L965.3,1172.4z M923.8,1186.3c-0.9,0.9-0.9,2.3,0,3.2
	l8.4,8.4c0.9,0.9,2.3,0.9,3.2,0l27.7-27.7c0.9-0.9,0.9-2.3,0-3.2l-8.4-8.4c-0.9-0.9-2.3-0.9-3.2,0L923.8,1186.3L923.8,1186.3z"/>
<path class="st12" d="M954.5,1163.6c-2-2.2-5.4-2.3-7.6-0.3s-2.3,5.4-0.3,7.6c0.1,0.1,0.2,0.2,0.3,0.3c2.2,2,5.6,1.9,7.6-0.3
	C956.4,1168.9,956.4,1165.7,954.5,1163.6z"/>
<path class="st11" d="M859,1112.5c-0.9-0.8-2.4-0.8-3.2,0.2c-0.8,0.9-0.8,2.4,0.2,3.2l0,0l6.3,5.7c0.9,0.8,2.4,0.8,3.2-0.2
	c0.8-0.9,0.8-2.4-0.2-3.2L859,1112.5L859,1112.5z"/>
<path class="st11" d="M859.9,1127.1l-6,0.3c-1.3,0.1-2.3,1.2-2.3,2.5c0.1,1.3,1.2,2.3,2.5,2.3l6-0.3c1.3,0,2.4-1.1,2.4-2.4
	c0-1.3-1.1-2.4-2.4-2.4C860.1,1127.1,860,1127.1,859.9,1127.1z"/>
<path class="st11" d="M861.8,1137.6l-5.7,6.3c-0.8,1-0.7,2.4,0.3,3.2c0.9,0.8,2.3,0.7,3.1-0.1l5.7-6.3c0.9-0.9,0.8-2.4-0.1-3.2
	S862.7,1136.6,861.8,1137.6C861.8,1137.6,861.8,1137.6,861.8,1137.6L861.8,1137.6z"/>
<path class="st11" d="M873,1140.4c-1.2,0.1-2.2,1.1-2.1,2.3c0,0,0,0,0,0l0.3,6.3c0.1,1.2,1.3,2.1,2.5,2c1.1-0.1,2-1.1,2-2.2
	l-0.3-6.3C875.2,1141.3,874.2,1140.4,873,1140.4C873,1140.4,873,1140.4,873,1140.4z"/>
<path class="st11" d="M895.2,1122.8l-8.3,0.4c-1.7,0.1-3,1.5-2.9,3.2c0.1,1.7,1.5,3,3.2,2.9l8.3-0.4c1.7-0.1,3-1.5,2.9-3.1
	c0,0,0,0,0,0C898.3,1124,896.9,1122.7,895.2,1122.8L895.2,1122.8z"/>
<path class="st11" d="M890.2,1108.6c-0.9-0.8-2.4-0.8-3.2,0.2l-5.7,6.3c-0.8,1-0.7,2.4,0.3,3.2c0.9,0.8,2.3,0.7,3.1-0.1l5.7-6.3
	C891.2,1110.9,891.1,1109.5,890.2,1108.6L890.2,1108.6z"/>
<path class="st11" d="M873,1104.4c-1.3,0.1-2.3,1.2-2.3,2.5l0.3,6c0.1,1.3,1.2,2.3,2.5,2.3s2.3-1.2,2.3-2.5l0,0l-0.3-6
	C875.4,1105.4,874.3,1104.4,873,1104.4C873,1104.4,873,1104.4,873,1104.4L873,1104.4z"/>
</svg>
