<?xml version="1.0" encoding="utf-8"?>
<!-- Generator: Adobe Illustrator 24.2.1, SVG Export Plug-In . SVG Version: 6.00 Build 0)  -->
<svg version="1.1" id="Layer_1" xmlns="http://www.w3.org/2000/svg" xmlns:xlink="http://www.w3.org/1999/xlink" x="0px" y="0px"
	 viewBox="0 0 460.9 433.9" style="enable-background:new 0 0 460.9 433.9;" xml:space="preserve">
<style type="text/css">
	.st0{fill:#F0F2F1;}
	.st1{fill:#04B0C3;}
	.st2{fill:#FFFFFF;}
</style>
<g>
	<g id="b6277cf3-3d42-471d-8c3f-557f0c04aa1d">
		<path class="st0" d="M427.2,0H33.6C15.1,0,0,15.1,0,33.6c0,0,0,0,0,0v366.7c0,18.6,15.1,33.6,33.6,33.6h393.6
			c18.6,0,33.6-15.1,33.6-33.6V33.6C460.9,15.1,445.8,0,427.2,0z"/>
		<path class="st1" d="M135,61.6h190.9c13,0,23.6,10.6,23.6,23.6v163.4c0,13-10.6,23.6-23.6,23.6H135c-13,0-23.6-10.6-23.6-23.6
			V85.2C111.4,72.2,121.9,61.6,135,61.6z"/>
		<path class="st1" d="M164.6,305.4c0,1.5-0.2,3.1-0.8,4.5c-0.5,1.3-1.3,2.4-2.3,3.2c-1.1,0.9-2.4,1.6-3.8,2
			c-1.8,0.5-3.6,0.7-5.4,0.6h-2.9v8.8c0,0.2-0.1,0.3-0.2,0.5c-0.2,0.2-0.4,0.3-0.6,0.3c-0.4,0.1-0.7,0.2-1.1,0.2
			c-0.5,0-1,0.1-1.7,0.1c-0.7,0-1.3,0-1.7-0.1c-0.4,0-0.7-0.1-1.1-0.2c-0.2-0.1-0.4-0.2-0.6-0.3c-0.1-0.1-0.2-0.3-0.2-0.5v-25.7
			c-0.1-1.2,0.7-2.2,1.9-2.3c0.1,0,0.3,0,0.4,0h8.2c0.7,0,1.4,0,2.1,0.1s1.4,0.1,2,0.3c1.1,0.2,2.2,0.5,3.2,1c0.9,0.4,1.7,1,2.4,1.8
			c0.7,0.7,1.2,1.6,1.5,2.5C164.4,303.1,164.6,304.2,164.6,305.4z M157.2,305.9c0-0.9-0.2-1.8-0.7-2.6c-0.4-0.7-1.1-1.2-1.9-1.5
			c-0.4-0.1-0.7-0.2-1.1-0.2c-0.4,0-0.8-0.1-1.3-0.1h-2.9v9h3.2c0.8,0,1.5-0.1,2.2-0.4c0.5-0.2,1-0.6,1.4-1c0.4-0.4,0.6-0.9,0.8-1.5
			C157.1,307.1,157.2,306.5,157.2,305.9L157.2,305.9z"/>
		<path class="st1" d="M195.9,324.8c0,0.1-0.1,0.2-0.2,0.3c-0.2,0.1-0.4,0.2-0.6,0.2c-0.3,0-0.7,0.1-1.2,0.1s-1.2,0-2,0
			s-1.4,0-1.9-0.1c-0.4,0-0.8-0.1-1.1-0.2c-0.2-0.1-0.5-0.2-0.6-0.4c-0.1-0.2-0.2-0.3-0.3-0.5l-2.1-6.2c-0.2-0.6-0.5-1.3-0.8-1.9
			c-0.2-0.5-0.5-0.9-0.9-1.3c-0.3-0.3-0.7-0.6-1.1-0.8c-0.5-0.2-1.1-0.3-1.6-0.2h-2v10.5c0,0.2-0.1,0.3-0.2,0.5
			c-0.2,0.2-0.4,0.3-0.6,0.3c-0.4,0.1-0.7,0.2-1.1,0.2c-0.4,0-1,0.1-1.7,0.1s-1.3,0-1.7-0.1c-0.4,0-0.7-0.1-1.1-0.2
			c-0.2-0.1-0.4-0.2-0.6-0.3c-0.1-0.1-0.2-0.3-0.2-0.5v-26c0-0.6,0.2-1.1,0.6-1.5c0.4-0.3,0.9-0.5,1.4-0.5h9.2
			c1.6,0,3.2,0.1,4.7,0.5c1.2,0.3,2.3,0.8,3.4,1.5c0.9,0.6,1.7,1.5,2.2,2.5c0.5,1.1,0.8,2.3,0.8,3.5c0,0.9-0.1,1.8-0.4,2.7
			c-0.2,0.8-0.6,1.5-1.1,2.2c-0.5,0.7-1.1,1.2-1.8,1.7c-0.8,0.5-1.6,0.9-2.5,1.1c0.4,0.2,0.9,0.4,1.2,0.7c0.4,0.3,0.8,0.6,1.1,1
			c0.4,0.5,0.7,0.9,1,1.5c0.3,0.6,0.6,1.2,0.9,1.9l2.3,5.9c0.2,0.5,0.3,0.9,0.4,1.1C195.9,324.4,195.9,324.6,195.9,324.8z
			 M187.2,305.1c0-0.5-0.1-1-0.2-1.4c-0.2-0.4-0.4-0.8-0.8-1.1c-0.4-0.3-0.8-0.6-1.3-0.8c-0.7-0.2-1.5-0.3-2.3-0.3h-3.2v7.4h3
			c0.8,0,1.5-0.1,2.2-0.3c0.5-0.2,1-0.4,1.4-0.8c0.4-0.3,0.7-0.7,0.9-1.2C187.1,306.2,187.2,305.7,187.2,305.1L187.2,305.1z"/>
		<path class="st1" d="M228.8,314c0.1,1.8-0.2,3.6-0.8,5.3c-0.5,1.4-1.4,2.6-2.5,3.6c-1.2,1-2.5,1.8-4,2.3c-1.8,0.6-3.6,0.8-5.5,0.8
			c-1.8,0-3.6-0.2-5.3-0.7c-1.5-0.4-2.8-1.1-4-2.1c-1.1-0.9-1.9-2.1-2.4-3.5c-0.6-1.8-0.9-3.7-0.8-5.6v-16.8c0-0.2,0.1-0.3,0.2-0.4
			c0.2-0.1,0.3-0.3,0.6-0.3c0.3-0.1,0.7-0.2,1.1-0.2c0.6-0.1,1.1-0.1,1.7-0.1c0.6,0,1.2,0,1.7,0.1c0.4,0,0.7,0.1,1.1,0.2
			c0.2,0,0.4,0.1,0.6,0.3c0.1,0.1,0.2,0.3,0.2,0.4v16.4c-0.1,1.1,0.1,2.3,0.4,3.4c0.2,0.7,0.6,1.4,1.2,1.9c0.5,0.5,1.2,0.9,1.9,1.1
			c0.8,0.3,1.5,0.4,2.3,0.4c0.8,0,1.6-0.1,2.3-0.4c0.7-0.2,1.3-0.6,1.8-1.1c0.5-0.5,0.9-1.1,1.1-1.8c0.3-1,0.4-2.1,0.4-3.1v-16.7
			c0-0.2,0-0.3,0.1-0.4c0.2-0.2,0.3-0.3,0.6-0.3c0.3-0.1,0.7-0.2,1.1-0.2c0.6-0.1,1.1-0.1,1.7-0.1c0.6,0,1.2,0,1.8,0.1
			c0.3,0,0.7,0.1,1,0.2c0.2,0,0.4,0.2,0.5,0.3c0.1,0.1,0.2,0.3,0.1,0.4L228.8,314z"/>
		<path class="st1" d="M256.8,322.7c0,0.4,0,0.8-0.1,1.2c0,0.3-0.1,0.6-0.2,0.8c0,0.2-0.1,0.3-0.3,0.5c-0.1,0.1-0.3,0.1-0.4,0.1
			h-15.6c-0.5,0-1-0.2-1.4-0.5c-0.4-0.4-0.6-1-0.6-1.5v-24.9c0-0.6,0.2-1.1,0.6-1.5c0.4-0.3,0.9-0.5,1.4-0.5h15.5
			c0.1,0,0.3,0,0.4,0.1c0.1,0.1,0.2,0.3,0.3,0.4c0.1,0.3,0.1,0.5,0.2,0.8c0,0.4,0.1,0.9,0,1.3c0,0.4,0,0.8,0,1.2
			c0,0.3-0.1,0.5-0.2,0.8c-0.1,0.2-0.2,0.3-0.3,0.5c-0.1,0.1-0.3,0.1-0.4,0.1h-10.4v6.2h8.9c0.1,0,0.3,0,0.4,0.1
			c0.1,0.1,0.3,0.3,0.3,0.4c0.1,0.3,0.2,0.5,0.2,0.8c0,0.4,0.1,0.8,0.1,1.3c0,0.4,0,0.8-0.1,1.2c0,0.3-0.1,0.5-0.2,0.8
			c-0.1,0.2-0.2,0.3-0.3,0.4c-0.1,0.1-0.3,0.1-0.4,0.1h-8.9v7h10.5c0.1,0,0.3,0,0.4,0.1c0.1,0.1,0.2,0.3,0.3,0.4
			c0.1,0.3,0.2,0.5,0.2,0.8C256.7,321.9,256.8,322.3,256.8,322.7z"/>
		<path class="st1" d="M289.1,316.5c0,1-0.1,2-0.5,2.9c-0.3,0.8-0.8,1.6-1.3,2.3c-0.6,0.7-1.2,1.2-2,1.7c-0.8,0.5-1.7,0.8-2.5,1.1
			c-1,0.3-1.9,0.5-2.9,0.6c-1.1,0.1-2.3,0.2-3.5,0.2h-9.1c-0.5,0-1-0.2-1.4-0.5c-0.4-0.4-0.6-1-0.5-1.5v-24.9c0-0.6,0.2-1.1,0.5-1.5
			c0.4-0.3,0.9-0.5,1.4-0.5h9.2c1.6,0,3.2,0.1,4.7,0.4c1.2,0.2,2.3,0.7,3.3,1.3c0.9,0.6,1.6,1.4,2.1,2.3c0.5,1,0.8,2.2,0.7,3.4
			c0,0.7-0.1,1.4-0.3,2c-0.5,1.9-2,3.4-3.9,4c0.8,0.1,1.6,0.4,2.4,0.8c0.7,0.3,1.4,0.8,1.9,1.4c0.5,0.6,1,1.3,1.3,2
			C289,314.8,289.1,315.7,289.1,316.5z M280.2,304.8c0-0.5-0.1-1-0.2-1.4c-0.2-0.4-0.4-0.8-0.8-1.1c-0.4-0.3-0.8-0.5-1.3-0.6
			c-0.7-0.2-1.4-0.2-2-0.2h-3.8v6.9h4c0.7,0,1.4-0.1,2-0.3c0.4-0.2,0.8-0.4,1.2-0.8c0.3-0.3,0.5-0.7,0.7-1.1
			C280.1,305.7,280.2,305.2,280.2,304.8L280.2,304.8z M281.6,316.8c0-0.5-0.1-1.1-0.3-1.6c-0.2-0.5-0.5-0.9-0.9-1.2
			c-0.4-0.3-1-0.6-1.5-0.8c-0.8-0.2-1.7-0.3-2.5-0.3h-4.2v7.4h4.9c0.7,0,1.4-0.1,2.1-0.2c0.5-0.1,1-0.4,1.4-0.7
			c0.4-0.3,0.7-0.7,0.9-1.1C281.5,317.8,281.6,317.3,281.6,316.8L281.6,316.8z"/>
		<path class="st1" d="M321.8,322.8c0.2,0.6,0.3,1.1,0.4,1.5c0.1,0.3,0,0.6-0.2,0.8c-0.3,0.2-0.7,0.4-1.1,0.4
			c-0.5,0-1.3,0.1-2.3,0.1s-1.6,0-2.1,0c-0.4,0-0.8-0.1-1.1-0.1c-0.2,0-0.4-0.1-0.5-0.3c-0.1-0.2-0.2-0.4-0.3-0.6l-1.8-5.2h-11.2
			l-1.7,5c-0.1,0.2-0.2,0.4-0.3,0.6c-0.2,0.2-0.4,0.3-0.6,0.4c-0.4,0.1-0.7,0.2-1.1,0.2c-0.5,0-1.1,0-1.9,0c-0.6,0-1.3,0-1.9-0.1
			c-0.3,0-0.7-0.1-0.9-0.4c-0.2-0.3-0.2-0.6-0.2-0.9c0.1-0.5,0.2-1,0.4-1.5l9.1-25.1c0.1-0.3,0.2-0.5,0.4-0.7
			c0.2-0.2,0.4-0.3,0.7-0.4c0.4-0.1,0.9-0.2,1.3-0.2c0.6,0,1.3,0,2.2,0h1.9c0.5,0,1,0,1.4,0.1c0.3,0,0.6,0.1,0.9,0.1
			c0.2,0.1,0.4,0.1,0.6,0.3c0.2,0.1,0.3,0.2,0.4,0.4c0.1,0.2,0.2,0.4,0.2,0.6L321.8,322.8z M307.3,302.2L307.3,302.2l-4.1,11.9h8
			L307.3,302.2z"/>
		<path class="st1" d="M156,349.8c0,0.7,0,1.4-0.2,2.1c-0.2,0.4-0.4,0.6-0.7,0.6h-6.9v22.6c0,0.2-0.1,0.3-0.2,0.5
			c-0.2,0.2-0.4,0.3-0.6,0.3c-0.4,0.1-0.7,0.2-1.1,0.2c-0.5,0-1,0.1-1.7,0.1c-0.7,0-1.3,0-1.7-0.1c-0.4,0-0.7-0.1-1.1-0.2
			c-0.2-0.1-0.4-0.2-0.6-0.3c-0.1-0.1-0.2-0.3-0.2-0.5v-22.6h-6.9c-0.1,0-0.3,0-0.4-0.1c-0.1-0.1-0.2-0.3-0.3-0.5
			c-0.1-0.3-0.2-0.6-0.2-0.9c0-0.4,0-0.8,0-1.3s0-1,0-1.3c0-0.3,0.1-0.6,0.2-0.8c0.1-0.2,0.2-0.3,0.3-0.5c0.1-0.1,0.3-0.1,0.4-0.1
			h21c0.1,0,0.3,0,0.4,0.1c0.1,0.1,0.2,0.3,0.3,0.5c0.1,0.3,0.2,0.6,0.2,0.8C156,349,156,349.4,156,349.8z"/>
		<path class="st1" d="M181.1,373.4c0,0.4,0,0.8-0.1,1.2c0,0.3-0.1,0.6-0.2,0.8c0,0.2-0.1,0.3-0.3,0.5c-0.1,0.1-0.3,0.1-0.4,0.1
			h-15.6c-0.5,0-1-0.2-1.4-0.5c-0.4-0.4-0.6-1-0.6-1.5v-24.9c0-0.6,0.2-1.1,0.6-1.5c0.4-0.3,0.9-0.5,1.4-0.5h15.5
			c0.1,0,0.3,0,0.4,0.1c0.1,0.1,0.2,0.3,0.3,0.4c0.1,0.3,0.1,0.5,0.2,0.8c0,0.4,0.1,0.8,0.1,1.3s0,0.9-0.1,1.2
			c0,0.3-0.1,0.5-0.2,0.8c0,0.2-0.1,0.3-0.3,0.5c-0.1,0.1-0.3,0.1-0.4,0.1h-10.4v6.2h8.8c0.1,0,0.3,0,0.4,0.1
			c0.1,0.1,0.3,0.3,0.3,0.4c0.1,0.3,0.2,0.5,0.2,0.8c0,0.4,0.1,0.8,0.1,1.2c0,0.4,0,0.8-0.1,1.2c0,0.3-0.1,0.5-0.2,0.8
			c-0.1,0.2-0.2,0.3-0.3,0.4c-0.1,0.1-0.3,0.1-0.4,0.1h-8.8v7h10.5c0.1,0,0.3,0,0.4,0.1c0.1,0.1,0.2,0.3,0.3,0.4
			c0.1,0.3,0.1,0.5,0.2,0.8C181.1,372.5,181.1,372.9,181.1,373.4z"/>
		<path class="st1" d="M218.4,361.1c0,2.2-0.3,4.4-1,6.5c-0.6,1.8-1.5,3.5-2.8,4.9c-1.3,1.3-2.9,2.4-4.6,3c-2,0.7-4.2,1-6.3,1
			c-2.1,0-4.2-0.2-6.2-0.8c-1.7-0.5-3.2-1.4-4.5-2.6c-1.3-1.3-2.2-2.9-2.8-4.6c-0.7-2.2-1-4.5-0.9-6.9c0-2.2,0.3-4.3,1-6.3
			c0.6-1.8,1.6-3.4,2.9-4.8c1.3-1.3,2.9-2.4,4.6-3c2-0.7,4.2-1.1,6.3-1c2,0,4.1,0.3,6,0.9c1.7,0.5,3.2,1.4,4.5,2.6
			c1.3,1.3,2.3,2.8,2.8,4.6C218.1,356.6,218.4,358.9,218.4,361.1z M211.1,361.4c0-1.3-0.1-2.6-0.4-3.9c-0.2-1.1-0.6-2.1-1.2-3
			c-0.6-0.8-1.3-1.5-2.2-1.9c-1.1-0.5-2.2-0.7-3.4-0.6c-1.2,0-2.4,0.2-3.5,0.8c-0.9,0.5-1.7,1.2-2.2,2c-0.6,0.9-1,1.9-1.2,3
			c-0.3,1.2-0.4,2.4-0.4,3.6c0,1.4,0.1,2.8,0.4,4.1c0.2,1.1,0.6,2.1,1.2,3c0.5,0.8,1.3,1.5,2.2,1.9c1.1,0.5,2.2,0.7,3.4,0.6
			c1.2,0,2.4-0.2,3.4-0.8c0.9-0.5,1.7-1.2,2.3-2c0.6-0.9,1-1.9,1.2-3C210.9,363.9,211.1,362.7,211.1,361.4z M205.6,336.5
			c0.1-0.2,0.3-0.4,0.5-0.6c0.2-0.2,0.5-0.3,0.8-0.4c0.4-0.1,0.7-0.2,1.1-0.2c0.4,0,1,0,1.6,0c0.7,0,1.3,0,2,0.1
			c0.4,0,0.7,0.2,1,0.4c0.2,0.1,0.3,0.3,0.2,0.5c-0.1,0.2-0.2,0.5-0.4,0.6l-5.7,5.9c-0.1,0.2-0.3,0.3-0.5,0.5
			c-0.2,0.1-0.4,0.2-0.6,0.3c-0.3,0.1-0.6,0.1-0.9,0.2c-0.5,0-0.9,0.1-1.4,0.1c-0.5,0-1,0-1.5-0.1c-0.3,0-0.5-0.1-0.8-0.3
			c-0.1-0.1-0.2-0.3-0.2-0.5c0.1-0.2,0.2-0.5,0.3-0.7L205.6,336.5z"/>
		<path class="st1" d="M250.1,375.4c0,0.1-0.1,0.3-0.2,0.3c-0.2,0.1-0.4,0.2-0.6,0.2c-0.4,0.1-0.8,0.1-1.2,0.1c-0.5,0-1.2,0-2,0
			s-1.4,0-1.9-0.1c-0.4,0-0.8-0.1-1.1-0.2c-0.2-0.1-0.5-0.2-0.6-0.4c-0.1-0.2-0.2-0.3-0.3-0.5l-2.1-6.2c-0.2-0.6-0.4-1.2-0.7-1.8
			c-0.2-0.5-0.5-0.9-0.9-1.3c-0.3-0.3-0.7-0.6-1.1-0.8c-0.5-0.2-1.1-0.3-1.6-0.2h-2v10.5c0,0.2,0,0.3-0.2,0.5
			c-0.2,0.2-0.4,0.3-0.6,0.3c-0.4,0.1-0.7,0.2-1.1,0.2c-0.5,0-1,0.1-1.7,0.1s-1.3,0-1.7-0.1c-0.4,0-0.7-0.1-1.1-0.2
			c-0.2-0.1-0.4-0.2-0.6-0.3c-0.1-0.1-0.2-0.3-0.2-0.5v-26.1c0-0.6,0.2-1.1,0.6-1.5c0.4-0.3,0.9-0.5,1.4-0.5h9.3
			c1.6,0,3.2,0.1,4.7,0.5c1.2,0.3,2.3,0.8,3.4,1.4c0.9,0.6,1.7,1.5,2.2,2.5c0.5,1.1,0.8,2.3,0.8,3.5c0,0.9-0.1,1.8-0.4,2.7
			c-0.2,0.8-0.6,1.5-1.1,2.2c-0.5,0.7-1.1,1.2-1.8,1.7c-0.8,0.5-1.6,0.9-2.5,1.2c0.4,0.2,0.9,0.4,1.3,0.7c0.4,0.3,0.8,0.6,1.1,1
			c0.4,0.4,0.7,0.9,1,1.4c0.3,0.6,0.6,1.2,0.9,1.9l2.3,5.9c0.2,0.5,0.3,0.9,0.4,1.2C250.2,375,250.2,375.2,250.1,375.4z
			 M241.5,355.7c0-0.5-0.1-1-0.2-1.4c-0.1-0.4-0.4-0.8-0.7-1.1c-0.4-0.3-0.8-0.6-1.3-0.8c-0.7-0.2-1.5-0.3-2.3-0.3h-3.2v7.5h3
			c0.8,0,1.5-0.1,2.2-0.3c0.5-0.2,1-0.4,1.4-0.8c0.4-0.3,0.7-0.7,0.9-1.2C241.4,356.9,241.5,356.3,241.5,355.7z"/>
		<path class="st1" d="M264.8,375.1c0,0.2,0,0.3-0.2,0.5c-0.2,0.2-0.4,0.3-0.6,0.3c-0.4,0.1-0.7,0.2-1.1,0.2c-0.4,0-1,0.1-1.7,0.1
			c-0.7,0-1.3,0-1.7-0.1c-0.4,0-0.7-0.1-1.1-0.2c-0.2-0.1-0.4-0.2-0.6-0.3c-0.1-0.1-0.2-0.3-0.2-0.5v-27.2c0-0.2,0.1-0.3,0.2-0.4
			c0.2-0.1,0.4-0.2,0.6-0.3c0.4-0.1,0.7-0.2,1.1-0.2c0.6-0.1,1.1-0.1,1.7-0.1c0.6,0,1.1,0,1.7,0.1c0.4,0,0.7,0.1,1.1,0.2
			c0.2,0,0.4,0.1,0.6,0.3c0.1,0.1,0.2,0.3,0.2,0.4V375.1z"/>
		<path class="st1" d="M295.4,371.5c0,0.6,0,1.2-0.1,1.8c-0.1,0.4-0.2,0.7-0.5,1c-0.3,0.3-0.7,0.6-1.1,0.8c-0.5,0.3-1.1,0.5-1.7,0.7
			c-0.7,0.2-1.5,0.4-2.2,0.5c-0.9,0.1-1.8,0.2-2.7,0.2c-2,0-3.9-0.3-5.8-0.9c-1.7-0.6-3.2-1.5-4.4-2.8c-1.3-1.3-2.2-2.9-2.8-4.6
			c-0.7-2.1-1-4.3-1-6.5c0-2.2,0.3-4.5,1-6.6c0.6-1.8,1.6-3.4,2.9-4.8c1.3-1.3,2.8-2.3,4.5-2.9c1.8-0.7,3.8-1,5.8-1
			c0.8,0,1.5,0.1,2.3,0.2c0.7,0.1,1.4,0.3,2.1,0.5c0.6,0.2,1.2,0.4,1.7,0.7c0.4,0.2,0.8,0.5,1.1,0.8c0.3,0.3,0.5,0.6,0.5,1
			c0.1,0.7,0.2,1.3,0.2,2c0,0.4,0,0.9-0.1,1.3c0,0.3-0.1,0.6-0.2,0.8c-0.1,0.2-0.2,0.3-0.3,0.5c-0.1,0.1-0.2,0.1-0.4,0.1
			c-0.3,0-0.6-0.2-0.8-0.4c-0.4-0.3-0.8-0.6-1.3-0.8c-0.6-0.3-1.2-0.6-1.9-0.8c-0.9-0.3-1.8-0.4-2.7-0.4c-1,0-2.1,0.2-3,0.7
			c-0.9,0.4-1.6,1.1-2.2,1.9c-0.6,0.9-1.1,1.9-1.4,2.9c-0.3,1.2-0.5,2.5-0.5,3.8c0,1.4,0.2,2.9,0.5,4.2c0.3,1.1,0.8,2.1,1.5,2.9
			c0.6,0.7,1.5,1.3,2.4,1.7c1,0.4,2,0.5,3.1,0.5c0.8,0,1.7-0.1,2.5-0.3c0.6-0.2,1.2-0.4,1.8-0.7c0.5-0.3,0.9-0.5,1.3-0.7
			c0.3-0.2,0.5-0.3,0.9-0.3c0.1,0,0.2,0,0.3,0.1c0.1,0.1,0.2,0.3,0.2,0.4c0.1,0.3,0.1,0.6,0.1,0.9
			C295.3,370.4,295.4,370.9,295.4,371.5z"/>
		<path class="st1" d="M328.4,373.4c0.2,0.5,0.3,1,0.4,1.5c0.1,0.3,0,0.6-0.2,0.8c-0.3,0.2-0.7,0.4-1.1,0.4c-0.5,0-1.3,0.1-2.3,0.1
			s-1.6,0-2.1,0c-0.4,0-0.8-0.1-1.1-0.1c-0.2,0-0.4-0.1-0.5-0.3c-0.1-0.2-0.2-0.4-0.2-0.6l-1.8-5.2h-11.2l-1.7,5
			c-0.1,0.2-0.2,0.4-0.3,0.6c-0.1,0.2-0.3,0.3-0.6,0.4c-0.4,0.1-0.7,0.2-1.1,0.2c-0.5,0-1.1,0-1.9,0c-0.6,0-1.3,0-1.9-0.1
			c-0.3,0-0.7-0.1-0.9-0.4c-0.2-0.2-0.2-0.6-0.2-0.9c0.1-0.5,0.2-1,0.4-1.5l9.1-25.1c0.1-0.3,0.2-0.5,0.4-0.7
			c0.2-0.2,0.4-0.3,0.7-0.4c0.4-0.1,0.9-0.2,1.3-0.2c0.6,0,1.3,0,2.2,0h1.9c0.5,0,1,0,1.4,0.1c0.3,0,0.6,0.1,0.9,0.1
			c0.2,0.1,0.4,0.1,0.6,0.3c0.1,0.1,0.3,0.2,0.4,0.4c0.1,0.2,0.2,0.4,0.2,0.6L328.4,373.4z M313.9,352.8L313.9,352.8l-4,11.9h8
			L313.9,352.8z"/>
		<path class="st2" d="M278.9,173.5V156h-11.2c-0.9-4-2.5-7.9-4.7-11.4l7.9-7.9l-12.4-12.4l-7.9,7.9c-3.5-2.2-7.4-3.8-11.4-4.7
			v-11.2h-17.5v11.2c-4,0.9-7.9,2.5-11.4,4.7l-7.9-7.9L190,136.7l7.9,7.9c-2.2,3.5-3.8,7.4-4.8,11.4H182v17.5h11.2
			c0.9,4,2.5,7.9,4.7,11.4l-7.9,7.9l12.4,12.4l7.9-7.9c3.5,2.2,7.3,3.7,11.4,4.7v11.2h17.5V202c4-0.9,7.9-2.5,11.4-4.7l7.9,7.9
			l12.4-12.4l-7.9-7.9c2.2-3.5,3.8-7.4,4.7-11.4L278.9,173.5z M230.4,185.2c-11.3,0-20.5-9.2-20.5-20.5c0-11.3,9.2-20.5,20.5-20.5
			c11.3,0,20.5,9.2,20.5,20.5c0,0,0,0,0,0C250.9,176,241.7,185.2,230.4,185.2C230.4,185.2,230.4,185.2,230.4,185.2z M230.4,172.2
			c-4.1,0-7.5-3.4-7.5-7.5s3.4-7.5,7.5-7.5s7.5,3.4,7.5,7.5v0C238,168.9,234.6,172.2,230.4,172.2
			C230.5,172.2,230.4,172.3,230.4,172.2L230.4,172.2z"/>
	</g>
</g>
</svg>
