<svg xmlns="http://www.w3.org/2000/svg" viewBox="0 0 460.86 433.94"><g style="isolation:isolate"><g id="b6277cf3-3d42-471d-8c3f-557f0c04aa1d" data-name="Capa 1"><path d="M427.25,0H33.62A33.62,33.62,0,0,0,0,33.62v366.7a33.62,33.62,0,0,0,33.62,33.62H427.25a33.62,33.62,0,0,0,33.61-33.62V33.62A33.62,33.62,0,0,0,427.25,0Z" transform="translate(0)" fill="#f0f2f1" style="mix-blend-mode:multiply"/><rect x="111.39" y="61.62" width="238.09" height="210.49" rx="23.57" fill="#04b0c3"/><path d="M164.57,305.36a11.86,11.86,0,0,1-.8,4.53,8.35,8.35,0,0,1-2.34,3.24,10.23,10.23,0,0,1-3.79,1.95,19.28,19.28,0,0,1-5.38.65h-2.88v8.77a.67.67,0,0,1-.17.46,1.15,1.15,0,0,1-.57.32,5.09,5.09,0,0,1-1.09.17q-.68.06-1.68.06c-.69,0-1.27,0-1.73-.06a4.89,4.89,0,0,1-1.09-.17,1.27,1.27,0,0,1-.56-.32.66.66,0,0,1-.16-.46V298.75a2.11,2.11,0,0,1,2.28-2.32h8.17c.73,0,1.43,0,2.13.08s1.36.15,2,.27a11.3,11.3,0,0,1,3.21,1,8.06,8.06,0,0,1,2.4,1.79,7.48,7.48,0,0,1,1.51,2.51A9.54,9.54,0,0,1,164.57,305.36Zm-7.38.52a4.76,4.76,0,0,0-.66-2.56,3.47,3.47,0,0,0-1.92-1.47,9.14,9.14,0,0,0-1.09-.21,12.1,12.1,0,0,0-1.26-.06h-2.88v9h3.18a5.59,5.59,0,0,0,2.21-.36,3.66,3.66,0,0,0,1.36-1,3.92,3.92,0,0,0,.8-1.48A6.26,6.26,0,0,0,157.19,305.88Z" transform="translate(0)" fill="#04b0c3"/><path d="M195.9,324.83a.4.4,0,0,1-.16.32,1.24,1.24,0,0,1-.6.21c-.29,0-.7.08-1.22.11s-1.2,0-2,0-1.4,0-1.88-.06a5,5,0,0,1-1.14-.19,1.43,1.43,0,0,1-.63-.35,1.49,1.49,0,0,1-.27-.55l-2.09-6.18a17.46,17.46,0,0,0-.78-1.86,4.91,4.91,0,0,0-.9-1.29,3.29,3.29,0,0,0-1.14-.77,4.8,4.8,0,0,0-1.65-.24h-2V324.5a.67.67,0,0,1-.17.46,1.26,1.26,0,0,1-.57.32,5.09,5.09,0,0,1-1.09.17c-.45,0-1,.06-1.69.06s-1.26,0-1.73-.06a4.88,4.88,0,0,1-1.08-.17,1.21,1.21,0,0,1-.56-.32.67.67,0,0,1-.17-.46V298.45a2,2,0,0,1,.56-1.53,2,2,0,0,1,1.38-.49h9.25a21.1,21.1,0,0,1,4.7.46,9.69,9.69,0,0,1,3.36,1.45,6.78,6.78,0,0,1,2.21,2.49,7.65,7.65,0,0,1,.79,3.55,9.58,9.58,0,0,1-.36,2.7,6.77,6.77,0,0,1-1.07,2.19,7.61,7.61,0,0,1-1.79,1.69,9.08,9.08,0,0,1-2.47,1.15,6,6,0,0,1,1.25.68,6.43,6.43,0,0,1,1.08,1,10.13,10.13,0,0,1,1,1.45,16.8,16.8,0,0,1,.9,1.89l2.31,5.91c.19.51.31.89.39,1.15A2.58,2.58,0,0,1,195.9,324.83Zm-8.68-19.69a4.25,4.25,0,0,0-.23-1.41,2.87,2.87,0,0,0-.75-1.13,3.64,3.64,0,0,0-1.33-.75,7.65,7.65,0,0,0-2.29-.27h-3.21V309h3a7.31,7.31,0,0,0,2.25-.28,4,4,0,0,0,1.43-.77,3.21,3.21,0,0,0,.85-1.21A4.4,4.4,0,0,0,187.22,305.14Z" transform="translate(0)" fill="#04b0c3"/><path d="M228.79,314a14.38,14.38,0,0,1-.84,5.29,9.62,9.62,0,0,1-2.47,3.58,10.91,10.91,0,0,1-4,2.26,17.33,17.33,0,0,1-5.48.79,19,19,0,0,1-5.33-.69,10.65,10.65,0,0,1-4-2.08,8.74,8.74,0,0,1-2.45-3.49,15.44,15.44,0,0,1-.83-5.61V297.25a.57.57,0,0,1,.16-.42,1.21,1.21,0,0,1,.56-.3,4.72,4.72,0,0,1,1.07-.19,16.13,16.13,0,0,1,1.69-.07,16.54,16.54,0,0,1,1.74.07,4.93,4.93,0,0,1,1.09.19,1.15,1.15,0,0,1,.57.3.57.57,0,0,1,.17.42v16.36a10.44,10.44,0,0,0,.41,3.4,4.76,4.76,0,0,0,1.18,1.9,4.9,4.9,0,0,0,1.85,1.11,7.07,7.07,0,0,0,2.33.37,6.31,6.31,0,0,0,2.3-.4,4.94,4.94,0,0,0,1.8-1.14,4.88,4.88,0,0,0,1.13-1.81,9.78,9.78,0,0,0,.38-3.1V297.25a.6.6,0,0,1,.15-.42,1.11,1.11,0,0,1,.56-.3,4.84,4.84,0,0,1,1.06-.19,15.51,15.51,0,0,1,1.69-.07,16,16,0,0,1,1.75.07,4.74,4.74,0,0,1,1,.19,1.13,1.13,0,0,1,.54.3.6.6,0,0,1,.15.42Z" transform="translate(0)" fill="#04b0c3"/><path d="M256.75,322.7a8.66,8.66,0,0,1-.07,1.24,3.48,3.48,0,0,1-.18.82.89.89,0,0,1-.28.45.64.64,0,0,1-.4.13H240.2a2,2,0,0,1-1.38-.49,1.91,1.91,0,0,1-.56-1.52V298.45a2,2,0,0,1,.56-1.53,2,2,0,0,1,1.38-.49h15.51a.7.7,0,0,1,.4.12.9.9,0,0,1,.29.43,3.83,3.83,0,0,1,.16.81,11.74,11.74,0,0,1,.05,1.28,10.78,10.78,0,0,1-.05,1.23,4.32,4.32,0,0,1-.16.8,1,1,0,0,1-.29.45.64.64,0,0,1-.4.13H245.29v6.21h8.85a.72.72,0,0,1,.4.12.92.92,0,0,1,.32.43,2.92,2.92,0,0,1,.17.81,11.31,11.31,0,0,1,.06,1.26,10.49,10.49,0,0,1-.06,1.21,2.92,2.92,0,0,1-.17.8.84.84,0,0,1-.32.42.73.73,0,0,1-.4.13h-8.85v7h10.53a.7.7,0,0,1,.4.12.82.82,0,0,1,.28.44,3.51,3.51,0,0,1,.18.81A8.75,8.75,0,0,1,256.75,322.7Z" transform="translate(0)" fill="#04b0c3"/><path d="M289.09,316.55a8.46,8.46,0,0,1-.47,2.91,7.2,7.2,0,0,1-1.34,2.26,7.81,7.81,0,0,1-2,1.66,13,13,0,0,1-2.54,1.13,14.91,14.91,0,0,1-2.93.64,28,28,0,0,1-3.46.19h-9.09a2,2,0,0,1-1.38-.49,1.91,1.91,0,0,1-.55-1.52V298.45a2,2,0,0,1,.55-1.53,2,2,0,0,1,1.38-.49h9.17a23.85,23.85,0,0,1,4.73.41,9.39,9.39,0,0,1,3.33,1.31,6.19,6.19,0,0,1,2.1,2.28,7.08,7.08,0,0,1,.73,3.35,6.81,6.81,0,0,1-.28,2,5.89,5.89,0,0,1-3.91,4,9,9,0,0,1,2.37.75,6.43,6.43,0,0,1,1.89,1.39,6.29,6.29,0,0,1,1.27,2A7.1,7.1,0,0,1,289.09,316.55Zm-8.87-11.79a3.89,3.89,0,0,0-.25-1.41,2.7,2.7,0,0,0-.76-1.07,3.55,3.55,0,0,0-1.27-.65,7.83,7.83,0,0,0-2.05-.22h-3.76v6.86h4a5.5,5.5,0,0,0,2-.28,3.49,3.49,0,0,0,1.17-.76,3.17,3.17,0,0,0,.7-1.12A4.07,4.07,0,0,0,280.22,304.76Zm1.36,12a4.05,4.05,0,0,0-.29-1.56,3,3,0,0,0-.87-1.19,4.19,4.19,0,0,0-1.51-.75,9.9,9.9,0,0,0-2.53-.26h-4.25v7.36H277a7.2,7.2,0,0,0,2.07-.25,3.78,3.78,0,0,0,1.35-.71,3.1,3.1,0,0,0,.86-1.13A3.63,3.63,0,0,0,281.58,316.74Z" transform="translate(0)" fill="#04b0c3"/><path d="M321.79,322.76c.2.63.33,1.13.41,1.5a.85.85,0,0,1-.2.83,1.86,1.86,0,0,1-1.1.35c-.53,0-1.3.07-2.3.07s-1.59,0-2.1,0a7.29,7.29,0,0,1-1.14-.14.88.88,0,0,1-.53-.3,1.72,1.72,0,0,1-.26-.56l-1.77-5.17H301.64l-1.66,5a2.46,2.46,0,0,1-.31.61,1.15,1.15,0,0,1-.58.37,4.4,4.4,0,0,1-1.11.18c-.48,0-1.11,0-1.89,0a18,18,0,0,1-1.9-.08,1.44,1.44,0,0,1-.92-.38,1.08,1.08,0,0,1-.17-.88,11.86,11.86,0,0,1,.4-1.49l9.09-25.08a2.06,2.06,0,0,1,.4-.69,1.45,1.45,0,0,1,.72-.4,7.24,7.24,0,0,1,1.33-.19c.57,0,1.31-.05,2.24-.05h1.92c.53,0,1,0,1.36.07a6.87,6.87,0,0,1,.91.15,1.73,1.73,0,0,1,.58.26,1.24,1.24,0,0,1,.37.39,3.72,3.72,0,0,1,.25.56ZM307.28,302.2h-.06l-4,11.87h8Z" transform="translate(0)" fill="#04b0c3"/><path d="M141,349.82a6.94,6.94,0,0,1-.23,2.14c-.16.41-.38.61-.67.61h-6.94v22.57a.63.63,0,0,1-.18.46,1.28,1.28,0,0,1-.57.32,4.88,4.88,0,0,1-1.08.17q-.68.06-1.71.06c-.71,0-1.29,0-1.73-.06a4.77,4.77,0,0,1-1.06-.17,1.17,1.17,0,0,1-.57-.32.63.63,0,0,1-.18-.46V352.57h-6.94a.64.64,0,0,1-.4-.13,1.06,1.06,0,0,1-.3-.47,3.66,3.66,0,0,1-.18-.85c0-.36,0-.79,0-1.3s0-1,0-1.32a3.56,3.56,0,0,1,.18-.84,1,1,0,0,1,.3-.45.65.65,0,0,1,.4-.14h21a.59.59,0,0,1,.38.14,1.06,1.06,0,0,1,.29.45,3.16,3.16,0,0,1,.17.84A12.23,12.23,0,0,1,141,349.82Z" transform="translate(0)" fill="#04b0c3"/><path d="M166.11,373.34a10.29,10.29,0,0,1-.07,1.24,4.07,4.07,0,0,1-.18.82.89.89,0,0,1-.28.45.65.65,0,0,1-.4.14H149.55a2,2,0,0,1-1.37-.49,2,2,0,0,1-.56-1.53V349.09a2,2,0,0,1,.56-1.53,2,2,0,0,1,1.37-.49h15.52a.64.64,0,0,1,.4.13.8.8,0,0,1,.28.42,3.33,3.33,0,0,1,.17.81c0,.35.05.78.05,1.28s0,.9-.05,1.23a3.58,3.58,0,0,1-.17.8.89.89,0,0,1-.28.45.65.65,0,0,1-.4.14H154.65v6.2h8.84a.74.74,0,0,1,.41.13.9.9,0,0,1,.32.42,2.92,2.92,0,0,1,.17.82,11,11,0,0,1,.06,1.25,10.49,10.49,0,0,1-.06,1.21,2.83,2.83,0,0,1-.17.8,1,1,0,0,1-.32.43.73.73,0,0,1-.41.12h-8.84v7h10.53a.7.7,0,0,1,.4.12.86.86,0,0,1,.28.44,4.07,4.07,0,0,1,.18.82A10.37,10.37,0,0,1,166.11,373.34Z" transform="translate(0)" fill="#04b0c3"/><path d="M198.2,375.47a.41.41,0,0,1-.16.33,1.38,1.38,0,0,1-.6.2,12.1,12.1,0,0,1-1.22.11c-.53,0-1.2,0-2,0s-1.4,0-1.88-.06a4.48,4.48,0,0,1-1.14-.19,1.34,1.34,0,0,1-.63-.35,1.44,1.44,0,0,1-.27-.54l-2.09-6.18a16.86,16.86,0,0,0-.78-1.87,4.91,4.91,0,0,0-.9-1.29,3,3,0,0,0-1.14-.76,4.55,4.55,0,0,0-1.65-.25h-2v10.48a.67.67,0,0,1-.17.46,1.17,1.17,0,0,1-.57.32,5.09,5.09,0,0,1-1.09.17c-.45,0-1,.06-1.69.06s-1.26,0-1.72-.06a4.89,4.89,0,0,1-1.09-.17,1.13,1.13,0,0,1-.56-.32.66.66,0,0,1-.16-.46V349.09a2,2,0,0,1,.55-1.53,2,2,0,0,1,1.38-.49h9.25a20.47,20.47,0,0,1,4.7.47A9.68,9.68,0,0,1,193.9,349a6.78,6.78,0,0,1,2.21,2.49,7.65,7.65,0,0,1,.79,3.55,9.58,9.58,0,0,1-.36,2.7,6.67,6.67,0,0,1-1.07,2.19,7.56,7.56,0,0,1-1.78,1.69,9.63,9.63,0,0,1-2.48,1.16,6,6,0,0,1,1.25.67,6.12,6.12,0,0,1,1.08,1,10,10,0,0,1,1,1.44,16.8,16.8,0,0,1,.9,1.89l2.31,5.91c.19.51.31.89.39,1.16A2.44,2.44,0,0,1,198.2,375.47Zm-8.68-19.69a4.3,4.3,0,0,0-.23-1.41,2.87,2.87,0,0,0-.75-1.13,3.56,3.56,0,0,0-1.33-.75,7.65,7.65,0,0,0-2.29-.27h-3.21v7.46h3a7.67,7.67,0,0,0,2.25-.27,4,4,0,0,0,1.43-.78,3.21,3.21,0,0,0,.85-1.21A4.36,4.36,0,0,0,189.52,355.78Z" transform="translate(0)" fill="#04b0c3"/><path d="M233,361.15a20.54,20.54,0,0,1-1,6.52,13,13,0,0,1-2.84,4.86,12.21,12.21,0,0,1-4.65,3,18,18,0,0,1-6.33,1,21.44,21.44,0,0,1-6.19-.82,10.92,10.92,0,0,1-4.51-2.6,11.38,11.38,0,0,1-2.76-4.63,21.88,21.88,0,0,1-.94-6.85,19.13,19.13,0,0,1,1-6.34,13.25,13.25,0,0,1,2.88-4.81,12.41,12.41,0,0,1,4.64-3,17.72,17.72,0,0,1,6.33-1,20,20,0,0,1,6,.85,11.45,11.45,0,0,1,4.51,2.62,11.64,11.64,0,0,1,2.83,4.57A20.08,20.08,0,0,1,233,361.15Zm-7.35.32a19.49,19.49,0,0,0-.37-3.92,8.44,8.44,0,0,0-1.21-3,5.65,5.65,0,0,0-2.22-1.89,7.89,7.89,0,0,0-3.36-.65,7.2,7.2,0,0,0-3.46.75,6.14,6.14,0,0,0-2.25,2,8.55,8.55,0,0,0-1.22,3,16.36,16.36,0,0,0-.37,3.57,20.3,20.3,0,0,0,.37,4.11,8.23,8.23,0,0,0,1.21,3,5.42,5.42,0,0,0,2.2,1.88,7.82,7.82,0,0,0,3.35.64,7.2,7.2,0,0,0,3.42-.75,6.28,6.28,0,0,0,2.27-2,8.61,8.61,0,0,0,1.25-3A17.17,17.17,0,0,0,225.65,361.47Zm-5.42-24.91a2.51,2.51,0,0,1,.54-.58,2.19,2.19,0,0,1,.75-.37,5.15,5.15,0,0,1,1.1-.18c.44,0,1,0,1.61,0a10.89,10.89,0,0,1,2,.14,2.24,2.24,0,0,1,1,.37.49.49,0,0,1,.21.53,1.45,1.45,0,0,1-.41.62l-5.66,5.86a2.3,2.3,0,0,1-.49.45,3.82,3.82,0,0,1-.64.3,4.11,4.11,0,0,1-.91.17,13,13,0,0,1-1.37.06,11.9,11.9,0,0,1-1.51-.08,1.66,1.66,0,0,1-.77-.26.44.44,0,0,1-.17-.45,2,2,0,0,1,.33-.66Z" transform="translate(0)" fill="#04b0c3"/><path d="M264.74,375.47a.41.41,0,0,1-.16.33,1.38,1.38,0,0,1-.6.2,12.06,12.06,0,0,1-1.23.11c-.52,0-1.2,0-2,0s-1.41,0-1.88-.06a4.48,4.48,0,0,1-1.14-.19,1.34,1.34,0,0,1-.63-.35,1.2,1.2,0,0,1-.27-.54l-2.1-6.18A15.22,15.22,0,0,0,254,367a5.43,5.43,0,0,0-.9-1.29,3.08,3.08,0,0,0-1.15-.76,4.45,4.45,0,0,0-1.64-.25h-2v10.48a.66.66,0,0,1-.16.46,1.17,1.17,0,0,1-.57.32,5.32,5.32,0,0,1-1.09.17c-.46,0-1,.06-1.69.06s-1.27,0-1.73-.06a5,5,0,0,1-1.09-.17,1.18,1.18,0,0,1-.56-.32.71.71,0,0,1-.16-.46V349.09a2,2,0,0,1,.56-1.53,2,2,0,0,1,1.37-.49h9.26a20.53,20.53,0,0,1,4.7.47,9.77,9.77,0,0,1,3.36,1.44,6.76,6.76,0,0,1,2.2,2.49,7.53,7.53,0,0,1,.79,3.55,9.59,9.59,0,0,1-.35,2.7,6.69,6.69,0,0,1-1.08,2.19,7.37,7.37,0,0,1-1.78,1.69,9.47,9.47,0,0,1-2.48,1.16,6.06,6.06,0,0,1,1.26.67,5.75,5.75,0,0,1,1.07,1,9.25,9.25,0,0,1,1,1.44,16.8,16.8,0,0,1,.9,1.89l2.31,5.91c.18.51.31.89.38,1.16A2.55,2.55,0,0,1,264.74,375.47Zm-8.68-19.69a4.05,4.05,0,0,0-.24-1.41,2.75,2.75,0,0,0-.74-1.13,3.61,3.61,0,0,0-1.34-.75,7.6,7.6,0,0,0-2.29-.27h-3.21v7.46h3a7.64,7.64,0,0,0,2.24-.27,4,4,0,0,0,1.43-.78,3.23,3.23,0,0,0,.86-1.21A4.36,4.36,0,0,0,256.06,355.78Z" transform="translate(0)" fill="#04b0c3"/><path d="M279.38,375.14a.66.66,0,0,1-.16.46,1.16,1.16,0,0,1-.58.32,5.54,5.54,0,0,1-1.11.17q-.67.06-1.68.06c-.69,0-1.27,0-1.72-.06a5.2,5.2,0,0,1-1.09-.17,1.17,1.17,0,0,1-.57-.32.66.66,0,0,1-.16-.46V347.89a.61.61,0,0,1,.17-.42,1.37,1.37,0,0,1,.57-.3,5.62,5.62,0,0,1,1.08-.19,16.37,16.37,0,0,1,1.72-.07,15.8,15.8,0,0,1,1.68.07,6.15,6.15,0,0,1,1.11.19,1.24,1.24,0,0,1,.58.3.6.6,0,0,1,.16.42Z" transform="translate(0)" fill="#04b0c3"/><path d="M310,371.52a9.14,9.14,0,0,1-.13,1.77,1.93,1.93,0,0,1-.51,1,5,5,0,0,1-1.09.77,9.64,9.64,0,0,1-1.68.71,13.42,13.42,0,0,1-2.22.53,15.93,15.93,0,0,1-2.68.21,16.79,16.79,0,0,1-5.75-.93,11.46,11.46,0,0,1-4.4-2.77,12.43,12.43,0,0,1-2.81-4.63,19.5,19.5,0,0,1-1-6.46,19,19,0,0,1,1.05-6.56,13.46,13.46,0,0,1,2.92-4.79,12.16,12.16,0,0,1,4.47-2.93,16.23,16.23,0,0,1,5.78-1,13.56,13.56,0,0,1,2.3.19,14.87,14.87,0,0,1,2.09.51,9.18,9.18,0,0,1,1.73.72,4.83,4.83,0,0,1,1.15.79,2.19,2.19,0,0,1,.54,1,9.31,9.31,0,0,1,.16,2,9.45,9.45,0,0,1-.07,1.31,4.4,4.4,0,0,1-.17.84,1,1,0,0,1-.29.47.63.63,0,0,1-.39.13,1.52,1.52,0,0,1-.82-.36,10.38,10.38,0,0,0-1.28-.81,10.88,10.88,0,0,0-1.91-.8,8.37,8.37,0,0,0-2.66-.37,6.44,6.44,0,0,0-3,.67,6,6,0,0,0-2.19,1.89,9.05,9.05,0,0,0-1.35,2.94,14.45,14.45,0,0,0-.46,3.78,14.72,14.72,0,0,0,.54,4.24,7.88,7.88,0,0,0,1.54,2.91,5.85,5.85,0,0,0,2.37,1.66,8.33,8.33,0,0,0,3.06.53,7.93,7.93,0,0,0,2.47-.34,11.71,11.71,0,0,0,1.81-.73c.51-.27.94-.51,1.29-.74a1.84,1.84,0,0,1,.86-.34.52.52,0,0,1,.33.11.75.75,0,0,1,.21.41,4.5,4.5,0,0,1,.13.86C309.94,370.41,310,370.9,310,371.52Z" transform="translate(0)" fill="#04b0c3"/><path d="M343,373.4a14.58,14.58,0,0,1,.41,1.5.85.85,0,0,1-.19.83,1.82,1.82,0,0,1-1.1.35c-.54.05-1.31.07-2.31.07s-1.58,0-2.09,0a6.25,6.25,0,0,1-1.15-.14.88.88,0,0,1-.53-.3,1.73,1.73,0,0,1-.25-.56L334,369.94H322.83l-1.66,5a2,2,0,0,1-.31.61,1.16,1.16,0,0,1-.57.37,4.57,4.57,0,0,1-1.12.18c-.48,0-1.11,0-1.89,0a17.67,17.67,0,0,1-1.89-.08,1.44,1.44,0,0,1-.93-.38,1,1,0,0,1-.16-.87,10.17,10.17,0,0,1,.39-1.5l9.1-25.08a2.23,2.23,0,0,1,.39-.69,1.58,1.58,0,0,1,.72-.4,7.24,7.24,0,0,1,1.34-.19c.56,0,1.3,0,2.23,0h1.92c.53,0,1,0,1.36.07a6.6,6.6,0,0,1,.91.15,1.78,1.78,0,0,1,.59.26,1.52,1.52,0,0,1,.37.39,3.76,3.76,0,0,1,.24.56Zm-14.51-20.56h-.06l-3.94,11.87h8Z" transform="translate(0)" fill="#04b0c3"/><path d="M278.9,173.5V156H267.73A38.09,38.09,0,0,0,263,144.56l7.9-7.9-12.39-12.39-7.9,7.9a38,38,0,0,0-11.43-4.73V116.26H221.66v11.18a38,38,0,0,0-11.41,4.73l-7.91-7.9L190,136.66l7.91,7.9A38.09,38.09,0,0,0,193.13,156H182V173.5h11.17a38,38,0,0,0,4.73,11.42L190,192.83l12.39,12.39,7.91-7.9A38.53,38.53,0,0,0,221.66,202v11.19h17.52V202a38.54,38.54,0,0,0,11.43-4.72l7.9,7.9,12.39-12.39-7.9-7.91a38,38,0,0,0,4.73-11.42Zm-48.48,11.72a20.48,20.48,0,1,1,20.48-20.48A20.47,20.47,0,0,1,230.42,185.22Zm0-13a7.51,7.51,0,1,1,7.51-7.51A7.5,7.5,0,0,1,230.42,172.25Z" transform="translate(0)" fill="#fff"/></g></g></svg>