<?xml version="1.0" encoding="utf-8"?>
<!-- Generator: Adobe Illustrator 24.2.1, SVG Export Plug-In . SVG Version: 6.00 Build 0)  -->
<svg version="1.1" id="Layer_1" xmlns="http://www.w3.org/2000/svg" xmlns:xlink="http://www.w3.org/1999/xlink" x="0px" y="0px"
	 viewBox="0 0 20 20" style="enable-background:new 0 0 20 20;" xml:space="preserve">
<style type="text/css">
	.st0{fill:#FFFFFF;}
</style>
<g id="XF1FCv_2_" transform="translate(-4817.446 -857.911)">
	<g id="Grupo_352_2_">
		<path id="Trazado_469_2_" class="st0" d="M4818.4,867.7c0-5,4-9,9-9c5,0,9,4,9,9c0,5-4,9-9,9c0,0,0,0,0,0
			C4822.5,876.7,4818.4,872.7,4818.4,867.7C4818.4,867.7,4818.4,867.7,4818.4,867.7z M4827.4,860.8c-3.8,0-6.9,3.1-6.9,6.9
			c0,3.8,3.1,6.9,6.9,6.9s6.9-3.1,6.9-6.9c0,0,0,0,0,0C4834.3,863.9,4831.3,860.9,4827.4,860.8
			C4827.5,860.8,4827.5,860.8,4827.4,860.8z"/>
		<path id="Trazado_470_2_" class="st0" d="M4831.1,864.4l1.5,1.5c-2.2,2.2-4.4,4.4-6.7,6.5l-3.8-3.9l1.5-1.5l2.3,2.4L4831.1,864.4z
			"/>
	</g>
</g>
</svg>
