<?xml version="1.0" encoding="utf-8"?>
<!-- Generator: Adobe Illustrator 24.2.1, SVG Export Plug-In . SVG Version: 6.00 Build 0)  -->
<svg version="1.1" id="Layer_1" xmlns="http://www.w3.org/2000/svg" xmlns:xlink="http://www.w3.org/1999/xlink" x="0px" y="0px"
	 viewBox="0 0 20 20" style="enable-background:new 0 0 20 20;" xml:space="preserve">
<style type="text/css">
	.st0{fill:#FFFFFF;}
</style>
<g>
	<path class="st0" d="M12,0.6l0,2.3c3,0.9,5.2,3.7,5.2,7c0,0,0,0,0,0c0,4-3.2,7.3-7.2,7.3c-4,0-7.3-3.2-7.3-7.2c0-3.3,2.2-6.1,5.2-7
		l0-2.3C3.7,1.5,0.5,5.4,0.5,9.9c0,0,0,0,0,0c0,5.2,4.3,9.5,9.5,9.5c0,0,0,0,0,0c5.3,0,9.5-4.3,9.5-9.5C19.5,5.3,16.3,1.5,12,0.6z"
		/>
	<path class="st0" d="M10,10L10,10c-0.6,0-1.1-0.5-1.1-1.1l0-7.2c0-0.6,0.5-1.1,1.1-1.1l0,0c0.6,0,1.1,0.5,1.1,1.1l0,7.2
		C11.1,9.5,10.6,10,10,10z"/>
</g>
</svg>
