<?xml version="1.0" encoding="utf-8"?>
<!-- Generator: Adobe Illustrator 24.2.1, SVG Export Plug-In . SVG Version: 6.00 Build 0)  -->
<svg version="1.1" id="Capa_1" xmlns="http://www.w3.org/2000/svg" xmlns:xlink="http://www.w3.org/1999/xlink" x="0px" y="0px"
	 viewBox="0 0 460.9 433.9" style="enable-background:new 0 0 460.9 433.9;" xml:space="preserve">
<style type="text/css">
	.st0{fill:#E9ECEA;}
	.st1{fill:#00B4C3;}
	.st2{fill:#FFFFFF;}
	.st3{fill:#EF4853;}
	.st4{fill:#A8C838;}
	.st5{fill:#F9A048;}
</style>
<g>
	<path class="st0" d="M427.2,0H33.6C15.1,0,0,15.1,0,33.6v54.7v257.2v54.7c0,18.6,15.1,33.6,33.6,33.6h393.6
		c18.6,0,33.6-15.1,33.6-33.6v-54.7V88.4V33.6C460.9,15.1,445.8,0,427.2,0z"/>
	<path class="st3" d="M326.2,300.6H135.2c-13,0-23.6-10.6-23.6-23.6V113.7c0-13,10.6-23.6,23.6-23.6h190.9c13,0,23.6,10.6,23.6,23.6
		V277C349.7,290,339.2,300.6,326.2,300.6z"/>
	<g>
		<path class="st3" d="M156.8,333.8c0,1.7-0.3,3.2-0.8,4.5c-0.5,1.3-1.3,2.4-2.3,3.2c-1,0.9-2.3,1.5-3.8,1.9
			c-1.5,0.4-3.3,0.7-5.4,0.7h-2.9v8.8c0,0.2-0.1,0.3-0.2,0.5c-0.1,0.1-0.3,0.2-0.6,0.3s-0.6,0.1-1.1,0.2c-0.5,0-1,0.1-1.7,0.1
			c-0.7,0-1.3,0-1.7-0.1s-0.8-0.1-1.1-0.2c-0.3-0.1-0.4-0.2-0.6-0.3c-0.1-0.1-0.2-0.3-0.2-0.5v-25.8c0-0.7,0.2-1.3,0.6-1.7
			c0.4-0.4,1-0.6,1.7-0.6h8.2c0.7,0,1.4,0,2.1,0.1c0.7,0.1,1.4,0.1,2,0.3c1.2,0.2,2.3,0.5,3.2,1c0.9,0.5,1.7,1.1,2.4,1.8
			c0.7,0.7,1.2,1.6,1.5,2.5C156.6,331.5,156.8,332.6,156.8,333.8z M149.4,334.4c0-1-0.2-1.9-0.7-2.6c-0.4-0.7-1.1-1.2-1.9-1.5
			c-0.3-0.1-0.7-0.2-1.1-0.2c-0.4,0-0.8-0.1-1.3-0.1h-2.9v9h3.2c0.9,0,1.7-0.1,2.2-0.4c0.5-0.2,1-0.6,1.4-1c0.4-0.4,0.6-0.9,0.8-1.5
			C149.3,335.7,149.4,335,149.4,334.4z"/>
		<path class="st3" d="M188.1,353.3c0,0.1-0.1,0.2-0.2,0.3c-0.1,0.1-0.3,0.2-0.6,0.2c-0.3,0-0.7,0.1-1.2,0.1s-1.2,0-2,0
			c-0.8,0-1.4,0-1.9-0.1s-0.9-0.1-1.1-0.2s-0.5-0.2-0.6-0.4s-0.2-0.3-0.3-0.5l-2.1-6.2c-0.3-0.7-0.5-1.3-0.8-1.9
			c-0.3-0.5-0.6-0.9-0.9-1.3s-0.7-0.6-1.1-0.8s-1-0.2-1.6-0.2h-2V353c0,0.2-0.1,0.3-0.2,0.5c-0.1,0.1-0.3,0.2-0.6,0.3
			s-0.6,0.1-1.1,0.2c-0.5,0-1,0.1-1.7,0.1c-0.7,0-1.3,0-1.7-0.1s-0.8-0.1-1.1-0.2c-0.3-0.1-0.4-0.2-0.6-0.3
			c-0.1-0.1-0.2-0.3-0.2-0.5v-26.1c0-0.7,0.2-1.2,0.6-1.5s0.8-0.5,1.4-0.5h9.3c1.8,0,3.4,0.2,4.7,0.5c1.3,0.3,2.4,0.8,3.4,1.4
			s1.7,1.5,2.2,2.5c0.5,1,0.8,2.2,0.8,3.6c0,1-0.1,1.9-0.4,2.7c-0.2,0.8-0.6,1.5-1.1,2.2c-0.5,0.6-1.1,1.2-1.8,1.7
			c-0.7,0.5-1.5,0.9-2.5,1.2c0.5,0.2,0.9,0.4,1.3,0.7c0.4,0.3,0.7,0.6,1.1,1s0.7,0.9,1,1.4c0.3,0.6,0.6,1.2,0.9,1.9l2.3,5.9
			c0.2,0.5,0.3,0.9,0.4,1.2C188.1,353,188.1,353.2,188.1,353.3z M179.4,333.6c0-0.5-0.1-1-0.2-1.4c-0.2-0.4-0.4-0.8-0.7-1.1
			s-0.8-0.6-1.3-0.7c-0.5-0.2-1.3-0.3-2.3-0.3h-3.2v7.5h3c0.9,0,1.7-0.1,2.2-0.3c0.6-0.2,1-0.4,1.4-0.8s0.7-0.7,0.9-1.2
			C179.3,334.8,179.4,334.2,179.4,333.6z"/>
		<path class="st3" d="M221,342.5c0,2.1-0.3,3.9-0.8,5.3c-0.6,1.4-1.4,2.6-2.5,3.6c-1.1,1-2.4,1.7-4,2.3c-1.6,0.5-3.4,0.8-5.5,0.8
			c-2,0-3.8-0.2-5.3-0.7c-1.6-0.5-2.9-1.2-4-2.1c-1.1-0.9-1.9-2.1-2.5-3.5s-0.8-3.3-0.8-5.6v-16.8c0-0.2,0.1-0.3,0.2-0.4
			c0.1-0.1,0.3-0.2,0.6-0.3c0.3-0.1,0.6-0.1,1.1-0.2c0.5,0,1-0.1,1.7-0.1c0.7,0,1.3,0,1.7,0.1c0.5,0,0.8,0.1,1.1,0.2
			c0.3,0.1,0.5,0.2,0.6,0.3c0.1,0.1,0.2,0.3,0.2,0.4v16.4c0,1.5,0.1,2.6,0.4,3.4c0.3,0.8,0.7,1.4,1.2,1.9c0.5,0.5,1.1,0.9,1.9,1.1
			s1.5,0.4,2.3,0.4s1.6-0.1,2.3-0.4c0.7-0.3,1.3-0.6,1.8-1.1c0.5-0.5,0.9-1.1,1.1-1.8c0.3-0.7,0.4-1.7,0.4-3.1v-16.7
			c0-0.2,0-0.3,0.1-0.4c0.1-0.1,0.3-0.2,0.6-0.3c0.3-0.1,0.6-0.1,1.1-0.2c0.4,0,1-0.1,1.7-0.1c0.7,0,1.3,0,1.8,0.1
			c0.4,0,0.8,0.1,1,0.2c0.3,0.1,0.4,0.2,0.5,0.3c0.1,0.1,0.1,0.3,0.1,0.4V342.5z"/>
		<path class="st3" d="M249,351.2c0,0.5,0,0.9-0.1,1.2c0,0.3-0.1,0.6-0.2,0.8c-0.1,0.2-0.2,0.4-0.3,0.4c-0.1,0.1-0.2,0.1-0.4,0.1
			h-15.6c-0.5,0-1-0.2-1.4-0.5c-0.4-0.3-0.6-0.8-0.6-1.5v-24.9c0-0.7,0.2-1.2,0.6-1.5s0.8-0.5,1.4-0.5h15.5c0.1,0,0.3,0,0.4,0.1
			c0.1,0.1,0.2,0.2,0.3,0.4s0.1,0.5,0.2,0.8c0,0.3,0.1,0.8,0.1,1.3c0,0.5,0,0.9-0.1,1.2c0,0.3-0.1,0.6-0.2,0.8s-0.2,0.4-0.3,0.4
			c-0.1,0.1-0.2,0.1-0.4,0.1h-10.4v6.2h8.8c0.1,0,0.3,0,0.4,0.1c0.1,0.1,0.2,0.2,0.3,0.4s0.1,0.5,0.2,0.8c0,0.3,0.1,0.8,0.1,1.3
			c0,0.5,0,0.9-0.1,1.2c0,0.3-0.1,0.6-0.2,0.8s-0.2,0.3-0.3,0.4c-0.1,0.1-0.3,0.1-0.4,0.1h-8.8v7H248c0.1,0,0.3,0,0.4,0.1
			c0.1,0.1,0.2,0.2,0.3,0.4c0.1,0.2,0.1,0.5,0.2,0.8C248.9,350.3,249,350.7,249,351.2z"/>
		<path class="st3" d="M281.3,345c0,1.1-0.2,2.1-0.5,2.9s-0.8,1.6-1.3,2.3c-0.6,0.7-1.2,1.2-2,1.7c-0.8,0.5-1.6,0.8-2.5,1.1
			c-0.9,0.3-1.9,0.5-2.9,0.6c-1,0.1-2.2,0.2-3.5,0.2h-9.1c-0.5,0-1-0.2-1.4-0.5c-0.4-0.3-0.6-0.8-0.6-1.5v-24.9
			c0-0.7,0.2-1.2,0.6-1.5s0.8-0.5,1.4-0.5h9.2c1.8,0,3.4,0.1,4.7,0.4c1.3,0.3,2.4,0.7,3.3,1.3c0.9,0.6,1.6,1.4,2.1,2.3
			c0.5,0.9,0.7,2,0.7,3.3c0,0.7-0.1,1.4-0.3,2c-0.2,0.6-0.5,1.2-0.8,1.7s-0.8,1-1.3,1.3s-1.1,0.7-1.8,0.9c0.9,0.1,1.6,0.4,2.4,0.7
			c0.7,0.4,1.4,0.8,1.9,1.4c0.5,0.6,1,1.2,1.3,2S281.3,344,281.3,345z M272.4,333.2c0-0.5-0.1-1-0.2-1.4c-0.2-0.4-0.4-0.8-0.8-1.1
			c-0.3-0.3-0.8-0.5-1.3-0.7c-0.5-0.1-1.2-0.2-2.1-0.2h-3.8v6.9h4c0.9,0,1.5-0.1,2-0.3c0.5-0.2,0.9-0.4,1.2-0.8
			c0.3-0.3,0.5-0.7,0.7-1.1C272.3,334.2,272.4,333.7,272.4,333.2z M273.8,345.2c0-0.6-0.1-1.1-0.3-1.6s-0.5-0.9-0.9-1.2
			c-0.4-0.3-0.9-0.6-1.5-0.7s-1.5-0.3-2.5-0.3h-4.2v7.4h4.9c0.9,0,1.5-0.1,2.1-0.2c0.5-0.2,1-0.4,1.3-0.7c0.4-0.3,0.7-0.7,0.9-1.1
			C273.7,346.3,273.8,345.8,273.8,345.2z"/>
		<path class="st3" d="M314,351.2c0.2,0.6,0.3,1.1,0.4,1.5s0,0.6-0.2,0.8c-0.2,0.2-0.6,0.3-1.1,0.4c-0.5,0-1.3,0.1-2.3,0.1
			c-0.9,0-1.6,0-2.1,0c-0.5,0-0.9-0.1-1.1-0.1c-0.3-0.1-0.4-0.2-0.5-0.3c-0.1-0.1-0.2-0.3-0.3-0.6l-1.8-5.2h-11.2l-1.7,5
			c-0.1,0.3-0.2,0.5-0.3,0.6s-0.3,0.3-0.6,0.4c-0.3,0.1-0.6,0.1-1.1,0.2c-0.5,0-1.1,0-1.9,0c-0.8,0-1.4,0-1.9-0.1
			c-0.4-0.1-0.8-0.2-0.9-0.4c-0.2-0.2-0.2-0.5-0.2-0.9c0.1-0.4,0.2-0.9,0.4-1.5l9.1-25.1c0.1-0.3,0.2-0.5,0.4-0.7
			c0.2-0.2,0.4-0.3,0.7-0.4c0.3-0.1,0.8-0.2,1.3-0.2s1.3-0.1,2.2-0.1c0.7,0,1.4,0,1.9,0c0.5,0,1,0,1.4,0.1c0.4,0,0.7,0.1,0.9,0.1
			c0.2,0.1,0.4,0.1,0.6,0.3c0.2,0.1,0.3,0.2,0.4,0.4c0.1,0.2,0.2,0.3,0.2,0.6L314,351.2z M299.5,330.7L299.5,330.7l-4,11.9h8
			L299.5,330.7z"/>
		<path class="st3" d="M139.5,384.5c0,1.7-0.3,3.2-0.8,4.5c-0.5,1.3-1.3,2.4-2.3,3.2c-1,0.9-2.3,1.5-3.8,1.9
			c-1.5,0.4-3.3,0.7-5.4,0.7h-2.9v8.8c0,0.2-0.1,0.3-0.2,0.5c-0.1,0.1-0.3,0.2-0.6,0.3c-0.3,0.1-0.6,0.1-1.1,0.2
			c-0.5,0-1,0.1-1.7,0.1c-0.7,0-1.3,0-1.7-0.1c-0.5,0-0.8-0.1-1.1-0.2c-0.3-0.1-0.4-0.2-0.6-0.3c-0.1-0.1-0.2-0.3-0.2-0.5v-25.8
			c0-0.7,0.2-1.3,0.6-1.7c0.4-0.4,1-0.6,1.7-0.6h8.2c0.7,0,1.4,0,2.1,0.1c0.7,0.1,1.4,0.1,2,0.3c1.2,0.2,2.3,0.5,3.2,1
			c0.9,0.5,1.7,1.1,2.4,1.8s1.2,1.6,1.5,2.5C139.3,382.2,139.5,383.3,139.5,384.5z M132.1,385c0-1-0.2-1.9-0.7-2.6
			c-0.4-0.7-1.1-1.2-1.9-1.5c-0.3-0.1-0.7-0.2-1.1-0.2c-0.4,0-0.8-0.1-1.3-0.1h-2.9v9h3.2c0.9,0,1.7-0.1,2.2-0.4
			c0.5-0.2,1-0.6,1.4-1c0.4-0.4,0.6-0.9,0.8-1.5C132,386.3,132.1,385.7,132.1,385z"/>
		<path class="st3" d="M165.3,395.9c0,1.4-0.3,2.7-0.8,3.8c-0.6,1.1-1.3,2.1-2.4,2.9c-1,0.8-2.2,1.4-3.6,1.8
			c-1.4,0.4-2.9,0.6-4.6,0.6c-1,0-1.9-0.1-2.8-0.2c-0.9-0.1-1.7-0.3-2.4-0.6c-0.7-0.2-1.3-0.5-1.9-0.7c-0.5-0.3-0.9-0.5-1-0.6
			c-0.2-0.2-0.3-0.3-0.4-0.4c-0.1-0.1-0.1-0.3-0.2-0.5c-0.1-0.2-0.1-0.4-0.1-0.7c0-0.3,0-0.6,0-1c0-0.6,0-1,0-1.4
			c0-0.4,0.1-0.7,0.1-0.9s0.2-0.4,0.3-0.5c0.1-0.1,0.3-0.1,0.4-0.1c0.2,0,0.5,0.1,1,0.4c0.4,0.3,1,0.5,1.6,0.8
			c0.6,0.3,1.4,0.6,2.3,0.8c0.9,0.2,1.9,0.4,3,0.4c0.7,0,1.3-0.1,1.8-0.2s1-0.4,1.4-0.6s0.7-0.6,0.9-1c0.2-0.4,0.3-0.9,0.3-1.4
			c0-0.6-0.2-1.1-0.5-1.6c-0.4-0.4-0.8-0.8-1.4-1.2c-0.6-0.4-1.3-0.7-2-1c-0.8-0.3-1.5-0.6-2.3-1c-0.8-0.4-1.6-0.8-2.3-1.2
			c-0.8-0.5-1.4-1-2-1.7c-0.6-0.6-1.1-1.4-1.4-2.3c-0.4-0.9-0.5-1.9-0.5-3.1c0-1.3,0.3-2.5,0.8-3.6c0.5-1.1,1.3-1.9,2.2-2.7
			c0.9-0.7,2-1.3,3.3-1.7s2.6-0.6,4.1-0.6c0.8,0,1.6,0.1,2.4,0.2s1.5,0.3,2.1,0.5c0.6,0.2,1.2,0.4,1.6,0.6c0.5,0.2,0.8,0.4,0.9,0.6
			c0.1,0.1,0.2,0.3,0.3,0.4c0.1,0.1,0.1,0.3,0.2,0.5c0,0.2,0.1,0.5,0.1,0.8s0,0.7,0,1.1c0,0.5,0,0.9,0,1.2c0,0.3-0.1,0.5-0.1,0.7
			c-0.1,0.2-0.1,0.3-0.2,0.4c-0.1,0.1-0.2,0.1-0.4,0.1c-0.2,0-0.5-0.1-0.9-0.3c-0.4-0.2-0.8-0.4-1.4-0.7c-0.6-0.2-1.2-0.5-1.9-0.7
			c-0.7-0.2-1.5-0.3-2.4-0.3c-0.6,0-1.1,0.1-1.6,0.2s-0.9,0.3-1.2,0.6c-0.3,0.3-0.6,0.6-0.7,0.9c-0.2,0.4-0.2,0.7-0.2,1.1
			c0,0.6,0.2,1.1,0.6,1.6s0.9,0.8,1.5,1.2s1.3,0.7,2.1,1c0.8,0.3,1.6,0.6,2.4,1c0.8,0.4,1.6,0.8,2.4,1.2c0.8,0.5,1.5,1,2.1,1.6
			c0.6,0.6,1.1,1.4,1.5,2.3C165.2,393.6,165.3,394.7,165.3,395.9z"/>
		<path class="st3" d="M177.9,365c0.2-0.2,0.3-0.4,0.5-0.6s0.4-0.3,0.7-0.4s0.7-0.2,1.1-0.2c0.4,0,1,0,1.6,0c0.8,0,1.5,0,2,0.1
			s0.8,0.2,1,0.4c0.2,0.2,0.3,0.3,0.2,0.5c-0.1,0.2-0.2,0.4-0.4,0.6l-5.7,5.9c-0.1,0.2-0.3,0.3-0.5,0.4c-0.2,0.1-0.4,0.2-0.6,0.3
			s-0.5,0.1-0.9,0.2c-0.4,0-0.8,0.1-1.4,0.1c-0.6,0-1.1,0-1.5-0.1c-0.4-0.1-0.6-0.1-0.8-0.3c-0.1-0.1-0.2-0.3-0.2-0.4
			c0-0.2,0.1-0.4,0.3-0.7L177.9,365z M180.2,403.6c0,0.2-0.1,0.3-0.2,0.5c-0.1,0.1-0.3,0.2-0.6,0.3c-0.3,0.1-0.6,0.1-1.1,0.2
			c-0.5,0-1,0.1-1.7,0.1c-0.7,0-1.3,0-1.7-0.1c-0.5,0-0.8-0.1-1.1-0.2c-0.3-0.1-0.5-0.2-0.6-0.3c-0.1-0.1-0.2-0.3-0.2-0.5v-27.3
			c0-0.2,0.1-0.3,0.2-0.4s0.3-0.2,0.6-0.3c0.3-0.1,0.6-0.1,1.1-0.2c0.5,0,1-0.1,1.7-0.1c0.7,0,1.2,0,1.7,0.1c0.5,0,0.8,0.1,1.1,0.2
			c0.3,0.1,0.5,0.2,0.6,0.3c0.1,0.1,0.2,0.3,0.2,0.4V403.6z"/>
		<path class="st3" d="M220.1,407.3c0,0.5,0,1-0.1,1.4c-0.1,0.4-0.2,0.7-0.3,1c-0.1,0.3-0.3,0.4-0.5,0.4c-0.5,0-1.3-0.2-2.5-0.6
			c-1.2-0.4-2.3-0.9-3.3-1.5c-1-0.6-1.9-1.2-2.6-1.9c-0.8-0.7-1.4-1.4-2-2.1c-0.8,0.3-1.6,0.6-2.7,0.8c-1,0.2-2.1,0.3-3.3,0.3
			c-2.3,0-4.4-0.3-6.2-0.8c-1.8-0.5-3.3-1.4-4.5-2.6s-2.1-2.7-2.7-4.6c-0.6-1.9-0.9-4.2-0.9-6.8c0-2.3,0.3-4.5,1-6.3
			c0.7-1.9,1.6-3.5,2.9-4.8c1.3-1.3,2.8-2.3,4.6-3c1.8-0.7,4-1,6.3-1c2.2,0,4.3,0.3,6,0.8s3.3,1.4,4.5,2.6s2.2,2.7,2.8,4.6
			c0.7,1.9,1,4.1,1,6.7c0,1.3-0.1,2.6-0.3,3.7c-0.2,1.2-0.5,2.2-0.8,3.2c-0.4,1-0.8,1.9-1.3,2.7c-0.5,0.8-1.1,1.5-1.7,2.1
			c0.9,0.8,1.8,1.4,2.8,1.9c1,0.5,2,0.9,3.1,1.2c0.3,0.1,0.5,0.4,0.7,0.9C220,405.7,220.1,406.4,220.1,407.3z M210.2,390
			c0-1.5-0.1-2.8-0.4-3.9c-0.2-1.2-0.6-2.2-1.2-3c-0.6-0.8-1.3-1.5-2.2-1.9c-0.9-0.4-2-0.7-3.4-0.7c-1.4,0-2.5,0.2-3.5,0.7
			c-0.9,0.5-1.7,1.2-2.2,2c-0.6,0.9-1,1.9-1.2,3s-0.4,2.3-0.4,3.6c0,1.5,0.1,2.9,0.4,4.1s0.6,2.2,1.2,3s1.3,1.5,2.2,1.9
			c0.9,0.4,2,0.6,3.3,0.6c1.3,0,2.5-0.2,3.4-0.7s1.7-1.2,2.3-2s1-1.9,1.3-3C210.1,392.5,210.2,391.3,210.2,390z"/>
		<path class="st3" d="M251.2,393.1c0,2.1-0.3,3.9-0.8,5.3c-0.6,1.4-1.4,2.6-2.5,3.6s-2.4,1.7-4,2.3c-1.6,0.5-3.4,0.8-5.5,0.8
			c-2,0-3.8-0.2-5.3-0.7c-1.6-0.5-2.9-1.2-4-2.1s-1.9-2.1-2.5-3.5c-0.6-1.4-0.8-3.3-0.8-5.6v-16.8c0-0.2,0.1-0.3,0.2-0.4
			c0.1-0.1,0.3-0.2,0.6-0.3c0.3-0.1,0.6-0.1,1.1-0.2c0.5,0,1-0.1,1.7-0.1c0.7,0,1.3,0,1.7,0.1c0.5,0,0.8,0.1,1.1,0.2
			c0.3,0.1,0.5,0.2,0.6,0.3c0.1,0.1,0.2,0.3,0.2,0.4v16.4c0,1.5,0.1,2.6,0.4,3.4c0.3,0.8,0.7,1.4,1.2,1.9c0.5,0.5,1.1,0.9,1.9,1.1
			s1.5,0.4,2.3,0.4s1.6-0.1,2.3-0.4c0.7-0.3,1.3-0.6,1.8-1.1c0.5-0.5,0.9-1.1,1.1-1.8c0.3-0.7,0.4-1.7,0.4-3.1v-16.7
			c0-0.2,0-0.3,0.1-0.4s0.3-0.2,0.6-0.3c0.3-0.1,0.6-0.1,1.1-0.2c0.4,0,1-0.1,1.7-0.1c0.7,0,1.3,0,1.8,0.1c0.4,0,0.8,0.1,1,0.2
			c0.3,0.1,0.4,0.2,0.5,0.3s0.1,0.3,0.1,0.4V393.1z"/>
		<path class="st3" d="M267.7,403.6c0,0.2-0.1,0.3-0.2,0.5c-0.1,0.1-0.3,0.2-0.6,0.3c-0.3,0.1-0.6,0.1-1.1,0.2c-0.5,0-1,0.1-1.7,0.1
			c-0.7,0-1.3,0-1.7-0.1c-0.5,0-0.8-0.1-1.1-0.2c-0.3-0.1-0.5-0.2-0.6-0.3c-0.1-0.1-0.2-0.3-0.2-0.5v-27.3c0-0.2,0.1-0.3,0.2-0.4
			s0.3-0.2,0.6-0.3c0.3-0.1,0.6-0.1,1.1-0.2c0.5,0,1-0.1,1.7-0.1c0.7,0,1.2,0,1.7,0.1c0.5,0,0.8,0.1,1.1,0.2
			c0.3,0.1,0.5,0.2,0.6,0.3c0.1,0.1,0.2,0.3,0.2,0.4V403.6z"/>
		<path class="st3" d="M298.3,400c0,0.7,0,1.3-0.1,1.8c-0.1,0.4-0.3,0.8-0.5,1c-0.3,0.3-0.6,0.5-1.1,0.8c-0.5,0.3-1,0.5-1.7,0.7
			c-0.7,0.2-1.4,0.4-2.2,0.5c-0.8,0.1-1.7,0.2-2.7,0.2c-2.1,0-4-0.3-5.8-0.9c-1.7-0.6-3.2-1.5-4.4-2.8s-2.2-2.8-2.8-4.6
			c-0.7-1.9-1-4-1-6.5c0-2.5,0.3-4.7,1-6.6c0.7-1.9,1.7-3.5,2.9-4.8c1.2-1.3,2.7-2.3,4.5-2.9c1.7-0.7,3.7-1,5.8-1
			c0.8,0,1.5,0.1,2.3,0.2c0.8,0.1,1.5,0.3,2.1,0.5c0.6,0.2,1.2,0.4,1.7,0.7c0.5,0.3,0.9,0.5,1.1,0.8c0.3,0.3,0.4,0.6,0.5,1
			c0.1,0.4,0.2,1.1,0.2,2c0,0.5,0,1-0.1,1.3c0,0.3-0.1,0.6-0.2,0.8c-0.1,0.2-0.2,0.4-0.3,0.5s-0.2,0.1-0.4,0.1
			c-0.2,0-0.5-0.1-0.8-0.4c-0.3-0.2-0.8-0.5-1.3-0.8s-1.2-0.6-1.9-0.8s-1.6-0.4-2.7-0.4c-1.1,0-2.1,0.2-3,0.7
			c-0.9,0.4-1.6,1.1-2.2,1.9c-0.6,0.8-1,1.8-1.3,2.9c-0.3,1.1-0.5,2.4-0.5,3.8c0,1.6,0.2,3,0.5,4.2s0.9,2.2,1.5,2.9
			c0.7,0.8,1.5,1.3,2.4,1.7c0.9,0.4,1.9,0.5,3.1,0.5c0.9,0,1.8-0.1,2.5-0.3c0.7-0.2,1.3-0.5,1.8-0.7c0.5-0.3,0.9-0.5,1.3-0.7
			c0.4-0.2,0.6-0.3,0.9-0.3c0.1,0,0.2,0,0.3,0.1c0.1,0.1,0.2,0.2,0.2,0.4c0.1,0.2,0.1,0.5,0.1,0.9
			C298.3,398.9,298.3,399.4,298.3,400z"/>
		<path class="st3" d="M331.3,401.9c0.2,0.6,0.3,1.1,0.4,1.5c0.1,0.4,0,0.6-0.2,0.8c-0.2,0.2-0.6,0.3-1.1,0.4
			c-0.5,0-1.3,0.1-2.3,0.1c-0.9,0-1.6,0-2.1,0c-0.5,0-0.9-0.1-1.1-0.1c-0.3-0.1-0.4-0.2-0.5-0.3c-0.1-0.1-0.2-0.3-0.3-0.6l-1.8-5.2
			h-11.2l-1.7,5c-0.1,0.3-0.2,0.5-0.3,0.6s-0.3,0.3-0.6,0.4c-0.3,0.1-0.6,0.2-1.1,0.2c-0.5,0-1.1,0-1.9,0c-0.8,0-1.4,0-1.9-0.1
			c-0.4-0.1-0.8-0.2-0.9-0.4c-0.2-0.2-0.2-0.5-0.2-0.9c0.1-0.4,0.2-0.9,0.4-1.5l9.1-25.1c0.1-0.3,0.2-0.5,0.4-0.7
			c0.2-0.2,0.4-0.3,0.7-0.4c0.3-0.1,0.8-0.2,1.3-0.2c0.6,0,1.3-0.1,2.2-0.1c0.7,0,1.4,0,1.9,0c0.5,0,1,0,1.4,0.1
			c0.4,0,0.7,0.1,0.9,0.1c0.2,0.1,0.4,0.2,0.6,0.3c0.2,0.1,0.3,0.2,0.4,0.4c0.1,0.2,0.2,0.3,0.2,0.6L331.3,401.9z M316.8,381.3
			L316.8,381.3l-4,11.9h8L316.8,381.3z"/>
	</g>
	<g>
		<path class="st2" d="M221.8,180.5c3.2-3.3,3.9-6.6,1.5-10.4c-0.4-0.6-0.3-1.7-0.2-2.4c1.4-7.1-2.1-13.1-8.8-14.9
			c-6.6-1.8-13.2,1.8-15.5,8.5c-0.2,0.7-0.5,1.4-0.7,2.1c-12.3,1.9-17.8,9.1-16.4,21.1c0.1,0.8-0.3,1.8-0.8,2.6
			c-1.9,3.2-2.8,6.5-2.1,10.3c0.2,1-0.2,2.3-0.7,3.2c-3,5.1-2.5,10.5,1.7,14.6c1.3,1.3,1.5,2.3,1.1,4c-2.7,10.3,4,19.8,14.6,20.8
			c1.8,0.2,2.6,0.7,3.1,2.5c2.1,7.2,9.4,11,16.3,8.7c7.1-2.3,10.5-9.8,8-16.9c-0.5-1.3-0.4-3.1,0-4.4c2.2-5.8,2.5-11.5-0.3-17.2
			c-0.3-0.7-0.2-1.9,0.3-2.5c3-3.9,3.5-8,1.3-12.5c-0.3-0.7-0.4-1.8-0.1-2.4C227.2,189.7,226.1,184.9,221.8,180.5z"/>
		<path class="st2" d="M281.8,201.6c-0.6-1.3-1.1-2.4-1.1-3.5l0-1.4c-0.1-3.4-0.2-6.9-2-10.3c-0.5-0.9-0.7-2-0.6-2.9
			c1.2-11-5.3-19.9-15.9-21.6c-1-0.2-1.2-0.3-1.6-1.5c-2.4-7.4-10.1-11.5-17.5-9.5c-7.6,2.1-11.7,8.8-10.2,16.7
			c0.1,0.3,0.2,1.1,0.3,1.1c-1.9,2.9-3.3,7.1,0.4,11.8c-4.1,4.9-4.6,10.2-1.5,15.5c0,0.1,0,0.4-0.1,0.6c-2.5,5.1-2,10,1.4,14.5
			c0.1,0.1,0.2,0.5,0.2,0.5c-2.9,5.7-3,12-0.4,19c0.3,0.8,0.3,2,0,2.8c-1.4,4-1.2,8.3,0.6,12c1.7,3.5,4.7,6.1,8.5,7.4
			c1.6,0.5,3.2,0.8,4.7,0.8c2.3,0,4.6-0.6,6.7-1.7c3.6-1.9,6.2-5.2,7.4-9.3c0.3-0.9,0.3-0.9,1.1-1c5.8-0.5,10.8-3.1,13.9-7.5
			c3.2-4.4,4.2-10.2,2.7-16c0-0.4,0.5-1.4,0.8-2c0.4-0.8,0.9-1.6,1.3-2.3c0.9-1.4,1.7-2.8,2.3-4.5
			C283.9,206.4,282.8,203.7,281.8,201.6z M274.7,212.3c-2.6,2.1-3.1,4.2-2.1,7.4c1.2,3.5,0.7,7.4-1.4,10.6c-2,3.1-5.3,5.1-8.8,5.4
			c-1.1,0.1-1.2,0.1-1.7-1.1c-0.8-2.4-2.4-4.3-3.9-6.2l-0.4-0.5c-0.8-1-2.1-1.1-3-1.1c-0.2,0-0.5,0-0.7,0c-0.7-0.1-1.3,0.2-1.7,0.7
			c-0.4,0.5-0.5,1.2-0.3,1.8c0.1,0.2,0.1,0.4,0.2,0.6c0.2,0.7,0.4,1.6,1.2,2.2c2.6,2.5,3.6,5,3.2,8c-0.6,3.7-2.4,6-5.8,7
			c-3.5,1.1-6.6,0.3-9-2.3c-2.5-2.7-3-5.8-1.6-9.1c1.1-2.4,1.1-4.5,0-6.9c-2.6-5.9-2.3-10.9,0.7-15.6c0.9-1.4,0.4-3.7-0.6-4.8
			c-3.3-3.6-3.5-5.7-1.1-10c0.7-1.2,0.7-3.2,0-4.3c-3-5-2.5-7.6,1.9-10.8c0.6-0.4,2.1-1.5,1.9-3.1c-0.1-1.6-1.7-2.4-2.4-2.8
			c-1.3-0.7-2-1.4-2.2-2.1c-0.2-0.8,0.1-1.8,1-3.2c1-1.5,0.9-3.7,0.6-5.1c-0.6-2.4-0.3-4.8,0.9-6.7c1.1-1.8,2.9-3.1,5.2-3.6
			c0.6-0.2,1.3-0.2,1.9-0.2c1.6,0,3.1,0.4,4.4,1.3c1.6,1,2.7,2.5,3.4,4.3l-1,0.6c-2,1.1-4,2.1-5.8,3.3c-0.4,0.2-0.7,0.6-0.9,0.9
			c0-0.4-0.1-0.7-0.1-1c0-0.1-0.1-0.3-0.1-0.4c0-0.5-0.3-1-0.7-1.3c-0.4-0.3-1-0.4-1.5-0.3c-0.1,0-0.3,0.1-0.5,0.1
			c-0.8,0.1-2.2,0.3-2.6,1.6c-0.2,0.5-0.4,1.1-0.6,1.6c-0.7,1.9-1.5,4-1,6.1c0.6,2.4,1.8,4.6,3.2,6.8c0.3,0.6,0.7,1.2,1,1.8
			c-0.2,0.2-0.3,0.4-0.5,0.6c-1.6,2.1-2.1,4.8-1.4,7.3c0.7,2.4,2.4,4.3,4.8,5.2c0.5,0.2,1,0.3,1.5,0.3c0.6,0,1.1-0.1,1.6-0.2
			c0.3-0.1,0.6-0.1,0.8-0.1c0.7-0.1,1.3-0.5,1.6-1.2c0.3-0.7,0.1-1.4-0.4-1.9c-0.2-0.2-0.3-0.4-0.5-0.5c-0.5-0.6-1.1-1.3-1.9-1.7
			c-1.5-0.8-1.7-1.5-1.6-2.5c0.1-0.8,0.5-1.7,2.2-1.8c0.4,0,0.8,0,1.2,0c0.7,0,1.4,0,2.2-0.1c1.5-0.3,2.9-0.8,4.2-1.4
			c1.1-0.5,1.3-1.6,1.4-2.4c0-0.1,0.1-0.3,0.1-0.4c0.2-0.5,0.1-1.1-0.2-1.5c-0.3-0.5-0.7-0.8-1.3-0.9l-0.5-0.1
			c-0.5-0.1-1-0.2-1.6-0.2c-0.7-0.1-1.5,0.1-2.2,0.2c-1.1,0.1-2.2,0.3-2.9,0c-2.1-0.8-3.5-2.2-4.3-3.9c-0.5-1.2-0.6-2.5-0.4-3.9
			c0.1,0.2,0.1,0.4,0.3,0.6c0.5,0.5,1.2,0.7,1.8,0.6c0.2-0.1,0.4-0.1,0.7-0.1c0.7-0.1,1.6-0.3,2.4-0.8c5.1-3.6,10.9-4,15.4-1
			c3.2,2.1,5.3,6.5,5.4,11.1c-0.1-0.1-0.1-0.2-0.2-0.2c-0.2-0.1-0.4-0.3-0.6-0.5c-0.6-0.5-1.4-1.2-2.5-1.4
			c-4.3-0.9-8.9,1.8-10.6,6.1c-1.7,4.3-0.2,9.3,3.6,11.7c1,0.6,2.1,0.7,2.9,0.7c0.3,0,0.6,0,0.8,0.1c0.1,0,0.2,0,0.3,0
			c0.6,0,1.2-0.3,1.5-0.8c0.4-0.6,0.4-1.4,0-2c-0.1-0.2-0.2-0.4-0.4-0.7c-0.4-0.7-0.8-1.4-1.5-2c-1.8-1.5-2.2-2.9-1.6-4.6
			c0.4-1.2,1.5-2.7,5.3-2.3c0.4,0.1,0.8-0.1,1.2-0.3l1.5-0.9c0,0,0-0.1,0.1-0.1c0,0.1,0,0.2,0,0.3c-0.3,1.6,0.1,3.5,1,4.8
			c2.1,3.1,2.6,6.4,1.5,9.2c-1.1,2.8-3.8,4.7-7.6,5.4c-1.1,0.2-1.8,0.9-2.3,1.5c-0.1,0.2-0.3,0.3-0.5,0.4c-0.5,0.4-0.7,1.1-0.6,1.7
			c0.1,0.6,0.5,1.2,1.2,1.4c0.2,0.1,0.3,0.2,0.5,0.3c0.8,0.4,1.8,0.9,2.9,0.5c2.9-1.1,5.6-2.3,8-3.6c0.3-0.2,0.6-0.4,0.8-0.6
			C277.8,207.5,277.1,210.3,274.7,212.3z"/>
		<path class="st2" d="M253.3,220.9c-0.8-0.6-1.7-1.2-2.9-1.3c-4.2-0.5-8.7,2.3-10.1,6.5c-1.5,4.3,0.3,9.6,4,11.7
			c0.7,0.4,1.5,0.5,2.1,0.5c0.2,0,0.5,0,0.7,0c0.3,0,0.5,0,0.7,0c0.7,0,1.3-0.3,1.7-0.9c0.3-0.6,0.3-1.3,0-1.9
			c-0.1-0.2-0.2-0.4-0.3-0.6c-0.3-0.6-0.7-1.4-1.5-2c-2.3-1.8-2.1-3.4-1.7-4.6c0.7-1.9,1.9-2.5,4-2.1c0.4,0.1,0.8,0,1.1-0.1l2.7-1.3
			c0.6-0.3,1-0.9,1-1.6c0-0.7-0.3-1.3-0.9-1.7C253.8,221.3,253.6,221.1,253.3,220.9z"/>
		<path class="st2" d="M240.3,206.4c0.2,0,0.3,0,0.5,0c0.6,0,1.4,0,2.2-0.4c0.7-0.4,1.5-0.8,2.2-1.2c0.9-0.5,1.7-1,2.5-1.4
			c3.2-1.3,6.5-1.1,10.4,0.8c0.9,0.4,1.9,0.4,2.7,0.4c0.2,0,0.5,0,0.7,0c0.9,0.1,1.8-0.7,1.9-1.6l0.1-0.9c0.1-0.5-0.4-1.3-0.7-1.7
			c-0.3-0.3-0.6-0.6-0.9-0.9c-5.7-4.5-17.7-3.4-22.5,2.1c-0.6,0.7-0.8,1.6-0.8,2.3c0,0.2,0,0.3-0.1,0.5c-0.1,0.6,0,1.2,0.4,1.6
			c0.3,0.4,0.9,0.6,1.4,0.6C240.2,206.4,240.2,206.4,240.3,206.4z"/>
		<path class="st2" d="M260.7,207.1c-0.1-0.2-0.2-0.3-0.3-0.5c-0.3-0.6-0.8-0.9-1.4-1c-0.6-0.1-1.2,0.1-1.6,0.6
			c-0.1,0.1-0.2,0.2-0.4,0.3c-0.5,0.4-1.1,1-1.4,1.9c-0.6,2.1-1.4,2.2-2.3,2.2c-0.8,0-1.7-0.2-2.3-2.2c-0.3-0.9-1-1.5-1.5-1.9
			c-0.1-0.1-0.3-0.2-0.4-0.3c-0.4-0.4-1-0.6-1.7-0.5c-0.6,0.1-1.1,0.5-1.3,1.1c-0.1,0.2-0.2,0.3-0.3,0.5c-0.3,0.6-0.8,1.5-0.7,2.5
			c0.3,3.9,3.9,7,8.1,7c0,0,0,0,0,0c4.2,0,7.8-3.2,8.1-7C261.6,208.6,261.1,207.7,260.7,207.1z"/>
		<path class="st2" d="M270.6,211.1c-0.2-0.1-0.3-0.2-0.5-0.3c-0.6-0.4-1.4-0.9-2.4-0.9c-4,0-7.4,3.7-7.5,8c-0.1,4,2.5,7.3,6.2,8
			c0.2,0,0.4,0.1,0.6,0.1c0.7,0,1.3-0.2,1.9-0.4c0.2-0.1,0.4-0.1,0.6-0.2c0.6-0.1,1.1-0.6,1.3-1.2c0.2-0.6,0.1-1.3-0.3-1.8
			c-0.1-0.1-0.2-0.3-0.3-0.4c-0.4-0.6-0.9-1.4-1.9-1.8c-1.8-0.7-2-1.5-1.9-2.3c0-0.8,0.2-1.7,2.2-2.1c1-0.2,1.6-0.9,2.1-1.4
			c0.1-0.1,0.2-0.2,0.3-0.3c0.5-0.4,0.7-1,0.6-1.6C271.5,211.9,271.1,211.4,270.6,211.1z"/>
	</g>
</g>
</svg>
