<?xml version="1.0" encoding="utf-8"?>
<!-- Generator: Adobe Illustrator 24.2.1, SVG Export Plug-In . SVG Version: 6.00 Build 0)  -->
<svg version="1.1" id="Capa_1" xmlns="http://www.w3.org/2000/svg" xmlns:xlink="http://www.w3.org/1999/xlink" x="0px" y="0px"
	 viewBox="0 0 460.9 433.9" style="enable-background:new 0 0 460.9 433.9;" xml:space="preserve">
<style type="text/css">
	.st0{fill:#E9ECEA;}
	.st1{fill:#00B4C3;}
	.st2{fill:#FFFFFF;}
	.st3{fill:#EF4853;}
	.st4{fill:#A8C838;}
	.st5{fill:#F9A048;}
</style>
<g>
	<path class="st0" d="M428.2,0H34.6C16,0,1,15.1,1,33.6v54.7v257.2v54.7c0,18.6,15.1,33.6,33.6,33.6h393.6
		c18.6,0,33.6-15.1,33.6-33.6v-54.7V88.4V33.6C461.8,15.1,446.8,0,428.2,0z"/>
	<path class="st5" d="M326.6,274.7H135.6c-13,0-23.6-10.6-23.6-23.6V87.8c0-13,10.6-23.6,23.6-23.6h190.9c13,0,23.6,10.6,23.6,23.6
		v163.3C350.1,264.2,339.6,274.7,326.6,274.7z"/>
	<g>
		<path class="st5" d="M156.9,308c0,1.7-0.3,3.2-0.8,4.5c-0.5,1.3-1.3,2.4-2.3,3.2c-1,0.9-2.3,1.5-3.8,1.9c-1.5,0.4-3.3,0.7-5.4,0.7
			h-2.9v8.8c0,0.2-0.1,0.3-0.2,0.5c-0.1,0.1-0.3,0.2-0.6,0.3c-0.3,0.1-0.6,0.1-1.1,0.2c-0.5,0-1,0.1-1.7,0.1c-0.7,0-1.3,0-1.7-0.1
			c-0.5,0-0.8-0.1-1.1-0.2c-0.3-0.1-0.4-0.2-0.6-0.3c-0.1-0.1-0.2-0.3-0.2-0.5v-25.8c0-0.7,0.2-1.3,0.6-1.7c0.4-0.4,1-0.6,1.7-0.6
			h8.2c0.7,0,1.4,0,2.1,0.1c0.7,0.1,1.4,0.1,2,0.3c1.2,0.2,2.3,0.5,3.2,1c0.9,0.5,1.7,1.1,2.4,1.8c0.7,0.7,1.2,1.6,1.5,2.5
			C156.7,305.7,156.9,306.7,156.9,308z M149.5,308.5c0-1-0.2-1.9-0.7-2.6c-0.4-0.7-1.1-1.2-1.9-1.5c-0.3-0.1-0.7-0.2-1.1-0.2
			c-0.4,0-0.8-0.1-1.3-0.1h-2.9v9h3.2c0.9,0,1.7-0.1,2.2-0.4c0.5-0.2,1-0.6,1.4-1s0.6-0.9,0.8-1.5
			C149.4,309.8,149.5,309.2,149.5,308.5z"/>
		<path class="st5" d="M188.2,327.4c0,0.1-0.1,0.2-0.2,0.3c-0.1,0.1-0.3,0.2-0.6,0.2c-0.3,0-0.7,0.1-1.2,0.1c-0.5,0-1.2,0-2,0
			c-0.8,0-1.4,0-1.9-0.1c-0.5,0-0.9-0.1-1.1-0.2c-0.3-0.1-0.5-0.2-0.6-0.4c-0.1-0.1-0.2-0.3-0.3-0.5l-2.1-6.2
			c-0.3-0.7-0.5-1.3-0.8-1.9c-0.3-0.5-0.6-0.9-0.9-1.3s-0.7-0.6-1.1-0.8c-0.4-0.2-1-0.2-1.6-0.2h-2v10.5c0,0.2-0.1,0.3-0.2,0.5
			c-0.1,0.1-0.3,0.2-0.6,0.3c-0.3,0.1-0.6,0.1-1.1,0.2c-0.5,0-1,0.1-1.7,0.1c-0.7,0-1.3,0-1.7-0.1c-0.5,0-0.8-0.1-1.1-0.2
			c-0.3-0.1-0.4-0.2-0.6-0.3c-0.1-0.1-0.2-0.3-0.2-0.5V301c0-0.7,0.2-1.2,0.6-1.5c0.4-0.3,0.8-0.5,1.4-0.5h9.3
			c1.8,0,3.4,0.2,4.7,0.5c1.3,0.3,2.4,0.8,3.4,1.4s1.7,1.5,2.2,2.5s0.8,2.2,0.8,3.6c0,1-0.1,1.9-0.4,2.7c-0.2,0.8-0.6,1.5-1.1,2.2
			c-0.5,0.6-1.1,1.2-1.8,1.7c-0.7,0.5-1.5,0.9-2.5,1.2c0.5,0.2,0.9,0.4,1.3,0.7c0.4,0.3,0.7,0.6,1.1,1c0.3,0.4,0.7,0.9,1,1.4
			c0.3,0.6,0.6,1.2,0.9,1.9l2.3,5.9c0.2,0.5,0.3,0.9,0.4,1.2C188.2,327.1,188.2,327.3,188.2,327.4z M179.5,307.7
			c0-0.5-0.1-1-0.2-1.4c-0.2-0.4-0.4-0.8-0.7-1.1c-0.3-0.3-0.8-0.6-1.3-0.7c-0.5-0.2-1.3-0.3-2.3-0.3h-3.2v7.5h3
			c0.9,0,1.7-0.1,2.2-0.3c0.6-0.2,1-0.4,1.4-0.8c0.4-0.3,0.7-0.7,0.9-1.2C179.4,308.9,179.5,308.4,179.5,307.7z"/>
		<path class="st5" d="M221.1,316.6c0,2.1-0.3,3.9-0.8,5.3s-1.4,2.6-2.5,3.6c-1.1,1-2.4,1.7-4,2.3c-1.6,0.5-3.4,0.8-5.5,0.8
			c-2,0-3.8-0.2-5.3-0.7c-1.6-0.5-2.9-1.2-4-2.1c-1.1-0.9-1.9-2.1-2.5-3.5c-0.6-1.4-0.8-3.3-0.8-5.6v-16.8c0-0.2,0.1-0.3,0.2-0.4
			c0.1-0.1,0.3-0.2,0.6-0.3c0.3-0.1,0.6-0.1,1.1-0.2c0.5,0,1-0.1,1.7-0.1c0.7,0,1.3,0,1.7,0.1c0.5,0,0.8,0.1,1.1,0.2
			c0.3,0.1,0.5,0.2,0.6,0.3c0.1,0.1,0.2,0.3,0.2,0.4v16.4c0,1.5,0.1,2.6,0.4,3.4s0.7,1.4,1.2,1.9c0.5,0.5,1.1,0.9,1.9,1.1
			c0.7,0.2,1.5,0.4,2.3,0.4s1.6-0.1,2.3-0.4c0.7-0.3,1.3-0.6,1.8-1.1c0.5-0.5,0.9-1.1,1.1-1.8c0.3-0.7,0.4-1.7,0.4-3.1v-16.7
			c0-0.2,0-0.3,0.1-0.4s0.3-0.2,0.6-0.3c0.3-0.1,0.6-0.1,1.1-0.2c0.4,0,1-0.1,1.7-0.1c0.7,0,1.3,0,1.8,0.1c0.4,0,0.8,0.1,1,0.2
			c0.3,0.1,0.4,0.2,0.5,0.3s0.1,0.3,0.1,0.4V316.6z"/>
		<path class="st5" d="M249,325.3c0,0.5,0,0.9-0.1,1.2c0,0.3-0.1,0.6-0.2,0.8c-0.1,0.2-0.2,0.4-0.3,0.4c-0.1,0.1-0.2,0.1-0.4,0.1
			h-15.6c-0.5,0-1-0.2-1.4-0.5c-0.4-0.3-0.6-0.8-0.6-1.5V301c0-0.7,0.2-1.2,0.6-1.5c0.4-0.3,0.8-0.5,1.4-0.5H248
			c0.1,0,0.3,0,0.4,0.1c0.1,0.1,0.2,0.2,0.3,0.4c0.1,0.2,0.1,0.5,0.2,0.8c0,0.3,0.1,0.8,0.1,1.3c0,0.5,0,0.9-0.1,1.2
			c0,0.3-0.1,0.6-0.2,0.8c-0.1,0.2-0.2,0.4-0.3,0.4c-0.1,0.1-0.2,0.1-0.4,0.1h-10.4v6.2h8.8c0.1,0,0.3,0,0.4,0.1
			c0.1,0.1,0.2,0.2,0.3,0.4c0.1,0.2,0.1,0.5,0.2,0.8c0,0.3,0.1,0.8,0.1,1.3c0,0.5,0,0.9-0.1,1.2c0,0.3-0.1,0.6-0.2,0.8
			c-0.1,0.2-0.2,0.3-0.3,0.4c-0.1,0.1-0.3,0.1-0.4,0.1h-8.8v7h10.5c0.1,0,0.3,0,0.4,0.1c0.1,0.1,0.2,0.2,0.3,0.4
			c0.1,0.2,0.1,0.5,0.2,0.8C249,324.4,249,324.8,249,325.3z"/>
		<path class="st5" d="M281.4,319.2c0,1.1-0.2,2.1-0.5,2.9c-0.3,0.9-0.8,1.6-1.3,2.3c-0.6,0.7-1.2,1.2-2,1.7
			c-0.8,0.5-1.6,0.8-2.5,1.1c-0.9,0.3-1.9,0.5-2.9,0.6c-1,0.1-2.2,0.2-3.5,0.2h-9.1c-0.5,0-1-0.2-1.4-0.5c-0.4-0.3-0.6-0.8-0.6-1.5
			V301c0-0.7,0.2-1.2,0.6-1.5c0.4-0.3,0.8-0.5,1.4-0.5h9.2c1.8,0,3.4,0.1,4.7,0.4c1.3,0.3,2.4,0.7,3.3,1.3c0.9,0.6,1.6,1.4,2.1,2.3
			c0.5,0.9,0.7,2,0.7,3.3c0,0.7-0.1,1.4-0.3,2s-0.5,1.2-0.8,1.7c-0.4,0.5-0.8,1-1.3,1.3c-0.5,0.4-1.1,0.7-1.8,0.9
			c0.9,0.1,1.6,0.4,2.4,0.7s1.4,0.8,1.9,1.4c0.5,0.6,1,1.2,1.3,2S281.4,318.2,281.4,319.2z M272.5,307.4c0-0.5-0.1-1-0.2-1.4
			c-0.2-0.4-0.4-0.8-0.8-1.1s-0.8-0.5-1.3-0.7c-0.5-0.1-1.2-0.2-2.1-0.2h-3.8v6.9h4c0.9,0,1.5-0.1,2-0.3c0.5-0.2,0.9-0.4,1.2-0.8
			c0.3-0.3,0.5-0.7,0.7-1.1C272.4,308.3,272.5,307.8,272.5,307.4z M273.9,319.3c0-0.6-0.1-1.1-0.3-1.6s-0.5-0.9-0.9-1.2
			c-0.4-0.3-0.9-0.6-1.5-0.7c-0.6-0.2-1.5-0.3-2.5-0.3h-4.2v7.4h4.9c0.9,0,1.5-0.1,2.1-0.2c0.5-0.2,1-0.4,1.3-0.7
			c0.4-0.3,0.7-0.7,0.9-1.1C273.8,320.4,273.9,319.9,273.9,319.3z"/>
		<path class="st5" d="M314.1,325.4c0.2,0.6,0.3,1.1,0.4,1.5s0,0.6-0.2,0.8c-0.2,0.2-0.6,0.3-1.1,0.4c-0.5,0-1.3,0.1-2.3,0.1
			c-0.9,0-1.6,0-2.1,0c-0.5,0-0.9-0.1-1.1-0.1c-0.3-0.1-0.4-0.2-0.5-0.3c-0.1-0.1-0.2-0.3-0.3-0.6l-1.8-5.2h-11.2l-1.7,5
			c-0.1,0.3-0.2,0.5-0.3,0.6s-0.3,0.3-0.6,0.4c-0.3,0.1-0.6,0.1-1.1,0.2c-0.5,0-1.1,0-1.9,0c-0.8,0-1.4,0-1.9-0.1
			c-0.4-0.1-0.8-0.2-0.9-0.4c-0.2-0.2-0.2-0.5-0.2-0.9c0.1-0.4,0.2-0.9,0.4-1.5l9.1-25.1c0.1-0.3,0.2-0.5,0.4-0.7
			c0.2-0.2,0.4-0.3,0.7-0.4c0.3-0.1,0.8-0.2,1.3-0.2c0.6,0,1.3-0.1,2.2-0.1c0.7,0,1.4,0,1.9,0c0.5,0,1,0,1.4,0.1s0.7,0.1,0.9,0.1
			c0.2,0.1,0.4,0.1,0.6,0.3s0.3,0.2,0.4,0.4c0.1,0.2,0.2,0.3,0.2,0.6L314.1,325.4z M299.6,304.8L299.6,304.8l-4,11.9h8L299.6,304.8z
			"/>
		<path class="st5" d="M137.7,358.6c0,1.7-0.3,3.2-0.8,4.5c-0.5,1.3-1.3,2.4-2.3,3.2c-1,0.9-2.3,1.5-3.8,1.9
			c-1.5,0.4-3.3,0.7-5.4,0.7h-2.9v8.8c0,0.2-0.1,0.3-0.2,0.5c-0.1,0.1-0.3,0.2-0.6,0.3s-0.6,0.1-1.1,0.2c-0.5,0-1,0.1-1.7,0.1
			c-0.7,0-1.3,0-1.7-0.1c-0.5,0-0.8-0.1-1.1-0.2c-0.3-0.1-0.4-0.2-0.6-0.3c-0.1-0.1-0.2-0.3-0.2-0.5V352c0-0.7,0.2-1.3,0.6-1.7
			c0.4-0.4,1-0.6,1.7-0.6h8.2c0.7,0,1.4,0,2.1,0.1c0.7,0.1,1.4,0.1,2,0.3c1.2,0.2,2.3,0.5,3.2,1c0.9,0.5,1.7,1.1,2.4,1.8
			s1.2,1.6,1.5,2.5C137.5,356.3,137.7,357.4,137.7,358.6z M130.3,359.1c0-1-0.2-1.9-0.7-2.6c-0.4-0.7-1.1-1.2-1.9-1.5
			c-0.3-0.1-0.7-0.2-1.1-0.2s-0.8-0.1-1.3-0.1h-2.9v9h3.2c0.9,0,1.7-0.1,2.2-0.4c0.5-0.2,1-0.6,1.4-1s0.6-0.9,0.8-1.5
			C130.2,360.4,130.3,359.8,130.3,359.1z"/>
		<path class="st5" d="M169,378.1c0,0.1-0.1,0.2-0.2,0.3c-0.1,0.1-0.3,0.2-0.6,0.2c-0.3,0-0.7,0.1-1.2,0.1c-0.5,0-1.2,0-2,0
			c-0.8,0-1.4,0-1.9-0.1c-0.5,0-0.9-0.1-1.1-0.2c-0.3-0.1-0.5-0.2-0.6-0.4c-0.1-0.1-0.2-0.3-0.3-0.5l-2.1-6.2
			c-0.3-0.7-0.5-1.3-0.8-1.9c-0.3-0.5-0.6-0.9-0.9-1.3s-0.7-0.6-1.1-0.8s-1-0.2-1.6-0.2h-2v10.5c0,0.2-0.1,0.3-0.2,0.5
			c-0.1,0.1-0.3,0.2-0.6,0.3s-0.6,0.1-1.1,0.2c-0.5,0-1,0.1-1.7,0.1c-0.7,0-1.3,0-1.7-0.1c-0.5,0-0.8-0.1-1.1-0.2
			c-0.3-0.1-0.4-0.2-0.6-0.3c-0.1-0.1-0.2-0.3-0.2-0.5v-26.1c0-0.7,0.2-1.2,0.6-1.5s0.8-0.5,1.4-0.5h9.3c1.8,0,3.4,0.2,4.7,0.5
			s2.4,0.8,3.4,1.4s1.7,1.5,2.2,2.5c0.5,1,0.8,2.2,0.8,3.6c0,1-0.1,1.9-0.4,2.7c-0.2,0.8-0.6,1.5-1.1,2.2c-0.5,0.6-1.1,1.2-1.8,1.7
			c-0.7,0.5-1.5,0.9-2.5,1.2c0.5,0.2,0.9,0.4,1.3,0.7c0.4,0.3,0.7,0.6,1.1,1s0.7,0.9,1,1.4c0.3,0.6,0.6,1.2,0.9,1.9l2.3,5.9
			c0.2,0.5,0.3,0.9,0.4,1.2C169,377.7,169,377.9,169,378.1z M160.3,358.4c0-0.5-0.1-1-0.2-1.4c-0.2-0.4-0.4-0.8-0.7-1.1
			c-0.3-0.3-0.8-0.6-1.3-0.7s-1.3-0.3-2.3-0.3h-3.2v7.5h3c0.9,0,1.7-0.1,2.2-0.3c0.6-0.2,1-0.4,1.4-0.8c0.4-0.3,0.7-0.7,0.9-1.2
			S160.3,359,160.3,358.4z"/>
		<path class="st5" d="M201.4,376c0.2,0.6,0.3,1.1,0.4,1.5c0.1,0.4,0,0.6-0.2,0.8c-0.2,0.2-0.6,0.3-1.1,0.4c-0.5,0-1.3,0.1-2.3,0.1
			c-0.9,0-1.6,0-2.1,0c-0.5,0-0.9-0.1-1.1-0.1c-0.3-0.1-0.4-0.2-0.5-0.3c-0.1-0.1-0.2-0.3-0.3-0.6l-1.8-5.2h-11.2l-1.7,5
			c-0.1,0.3-0.2,0.5-0.3,0.6c-0.1,0.2-0.3,0.3-0.6,0.4c-0.3,0.1-0.6,0.1-1.1,0.2c-0.5,0-1.1,0-1.9,0c-0.8,0-1.4,0-1.9-0.1
			c-0.4-0.1-0.8-0.2-0.9-0.4c-0.2-0.2-0.2-0.5-0.2-0.9s0.2-0.9,0.4-1.5l9.1-25.1c0.1-0.3,0.2-0.5,0.4-0.7c0.2-0.2,0.4-0.3,0.7-0.4
			c0.3-0.1,0.8-0.2,1.3-0.2c0.6,0,1.3-0.1,2.2-0.1c0.7,0,1.4,0,1.9,0c0.5,0,1,0,1.4,0.1c0.4,0,0.7,0.1,0.9,0.1
			c0.2,0.1,0.4,0.1,0.6,0.3c0.2,0.1,0.3,0.2,0.4,0.4c0.1,0.2,0.2,0.3,0.2,0.6L201.4,376z M186.9,355.4L186.9,355.4l-4,11.9h8
			L186.9,355.4z M189.1,339.2c0.2-0.2,0.3-0.4,0.5-0.6c0.2-0.2,0.4-0.3,0.7-0.4c0.3-0.1,0.7-0.1,1.1-0.2c0.4,0,1,0,1.6,0
			c0.8,0,1.5,0,2,0.1s0.8,0.2,1,0.4c0.2,0.2,0.3,0.3,0.2,0.5c-0.1,0.2-0.2,0.4-0.4,0.6l-5.7,5.9c-0.1,0.2-0.3,0.3-0.5,0.4
			c-0.2,0.1-0.4,0.2-0.6,0.3c-0.2,0.1-0.5,0.1-0.9,0.2c-0.4,0-0.8,0.1-1.4,0.1c-0.6,0-1.1,0-1.5-0.1c-0.4-0.1-0.6-0.1-0.8-0.3
			c-0.1-0.1-0.2-0.3-0.2-0.4c0-0.2,0.1-0.4,0.3-0.7L189.1,339.2z"/>
		<path class="st5" d="M228.2,374.1c0,0.7,0,1.3-0.1,1.8c-0.1,0.4-0.3,0.8-0.5,1s-0.6,0.5-1.1,0.8c-0.5,0.3-1,0.5-1.7,0.7
			c-0.7,0.2-1.4,0.4-2.2,0.5s-1.7,0.2-2.7,0.2c-2.1,0-4-0.3-5.8-0.9c-1.7-0.6-3.2-1.5-4.4-2.8c-1.2-1.2-2.2-2.8-2.8-4.6
			c-0.7-1.9-1-4-1-6.5c0-2.5,0.3-4.7,1-6.6c0.7-1.9,1.7-3.5,2.9-4.8c1.2-1.3,2.7-2.3,4.5-2.9c1.7-0.7,3.7-1,5.8-1
			c0.8,0,1.5,0.1,2.3,0.2c0.8,0.1,1.5,0.3,2.1,0.5c0.6,0.2,1.2,0.4,1.7,0.7c0.5,0.3,0.9,0.5,1.1,0.8c0.3,0.3,0.4,0.6,0.5,1
			c0.1,0.4,0.2,1.1,0.2,2c0,0.5,0,1-0.1,1.3c0,0.3-0.1,0.6-0.2,0.8c-0.1,0.2-0.2,0.4-0.3,0.5c-0.1,0.1-0.2,0.1-0.4,0.1
			c-0.2,0-0.5-0.1-0.8-0.4c-0.3-0.2-0.8-0.5-1.3-0.8s-1.2-0.6-1.9-0.8c-0.7-0.2-1.6-0.4-2.7-0.4c-1.1,0-2.1,0.2-3,0.7
			c-0.9,0.4-1.6,1.1-2.2,1.9s-1,1.8-1.3,2.9s-0.5,2.4-0.5,3.8c0,1.6,0.2,3,0.5,4.2c0.4,1.2,0.9,2.2,1.5,2.9c0.7,0.8,1.5,1.3,2.4,1.7
			c0.9,0.4,1.9,0.5,3.1,0.5c0.9,0,1.8-0.1,2.5-0.3c0.7-0.2,1.3-0.5,1.8-0.7c0.5-0.3,0.9-0.5,1.3-0.7c0.4-0.2,0.6-0.3,0.9-0.3
			c0.1,0,0.2,0,0.3,0.1c0.1,0.1,0.2,0.2,0.2,0.4s0.1,0.5,0.1,0.9C228.2,373,228.2,373.5,228.2,374.1z"/>
		<path class="st5" d="M256,352.4c0,1-0.1,1.7-0.2,2.1c-0.2,0.4-0.4,0.6-0.7,0.6h-6.9v22.6c0,0.2-0.1,0.3-0.2,0.5s-0.3,0.2-0.6,0.3
			c-0.3,0.1-0.6,0.1-1.1,0.2c-0.5,0-1,0.1-1.7,0.1c-0.7,0-1.3,0-1.7-0.1c-0.4,0-0.8-0.1-1.1-0.2c-0.3-0.1-0.5-0.2-0.6-0.3
			s-0.2-0.3-0.2-0.5v-22.6h-6.9c-0.1,0-0.3,0-0.4-0.1s-0.2-0.2-0.3-0.5c-0.1-0.2-0.1-0.5-0.2-0.9c0-0.4-0.1-0.8-0.1-1.3
			c0-0.5,0-1,0.1-1.3c0-0.4,0.1-0.6,0.2-0.8c0.1-0.2,0.2-0.4,0.3-0.4s0.2-0.1,0.4-0.1h21c0.1,0,0.3,0,0.4,0.1
			c0.1,0.1,0.2,0.2,0.3,0.4c0.1,0.2,0.1,0.5,0.2,0.8C256,351.5,256,351.9,256,352.4z"/>
		<path class="st5" d="M269.7,377.7c0,0.2-0.1,0.3-0.2,0.5c-0.1,0.1-0.3,0.2-0.6,0.3c-0.3,0.1-0.6,0.1-1.1,0.2c-0.5,0-1,0.1-1.7,0.1
			c-0.7,0-1.3,0-1.7-0.1c-0.5,0-0.8-0.1-1.1-0.2c-0.3-0.1-0.5-0.2-0.6-0.3c-0.1-0.1-0.2-0.3-0.2-0.5v-27.3c0-0.2,0.1-0.3,0.2-0.4
			s0.3-0.2,0.6-0.3c0.3-0.1,0.6-0.1,1.1-0.2c0.5,0,1-0.1,1.7-0.1c0.7,0,1.2,0,1.7,0.1c0.5,0,0.8,0.1,1.1,0.2
			c0.3,0.1,0.5,0.2,0.6,0.3c0.1,0.1,0.2,0.3,0.2,0.4V377.7z"/>
		<path class="st5" d="M300.2,374.1c0,0.7,0,1.3-0.1,1.8c-0.1,0.4-0.3,0.8-0.5,1s-0.6,0.5-1.1,0.8c-0.5,0.3-1,0.5-1.7,0.7
			c-0.7,0.2-1.4,0.4-2.2,0.5s-1.7,0.2-2.7,0.2c-2.1,0-4-0.3-5.8-0.9c-1.7-0.6-3.2-1.5-4.4-2.8c-1.2-1.2-2.2-2.8-2.8-4.6
			c-0.7-1.9-1-4-1-6.5c0-2.5,0.3-4.7,1-6.6c0.7-1.9,1.7-3.5,2.9-4.8c1.2-1.3,2.7-2.3,4.5-2.9c1.7-0.7,3.7-1,5.8-1
			c0.8,0,1.5,0.1,2.3,0.2c0.8,0.1,1.5,0.3,2.1,0.5c0.6,0.2,1.2,0.4,1.7,0.7c0.5,0.3,0.9,0.5,1.1,0.8c0.3,0.3,0.4,0.6,0.5,1
			c0.1,0.4,0.2,1.1,0.2,2c0,0.5,0,1-0.1,1.3c0,0.3-0.1,0.6-0.2,0.8c-0.1,0.2-0.2,0.4-0.3,0.5c-0.1,0.1-0.2,0.1-0.4,0.1
			c-0.2,0-0.5-0.1-0.8-0.4c-0.3-0.2-0.8-0.5-1.3-0.8s-1.2-0.6-1.9-0.8c-0.7-0.2-1.6-0.4-2.7-0.4c-1.1,0-2.1,0.2-3,0.7
			c-0.9,0.4-1.6,1.1-2.2,1.9s-1,1.8-1.3,2.9s-0.5,2.4-0.5,3.8c0,1.6,0.2,3,0.5,4.2c0.4,1.2,0.9,2.2,1.5,2.9c0.7,0.8,1.5,1.3,2.4,1.7
			c0.9,0.4,1.9,0.5,3.1,0.5c0.9,0,1.8-0.1,2.5-0.3c0.7-0.2,1.3-0.5,1.8-0.7c0.5-0.3,0.9-0.5,1.3-0.7c0.4-0.2,0.6-0.3,0.9-0.3
			c0.1,0,0.2,0,0.3,0.1c0.1,0.1,0.2,0.2,0.2,0.4s0.1,0.5,0.1,0.9C300.2,373,300.2,373.5,300.2,374.1z"/>
		<path class="st5" d="M333.3,376c0.2,0.6,0.3,1.1,0.4,1.5c0.1,0.4,0,0.6-0.2,0.8c-0.2,0.2-0.6,0.3-1.1,0.4c-0.5,0-1.3,0.1-2.3,0.1
			c-0.9,0-1.6,0-2.1,0c-0.5,0-0.9-0.1-1.1-0.1c-0.3-0.1-0.4-0.2-0.5-0.3c-0.1-0.1-0.2-0.3-0.3-0.6l-1.8-5.2h-11.2l-1.7,5
			c-0.1,0.3-0.2,0.5-0.3,0.6c-0.1,0.2-0.3,0.3-0.6,0.4c-0.3,0.1-0.6,0.1-1.1,0.2c-0.5,0-1.1,0-1.9,0c-0.8,0-1.4,0-1.9-0.1
			c-0.4-0.1-0.8-0.2-0.9-0.4c-0.2-0.2-0.2-0.5-0.2-0.9s0.2-0.9,0.4-1.5l9.1-25.1c0.1-0.3,0.2-0.5,0.4-0.7c0.2-0.2,0.4-0.3,0.7-0.4
			c0.3-0.1,0.8-0.2,1.3-0.2c0.6,0,1.3-0.1,2.2-0.1c0.7,0,1.4,0,1.9,0c0.5,0,1,0,1.4,0.1c0.4,0,0.7,0.1,0.9,0.1
			c0.2,0.1,0.4,0.1,0.6,0.3c0.2,0.1,0.3,0.2,0.4,0.4c0.1,0.2,0.2,0.3,0.2,0.6L333.3,376z M318.8,355.4L318.8,355.4l-4,11.9h8
			L318.8,355.4z"/>
	</g>
	<g>
		<g>
			<path class="st2" d="M251.2,214h-39.2c-2,0-3.7,1.6-3.7,3.7c0,2,1.6,3.7,3.7,3.7h11.3v1.1c0,3.4,2.8,6.2,6.2,6.2h4.2
				c3.4,0,6.2-2.8,6.2-6.2v-1.1h11.3c2,0,3.7-1.6,3.7-3.7C254.9,215.6,253.3,214,251.2,214z"/>
			<path class="st2" d="M258.8,129.7c-8.6-7.7-20.2-11.4-31.8-10.1c-18.3,2-33.4,16.8-35.7,35c-1.7,13.4,2.9,26.3,12.7,35.3
				c5.2,4.8,7.3,8.9,7.3,14.3v1.3c0,1.8,1.4,3.2,3.2,3.2h34.3c1.8,0,3.2-1.4,3.2-3.2v-1.4c0-5.3,2.1-9.5,7.2-14.2
				c8.3-7.7,13.1-18.6,13.1-29.9C272.4,148.5,267.4,137.5,258.8,129.7z M227.5,185.5l-13.7-13.7l6.4-6.9l6.8,6.8l23-23l7.1,7.1
				L227.5,185.5z"/>
		</g>
	</g>
</g>
</svg>
