<?xml version="1.0" encoding="utf-8"?>
<!-- Generator: Adobe Illustrator 24.2.1, SVG Export Plug-In . SVG Version: 6.00 Build 0)  -->
<svg version="1.1" id="Capa_1" xmlns="http://www.w3.org/2000/svg" xmlns:xlink="http://www.w3.org/1999/xlink" x="0px" y="0px"
	 viewBox="0 0 460.9 433.9" style="enable-background:new 0 0 460.9 433.9;" xml:space="preserve">
<style type="text/css">
	.st0{fill:#E9ECEA;}
	.st1{fill:#00B4C3;}
	.st2{fill:#FFFFFF;}
	.st3{fill:#EF4853;}
	.st4{fill:#A8C838;}
	.st5{fill:#F9A048;}
</style>
<g>
	<path class="st0" d="M427.2,0H33.6C15.1,0,0,15.1,0,33.6v54.7v257.2v54.7c0,18.6,15.1,33.6,33.6,33.6h393.6
		c18.6,0,33.6-15.1,33.6-33.6v-54.7V88.4V33.6C460.9,15.1,445.8,0,427.2,0z"/>
	<path class="st4" d="M324.5,301H133.6c-13,0-23.6-10.6-23.6-23.6V114.1c0-13,10.6-23.6,23.6-23.6h190.9c13,0,23.6,10.6,23.6,23.6
		v163.3C348.1,290.5,337.5,301,324.5,301z"/>
	<g>
		<path class="st4" d="M83.2,339.4c0,2.7-0.4,5-1.1,6.9s-1.8,3.4-3.1,4.6c-1.4,1.2-3,2-4.9,2.6c-1.9,0.5-4.2,0.8-6.8,0.8h-7.9
			c-0.5,0-1-0.2-1.4-0.5c-0.4-0.3-0.6-0.8-0.6-1.5v-24.9c0-0.7,0.2-1.2,0.6-1.5s0.8-0.5,1.4-0.5h8.5c2.6,0,4.8,0.3,6.7,0.9
			c1.9,0.6,3.4,1.5,4.7,2.6c1.3,1.2,2.3,2.6,2.9,4.4C82.9,335,83.2,337.1,83.2,339.4z M76,339.6c0-1.3-0.1-2.5-0.4-3.5
			c-0.3-1.1-0.8-2-1.4-2.8c-0.7-0.8-1.5-1.4-2.6-1.9c-1.1-0.5-2.5-0.7-4.2-0.7h-2.9v18.3h2.9c1.6,0,2.9-0.2,3.9-0.6
			c1-0.4,1.9-1,2.6-1.8c0.7-0.8,1.2-1.8,1.6-2.9C75.8,342.5,76,341.1,76,339.6z"/>
		<path class="st4" d="M110,351.6c0,0.5,0,0.9-0.1,1.2c0,0.3-0.1,0.6-0.2,0.8c-0.1,0.2-0.2,0.4-0.3,0.4c-0.1,0.1-0.2,0.1-0.4,0.1
			H93.4c-0.5,0-1-0.2-1.4-0.5c-0.4-0.3-0.6-0.8-0.6-1.5v-24.9c0-0.7,0.2-1.2,0.6-1.5s0.8-0.5,1.4-0.5h15.5c0.1,0,0.3,0,0.4,0.1
			c0.1,0.1,0.2,0.2,0.3,0.4s0.1,0.5,0.2,0.8c0,0.3,0.1,0.8,0.1,1.3c0,0.5,0,0.9-0.1,1.2c0,0.3-0.1,0.6-0.2,0.8s-0.2,0.4-0.3,0.4
			c-0.1,0.1-0.2,0.1-0.4,0.1H98.5v6.2h8.8c0.1,0,0.3,0,0.4,0.1c0.1,0.1,0.2,0.2,0.3,0.4s0.1,0.5,0.2,0.8c0,0.3,0.1,0.8,0.1,1.3
			c0,0.5,0,0.9-0.1,1.2c0,0.3-0.1,0.6-0.2,0.8s-0.2,0.3-0.3,0.4c-0.1,0.1-0.3,0.1-0.4,0.1h-8.8v7H109c0.1,0,0.3,0,0.4,0.1
			c0.1,0.1,0.2,0.2,0.3,0.4c0.1,0.2,0.1,0.5,0.2,0.8C109.9,350.7,110,351.1,110,351.6z"/>
		<path class="st4" d="M138.7,349.8c0,0.7,0,1.3-0.1,1.8c-0.1,0.4-0.3,0.8-0.5,1c-0.3,0.3-0.6,0.5-1.1,0.8s-1,0.5-1.7,0.7
			c-0.7,0.2-1.4,0.4-2.2,0.5c-0.8,0.1-1.7,0.2-2.7,0.2c-2.1,0-4-0.3-5.8-0.9c-1.7-0.6-3.2-1.5-4.4-2.8s-2.2-2.8-2.8-4.6s-1-4-1-6.5
			c0-2.5,0.3-4.7,1-6.6c0.7-1.9,1.7-3.5,2.9-4.8c1.2-1.3,2.7-2.3,4.5-2.9c1.7-0.7,3.7-1,5.8-1c0.8,0,1.5,0.1,2.3,0.2
			c0.8,0.1,1.5,0.3,2.1,0.5c0.6,0.2,1.2,0.4,1.7,0.7c0.5,0.3,0.9,0.5,1.1,0.8c0.3,0.3,0.4,0.6,0.5,1c0.1,0.4,0.2,1.1,0.2,2
			c0,0.5,0,1-0.1,1.3c0,0.3-0.1,0.6-0.2,0.8c-0.1,0.2-0.2,0.4-0.3,0.5s-0.2,0.1-0.4,0.1c-0.2,0-0.5-0.1-0.8-0.4
			c-0.3-0.2-0.8-0.5-1.3-0.8c-0.5-0.3-1.2-0.6-1.9-0.8s-1.6-0.4-2.7-0.4c-1.1,0-2.1,0.2-3,0.7c-0.9,0.4-1.6,1.1-2.2,1.9
			c-0.6,0.8-1,1.8-1.3,2.9s-0.5,2.4-0.5,3.8c0,1.6,0.2,3,0.5,4.2c0.4,1.2,0.9,2.2,1.5,2.9c0.7,0.8,1.5,1.3,2.4,1.7
			c0.9,0.4,1.9,0.5,3.1,0.5c0.9,0,1.8-0.1,2.5-0.3c0.7-0.2,1.3-0.5,1.8-0.7c0.5-0.3,0.9-0.5,1.3-0.7c0.4-0.2,0.6-0.3,0.9-0.3
			c0.1,0,0.2,0,0.3,0.1s0.2,0.2,0.2,0.4c0.1,0.2,0.1,0.5,0.1,0.9C138.7,348.7,138.7,349.2,138.7,349.8z"/>
		<path class="st4" d="M163.3,351.5c0,1-0.1,1.7-0.3,2.1c-0.2,0.4-0.4,0.6-0.7,0.6h-14c-0.5,0-1-0.2-1.4-0.5
			c-0.4-0.3-0.6-0.8-0.6-1.5v-26.1c0-0.2,0.1-0.3,0.2-0.4c0.1-0.1,0.3-0.2,0.6-0.3c0.3-0.1,0.6-0.1,1.1-0.2c0.5,0,1-0.1,1.7-0.1
			c0.7,0,1.2,0,1.7,0.1c0.5,0,0.8,0.1,1.1,0.2c0.3,0.1,0.5,0.2,0.6,0.3c0.1,0.1,0.2,0.3,0.2,0.4v22.5h8.8c0.2,0,0.3,0,0.4,0.1
			s0.2,0.2,0.3,0.5c0.1,0.2,0.2,0.5,0.2,0.9C163.3,350.5,163.3,351,163.3,351.5z"/>
		<path class="st4" d="M195.4,351.7c0.2,0.6,0.3,1.1,0.4,1.5s0,0.6-0.2,0.8c-0.2,0.2-0.6,0.3-1.1,0.4c-0.5,0-1.3,0.1-2.3,0.1
			c-0.9,0-1.6,0-2.1,0c-0.5,0-0.9-0.1-1.1-0.1c-0.3-0.1-0.4-0.2-0.5-0.3c-0.1-0.1-0.2-0.3-0.3-0.6l-1.8-5.2h-11.2l-1.7,5
			c-0.1,0.3-0.2,0.5-0.3,0.6s-0.3,0.3-0.6,0.4c-0.3,0.1-0.6,0.1-1.1,0.2c-0.5,0-1.1,0-1.9,0c-0.8,0-1.4,0-1.9-0.1
			c-0.4-0.1-0.8-0.2-0.9-0.4c-0.2-0.2-0.2-0.5-0.2-0.9s0.2-0.9,0.4-1.5l9.1-25.1c0.1-0.3,0.2-0.5,0.4-0.7c0.2-0.2,0.4-0.3,0.7-0.4
			c0.3-0.1,0.8-0.2,1.3-0.2s1.3-0.1,2.2-0.1c0.7,0,1.4,0,1.9,0c0.5,0,1,0,1.4,0.1c0.4,0,0.7,0.1,0.9,0.1c0.2,0.1,0.4,0.1,0.6,0.3
			c0.2,0.1,0.3,0.2,0.4,0.4c0.1,0.2,0.2,0.3,0.2,0.6L195.4,351.7z M180.9,331.1L180.9,331.1l-4,11.9h8L180.9,331.1z"/>
		<path class="st4" d="M225.6,353.7c0,0.1-0.1,0.2-0.2,0.3c-0.1,0.1-0.3,0.2-0.6,0.2c-0.3,0-0.7,0.1-1.2,0.1s-1.2,0-2,0
			c-0.8,0-1.4,0-1.9-0.1s-0.9-0.1-1.1-0.2s-0.5-0.2-0.6-0.4s-0.2-0.3-0.3-0.5l-2.1-6.2c-0.3-0.7-0.5-1.3-0.8-1.9
			c-0.3-0.5-0.6-0.9-0.9-1.3s-0.7-0.6-1.1-0.8s-1-0.2-1.6-0.2h-2v10.5c0,0.2-0.1,0.3-0.2,0.5c-0.1,0.1-0.3,0.2-0.6,0.3
			s-0.6,0.1-1.1,0.2c-0.5,0-1,0.1-1.7,0.1c-0.7,0-1.3,0-1.7-0.1s-0.8-0.1-1.1-0.2c-0.3-0.1-0.4-0.2-0.6-0.3
			c-0.1-0.1-0.2-0.3-0.2-0.5v-26.1c0-0.7,0.2-1.2,0.6-1.5s0.8-0.5,1.4-0.5h9.3c1.8,0,3.4,0.2,4.7,0.5c1.3,0.3,2.4,0.8,3.4,1.4
			s1.7,1.5,2.2,2.5c0.5,1,0.8,2.2,0.8,3.6c0,1-0.1,1.9-0.4,2.7c-0.2,0.8-0.6,1.5-1.1,2.2c-0.5,0.6-1.1,1.2-1.8,1.7
			c-0.7,0.5-1.5,0.9-2.5,1.2c0.5,0.2,0.9,0.4,1.3,0.7c0.4,0.3,0.7,0.6,1.1,1s0.7,0.9,1,1.4c0.3,0.6,0.6,1.2,0.9,1.9l2.3,5.9
			c0.2,0.5,0.3,0.9,0.4,1.2C225.6,353.4,225.6,353.6,225.6,353.7z M216.9,334.1c0-0.5-0.1-1-0.2-1.4c-0.2-0.4-0.4-0.8-0.7-1.1
			s-0.8-0.6-1.3-0.7c-0.5-0.2-1.3-0.3-2.3-0.3h-3.2v7.5h3c0.9,0,1.7-0.1,2.2-0.3c0.6-0.2,1-0.4,1.4-0.8s0.7-0.7,0.9-1.2
			C216.8,335.2,216.9,334.7,216.9,334.1z"/>
		<path class="st4" d="M258,351.7c0.2,0.6,0.3,1.1,0.4,1.5s0,0.6-0.2,0.8c-0.2,0.2-0.6,0.3-1.1,0.4c-0.5,0-1.3,0.1-2.3,0.1
			c-0.9,0-1.6,0-2.1,0c-0.5,0-0.9-0.1-1.1-0.1c-0.3-0.1-0.4-0.2-0.5-0.3c-0.1-0.1-0.2-0.3-0.3-0.6l-1.8-5.2h-11.2l-1.7,5
			c-0.1,0.3-0.2,0.5-0.3,0.6s-0.3,0.3-0.6,0.4c-0.3,0.1-0.6,0.1-1.1,0.2c-0.5,0-1.1,0-1.9,0c-0.8,0-1.4,0-1.9-0.1
			c-0.4-0.1-0.8-0.2-0.9-0.4c-0.2-0.2-0.2-0.5-0.2-0.9s0.2-0.9,0.4-1.5l9.1-25.1c0.1-0.3,0.2-0.5,0.4-0.7c0.2-0.2,0.4-0.3,0.7-0.4
			c0.3-0.1,0.8-0.2,1.3-0.2s1.3-0.1,2.2-0.1c0.7,0,1.4,0,1.9,0c0.5,0,1,0,1.4,0.1c0.4,0,0.7,0.1,0.9,0.1c0.2,0.1,0.4,0.1,0.6,0.3
			c0.2,0.1,0.3,0.2,0.4,0.4c0.1,0.2,0.2,0.3,0.2,0.6L258,351.7z M243.5,331.1L243.5,331.1l-4,11.9h8L243.5,331.1z"/>
		<path class="st4" d="M284.8,349.8c0,0.7,0,1.3-0.1,1.8c-0.1,0.4-0.3,0.8-0.5,1c-0.3,0.3-0.6,0.5-1.1,0.8s-1,0.5-1.7,0.7
			c-0.7,0.2-1.4,0.4-2.2,0.5c-0.8,0.1-1.7,0.2-2.7,0.2c-2.1,0-4-0.3-5.8-0.9c-1.7-0.6-3.2-1.5-4.4-2.8s-2.2-2.8-2.8-4.6s-1-4-1-6.5
			c0-2.5,0.3-4.7,1-6.6c0.7-1.9,1.7-3.5,2.9-4.8c1.2-1.3,2.7-2.3,4.5-2.9c1.7-0.7,3.7-1,5.8-1c0.8,0,1.5,0.1,2.3,0.2
			c0.8,0.1,1.5,0.3,2.1,0.5c0.6,0.2,1.2,0.4,1.7,0.7c0.5,0.3,0.9,0.5,1.1,0.8c0.3,0.3,0.4,0.6,0.5,1c0.1,0.4,0.2,1.1,0.2,2
			c0,0.5,0,1-0.1,1.3c0,0.3-0.1,0.6-0.2,0.8c-0.1,0.2-0.2,0.4-0.3,0.5s-0.2,0.1-0.4,0.1c-0.2,0-0.5-0.1-0.8-0.4
			c-0.3-0.2-0.8-0.5-1.3-0.8c-0.5-0.3-1.2-0.6-1.9-0.8s-1.6-0.4-2.7-0.4c-1.1,0-2.1,0.2-3,0.7c-0.9,0.4-1.6,1.1-2.2,1.9
			c-0.6,0.8-1,1.8-1.3,2.9s-0.5,2.4-0.5,3.8c0,1.6,0.2,3,0.5,4.2c0.4,1.2,0.9,2.2,1.5,2.9c0.7,0.8,1.5,1.3,2.4,1.7
			c0.9,0.4,1.9,0.5,3.1,0.5c0.9,0,1.8-0.1,2.5-0.3c0.7-0.2,1.3-0.5,1.8-0.7c0.5-0.3,0.9-0.5,1.3-0.7c0.4-0.2,0.6-0.3,0.9-0.3
			c0.1,0,0.2,0,0.3,0.1s0.2,0.2,0.2,0.4c0.1,0.2,0.1,0.5,0.1,0.9C284.8,348.7,284.8,349.2,284.8,349.8z"/>
		<path class="st4" d="M299.5,353.4c0,0.2-0.1,0.3-0.2,0.5c-0.1,0.1-0.3,0.2-0.6,0.3c-0.3,0.1-0.6,0.1-1.1,0.2c-0.5,0-1,0.1-1.7,0.1
			c-0.7,0-1.3,0-1.7-0.1c-0.5,0-0.8-0.1-1.1-0.2c-0.3-0.1-0.5-0.2-0.6-0.3c-0.1-0.1-0.2-0.3-0.2-0.5v-27.3c0-0.2,0.1-0.3,0.2-0.4
			c0.1-0.1,0.3-0.2,0.6-0.3c0.3-0.1,0.6-0.1,1.1-0.2c0.5,0,1-0.1,1.7-0.1c0.7,0,1.2,0,1.7,0.1c0.5,0,0.8,0.1,1.1,0.2
			c0.3,0.1,0.5,0.2,0.6,0.3c0.1,0.1,0.2,0.3,0.2,0.4V353.4z"/>
		<path class="st4" d="M336.9,339.4c0,2.4-0.3,4.6-1,6.5s-1.6,3.5-2.8,4.9c-1.3,1.3-2.8,2.3-4.6,3c-1.8,0.7-4,1-6.3,1
			c-2.3,0-4.4-0.3-6.2-0.8c-1.8-0.5-3.3-1.4-4.5-2.6c-1.2-1.2-2.1-2.7-2.8-4.6c-0.6-1.9-0.9-4.2-0.9-6.8c0-2.3,0.3-4.5,1-6.3
			c0.7-1.9,1.6-3.5,2.9-4.8c1.3-1.3,2.8-2.3,4.6-3c1.8-0.7,4-1,6.3-1c2.2,0,4.3,0.3,6,0.8c1.8,0.6,3.3,1.4,4.5,2.6s2.2,2.7,2.8,4.6
			C336.5,334.6,336.9,336.8,336.9,339.4z M329.5,339.8c0-1.5-0.1-2.8-0.4-3.9c-0.2-1.2-0.6-2.2-1.2-3c-0.6-0.8-1.3-1.5-2.2-1.9
			c-0.9-0.4-2-0.7-3.4-0.7c-1.4,0-2.5,0.2-3.5,0.7s-1.7,1.2-2.2,2c-0.6,0.9-1,1.9-1.2,3s-0.4,2.3-0.4,3.6c0,1.5,0.1,2.9,0.4,4.1
			c0.2,1.2,0.6,2.2,1.2,3s1.3,1.5,2.2,1.9s2,0.6,3.3,0.6c1.3,0,2.5-0.2,3.4-0.7s1.7-1.2,2.3-2c0.6-0.9,1-1.9,1.3-3
			C329.4,342.3,329.5,341.1,329.5,339.8z M324.1,314.8c0.2-0.2,0.3-0.4,0.5-0.6c0.2-0.2,0.4-0.3,0.7-0.4s0.7-0.1,1.1-0.2s1,0,1.6,0
			c0.8,0,1.5,0,2,0.1c0.5,0.1,0.8,0.2,1,0.4s0.3,0.3,0.2,0.5s-0.2,0.4-0.4,0.6l-5.7,5.9c-0.1,0.2-0.3,0.3-0.5,0.4s-0.4,0.2-0.6,0.3
			c-0.2,0.1-0.5,0.1-0.9,0.2c-0.4,0-0.8,0.1-1.4,0.1c-0.6,0-1.1,0-1.5-0.1c-0.4-0.1-0.6-0.1-0.8-0.3s-0.2-0.3-0.2-0.4
			c0-0.2,0.1-0.4,0.3-0.7L324.1,314.8z"/>
		<path class="st4" d="M371.1,352c0,0.7-0.2,1.3-0.6,1.7c-0.4,0.4-0.9,0.6-1.6,0.6h-5.5c-0.7,0-1.3-0.2-1.8-0.5s-0.8-0.9-1.1-1.7
			l-6-12.4c-0.6-1.3-1.2-2.6-1.8-3.9s-1.1-2.6-1.7-3.7h0c0,0.5,0,1.1,0,1.8c0,0.6,0,1.3,0.1,1.9c0,0.7,0,1.3,0,1.9
			c0,0.6,0,1.2,0,1.8v13.9c0,0.2,0,0.3-0.1,0.5c-0.1,0.1-0.2,0.2-0.4,0.3c-0.2,0.1-0.5,0.1-0.9,0.2c-0.4,0-0.9,0.1-1.5,0.1
			s-1.1,0-1.5-0.1s-0.7-0.1-1-0.2s-0.4-0.2-0.5-0.3c-0.1-0.1-0.1-0.3-0.1-0.5v-25.8c0-0.7,0.2-1.3,0.6-1.7c0.4-0.4,1-0.6,1.7-0.6
			h5.7c0.3,0,0.6,0,0.9,0.1c0.3,0.1,0.5,0.2,0.8,0.4c0.2,0.2,0.5,0.4,0.7,0.7c0.2,0.3,0.4,0.6,0.5,0.9l5.5,11.4
			c0.7,1.4,1.3,2.8,1.9,4.1c0.6,1.3,1.2,2.6,1.8,3.9h0.1c0-0.6,0-1.3-0.1-2c0-0.7,0-1.5,0-2.2c0-0.7,0-1.5,0-2.2c0-0.7,0-1.4,0-2.1
			v-12.2c0-0.2,0-0.3,0.1-0.4c0.1-0.1,0.2-0.2,0.5-0.3c0.2-0.1,0.5-0.2,0.9-0.2c0.4,0,0.9-0.1,1.5-0.1c0.6,0,1.1,0,1.5,0.1
			c0.4,0,0.7,0.1,0.9,0.2c0.2,0.1,0.4,0.2,0.5,0.3c0.1,0.1,0.1,0.3,0.1,0.4V352z"/>
		<path class="st4" d="M137.7,395.8c0,1.7-0.1,3.2-0.4,4.3s-0.7,2.1-1.4,2.9c-0.6,0.8-1.5,1.4-2.5,1.8c-1,0.4-2.3,0.6-3.8,0.6
			c-0.5,0-1,0-1.5-0.1c-0.5-0.1-1-0.1-1.4-0.2c-0.4-0.1-0.8-0.2-1.1-0.3s-0.5-0.2-0.6-0.4c-0.1-0.1-0.2-0.2-0.3-0.4
			c-0.1-0.1-0.1-0.3-0.1-0.4c0-0.2-0.1-0.4-0.1-0.7c0-0.3,0-0.6,0-1.1c0-0.7,0-1.2,0-1.6c0-0.4,0.1-0.7,0.1-1
			c0.1-0.2,0.1-0.4,0.2-0.5c0.1-0.1,0.2-0.1,0.4-0.1c0.2,0,0.3,0.1,0.5,0.2c0.2,0.1,0.3,0.2,0.6,0.3c0.2,0.1,0.5,0.2,0.7,0.3
			c0.3,0.1,0.6,0.1,1.1,0.1c0.5,0,0.8-0.1,1.1-0.2c0.3-0.1,0.6-0.3,0.7-0.6c0.2-0.3,0.3-0.6,0.4-1.1c0.1-0.4,0.1-1.2,0.1-2.2v-18.6
			c0-0.2,0.1-0.3,0.2-0.4c0.1-0.1,0.3-0.2,0.6-0.3c0.3-0.1,0.6-0.1,1.1-0.2c0.5,0,1-0.1,1.7-0.1c0.7,0,1.3,0,1.7,0.1
			c0.5,0,0.8,0.1,1.1,0.2c0.3,0.1,0.4,0.2,0.6,0.3c0.1,0.1,0.2,0.3,0.2,0.4V395.8z"/>
		<path class="st4" d="M172.6,393.6c0,2.1-0.3,3.9-0.8,5.3c-0.6,1.4-1.4,2.6-2.5,3.6s-2.4,1.7-4,2.3c-1.6,0.5-3.4,0.8-5.5,0.8
			c-2,0-3.8-0.2-5.3-0.7c-1.6-0.5-2.9-1.2-4-2.1s-1.9-2.1-2.5-3.5c-0.6-1.4-0.8-3.3-0.8-5.6v-16.8c0-0.2,0.1-0.3,0.2-0.4
			c0.1-0.1,0.3-0.2,0.6-0.3c0.3-0.1,0.6-0.1,1.1-0.2c0.5,0,1-0.1,1.7-0.1c0.7,0,1.3,0,1.7,0.1c0.5,0,0.8,0.1,1.1,0.2
			c0.3,0.1,0.5,0.2,0.6,0.3c0.1,0.1,0.2,0.3,0.2,0.4v16.4c0,1.5,0.1,2.6,0.4,3.4c0.3,0.8,0.7,1.4,1.2,1.9c0.5,0.5,1.1,0.9,1.9,1.1
			s1.5,0.4,2.3,0.4s1.6-0.1,2.3-0.4c0.7-0.3,1.3-0.6,1.8-1.1c0.5-0.5,0.9-1.1,1.1-1.8c0.3-0.7,0.4-1.7,0.4-3.1v-16.7
			c0-0.2,0-0.3,0.1-0.4s0.3-0.2,0.6-0.3c0.3-0.1,0.6-0.1,1.1-0.2c0.4,0,1-0.1,1.7-0.1c0.7,0,1.3,0,1.8,0.1c0.4,0,0.8,0.1,1,0.2
			c0.3,0.1,0.4,0.2,0.5,0.3s0.1,0.3,0.1,0.4V393.6z"/>
		<path class="st4" d="M205.6,404.4c0,0.1-0.1,0.2-0.2,0.3c-0.1,0.1-0.3,0.2-0.6,0.2c-0.3,0-0.7,0.1-1.2,0.1s-1.2,0-2,0
			c-0.8,0-1.4,0-1.9-0.1c-0.5,0-0.9-0.1-1.1-0.2c-0.3-0.1-0.5-0.2-0.6-0.4c-0.1-0.1-0.2-0.3-0.3-0.5l-2.1-6.2
			c-0.3-0.7-0.5-1.3-0.8-1.9c-0.3-0.5-0.6-0.9-0.9-1.3s-0.7-0.6-1.1-0.8c-0.4-0.2-1-0.2-1.6-0.2h-2v10.5c0,0.2-0.1,0.3-0.2,0.5
			c-0.1,0.1-0.3,0.2-0.6,0.3c-0.3,0.1-0.6,0.1-1.1,0.2c-0.5,0-1,0.1-1.7,0.1c-0.7,0-1.3,0-1.7-0.1c-0.5,0-0.8-0.1-1.1-0.2
			c-0.3-0.1-0.4-0.2-0.6-0.3c-0.1-0.1-0.2-0.3-0.2-0.5V378c0-0.7,0.2-1.2,0.6-1.5c0.4-0.3,0.8-0.5,1.4-0.5h9.3
			c1.8,0,3.4,0.2,4.7,0.5s2.4,0.8,3.4,1.4s1.7,1.5,2.2,2.5c0.5,1,0.8,2.2,0.8,3.6c0,1-0.1,1.9-0.4,2.7c-0.2,0.8-0.6,1.5-1.1,2.2
			c-0.5,0.6-1.1,1.2-1.8,1.7c-0.7,0.5-1.5,0.9-2.5,1.2c0.5,0.2,0.9,0.4,1.3,0.7c0.4,0.3,0.7,0.6,1.1,1c0.3,0.4,0.7,0.9,1,1.4
			c0.3,0.6,0.6,1.2,0.9,1.9l2.3,5.9c0.2,0.5,0.3,0.9,0.4,1.2C205.5,404,205.6,404.2,205.6,404.4z M196.9,384.7c0-0.5-0.1-1-0.2-1.4
			c-0.2-0.4-0.4-0.8-0.7-1.1c-0.3-0.3-0.8-0.6-1.3-0.7s-1.3-0.3-2.3-0.3h-3.2v7.5h3c0.9,0,1.7-0.1,2.2-0.3c0.6-0.2,1-0.4,1.4-0.8
			c0.4-0.3,0.7-0.7,0.9-1.2S196.9,385.3,196.9,384.7z"/>
		<path class="st4" d="M238,402.3c0.2,0.6,0.3,1.1,0.4,1.5c0.1,0.4,0,0.6-0.2,0.8c-0.2,0.2-0.6,0.3-1.1,0.4c-0.5,0-1.3,0.1-2.3,0.1
			c-0.9,0-1.6,0-2.1,0c-0.5,0-0.9-0.1-1.1-0.1c-0.3-0.1-0.4-0.2-0.5-0.3c-0.1-0.1-0.2-0.3-0.3-0.6l-1.8-5.2h-11.2l-1.7,5
			c-0.1,0.3-0.2,0.5-0.3,0.6s-0.3,0.3-0.6,0.4c-0.3,0.1-0.6,0.2-1.1,0.2c-0.5,0-1.1,0-1.9,0c-0.8,0-1.4,0-1.9-0.1
			c-0.4-0.1-0.8-0.2-0.9-0.4c-0.2-0.2-0.2-0.5-0.2-0.9c0.1-0.4,0.2-0.9,0.4-1.5l9.1-25.1c0.1-0.3,0.2-0.5,0.4-0.7
			c0.2-0.2,0.4-0.3,0.7-0.4c0.3-0.1,0.8-0.2,1.3-0.2c0.6,0,1.3-0.1,2.2-0.1c0.7,0,1.4,0,1.9,0c0.5,0,1,0,1.4,0.1
			c0.4,0,0.7,0.1,0.9,0.1c0.2,0.1,0.4,0.2,0.6,0.3c0.2,0.1,0.3,0.2,0.4,0.4c0.1,0.2,0.2,0.3,0.2,0.6L238,402.3z M223.5,381.8
			L223.5,381.8l-4,11.9h8L223.5,381.8z"/>
		<path class="st4" d="M270.5,390c0,2.7-0.4,5-1.1,6.9s-1.8,3.4-3.1,4.6c-1.4,1.2-3,2-4.9,2.6c-1.9,0.5-4.2,0.8-6.8,0.8h-7.9
			c-0.5,0-1-0.2-1.4-0.5c-0.4-0.3-0.6-0.8-0.6-1.5V378c0-0.7,0.2-1.2,0.6-1.5c0.4-0.3,0.8-0.5,1.4-0.5h8.5c2.6,0,4.8,0.3,6.7,0.9
			c1.9,0.6,3.4,1.5,4.7,2.6c1.3,1.2,2.3,2.6,2.9,4.4C270.1,385.6,270.5,387.7,270.5,390z M263.2,390.3c0-1.3-0.1-2.5-0.4-3.5
			c-0.3-1.1-0.8-2-1.4-2.8s-1.5-1.4-2.6-1.9c-1.1-0.5-2.5-0.7-4.2-0.7h-2.9v18.3h2.9c1.6,0,2.9-0.2,3.9-0.6c1-0.4,1.9-1,2.6-1.8
			c0.7-0.8,1.2-1.8,1.6-2.9C263,393.1,263.2,391.8,263.2,390.3z"/>
		<path class="st4" d="M303.1,402.3c0.2,0.6,0.3,1.1,0.4,1.5c0.1,0.4,0,0.6-0.2,0.8c-0.2,0.2-0.6,0.3-1.1,0.4
			c-0.5,0-1.3,0.1-2.3,0.1c-0.9,0-1.6,0-2.1,0c-0.5,0-0.9-0.1-1.1-0.1c-0.3-0.1-0.4-0.2-0.5-0.3c-0.1-0.1-0.2-0.3-0.3-0.6l-1.8-5.2
			H283l-1.7,5c-0.1,0.3-0.2,0.5-0.3,0.6s-0.3,0.3-0.6,0.4c-0.3,0.1-0.6,0.2-1.1,0.2c-0.5,0-1.1,0-1.9,0c-0.8,0-1.4,0-1.9-0.1
			c-0.4-0.1-0.8-0.2-0.9-0.4c-0.2-0.2-0.2-0.5-0.2-0.9c0.1-0.4,0.2-0.9,0.4-1.5l9.1-25.1c0.1-0.3,0.2-0.5,0.4-0.7
			c0.2-0.2,0.4-0.3,0.7-0.4c0.3-0.1,0.8-0.2,1.3-0.2c0.6,0,1.3-0.1,2.2-0.1c0.7,0,1.4,0,1.9,0c0.5,0,1,0,1.4,0.1
			c0.4,0,0.7,0.1,0.9,0.1c0.2,0.1,0.4,0.2,0.6,0.3c0.2,0.1,0.3,0.2,0.4,0.4c0.1,0.2,0.2,0.3,0.2,0.6L303.1,402.3z M288.6,381.8
			L288.6,381.8l-4,11.9h8L288.6,381.8z"/>
	</g>
	<g>
		<path class="st2" d="M268.3,241.4c-0.4,0.3-0.7,0.6-1.1,0.9c-0.3,0.2-0.6,0.5-0.9,0.8c-6.6,6-14.5,6.6-20.6,6.6
			c-1.3,0-2.7-0.4-4.2-1.1c-2-0.9-4.1-2.6-4.3-5.7c-0.8,0.6-1.5,1.1-2.3,1.7c-1.8,1.4-3.6,2.7-5.5,4.1c-1.3,0.9-2.9,1.7-4.5,2.3
			c-0.7,0.3-1.5,0.4-2.2,0.4c-1,0-2-0.3-2.8-0.9c-1.4-1-2.2-2.7-2.2-4.7c0-3,1.3-5.4,2.7-7.6c0.4-0.6,0.8-1.2,1.2-1.8
			c-2,1.3-3.9,2.8-5.9,4.3c-0.7,0.6-1.5,1.1-2.2,1.7c-2.9,2.1-6.1,4.2-9.4,6.2c-2,1.2-4.3,1.3-5.5,1.2c-1.7-0.1-3.2-0.8-4.2-2
			c-1-1.4-1.4-3.2-0.9-5.2c1.3-5.6,8.7-11.9,14.3-12.3c0.8-0.1,1.5,0.2,2,0.3c0.1,0,0.2,0.1,0.2,0.1l3,0.8l-1.4,2.8
			c0,0.1-0.1,0.1-0.1,0.2c-0.1,0.2-0.2,0.5-0.4,0.8c0.4-0.3,0.8-0.5,1.2-0.8c3.5-2.4,7.1-4.8,10.8-7.1c1.5-1,3.5-1.6,5.9-2
			c1.7-0.3,3.2,0.3,4.2,1.4c0.9,1.2,1.1,2.9,0.4,4.5c-0.6,1.4-1.3,2.6-2,3.8c-0.2,0.3-0.4,0.6-0.5,0.9c-0.6,1.1-1.2,2.1-1.8,3.2
			c-0.4,0.7-0.8,1.4-1.3,2.2c0,0,0,0,0.1,0c1.1-0.9,2.2-1.8,3.3-2.7c1.7-1.3,3.4-2.7,5.1-4c1.1-0.8,2.5-1.4,4.4-1.8
			c2.4-0.5,3.7,0.4,4.4,1.1c0.6,0.6,1.6,2.1,1,4.5c-0.1,0.5-0.3,1-0.4,1.5c-0.1,0.2-0.1,0.4-0.2,0.5c-0.1,0.4-0.1,0.7,0,0.8
			c0,0,0.1,0.1,0.2,0.1c1.7,0.5,3.1,0.7,4.3,0.5c2.8-0.4,5.7-1,8.5-1.7l0.3-0.1c0.3-1.4,0.6-2.8,0.9-4.1c0.7-3.1,1.3-6.2,2.4-9.3
			c1-2.9,2.4-5.5,3.8-8c0.4-0.8,0.8-1.5,1.3-2.3c2.6-4.8,5.2-9.7,7.7-14.4l2.2-4c0.2-0.4,0.5-0.8,0.7-1.1v-33.3l0,0c0-0.3,0-0.7,0-1
			c0-1.2-0.3-2-1.2-2.9c-7.8-7.8-15.6-15.6-23.4-23.4c-0.8-0.8-1.7-1-2.7-1c-22.4,0-44.9,0-67.3,0c-4.4,0-6.8,2.5-6.8,6.9
			c0,38.7,0,77.4,0,116.1c0,4.4,2.5,6.8,6.9,6.8c29.2,0,58.4,0,87.7,0c0.3,0,0.5,0,0.8,0l1.1,0l0.2-0.2c2.2-0.5,3.7-1.8,4.3-3.9
			l0.4-0.4v-29.6C275,235,271.5,238.5,268.3,241.4z"/>
		<path class="st2" d="M202.5,241c1.2-0.8,2.4-1.6,3.6-2.4c0.4-0.3,0.9-0.6,1.3-0.9c0,0,0,0,0,0C205.3,238.2,203.8,239.2,202.5,241z
			"/>
		<path class="st2" d="M264.9,236.3c0.3-0.1,0.5-0.6,0.6-0.9c0.7-3.1,1.2-6.2,2.2-9.2c0.8-2.4,2.2-4.5,3.3-6.7
			c2.2-4.2,4.5-8.3,6.7-12.4c0.2-0.4,0.5-0.7,0.7-1.2c2.2,1.2,4.4,2.4,6.7,3.6c-1.4,2.6-2.8,5.1-4.2,7.7c-1.6,3-3.3,5.9-4.8,8.9
			c-1.7,3.3-4.2,5.9-7,8.4c-0.4,0.4-0.9,0.7-1.3,1.1l-3.8,1.8L264.9,236.3z"/>
		<path class="st2" d="M286.5,206.9c-2.3-1.2-4.5-2.4-6.7-3.6c1-1.9,2-3.7,3-5.6c2.8-5.2,5.6-10.4,8.5-15.6c0.8-1.5,1.2-1.7,2.9-1
			c0.5-0.9,1-1.9,1.6-2.9c0.4-0.7,1-1,1.8-0.8c0.8,0.2,1.1,0.8,1.1,1.5c0,0.3-0.2,0.7-0.3,1c-0.5,0.9-0.9,1.7-1.4,2.6
			c0.1,0.1,0.1,0.2,0.1,0.2c1.8,1.1,1.9,1.5,0.8,3.3c-0.7,1.2-0.9,2.1-0.2,3.5c1.8,3.4,1.8,6.9-0.2,10.4c-2.3,4-4.4,8.1-6.6,12.2
			c-0.4,0.8-1,1.2-1.8,1c-0.7-0.1-1.1-0.6-1.1-1.3c0-0.4,0.2-0.9,0.4-1.3c2.3-4.3,4.6-8.6,7-12.9c0.9-1.6,1-4.3-0.2-6.4
			C292.2,196.5,289.4,201.7,286.5,206.9z"/>
	</g>
	<g>
		<path class="st4" d="M194.4,169.8c0.4,0.1,0.9,0.1,1.3,0.1c20.8,0,41.7,0,62.5,0c0.6,0,1.1,0,1.7-0.1c1-0.2,1.6-1.4,1.7-3.1
			c0.1-1.8-0.5-3-1.6-3.4c-0.4-0.2-0.9-0.1-1.3-0.1c-10.5,0-20.9,0-31.4,0c-10.5,0-21.1,0-31.6,0c-0.4,0-0.8-0.1-1.2,0
			c-1.1,0.2-1.8,1.6-1.8,3.4C192.7,168.4,193.3,169.6,194.4,169.8z"/>
		<path class="st4" d="M194.4,186.5c0.4,0.1,0.9,0.1,1.3,0.1c20.8,0,41.7,0,62.5,0c0.6,0,1.1,0,1.7-0.1c1-0.2,1.6-1.4,1.7-3.1
			c0.1-1.8-0.5-3-1.6-3.4c-0.4-0.2-0.9-0.1-1.3-0.1c-10.5,0-20.9,0-31.4,0c-10.5,0-21.1,0-31.6,0c-0.4,0-0.8-0.1-1.2,0
			c-1.1,0.2-1.8,1.6-1.8,3.4C192.7,185.1,193.3,186.3,194.4,186.5z"/>
		<path class="st4" d="M194.4,202.4c0.4,0.1,0.9,0.1,1.3,0.1c20.8,0,41.7,0,62.5,0c0.6,0,1.1,0,1.7-0.1c1-0.2,1.6-1.4,1.7-3.1
			c0.1-1.8-0.5-3-1.6-3.4c-0.4-0.2-0.9-0.1-1.3-0.1c-10.5,0-20.9,0-31.4,0c-10.5,0-21.1,0-31.6,0c-0.4,0-0.8-0.1-1.2,0
			c-1.1,0.2-1.8,1.6-1.8,3.4C192.7,201,193.3,202.1,194.4,202.4z"/>
	</g>
</g>
</svg>
