<?xml version="1.0" encoding="utf-8"?>
<!-- Generator: Adobe Illustrator 24.2.1, SVG Export Plug-In . SVG Version: 6.00 Build 0)  -->
<svg version="1.1" id="Capa_1" xmlns="http://www.w3.org/2000/svg" xmlns:xlink="http://www.w3.org/1999/xlink" x="0px" y="0px"
	 viewBox="0 0 460.9 433.9" style="enable-background:new 0 0 460.9 433.9;" xml:space="preserve">
<style type="text/css">
	.st0{fill:#E9ECEA;}
	.st1{fill:#00B4C3;}
	.st2{fill:#FFFFFF;}
	.st3{fill:#EF4853;}
	.st4{fill:#A8C838;}
	.st5{fill:#F9A048;}
</style>
<g>
	<path class="st0" d="M426.7,0H33C14.5,0-0.6,15.1-0.6,33.6v54.7v257.2v54.7c0,18.6,15.1,33.6,33.6,33.6h393.6
		c18.6,0,33.6-15.1,33.6-33.6v-54.7V88.4V33.6C460.3,15.1,445.2,0,426.7,0z"/>
	<path class="st5" d="M325,274.7H134.1c-13,0-23.6-10.6-23.6-23.6V87.8c0-13,10.6-23.6,23.6-23.6H325c13,0,23.6,10.6,23.6,23.6
		v163.3C348.6,264.2,338,274.7,325,274.7z"/>
	<g>
		<path class="st5" d="M155.3,308c0,1.7-0.3,3.2-0.8,4.5c-0.5,1.3-1.3,2.4-2.3,3.2c-1,0.9-2.3,1.5-3.8,1.9c-1.5,0.4-3.3,0.7-5.4,0.7
			h-2.9v8.8c0,0.2-0.1,0.3-0.2,0.5c-0.1,0.1-0.3,0.2-0.6,0.3c-0.3,0.1-0.6,0.1-1.1,0.2c-0.5,0-1,0.1-1.7,0.1c-0.7,0-1.3,0-1.7-0.1
			c-0.5,0-0.8-0.1-1.1-0.2c-0.3-0.1-0.4-0.2-0.6-0.3c-0.1-0.1-0.2-0.3-0.2-0.5v-25.8c0-0.7,0.2-1.3,0.6-1.7c0.4-0.4,1-0.6,1.7-0.6
			h8.2c0.7,0,1.4,0,2.1,0.1c0.7,0.1,1.4,0.1,2,0.3c1.2,0.2,2.3,0.5,3.2,1c0.9,0.5,1.7,1.1,2.4,1.8c0.7,0.7,1.2,1.6,1.5,2.5
			C155.1,305.7,155.3,306.7,155.3,308z M147.9,308.5c0-1-0.2-1.9-0.7-2.6c-0.4-0.7-1.1-1.2-1.9-1.5c-0.3-0.1-0.7-0.2-1.1-0.2
			c-0.4,0-0.8-0.1-1.3-0.1h-2.9v9h3.2c0.9,0,1.7-0.1,2.2-0.4c0.5-0.2,1-0.6,1.4-1s0.6-0.9,0.8-1.5
			C147.9,309.8,147.9,309.2,147.9,308.5z"/>
		<path class="st5" d="M186.7,327.4c0,0.1-0.1,0.2-0.2,0.3c-0.1,0.1-0.3,0.2-0.6,0.2c-0.3,0-0.7,0.1-1.2,0.1c-0.5,0-1.2,0-2,0
			c-0.8,0-1.4,0-1.9-0.1c-0.5,0-0.9-0.1-1.1-0.2c-0.3-0.1-0.5-0.2-0.6-0.4c-0.1-0.1-0.2-0.3-0.3-0.5l-2.1-6.2
			c-0.3-0.7-0.5-1.3-0.8-1.9c-0.3-0.5-0.6-0.9-0.9-1.3s-0.7-0.6-1.1-0.8c-0.4-0.2-1-0.2-1.6-0.2h-2v10.5c0,0.2-0.1,0.3-0.2,0.5
			c-0.1,0.1-0.3,0.2-0.6,0.3c-0.3,0.1-0.6,0.1-1.1,0.2c-0.5,0-1,0.1-1.7,0.1c-0.7,0-1.3,0-1.7-0.1c-0.5,0-0.8-0.1-1.1-0.2
			c-0.3-0.1-0.4-0.2-0.6-0.3c-0.1-0.1-0.2-0.3-0.2-0.5V301c0-0.7,0.2-1.2,0.6-1.5c0.4-0.3,0.8-0.5,1.4-0.5h9.3
			c1.8,0,3.4,0.2,4.7,0.5c1.3,0.3,2.4,0.8,3.4,1.4s1.7,1.5,2.2,2.5s0.8,2.2,0.8,3.6c0,1-0.1,1.9-0.4,2.7c-0.2,0.8-0.6,1.5-1.1,2.2
			c-0.5,0.6-1.1,1.2-1.8,1.7c-0.7,0.5-1.5,0.9-2.5,1.2c0.5,0.2,0.9,0.4,1.3,0.7c0.4,0.3,0.7,0.6,1.1,1c0.3,0.4,0.7,0.9,1,1.4
			c0.3,0.6,0.6,1.2,0.9,1.9l2.3,5.9c0.2,0.5,0.3,0.9,0.4,1.2C186.6,327.1,186.7,327.3,186.7,327.4z M178,307.7c0-0.5-0.1-1-0.2-1.4
			c-0.2-0.4-0.4-0.8-0.7-1.1c-0.3-0.3-0.8-0.6-1.3-0.7c-0.5-0.2-1.3-0.3-2.3-0.3h-3.2v7.5h3c0.9,0,1.7-0.1,2.2-0.3
			c0.6-0.2,1-0.4,1.4-0.8c0.4-0.3,0.7-0.7,0.9-1.2C177.9,308.9,178,308.4,178,307.7z"/>
		<path class="st5" d="M219.5,316.6c0,2.1-0.3,3.9-0.8,5.3s-1.4,2.6-2.5,3.6c-1.1,1-2.4,1.7-4,2.3c-1.6,0.5-3.4,0.8-5.5,0.8
			c-2,0-3.8-0.2-5.3-0.7c-1.6-0.5-2.9-1.2-4-2.1c-1.1-0.9-1.9-2.1-2.5-3.5c-0.6-1.4-0.8-3.3-0.8-5.6v-16.8c0-0.2,0.1-0.3,0.2-0.4
			c0.1-0.1,0.3-0.2,0.6-0.3c0.3-0.1,0.6-0.1,1.1-0.2c0.5,0,1-0.1,1.7-0.1c0.7,0,1.3,0,1.7,0.1c0.5,0,0.8,0.1,1.1,0.2
			c0.3,0.1,0.5,0.2,0.6,0.3c0.1,0.1,0.2,0.3,0.2,0.4v16.4c0,1.5,0.1,2.6,0.4,3.4s0.7,1.4,1.2,1.9c0.5,0.5,1.1,0.9,1.9,1.1
			c0.7,0.2,1.5,0.4,2.3,0.4s1.6-0.1,2.3-0.4c0.7-0.3,1.3-0.6,1.8-1.1c0.5-0.5,0.9-1.1,1.1-1.8c0.3-0.7,0.4-1.7,0.4-3.1v-16.7
			c0-0.2,0-0.3,0.1-0.4s0.3-0.2,0.6-0.3c0.3-0.1,0.6-0.1,1.1-0.2c0.4,0,1-0.1,1.7-0.1c0.7,0,1.3,0,1.8,0.1c0.4,0,0.8,0.1,1,0.2
			c0.3,0.1,0.4,0.2,0.5,0.3s0.1,0.3,0.1,0.4V316.6z"/>
		<path class="st5" d="M247.5,325.3c0,0.5,0,0.9-0.1,1.2c0,0.3-0.1,0.6-0.2,0.8c-0.1,0.2-0.2,0.4-0.3,0.4c-0.1,0.1-0.2,0.1-0.4,0.1
			H231c-0.5,0-1-0.2-1.4-0.5c-0.4-0.3-0.6-0.8-0.6-1.5V301c0-0.7,0.2-1.2,0.6-1.5c0.4-0.3,0.8-0.5,1.4-0.5h15.5c0.1,0,0.3,0,0.4,0.1
			c0.1,0.1,0.2,0.2,0.3,0.4c0.1,0.2,0.1,0.5,0.2,0.8c0,0.3,0.1,0.8,0.1,1.3c0,0.5,0,0.9-0.1,1.2c0,0.3-0.1,0.6-0.2,0.8
			c-0.1,0.2-0.2,0.4-0.3,0.4c-0.1,0.1-0.2,0.1-0.4,0.1H236v6.2h8.8c0.1,0,0.3,0,0.4,0.1c0.1,0.1,0.2,0.2,0.3,0.4
			c0.1,0.2,0.1,0.5,0.2,0.8c0,0.3,0.1,0.8,0.1,1.3c0,0.5,0,0.9-0.1,1.2c0,0.3-0.1,0.6-0.2,0.8c-0.1,0.2-0.2,0.3-0.3,0.4
			c-0.1,0.1-0.3,0.1-0.4,0.1H236v7h10.5c0.1,0,0.3,0,0.4,0.1c0.1,0.1,0.2,0.2,0.3,0.4c0.1,0.2,0.1,0.5,0.2,0.8
			C247.5,324.4,247.5,324.8,247.5,325.3z"/>
		<path class="st5" d="M279.8,319.2c0,1.1-0.2,2.1-0.5,2.9c-0.3,0.9-0.8,1.6-1.3,2.3c-0.6,0.7-1.2,1.2-2,1.7
			c-0.8,0.5-1.6,0.8-2.5,1.1c-0.9,0.3-1.9,0.5-2.9,0.6c-1,0.1-2.2,0.2-3.5,0.2H258c-0.5,0-1-0.2-1.4-0.5c-0.4-0.3-0.6-0.8-0.6-1.5
			V301c0-0.7,0.2-1.2,0.6-1.5c0.4-0.3,0.8-0.5,1.4-0.5h9.2c1.8,0,3.4,0.1,4.7,0.4c1.3,0.3,2.4,0.7,3.3,1.3c0.9,0.6,1.6,1.4,2.1,2.3
			c0.5,0.9,0.7,2,0.7,3.3c0,0.7-0.1,1.4-0.3,2s-0.5,1.2-0.8,1.7c-0.4,0.5-0.8,1-1.3,1.3c-0.5,0.4-1.1,0.7-1.8,0.9
			c0.9,0.1,1.6,0.4,2.4,0.7s1.4,0.8,1.9,1.4c0.5,0.6,1,1.2,1.3,2S279.8,318.2,279.8,319.2z M271,307.4c0-0.5-0.1-1-0.2-1.4
			c-0.2-0.4-0.4-0.8-0.8-1.1s-0.8-0.5-1.3-0.7c-0.5-0.1-1.2-0.2-2.1-0.2h-3.8v6.9h4c0.9,0,1.5-0.1,2-0.3c0.5-0.2,0.9-0.4,1.2-0.8
			c0.3-0.3,0.5-0.7,0.7-1.1C270.9,308.3,271,307.8,271,307.4z M272.3,319.3c0-0.6-0.1-1.1-0.3-1.6s-0.5-0.9-0.9-1.2
			c-0.4-0.3-0.9-0.6-1.5-0.7c-0.6-0.2-1.5-0.3-2.5-0.3h-4.2v7.4h4.9c0.9,0,1.5-0.1,2.1-0.2c0.5-0.2,1-0.4,1.3-0.7
			c0.4-0.3,0.7-0.7,0.9-1.1C272.2,320.4,272.3,319.9,272.3,319.3z"/>
		<path class="st5" d="M312.5,325.4c0.2,0.6,0.3,1.1,0.4,1.5s0,0.6-0.2,0.8c-0.2,0.2-0.6,0.3-1.1,0.4c-0.5,0-1.3,0.1-2.3,0.1
			c-0.9,0-1.6,0-2.1,0c-0.5,0-0.9-0.1-1.1-0.1c-0.3-0.1-0.4-0.2-0.5-0.3c-0.1-0.1-0.2-0.3-0.3-0.6l-1.8-5.2h-11.2l-1.7,5
			c-0.1,0.3-0.2,0.5-0.3,0.6s-0.3,0.3-0.6,0.4c-0.3,0.1-0.6,0.1-1.1,0.2c-0.5,0-1.1,0-1.9,0c-0.8,0-1.4,0-1.9-0.1
			c-0.4-0.1-0.8-0.2-0.9-0.4c-0.2-0.2-0.2-0.5-0.2-0.9c0.1-0.4,0.2-0.9,0.4-1.5l9.1-25.1c0.1-0.3,0.2-0.5,0.4-0.7
			c0.2-0.2,0.4-0.3,0.7-0.4c0.3-0.1,0.8-0.2,1.3-0.2c0.6,0,1.3-0.1,2.2-0.1c0.7,0,1.4,0,1.9,0c0.5,0,1,0,1.4,0.1s0.7,0.1,0.9,0.1
			c0.2,0.1,0.4,0.1,0.6,0.3s0.3,0.2,0.4,0.4c0.1,0.2,0.2,0.3,0.2,0.6L312.5,325.4z M298,304.8L298,304.8l-4,11.9h8L298,304.8z"/>
		<path class="st5" d="M136.1,358.6c0,1.7-0.3,3.2-0.8,4.5c-0.5,1.3-1.3,2.4-2.3,3.2c-1,0.9-2.3,1.5-3.8,1.9
			c-1.5,0.4-3.3,0.7-5.4,0.7H121v8.8c0,0.2-0.1,0.3-0.2,0.5c-0.1,0.1-0.3,0.2-0.6,0.3s-0.6,0.1-1.1,0.2c-0.5,0-1,0.1-1.7,0.1
			c-0.7,0-1.3,0-1.7-0.1c-0.5,0-0.8-0.1-1.1-0.2c-0.3-0.1-0.4-0.2-0.6-0.3c-0.1-0.1-0.2-0.3-0.2-0.5V352c0-0.7,0.2-1.3,0.6-1.7
			c0.4-0.4,1-0.6,1.7-0.6h8.2c0.7,0,1.4,0,2.1,0.1c0.7,0.1,1.4,0.1,2,0.3c1.2,0.2,2.3,0.5,3.2,1c0.9,0.5,1.7,1.1,2.4,1.8
			s1.2,1.6,1.5,2.5C136,356.3,136.1,357.4,136.1,358.6z M128.8,359.1c0-1-0.2-1.9-0.7-2.6c-0.4-0.7-1.1-1.2-1.9-1.5
			c-0.3-0.1-0.7-0.2-1.1-0.2s-0.8-0.1-1.3-0.1H121v9h3.2c0.9,0,1.7-0.1,2.2-0.4c0.5-0.2,1-0.6,1.4-1s0.6-0.9,0.8-1.5
			C128.7,360.4,128.8,359.8,128.8,359.1z"/>
		<path class="st5" d="M167.5,378.1c0,0.1-0.1,0.2-0.2,0.3c-0.1,0.1-0.3,0.2-0.6,0.2c-0.3,0-0.7,0.1-1.2,0.1c-0.5,0-1.2,0-2,0
			c-0.8,0-1.4,0-1.9-0.1c-0.5,0-0.9-0.1-1.1-0.2c-0.3-0.1-0.5-0.2-0.6-0.4c-0.1-0.1-0.2-0.3-0.3-0.5l-2.1-6.2
			c-0.3-0.7-0.5-1.3-0.8-1.9c-0.3-0.5-0.6-0.9-0.9-1.3s-0.7-0.6-1.1-0.8s-1-0.2-1.6-0.2h-2v10.5c0,0.2-0.1,0.3-0.2,0.5
			c-0.1,0.1-0.3,0.2-0.6,0.3s-0.6,0.1-1.1,0.2c-0.5,0-1,0.1-1.7,0.1c-0.7,0-1.3,0-1.7-0.1c-0.5,0-0.8-0.1-1.1-0.2
			c-0.3-0.1-0.4-0.2-0.6-0.3c-0.1-0.1-0.2-0.3-0.2-0.5v-26.1c0-0.7,0.2-1.2,0.6-1.5s0.8-0.5,1.4-0.5h9.3c1.8,0,3.4,0.2,4.7,0.5
			s2.4,0.8,3.4,1.4s1.7,1.5,2.2,2.5c0.5,1,0.8,2.2,0.8,3.6c0,1-0.1,1.9-0.4,2.7c-0.2,0.8-0.6,1.5-1.1,2.2c-0.5,0.6-1.1,1.2-1.8,1.7
			c-0.7,0.5-1.5,0.9-2.5,1.2c0.5,0.2,0.9,0.4,1.3,0.7c0.4,0.3,0.7,0.6,1.1,1s0.7,0.9,1,1.4c0.3,0.6,0.6,1.2,0.9,1.9l2.3,5.9
			c0.2,0.5,0.3,0.9,0.4,1.2C167.4,377.7,167.5,377.9,167.5,378.1z M158.8,358.4c0-0.5-0.1-1-0.2-1.4c-0.2-0.4-0.4-0.8-0.7-1.1
			c-0.3-0.3-0.8-0.6-1.3-0.7s-1.3-0.3-2.3-0.3H151v7.5h3c0.9,0,1.7-0.1,2.2-0.3c0.6-0.2,1-0.4,1.4-0.8c0.4-0.3,0.7-0.7,0.9-1.2
			S158.8,359,158.8,358.4z"/>
		<path class="st5" d="M199.9,376c0.2,0.6,0.3,1.1,0.4,1.5c0.1,0.4,0,0.6-0.2,0.8c-0.2,0.2-0.6,0.3-1.1,0.4c-0.5,0-1.3,0.1-2.3,0.1
			c-0.9,0-1.6,0-2.1,0c-0.5,0-0.9-0.1-1.1-0.1c-0.3-0.1-0.4-0.2-0.5-0.3c-0.1-0.1-0.2-0.3-0.3-0.6l-1.8-5.2h-11.2l-1.7,5
			c-0.1,0.3-0.2,0.5-0.3,0.6c-0.1,0.2-0.3,0.3-0.6,0.4c-0.3,0.1-0.6,0.1-1.1,0.2c-0.5,0-1.1,0-1.9,0c-0.8,0-1.4,0-1.9-0.1
			c-0.4-0.1-0.8-0.2-0.9-0.4c-0.2-0.2-0.2-0.5-0.2-0.9s0.2-0.9,0.4-1.5l9.1-25.1c0.1-0.3,0.2-0.5,0.4-0.7c0.2-0.2,0.4-0.3,0.7-0.4
			c0.3-0.1,0.8-0.2,1.3-0.2c0.6,0,1.3-0.1,2.2-0.1c0.7,0,1.4,0,1.9,0c0.5,0,1,0,1.4,0.1c0.4,0,0.7,0.1,0.9,0.1
			c0.2,0.1,0.4,0.1,0.6,0.3c0.2,0.1,0.3,0.2,0.4,0.4c0.1,0.2,0.2,0.3,0.2,0.6L199.9,376z M185.4,355.4L185.4,355.4l-4,11.9h8
			L185.4,355.4z M187.6,339.2c0.2-0.2,0.3-0.4,0.5-0.6c0.2-0.2,0.4-0.3,0.7-0.4c0.3-0.1,0.7-0.1,1.1-0.2c0.4,0,1,0,1.6,0
			c0.8,0,1.5,0,2,0.1s0.8,0.2,1,0.4c0.2,0.2,0.3,0.3,0.2,0.5c-0.1,0.2-0.2,0.4-0.4,0.6l-5.7,5.9c-0.1,0.2-0.3,0.3-0.5,0.4
			c-0.2,0.1-0.4,0.2-0.6,0.3c-0.2,0.1-0.5,0.1-0.9,0.2c-0.4,0-0.8,0.1-1.4,0.1c-0.6,0-1.1,0-1.5-0.1c-0.4-0.1-0.6-0.1-0.8-0.3
			c-0.1-0.1-0.2-0.3-0.2-0.4c0-0.2,0.1-0.4,0.3-0.7L187.6,339.2z"/>
		<path class="st5" d="M226.7,374.1c0,0.7,0,1.3-0.1,1.8c-0.1,0.4-0.3,0.8-0.5,1s-0.6,0.5-1.1,0.8c-0.5,0.3-1,0.5-1.7,0.7
			c-0.7,0.2-1.4,0.4-2.2,0.5s-1.7,0.2-2.7,0.2c-2.1,0-4-0.3-5.8-0.9c-1.7-0.6-3.2-1.5-4.4-2.8c-1.2-1.2-2.2-2.8-2.8-4.6
			c-0.7-1.9-1-4-1-6.5c0-2.5,0.3-4.7,1-6.6c0.7-1.9,1.7-3.5,2.9-4.8c1.2-1.3,2.7-2.3,4.5-2.9c1.7-0.7,3.7-1,5.8-1
			c0.8,0,1.5,0.1,2.3,0.2c0.8,0.1,1.5,0.3,2.1,0.5c0.6,0.2,1.2,0.4,1.7,0.7c0.5,0.3,0.9,0.5,1.1,0.8c0.3,0.3,0.4,0.6,0.5,1
			c0.1,0.4,0.2,1.1,0.2,2c0,0.5,0,1-0.1,1.3c0,0.3-0.1,0.6-0.2,0.8c-0.1,0.2-0.2,0.4-0.3,0.5c-0.1,0.1-0.2,0.1-0.4,0.1
			c-0.2,0-0.5-0.1-0.8-0.4c-0.3-0.2-0.8-0.5-1.3-0.8s-1.2-0.6-1.9-0.8c-0.7-0.2-1.6-0.4-2.7-0.4c-1.1,0-2.1,0.2-3,0.7
			c-0.9,0.4-1.6,1.1-2.2,1.9s-1,1.8-1.3,2.9s-0.5,2.4-0.5,3.8c0,1.6,0.2,3,0.5,4.2c0.4,1.2,0.9,2.2,1.5,2.9c0.7,0.8,1.5,1.3,2.4,1.7
			c0.9,0.4,1.9,0.5,3.1,0.5c0.9,0,1.8-0.1,2.5-0.3c0.7-0.2,1.3-0.5,1.8-0.7c0.5-0.3,0.9-0.5,1.3-0.7c0.4-0.2,0.6-0.3,0.9-0.3
			c0.1,0,0.2,0,0.3,0.1c0.1,0.1,0.2,0.2,0.2,0.4s0.1,0.5,0.1,0.9C226.7,373,226.7,373.5,226.7,374.1z"/>
		<path class="st5" d="M254.4,352.4c0,1-0.1,1.7-0.2,2.1c-0.2,0.4-0.4,0.6-0.7,0.6h-6.9v22.6c0,0.2-0.1,0.3-0.2,0.5
			s-0.3,0.2-0.6,0.3c-0.3,0.1-0.6,0.1-1.1,0.2c-0.5,0-1,0.1-1.7,0.1c-0.7,0-1.3,0-1.7-0.1c-0.4,0-0.8-0.1-1.1-0.2
			c-0.3-0.1-0.5-0.2-0.6-0.3s-0.2-0.3-0.2-0.5v-22.6h-6.9c-0.1,0-0.3,0-0.4-0.1s-0.2-0.2-0.3-0.5c-0.1-0.2-0.1-0.5-0.2-0.9
			c0-0.4-0.1-0.8-0.1-1.3c0-0.5,0-1,0.1-1.3c0-0.4,0.1-0.6,0.2-0.8c0.1-0.2,0.2-0.4,0.3-0.4s0.2-0.1,0.4-0.1h21c0.1,0,0.3,0,0.4,0.1
			c0.1,0.1,0.2,0.2,0.3,0.4c0.1,0.2,0.1,0.5,0.2,0.8C254.4,351.5,254.4,351.9,254.4,352.4z"/>
		<path class="st5" d="M268.1,377.7c0,0.2-0.1,0.3-0.2,0.5c-0.1,0.1-0.3,0.2-0.6,0.3c-0.3,0.1-0.6,0.1-1.1,0.2c-0.5,0-1,0.1-1.7,0.1
			c-0.7,0-1.3,0-1.7-0.1c-0.5,0-0.8-0.1-1.1-0.2c-0.3-0.1-0.5-0.2-0.6-0.3c-0.1-0.1-0.2-0.3-0.2-0.5v-27.3c0-0.2,0.1-0.3,0.2-0.4
			s0.3-0.2,0.6-0.3c0.3-0.1,0.6-0.1,1.1-0.2c0.5,0,1-0.1,1.7-0.1c0.7,0,1.2,0,1.7,0.1c0.5,0,0.8,0.1,1.1,0.2
			c0.3,0.1,0.5,0.2,0.6,0.3c0.1,0.1,0.2,0.3,0.2,0.4V377.7z"/>
		<path class="st5" d="M298.7,374.1c0,0.7,0,1.3-0.1,1.8c-0.1,0.4-0.3,0.8-0.5,1s-0.6,0.5-1.1,0.8c-0.5,0.3-1,0.5-1.7,0.7
			c-0.7,0.2-1.4,0.4-2.2,0.5s-1.7,0.2-2.7,0.2c-2.1,0-4-0.3-5.8-0.9c-1.7-0.6-3.2-1.5-4.4-2.8c-1.2-1.2-2.2-2.8-2.8-4.6
			c-0.7-1.9-1-4-1-6.5c0-2.5,0.3-4.7,1-6.6c0.7-1.9,1.7-3.5,2.9-4.8c1.2-1.3,2.7-2.3,4.5-2.9c1.7-0.7,3.7-1,5.8-1
			c0.8,0,1.5,0.1,2.3,0.2c0.8,0.1,1.5,0.3,2.1,0.5c0.6,0.2,1.2,0.4,1.7,0.7c0.5,0.3,0.9,0.5,1.1,0.8c0.3,0.3,0.4,0.6,0.5,1
			c0.1,0.4,0.2,1.1,0.2,2c0,0.5,0,1-0.1,1.3c0,0.3-0.1,0.6-0.2,0.8c-0.1,0.2-0.2,0.4-0.3,0.5c-0.1,0.1-0.2,0.1-0.4,0.1
			c-0.2,0-0.5-0.1-0.8-0.4c-0.3-0.2-0.8-0.5-1.3-0.8s-1.2-0.6-1.9-0.8c-0.7-0.2-1.6-0.4-2.7-0.4c-1.1,0-2.1,0.2-3,0.7
			c-0.9,0.4-1.6,1.1-2.2,1.9s-1,1.8-1.3,2.9s-0.5,2.4-0.5,3.8c0,1.6,0.2,3,0.5,4.2c0.4,1.2,0.9,2.2,1.5,2.9c0.7,0.8,1.5,1.3,2.4,1.7
			c0.9,0.4,1.9,0.5,3.1,0.5c0.9,0,1.8-0.1,2.5-0.3c0.7-0.2,1.3-0.5,1.8-0.7c0.5-0.3,0.9-0.5,1.3-0.7c0.4-0.2,0.6-0.3,0.9-0.3
			c0.1,0,0.2,0,0.3,0.1c0.1,0.1,0.2,0.2,0.2,0.4s0.1,0.5,0.1,0.9C298.7,373,298.7,373.5,298.7,374.1z"/>
		<path class="st5" d="M331.7,376c0.2,0.6,0.3,1.1,0.4,1.5c0.1,0.4,0,0.6-0.2,0.8c-0.2,0.2-0.6,0.3-1.1,0.4c-0.5,0-1.3,0.1-2.3,0.1
			c-0.9,0-1.6,0-2.1,0c-0.5,0-0.9-0.1-1.1-0.1c-0.3-0.1-0.4-0.2-0.5-0.3c-0.1-0.1-0.2-0.3-0.3-0.6l-1.8-5.2h-11.2l-1.7,5
			c-0.1,0.3-0.2,0.5-0.3,0.6c-0.1,0.2-0.3,0.3-0.6,0.4c-0.3,0.1-0.6,0.1-1.1,0.2c-0.5,0-1.1,0-1.9,0c-0.8,0-1.4,0-1.9-0.1
			c-0.4-0.1-0.8-0.2-0.9-0.4c-0.2-0.2-0.2-0.5-0.2-0.9s0.2-0.9,0.4-1.5l9.1-25.1c0.1-0.3,0.2-0.5,0.4-0.7c0.2-0.2,0.4-0.3,0.7-0.4
			c0.3-0.1,0.8-0.2,1.3-0.2c0.6,0,1.3-0.1,2.2-0.1c0.7,0,1.4,0,1.9,0c0.5,0,1,0,1.4,0.1c0.4,0,0.7,0.1,0.9,0.1
			c0.2,0.1,0.4,0.1,0.6,0.3c0.2,0.1,0.3,0.2,0.4,0.4c0.1,0.2,0.2,0.3,0.2,0.6L331.7,376z M317.2,355.4L317.2,355.4l-4,11.9h8
			L317.2,355.4z"/>
	</g>
	<g>
		<g>
			<path class="st2" d="M249.7,214h-39.2c-2,0-3.7,1.6-3.7,3.7c0,2,1.6,3.7,3.7,3.7h11.3v1.1c0,3.4,2.8,6.2,6.2,6.2h4.2
				c3.4,0,6.2-2.8,6.2-6.2v-1.1h11.3c2,0,3.7-1.6,3.7-3.7C253.4,215.6,251.7,214,249.7,214z"/>
			<path class="st2" d="M257.3,129.7c-8.6-7.7-20.2-11.4-31.8-10.1c-18.3,2-33.4,16.8-35.7,35c-1.7,13.4,2.9,26.3,12.7,35.3
				c5.2,4.8,7.3,8.9,7.3,14.3v1.3c0,1.8,1.4,3.2,3.2,3.2h34.3c1.8,0,3.2-1.4,3.2-3.2v-1.4c0-5.3,2.1-9.5,7.2-14.2
				c8.3-7.7,13.1-18.6,13.1-29.9C270.8,148.5,265.9,137.5,257.3,129.7z M225.9,185.5l-13.7-13.7l6.4-6.9l6.8,6.8l23-23l7.1,7.1
				L225.9,185.5z"/>
		</g>
	</g>
</g>
</svg>
